<?xml version="1.0" encoding="UTF-8"?>
<svg id="pictos" xmlns="http://www.w3.org/2000/svg" viewBox="0 0 128 128">
  <defs>
    <style>
      .cls-1 {
        stroke: #1d1d1b;
      }

      .cls-1, .cls-2, .cls-3, .cls-4 {
        stroke-miterlimit: 10;
      }

      .cls-1, .cls-3 {
        stroke-linecap: round;
      }

      .cls-1, .cls-5 {
        fill: #fff;
      }

      .cls-1, .cls-4 {
        stroke-width: 2px;
      }

      .cls-2 {
        stroke-width: 1.45px;
      }

      .cls-2, .cls-3, .cls-4 {
        fill: none;
        stroke: #000;
      }

      .cls-3 {
        stroke-width: 1.42px;
      }
    </style>
  </defs>
  <rect class="cls-4" x="71.39" y="28.39" width="25.33" height="25.33" rx="2.03" ry="2.03"/>
  <rect class="cls-2" x="80.29" y="34.6" width="7.24" height="12.3"/>
  <line class="cls-2" x1="87.53" y1="40.39" x2="80.29" y2="40.39"/>
  <g>
    <path class="cls-3" d="M71.86,88.29l-1.21-1.29c-.99-1.05-2.33-1.64-3.73-1.64h-22.59c-1.2,0-2.36.43-3.29,1.23l-1.31,1.21v3.9"/>
    <path class="cls-3" d="M38.48,87.28c-2.72,0-5.32,0-8.19,0-.83,0-1.5-.71-1.5-1.59h0c0-.58.3-1.12.78-1.4,3.42-1.94,6.43-1.9,9.64-.01.47.28.77.82.77,1.39v.02c0,.88-.67,1.59-1.5,1.59Z"/>
    <path d="M28.94,103.4s0,0,0,0h0v-6.39h42.09v6.4h2.75v-19.04c0-.81-.62-1.46-1.38-1.46s-1.38.65-1.38,1.46v6.68H28.94v-12.25c0-.81-.62-1.46-1.38-1.46s-1.38.65-1.38,1.46v8.49s0,6.74,0,6.74v9.37s0,0,0,0h2.75Z"/>
  </g>
  <g>
    <rect x="26.2" y="28.12" width="37.9" height="45.52" rx="3.32" ry="3.32"/>
    <path class="cls-5" d="M49.74,40.69c0-2.7,1.6-5.03,3.9-6.09.64-.3.56-1.26-.12-1.45-.97-.27-2.02-.36-3.11-.23-3.56.45-6.41,3.36-6.78,6.92-.49,4.7,3.18,8.67,7.79,8.67.73,0,1.43-.1,2.1-.29s.77-1.15.13-1.45c-2.3-1.06-3.9-3.39-3.9-6.09Z"/>
    <path class="cls-5" d="M36.11,50.6l-1.29,1.04.48,1.59c.09.29-.24.54-.5.37l-1.39-.91-1.36.94c-.25.17-.59-.06-.5-.36l.44-1.6-1.32-1.01c-.24-.19-.12-.58.18-.59l1.66-.08.55-1.57c.1-.29.51-.29.62,0l.59,1.55,1.66.04c.31,0,.44.39.2.59Z"/>
    <path class="cls-5" d="M47.36,60.03l-1.01.81.37,1.24c.07.23-.19.42-.39.29l-1.09-.71-1.07.74c-.2.14-.46-.05-.4-.28l.34-1.25-1.03-.79c-.19-.15-.1-.45.14-.46l1.3-.06.43-1.23c.08-.23.4-.23.48,0l.46,1.21,1.3.03c.24,0,.34.31.16.46Z"/>
    <path class="cls-5" d="M34.96,33.9l-.64.52.24.79c.04.15-.12.27-.25.18l-.69-.45-.68.47c-.13.09-.29-.03-.25-.18l.22-.8-.66-.5c-.12-.09-.06-.29.09-.29l.83-.04.27-.78c.05-.14.25-.15.31,0l.29.77.83.02c.15,0,.22.2.1.29Z"/>
    <path class="cls-5" d="M37.57,63.43l-.64.52.24.79c.04.15-.12.27-.25.18l-.69-.45-.68.47c-.13.09-.29-.03-.25-.18l.22-.8-.66-.5c-.12-.09-.06-.29.09-.29l.83-.04.27-.78c.05-.14.25-.15.31,0l.29.77.83.02c.15,0,.22.2.1.29Z"/>
    <path class="cls-5" d="M56.03,65.95l-.64.52.24.79c.04.15-.12.27-.25.18l-.69-.45-.68.47c-.13.09-.29-.03-.25-.18l.22-.8-.66-.5c-.12-.09-.06-.29.09-.29l.83-.04.27-.78c.05-.14.25-.15.31,0l.29.77.83.02c.15,0,.22.2.1.29Z"/>
    <path class="cls-5" d="M61.22,57.86l-.64.52.24.79c.04.15-.12.27-.25.18l-.69-.45-.68.47c-.13.09-.29-.03-.25-.18l.22-.8-.66-.5c-.12-.09-.06-.29.09-.29l.83-.04.27-.78c.05-.14.25-.15.31,0l.29.77.83.02c.15,0,.22.2.1.29Z"/>
  </g>
  <g>
    <path class="cls-1" d="M83.16,77.31c1.7-1.93,1.63-6.73,1.61-8.22-.02-1.76-.56-21.59-.56-21.59.1-4.37,5.65-4.47,5.79-.25l.97,18.2,1.5-.19.18-1.71c.26-3.84,6-4.24,6.15-.11l.06,1.75,2.02.31.35-1.6c.72-3.53,5.97-2.63,5.33,1.29l-.19,1.32,1.67.6s.2-.38.34-.69c1.15-2.67,5.14-1.42,4.7,2.32l-.11,1.16s-1.23,13.89-5.93,20.14c-2.21,2.95-1.7,3.57-1.49,8.01l-22.42,7.44"/>
    <path class="cls-1" d="M86.64,103.62v-5.06c-.03-2.12-.55-6.51-2.27-7.75-4.86-3.51-4.75-4.96-7.27-11.56-.1-.85,1.72-8.66,2.65-9.37.94-.7,3.16-.87,4.34-.87"/>
  </g>
</svg>