<?xml version="1.0" encoding="UTF-8"?>
<svg id="pictos" xmlns="http://www.w3.org/2000/svg" viewBox="0 0 128 128">
  <defs>
    <style>
      .cls-1 {
        stroke: #1d1d1b;
        stroke-linecap: round;
        stroke-width: 2px;
      }

      .cls-1, .cls-2 {
        fill: #fff;
      }

      .cls-1, .cls-3 {
        stroke-miterlimit: 10;
      }

      .cls-3 {
        fill: none;
        stroke: #000;
        stroke-width: 2.08px;
      }
    </style>
  </defs>
  <g>
    <rect x="63.35" y="9.98" width="45.27" height="54.56" rx="3.98" ry="3.98" transform="translate(123.24 -48.73) rotate(90)"/>
    <path class="cls-2" d="M89.92,30.65c0-3.24,1.91-6.03,4.66-7.3.77-.36.67-1.51-.15-1.74-1.16-.33-2.41-.44-3.71-.27-4.25.54-7.65,4.02-8.1,8.3-.59,5.64,3.8,10.4,9.3,10.4.87,0,1.71-.12,2.51-.35s.92-1.38.15-1.74c-2.75-1.27-4.66-4.06-4.66-7.3Z"/>
    <path class="cls-2" d="M102.61,51.19l-1.25-1.55-1.91.57c-.35.11-.64-.29-.44-.59l1.09-1.66-1.13-1.63c-.21-.3.07-.7.43-.6l1.92.52,1.21-1.58c.22-.29.69-.15.71.22l.1,1.98,1.88.65c.35.12.35.61,0,.74l-1.86.7-.05,1.98c0,.37-.47.52-.7.24Z"/>
    <path class="cls-2" d="M75.02,39.89l-.98-1.21-1.49.45c-.28.08-.5-.22-.35-.46l.85-1.3-.89-1.27c-.16-.24.06-.55.33-.47l1.5.41.95-1.24c.17-.23.54-.11.55.17l.08,1.55,1.47.51c.27.09.28.48,0,.58l-1.45.55-.04,1.55c0,.29-.37.41-.55.19Z"/>
    <path class="cls-2" d="M106.35,25.08l-.62-.77-.95.28c-.18.05-.32-.14-.22-.3l.54-.83-.56-.81c-.1-.15.04-.35.21-.3l.96.26.6-.79c.11-.15.34-.07.35.11l.05.99.93.33c.17.06.18.3,0,.37l-.93.35-.02.99c0,.18-.23.26-.35.12Z"/>
    <path class="cls-2" d="M70.94,28.2l-.62-.77-.95.28c-.18.05-.32-.14-.22-.3l.54-.83-.56-.81c-.1-.15.04-.35.21-.3l.96.26.6-.79c.11-.15.34-.07.35.11l.05.99.93.33c.17.06.18.3,0,.37l-.93.35-.02.99c0,.18-.23.26-.35.12Z"/>
    <path class="cls-2" d="M67.92,50.25l-.62-.77-.95.28c-.18.05-.32-.14-.22-.3l.54-.83-.56-.81c-.1-.15.04-.35.21-.3l.96.26.6-.79c.11-.15.34-.07.35.11l.05.99.93.33c.17.06.18.3,0,.37l-.93.35-.02.99c0,.18-.23.26-.35.12Z"/>
    <path class="cls-2" d="M81.88,53.94l-.62-.77-.95.28c-.18.05-.32-.14-.22-.3l.54-.83-.56-.81c-.1-.15.04-.35.21-.3l.96.26.6-.79c.11-.15.34-.07.35.11l.05.99.93.33c.17.06.18.3,0,.37l-.93.35-.02.99c0,.18-.23.26-.35.12Z"/>
  </g>
  <path d="M29.69,37.5c0-1.47.54-2.69,1.61-3.68.25-.24.51-.48.79-.67.33-.22.59-.16.86.13.46.5.46,1.15-.02,1.69-.77.88-1.18,1.87-1.11,3.06.09,1.49,1.79,3.11,3.28,3.14,1.42.03,2.56-.54,3.35-1.66.87-1.23.9-3.19-.53-4.58-.62-.6-.63-1.08-.12-1.76.19-.25.42-.35.71-.2.14.07.29.15.41.25,1.38,1.23,2.35,2.69,2.23,4.62-.15,2.36-1.36,4-3.53,4.96-2.97,1.3-7.03-.4-7.78-3.95-.09-.43-.11-.89-.16-1.33Z"/>
  <path d="M34.44,34.34c0-.89,0-1.79,0-2.68,0-.7.33-1.14.88-1.17.64-.04,1.17.4,1.21,1.09.06.97.06,1.93.08,2.9.02.84.04,1.69.05,2.53,0,.52-.22.92-.66,1.17-.39.22-.79.14-1.15-.13-.31-.24-.4-.58-.41-.95,0-.92,0-1.84,0-2.76h0Z"/>
  <rect class="cls-3" x="26.8" y="28.53" width="16.96" height="16.96" rx="4.84" ry="4.84"/>
  <g>
    <path class="cls-1" d="M32.3,85.31c1.81-2.06,1.74-7.18,1.72-8.78-.02-1.88-.59-23.04-.59-23.04.11-4.66,6.02-4.76,6.18-.26l1.03,19.42,1.6-.21.19-1.82c.28-4.1,6.4-4.52,6.56-.12l.06,1.87,2.16.33.38-1.71c.77-3.77,6.37-2.81,5.69,1.37l-.2,1.41,1.78.64s.22-.41.36-.74c1.23-2.85,5.48-1.51,5.01,2.47l-.11,1.24s-1.31,14.82-6.33,21.49c-2.36,3.14-1.81,3.8-1.59,8.55l-23.92,7.94"/>
    <path class="cls-1" d="M36.01,113.39v-5.4c-.04-2.26-.59-6.94-2.43-8.27-5.18-3.75-5.07-5.29-7.76-12.34-.11-.91,1.83-9.24,2.83-9.99,1-.75,3.37-.93,4.63-.93"/>
  </g>
</svg>