<?xml version="1.0" encoding="UTF-8"?>
<svg id="pictos" xmlns="http://www.w3.org/2000/svg" viewBox="0 0 128 128">
  <defs>
    <style>
      .cls-1 {
        stroke-linecap: round;
        stroke-width: 1.73px;
      }

      .cls-1, .cls-2, .cls-3, .cls-4, .cls-5 {
        stroke-miterlimit: 10;
      }

      .cls-1, .cls-4 {
        stroke: #fff;
      }

      .cls-1, .cls-5 {
        fill: none;
      }

      .cls-2 {
        stroke-width: 1.89px;
      }

      .cls-2, .cls-6, .cls-3 {
        fill: #fff;
      }

      .cls-2, .cls-3, .cls-5 {
        stroke: #000;
      }

      .cls-3, .cls-5 {
        stroke-width: 2px;
      }
    </style>
  </defs>
  <rect class="cls-3" x="84.01" y="33.63" width="22.86" height="42.42" rx="3.85" ry="3.85"/>
  <rect x="21.91" y="16.56" width="54.7" height="29.52" rx=".82" ry=".82"/>
  <rect x="86.5" y="36.66" width="17.49" height="36.43" rx="1.32" ry="1.32"/>
  <path class="cls-5" d="M77.13,13.09H21.32c-1.69,0-3.06,1.36-3.06,3.04v30.67c0,1.68,1.37,3.04,3.06,3.04h20.89v6.9h-7.01c-1.39,0-2.51,1.12-2.51,2.5h33.05c0-1.38-1.12-2.5-2.51-2.5h-7.01v-6.9h20.89c1.69,0,3.06-1.36,3.06-3.04v-30.67c0-1.68-1.37-3.04-3.06-3.04Z"/>
  <path class="cls-6" d="M48.86,105.19l-.13-13.82c-.01-1.07-.19-2.13-.53-3.15l-2.78-8.31c-.54-1.62-.82-3.31-.82-5.02v-17.37c0-2.74,1.07-5.32,3.01-7.26l8.36-8.36,1.63.42c.24.06.47.13.7.22v-1.37c0-2.95,2.4-5.36,5.36-5.36h11.74c2.49,0,4.6,1.71,5.19,4.03l4.55-2.26.06-.02c.84-.35,1.68-.52,2.55-.52,2.57,0,4.92,1.51,5.97,3.86.39.86.58,1.76.58,2.7,0,2.35-1.27,4.54-3.32,5.7l-3.89,2.21c.48.3.92.66,1.32,1.07,1.17,1.24,1.82,2.86,1.82,4.56,0,.8-.14,1.58-.41,2.31.56.38,1.07.85,1.49,1.4l.6.79v.19c.47.91.71,1.91.71,2.92,0,.92-.19,1.81-.56,2.63l.27.2-1.1,1.18c.19.13.38.28.56.43,1.47,1.26,2.31,3.1,2.31,5.04,0,.99-.23,1.98-.66,2.88l.44.7-1.28.88-2.25,4.18c-1.85,3.43-3.98,6.74-6.33,9.85l-1.08,1.42c-1.93,2.56-3.85,4.66-6.65,6.41v9.84l4.2,1.9-2.35,5.35-29.28-12.44Z"/>
  <path class="cls-6" d="M87.71,69.62l1.64-1.76h0c.83-.86,1.26-1.98,1.26-3.1,0-.83-.25-1.65-.71-2.39v-.05l-.19-.25s0,0,0,0h0c-.72-.95-1.75-1.5-2.82-1.67.89-.9,1.34-2.08,1.34-3.26,0-1.14-.42-2.3-1.27-3.19-.91-.96-2.14-1.45-3.36-1.45-1.06,0-2.12.36-2.99,1.09l-1.85,1.56v-1.22l11.24-6.38c1.47-.83,2.31-2.37,2.31-3.96,0-.63-.13-1.27-.4-1.87-.76-1.68-2.41-2.68-4.15-2.68-.58,0-1.18.11-1.74.35h-.03s-7.22,3.59-7.22,3.59v-1.81c0-1.85-1.5-3.36-3.36-3.36h-11.74c-1.85,0-3.36,1.5-3.36,3.36v5.61c-.65-1.23-1.79-2.16-3.19-2.52l-.52-.13-7.55,7.55c-1.55,1.55-2.42,3.66-2.42,5.85v17.37c0,1.49.24,2.97.71,4.38l2.78,8.31c.41,1.21.62,2.48.63,3.76l.12,12.52.57.24,25.69,10.91.76-1.73-3.57-1.61v-12.28c3.04-1.67,4.98-3.72,7.06-6.47l1.08-1.42c2.3-3.03,4.36-6.24,6.16-9.59l2.48-4.61.09-.06-.03-.05.41-.76c.37-.69.55-1.45.55-2.2,0-1.32-.56-2.62-1.62-3.52-.8-.69-1.78-1.04-2.77-1.1ZM60.29,51.98v5.29l-3.61,3.83-.03-.33v-.04s-.52-2.93-.52-2.93c1.67-1.37,3-3.11,3.85-5.1,0,0,.14-.33.31-.72Z"/>
  <path class="cls-3" d="M51.89,103.22l-.11-11.9c-.01-1.38-.24-2.75-.68-4.05l-2.78-8.31c-.44-1.32-.66-2.69-.66-4.08v-17.37c0-1.94.77-3.81,2.15-5.18l7.17-7.17h0c1.67.43,2.9,1.86,3.06,3.58v.12c.09.82-.04,1.64-.36,2.39-.23.54-.46,1.07-.46,1.07-.86,2.03-2.24,3.79-4,5.11l.6,3.42.22,2.42,12.65-13.44,9.16-5.3,8.61-4.27c1.8-.75,3.87.07,4.67,1.85h0c.77,1.7.11,3.7-1.51,4.62l-11.91,6.76-.13,4.13.69-.73,3.04-2.57c1.49-1.26,3.71-1.14,5.06.28h0c1.37,1.45,1.35,3.72-.06,5.14l-5.33,5.45,2.83-2.9c1.49-1.49,3.97-1.33,5.25.35h0c1.05,1.38.93,3.33-.29,4.57l-5.79,6.23,2.11-1.94c1.38-1.25,3.47-1.27,4.89-.06h0c1.32,1.13,1.67,3.03.85,4.56l-2.95,5.48c-1.78,3.31-3.81,6.47-6.08,9.46l-1.08,1.42c-2.17,2.87-4.05,4.84-7.25,6.49v13.44l4.13,1.86-25.69-10.91Z"/>
  <path class="cls-4" d="M63.75,38.3h11.74c1.58,0,2.86,1.28,2.86,2.86v37.97c0,4.82-3.91,8.73-8.73,8.73h0c-4.82,0-8.73-3.91-8.73-8.73v-37.97c0-1.58,1.28-2.86,2.86-2.86Z"/>
  <path class="cls-2" d="M84.3,80.57l-2.45,1.58c-1.17.69-2.66.46-3.57-.55h0c-1-1.12-.96-2.81.09-3.88l5.16-4.91-1.84,1.83c-1.45,1.37-3.72,1.36-5.14-.04l-.4-.39c-1.26-1.23-1.24-3.25.03-4.46l5.66-5.46-1.34,1.31c-1.5,1.38-3.84,1.27-5.21-.25l-.15-.16c-1.27-1.41-1.26-3.54.02-4.94l4.21-4.41"/>
  <line class="cls-2" x1="90.76" y1="76.45" x2="83.97" y2="80.77"/>
  <g>
    <path class="cls-1" d="M67.03,46.18c-.91.76-1.49,1.9-1.49,3.18,0,2.29,1.85,4.14,4.14,4.14s4.14-1.85,4.14-4.14c0-1.28-.58-2.42-1.49-3.18"/>
    <line class="cls-1" x1="69.68" y1="49.36" x2="69.68" y2="44.27"/>
  </g>
</svg>