<?xml version="1.0" encoding="UTF-8"?>
<svg id="pictos" xmlns="http://www.w3.org/2000/svg" viewBox="0 0 128 128">
  <defs>
    <style>
      .cls-1 {
        stroke-width: 2.65px;
      }

      .cls-1, .cls-2, .cls-3, .cls-4, .cls-5, .cls-6, .cls-7 {
        stroke: #000;
      }

      .cls-1, .cls-2, .cls-4, .cls-5 {
        stroke-linecap: round;
      }

      .cls-1, .cls-2, .cls-4, .cls-6 {
        stroke-linejoin: round;
      }

      .cls-1, .cls-4 {
        fill: none;
      }

      .cls-2, .cls-3, .cls-8, .cls-5, .cls-6, .cls-7 {
        fill: #fff;
      }

      .cls-2, .cls-4, .cls-6, .cls-7 {
        stroke-width: 2px;
      }

      .cls-3 {
        stroke-miterlimit: 10;
        stroke-width: 4.77px;
      }

      .cls-5 {
        stroke-width: 1.32px;
      }

      .cls-5, .cls-7 {
        stroke-linejoin: bevel;
      }
    </style>
  </defs>
  <path d="M48.49,109.63c-.69.02-1.34-.61-1.36-1.3-.02-.72.56-1.34,1.28-1.37.76-.03,1.34.5,1.38,1.25.04.77-.54,1.41-1.3,1.42Z"/>
  <path d="M39.61,101.53c0,.75-.56,1.31-1.31,1.32-.76,0-1.33-.54-1.34-1.28-.02-.76.6-1.39,1.35-1.38.71.01,1.3.62,1.3,1.35Z"/>
  <path d="M45.63,101.69c0,.72-.59,1.32-1.31,1.33-.73.01-1.33-.57-1.34-1.29-.02-.79.56-1.37,1.35-1.36.75,0,1.3.57,1.3,1.32Z"/>
  <polyline class="cls-7" points="19.71 71.06 22.38 79.07 22.51 109.69 43.08 109.86 22.86 99.24"/>
  <line class="cls-3" x1="18.54" y1="68.25" x2="22.04" y2="78.21"/>
  <path class="cls-8" d="M101.4,50.16l-8.82.9c-2.34.18-3.99,2.36-3.53,4.65h0c.36,1.82,1.96,3.14,3.82,3.13,3.12,0,11.95-.66,15.04-.7,2.89-.04,5.05-2.67,4.53-5.51l-4.47-11.3c-1.44-3.38-3.67-5.97-7.19-5.95l-14.92.12c-3.1.03-5.97,1.61-7.64,4.22l-6.1,9.53c-1.63,2.54-1.78,5.77-.39,8.45l7.19,13.89c.91,1.75,3.07,2.42,4.81,1.49h0c1.65-.88,2.32-2.89,1.54-4.59l-5.79-12.63,4.67-9.02h0l-1.09,64.12h8.37l1.96-40.76s4.67,13.8,5.33,18.04,3.26,22.39,3.26,22.39h7.61s-1.63-17.5-2.61-25.54-3.37-10.98-3.59-17.93c-.09-2.95-.08-4.54-.04-8.35"/>
  <path class="cls-4" d="M82.77,73.65l.31,36.96h8.37l1.96-40.76s4.67,13.8,5.33,18.04c.65,4.24,3.26,22.39,3.26,22.39h7.61s-1.63-17.5-2.61-25.54c-.98-8.04-3.37-10.98-3.59-17.93-.09-2.95-.08-4.54-.04-8.35"/>
  <circle class="cls-6" cx="93.25" cy="21.83" r="7.07"/>
  <line class="cls-1" x1="96.47" y1="40.66" x2="70.09" y2="95.5"/>
  <g>
    <path class="cls-8" d="M71.9,48.14c-1.63,2.54-1.78,5.77-.39,8.45l7.19,13.89c.91,1.75,3.07,2.42,4.81,1.49h0c1.65-.88,2.32-2.89,1.54-4.59l-5.79-12.63"/>
    <path class="cls-8" d="M101.18,49.04l-8.82.9c-2.34.18-3.99,2.36-3.53,4.65h0c.36,1.82,1.96,3.14,3.82,3.13,3.12,0,11.95-.66,15.04-.7"/>
  </g>
  <path class="cls-2" d="M52.11,110.79l12.4-13.8c.98-1.21,2.66-1.59,4.07-.94l2,.93c1.33.62,2.11,2.01,1.94,3.47l-3.17,11.46"/>
  <path class="cls-4" d="M101.4,49.79l-8.82.9c-2.34.18-3.99,2.36-3.53,4.65h0c.36,1.82,1.96,3.14,3.82,3.13,3.12,0,11.95-.66,15.04-.7,2.89-.04,5.05-2.67,4.53-5.51l-4.47-11.3c-1.44-3.38-3.67-5.97-7.19-5.95l-14.92.12c-3.1.03-5.97,1.61-7.64,4.22l-6.1,9.53c-1.63,2.54-1.78,5.77-.39,8.45l7.19,13.89c.91,1.75,3.07,2.42,4.81,1.49h0c1.65-.88,2.32-2.89,1.54-4.59l-5.79-12.63,4.67-9.02h0"/>
  <line class="cls-5" x1="67.95" y1="96.72" x2="56.3" y2="111.53"/>
  <line class="cls-5" x1="69.63" y1="97.37" x2="60.12" y2="111.72"/>
  <line class="cls-5" x1="71.21" y1="98.02" x2="64.59" y2="111.63"/>
</svg>