<?xml version="1.0" encoding="UTF-8"?>
<svg id="pictos" xmlns="http://www.w3.org/2000/svg" xmlns:xlink="http://www.w3.org/1999/xlink" viewBox="0 0 128 128">
  <defs>
    <style>
      .cls-1, .cls-2, .cls-3, .cls-4, .cls-5 {
        fill: none;
      }

      .cls-2 {
        stroke-width: 2.18px;
      }

      .cls-2, .cls-3 {
        stroke-linecap: round;
      }

      .cls-2, .cls-3, .cls-4, .cls-5 {
        stroke: #000;
        stroke-miterlimit: 10;
      }

      .cls-5 {
        stroke-width: 2px;
      }

      .cls-6 {
        clip-path: url(#clippath);
      }
    </style>
    <clipPath id="clippath">
      <path class="cls-1" d="M58.7,58.48h11.42v5.55c0,2.08-1.69,3.78-3.78,3.78h-3.86c-2.08,0-3.78-1.69-3.78-3.78v-5.55h0Z"/>
    </clipPath>
  </defs>
  <g>
    <g>
      <path class="cls-2" d="M37.6,31.23c12.66-27.61,54.58-16.48,53.61,11.87"/>
      <polygon points="88.08 41.88 90.7 47.62 94.36 42.48 88.08 41.88"/>
    </g>
    <g>
      <path class="cls-2" d="M90.4,58.83c-12.66,27.61-54.58,16.48-53.61-11.87"/>
      <polygon points="39.92 48.19 37.3 42.44 33.64 47.59 39.92 48.19"/>
    </g>
  </g>
  <g>
    <path class="cls-5" d="M20.57,92.34c14.64-7.88,25.61-10.01,30.27-9.39,8.35,1.13,11.35,5.05,16.94,5.77q6.66.87,11.36,1.67c4.44.76,5.92,9.07-.19,8.14-11.73-1.78-18.91,1.31-18.91,1.31"/>
    <path class="cls-5" d="M26.81,114.91c7.74-5.91,10.28-5.49,15.91-5.49s21.81,1.08,27.44.7,9.31-5.07,17.61-8.45c3.79-1.54,5.85-6.29,8.02-9.4,1.75-2.5,3.65-4.97,7.67-8.45,3.64-3.15,1.03-7.13-3.47-4.88s-5.56,2.88-9.21,6.63c-4.59,4.7-8.61,7-8.61,7"/>
    <path class="cls-5" d="M78.31,90.1c5.17-5.99,7.33-4.04,10.51-7.84,3.63-4.34,7.27-4.51,11.42-7.78s10.97.39,3.72,4.17"/>
    <path class="cls-5" d="M71.26,89.18c6.02-6.26,8.32-3.76,11.44-7.07,2.53-2.69,5.59-3.09,8-5.89,3.32-3.87,8.19-3.08,8.12-1.08"/>
    <path class="cls-5" d="M65.99,88.37c4.64-4.83,9.7-5.66,12.88-8.87,3.59-3.62,8.54-3.38,8.97-.76"/>
  </g>
  <g>
    <path class="cls-4" d="M77.15,37.46c0-7.27-6.1-13.13-13.46-12.72-6.62.36-11.94,5.92-12.03,12.55-.04,3.15,1.06,6.04,2.92,8.28,2.76,3.33,4.42,7.42,4.42,11.74v1.4h10.8v-1.26c0-4.38,1.68-8.54,4.46-11.92,1.8-2.19,2.89-5,2.89-8.06Z"/>
    <path class="cls-4" d="M58.7,58.71h11.42v5.55c0,2.08-1.69,3.78-3.78,3.78h-3.86c-2.08,0-3.78-1.69-3.78-3.78v-5.55h0Z"/>
    <g class="cls-6">
      <g>
        <line class="cls-3" x1="69.44" y1="60.46" x2="62.39" y2="65.01"/>
        <line class="cls-3" x1="65.83" y1="60.46" x2="58.79" y2="65.01"/>
        <line class="cls-3" x1="62.22" y1="60.46" x2="55.18" y2="65.01"/>
        <line class="cls-3" x1="73.04" y1="60.46" x2="66" y2="65.01"/>
      </g>
    </g>
    <path class="cls-3" d="M66.12,58.71c0-7.27,2.59-17,2.59-17h-8.59s2.59,9.73,2.59,17"/>
  </g>
</svg>