<?xml version="1.0" encoding="UTF-8"?>
<svg id="pictos" xmlns="http://www.w3.org/2000/svg" viewBox="0 0 128 128">
  <defs>
    <style>
      .cls-1 {
        stroke-width: 2.14px;
      }

      .cls-1, .cls-2, .cls-3, .cls-4, .cls-5, .cls-6, .cls-7 {
        stroke: #1d1d1b;
      }

      .cls-1, .cls-2, .cls-3, .cls-4, .cls-5, .cls-6, .cls-7, .cls-8 {
        stroke-linecap: round;
        stroke-miterlimit: 10;
      }

      .cls-1, .cls-2, .cls-4, .cls-9 {
        fill: #fff;
      }

      .cls-2 {
        stroke-width: 1.76px;
      }

      .cls-3, .cls-5, .cls-6, .cls-7 {
        stroke-width: .88px;
      }

      .cls-3, .cls-5, .cls-6, .cls-7, .cls-8 {
        fill: none;
      }

      .cls-4 {
        stroke-width: 2px;
      }

      .cls-5 {
        stroke-dasharray: .89 2.66;
      }

      .cls-6 {
        stroke-dasharray: .88 2.64;
      }

      .cls-7 {
        stroke-dasharray: .88 2.64;
      }

      .cls-8 {
        stroke: #000;
        stroke-width: 2.81px;
      }
    </style>
  </defs>
  <g>
    <path class="cls-9" d="M42.41,55.28c-2.42,0-4.78-.98-6.48-2.68-1.71-1.7-2.69-4.07-2.69-6.49v-7.59h6v7.59c0,.85.32,1.62.92,2.24.62.61,1.4.93,2.25.94h63.1c.85,0,1.63-.32,2.24-.92.61-.62.93-1.39.93-2.24v-7.59h6v7.59c0,2.42-.98,4.78-2.68,6.48-1.7,1.71-4.06,2.69-6.48,2.69h-63.11Z"/>
    <path d="M113.67,39.52v6.59c0,2.15-.87,4.26-2.4,5.78-1.51,1.52-3.62,2.39-5.77,2.39h-63.11c-2.15,0-4.25-.87-5.77-2.4-1.52-1.52-2.39-3.62-2.39-5.77v-6.59h4v6.6c0,1.12.42,2.13,1.23,2.95.8.79,1.81,1.21,2.94,1.21h63.1c1.12,0,2.13-.42,2.95-1.23.79-.8,1.21-1.81,1.21-2.94v-6.59h4M115.67,37.52h-8v8.59c0,.61-.24,1.13-.64,1.53-.41.4-.92.63-1.53.64h-63.1c-.61,0-1.13-.24-1.53-.64-.4-.41-.63-.92-.64-1.53v-8.59h-8v8.59c0,2.8,1.14,5.36,2.98,7.19,1.83,1.83,4.39,2.98,7.18,2.98h63.11c2.79,0,5.36-1.15,7.18-2.98,1.83-1.83,2.98-4.4,2.98-7.19v-8.59h0Z"/>
  </g>
  <g>
    <g>
      <path class="cls-8" d="M42.72,18.99c4.87-10.63,19.73-8.03,22.74,1.27"/>
      <polygon points="61.06 19.49 65.77 26.11 69.15 18.72 61.06 19.49"/>
    </g>
    <g>
      <path class="cls-8" d="M65.64,30.97c-4.87,10.63-19.73,8.03-22.74-1.27"/>
      <polygon points="47.3 30.48 42.59 23.86 39.21 31.25 47.3 30.48"/>
    </g>
  </g>
  <g>
    <path class="cls-4" d="M48.46,46.38h53.28c.17,0,.3.14.3.3v60.25c0,3.82-3.1,6.92-6.92,6.92h-40.04c-3.82,0-6.92-3.1-6.92-6.92v-60.25c0-.17.14-.3.3-.3Z"/>
    <g>
      <polyline class="cls-3" points="52 46.82 52 46.38 52.44 46.38"/>
      <line class="cls-5" x1="55.1" y1="46.38" x2="96.26" y2="46.38"/>
      <polyline class="cls-3" points="97.59 46.38 98.03 46.38 98.03 46.82"/>
      <path class="cls-6" d="M98.03,49.45v56.03c0,2.2-1.78,3.98-3.98,3.98h-38.07c-2.2,0-3.98-1.78-3.98-3.98v-57.35"/>
    </g>
    <path class="cls-2" d="M46.14,46.38h46.96c.15,0,.27.12.27.27v53.38c0,3.38-2.74,6.12-6.12,6.12h-35.26c-3.38,0-6.12-2.74-6.12-6.12v-53.38c0-.15.12-.27.27-.27Z"/>
    <path class="cls-7" d="M86.64,102.29h-34.05c-1.79,0-3.24-1.45-3.24-3.24v-52.44c0-.13.11-.24.24-.24h40.04c.13,0,.24.11.24.24v52.44c0,1.79-1.45,3.24-3.24,3.24Z"/>
  </g>
  <path class="cls-9" d="M71.5,40.85c-1.27,1.1-2.49.35-3.73-.05.29-1.22.99-1.79,2.04-1.69.85.08,1.66.93,1.69,1.74Z"/>
  <path class="cls-1" d="M30.07,69.04c4.74-4.94,7.11-6.08,11.33-8.51,2.69-1.55,11.23-5.25,17.04-8.31,3.97-2.09,6.23,2.23,2.78,4.26-.35.21-11.3,6.09-11.3,6.09l.2-.11,15.89-8.59c3.59-2.04,6.38,3.15,3.6,4.63l-16.3,9.08h0l19.08-10.56c3.57-1.86,6.19,3.8,2.72,5.6l-18.08,9.76-.79.45,16.3-8.78c3.28-1.91,6.2,3.54,2.41,5.75,0,0-14.21,7.99-15.71,8.84,0,0-9.04,4.33-8.3,9.15.73,4.82,13.55,1.32,11.87,9.39l-12.49-.97c-2.69-.21-5.33-.87-7.8-1.96l-5.86-2.58c-1.51-1.06-3.52-1.24-5.34-.6l-7.11,2.51-.84,5.25-.19-24.99c2.26-1.15,5.42-2.51,6.79-4.6l.11-.19Z"/>
</svg>