<?xml version="1.0" encoding="UTF-8"?>
<svg id="pictos" xmlns="http://www.w3.org/2000/svg" viewBox="0 0 128 128">
  <defs>
    <style>
      .cls-1, .cls-2 {
        fill: #fff;
      }

      .cls-1, .cls-2, .cls-3, .cls-4 {
        stroke: #000;
        stroke-linecap: round;
        stroke-linejoin: round;
      }

      .cls-1, .cls-3 {
        stroke-width: 2px;
      }

      .cls-3, .cls-4 {
        fill: none;
      }
    </style>
  </defs>
  <path class="cls-1" d="M62.36,26.54s-5.34,5.03-5.34,8.79,1.9,10.53,1.9,10.53l6.03-12.86-2.59-6.46Z"/>
  <path class="cls-1" d="M58.87,71.16c.7-.22,3.39,1.58,4.09,1.74,2.01.45,6.81-.81,4.38-5.78-1.97-1.14-3.54-1.98-5.61-1.02-.38.18-4.07,2.07-4.71,1.02-.14-.85.86-1.97.47-2.3-.82-.7-2.95-.54-3.93-2.53-.5-1.03,6.19-8.49,6.19-8.49-.03-1.11-3.02-3.09-2.04-9.47,1.03-6.77,6.69-13.86,14.31-16.19s23.6-4.44,29.95,8.47c4.01,8.16,3.39,21.22-2.01,28.04-5.4,6.82-4.94,21.18-.6,24.85,2.46,2.08,9.63,8.52,13.17,13.47s4.06,11.24,4.29,13.68"/>
  <path class="cls-3" d="M22.16,82.72c-1.83,2.05-1.25,9.49,3.53,16.21.72,1.02,1.02,2.06,1.16,3.23.13,1.1.26,2.21.38,3.32.09.78.13,1.57.24,2.35.11.82.18,1.64.28,2.45.08.73.15,1.46.23,2.19.04.41.07,3.78.22,4.18"/>
  <path class="cls-3" d="M73.63,79.74c1.43.75,1.85,10.33.87,10.61-1.31.38-13.06,6.03-17.66,10.31s-6.76,9.78-7.79,15.98"/>
  <path class="cls-4" d="M67.95,68.97c-1.78.96-7.92.68-9.08.01"/>
  <g>
    <path class="cls-2" d="M17,90.29l36-19.63c.59-.32.71-1.22.28-2h0c-.37-.67-1.07-.98-1.57-.7l-9.89,5.56-25.97,14.7c-.48.27-.52,1.06-.09,1.64h0c.34.46.86.64,1.23.43Z"/>
    <path class="cls-4" d="M41.8,69.61l1.95,2.85-1.95-2.85Z"/>
    <path class="cls-4" d="M50.3,64.64l1.42,2.88-1.42-2.88Z"/>
    <line class="cls-4" x1="41.8" y1="69.61" x2="50.3" y2="64.64"/>
  </g>
  <path class="cls-1" d="M32.3,74.62c-.35-.89-.18-1.26.11-1.86.59-1.22,1.47-1.36,2.51-1.43.69-.05,1.1.28,1.55.76.69.74,1.5,1.35,2.17,2.11.13.14.24.3.36.46.75.98,1.26,2,.65,3.03-.51.86-1.92,2.05-4.03.61"/>
  <path class="cls-1" d="M28.39,77.48c-.35-.89-.18-1.26.11-1.86.59-1.22,1.47-1.36,2.51-1.43.69-.05,1.1.28,1.55.76.69.74,1.5,1.35,2.17,2.11.13.14.24.3.36.46.75.98,1.26,2,.65,3.03-.51.86-1.75,1.22-3.49.42"/>
  <path class="cls-1" d="M25.04,80.5c-.35-.89-.18-1.26.11-1.86.59-1.22,1.47-1.36,2.51-1.43.69-.05,1.04.34,1.55.76.88.72,1.48,1.44,2.17,2.11.14.13.24.3.36.46.75.98.94,1.87.65,3.03s-1.69,2.53-4.05.76"/>
  <path class="cls-1" d="M31.6,95.06c.1-.52-.48-4.09,1.35-6.07,5.03-5.45,5.4-4.44,6.4-9.15.32-1.52,3.78-3.92,5.18-3.25.42.2.75.53,1.17.73.12.06.16.17.16.31-.05.92-2.86,4.02-3.17,5.87-.11.64.74,4.09.82,4.74.12,1.05-.4,1.39-.82,2.32-.87,1.9-2.02,3.63-3.01,5.46-.51.95-1.67,3.72-.94,7.48s3.07,13.16,3.07,13.16"/>
  <path class="cls-3" d="M71.62,54.22c-.35-.08-.7-.16-1.05-.23-.08-.02-.13-.06-.19-.13-1.27-1.51-3.09-1.85-4.82-.82-.42.25-.83.32-1.28.19"/>
  <path class="cls-3" d="M83.14,68.17c-.73,11.55-15.91,12.87-17.42,13.3s-4.45.87-5.53,0c-1.61-1.29-1.72-5.36-1.72-8.56,0-2.94.01-3.9-.21-5.25"/>
  <path class="cls-1" d="M62.62,26.38s-.19,9.16,5.33,13.92,16.95,10,16.95,10l.63,8.1s1.58-8.29,5.64-8.25c4.92.04,3.98,4.07,2.99,6.88-1.52,4.3-5.07,5.19-5.07,5.19,0,0,11.07,13.59,11.02,11.41-.19-7.54,1.88-10.79,3.36-14.27,1.97-4.6,3.87-12.07.71-20.39-3.7-9.74-10.69-13.23-17.67-13.76-6.13-.46-11.58.68-15.81,1.76-1.93.5-8.08-.59-8.08-.59Z"/>
  <path class="cls-1" d="M28.34,84.33c-1.75-2.49-2.98-3.35-3.86-3.49-1.32-.21-3.44,1.22-1.69,2.91.23.1,2.19,2.89,2.38,3.02,1.75,1.22,4.66.05,3.17-2.43"/>
  <line class="cls-3" x1="24.69" y1="116.64" x2="116.81" y2="116.64"/>
</svg>