<?xml version="1.0" encoding="UTF-8"?>
<svg id="pictos" xmlns="http://www.w3.org/2000/svg" viewBox="0 0 128 128">
  <defs>
    <style>
      .cls-1 {
        stroke-linecap: round;
      }

      .cls-1, .cls-2, .cls-3, .cls-4, .cls-5 {
        fill: #fff;
      }

      .cls-1, .cls-2, .cls-5 {
        stroke: #000;
      }

      .cls-1, .cls-4, .cls-5 {
        stroke-linejoin: round;
      }

      .cls-1, .cls-5 {
        stroke-width: 2px;
      }

      .cls-2 {
        stroke-miterlimit: 10;
      }

      .cls-4 {
        stroke: #fff;
        stroke-width: .25px;
      }
    </style>
  </defs>
  <path class="cls-2" d="M18.57,16.84v45.94h39.98V16.84H18.57ZM22.12,20.38h32.89v38.85s-32.89,0-32.89,0V20.38Z"/>
  <rect x="22.12" y="20.38" width="32.89" height="38.85"/>
  <rect x="67.74" y="15.99" width="43.64" height="96.01"/>
  <polygon class="cls-3" points="111.39 16.84 111.39 111.16 71.52 102.71 71.52 25.85 111.39 16.84"/>
  <path d="M115,13v102h-50V13h50M116,12h-52v104h52V12h0Z"/>
  <g>
    <circle class="cls-4" cx="43.55" cy="34.85" r="6.3"/>
    <g>
      <path class="cls-5" d="M48.37,56.95l9.39,3.88,8.63-1.6c1.46-.27,2.84.8,2.92,2.29h0c.07,1.16-.68,2.21-1.79,2.53l-10.89,3.11-8.3-2.67"/>
      <path class="cls-1" d="M28.44,114.94l4.31-19.28,1.95-21.13-.22-23.24c-.12-1.98.95-3.84,2.73-4.73h0c.92-.46,1.95-.62,2.96-.46l5.49.84,13.38,2.65c1.37.27,2.78.13,4.07-.4l11.03-4.56c1.58-.65,3.38.2,3.87,1.84h0c.41,1.36-.23,2.81-1.51,3.43l-14.58,7.06h-13.55l6.07,57.61h-6l-5.41-33.89-3.71,17.93-4.87,16.34h-6Z"/>
    </g>
  </g>
</svg>