<?xml version="1.0" encoding="UTF-8"?>
<svg id="pictos" xmlns="http://www.w3.org/2000/svg" viewBox="0 0 128 128">
  <defs>
    <style>
      .cls-1 {
        stroke-width: 1px;
      }

      .cls-1, .cls-2, .cls-3 {
        fill: none;
      }

      .cls-1, .cls-2, .cls-3, .cls-4, .cls-5 {
        stroke: #000;
      }

      .cls-1, .cls-2, .cls-4 {
        stroke-miterlimit: 10;
      }

      .cls-2, .cls-3 {
        stroke-width: 1.5px;
      }

      .cls-3 {
        stroke-linejoin: bevel;
      }

      .cls-4, .cls-5 {
        fill: #fff;
        stroke-width: 2px;
      }

      .cls-5 {
        stroke-linejoin: round;
      }
    </style>
  </defs>
  <polyline class="cls-2" points="54.98 33.97 55.35 85.78 12.71 86.16 12.75 30.8"/>
  <polyline class="cls-2" points="96.73 30.41 96.69 48.48 111.84 48.61 111.84 27.64"/>
  <path class="cls-1" d="M12.47,30.92c33.67,5.07,78.28,2.53,103.53-4.22"/>
  <circle class="cls-5" cx="28.46" cy="39.84" r="6.06"/>
  <path class="cls-4" d="M49,42.97l-.7-2.03c-.94-2.71-1.88-5.42-2.76-8.14-.39-1.17-1.6-1.9-2.84-1.64-1.33.28-2.17,1.58-1.9,2.91.77,3.65,1.45,7.4,2.16,11.07,0,0-3.83,2.83-5.56,4.27-5.19-.17-10.95-.04-16.3.27-1.74-1.86-6.38-6.51-6.38-6.51.74-3.59,1.73-7.34,2.62-10.93.71-2.93-3.52-4.26-4.6-1.43-.98,2.69-2.01,5.36-3.04,8.03l-.77,2.01c-.77,1.78-.68,3.94.24,5.66.49.88,1.49,2.27,2.02,3.11.86,1.32,2.5,3.29,3.55,4.42,1.19,1.28,3.44,3.14,3.99,4.05l.39,30.39-.09,27.49h7.17l1.26-31.46c.05-1.26,1.92-1.26,1.97,0l1.26,31.46h7.17l-.09-27.49.39-30.3c1.08-1.08,2.81-2.13,3.99-3.26,1.68-1.54,4.28-3.97,5.51-5.3,1.82-1.88,2.33-4.21,1.33-6.64Z"/>
  <polyline class="cls-3" points="64.7 33.22 64.33 66.26 70.69 66.26 74.8 33.22 77.7 65.88 84.34 65.7 84.16 32.1 87.71 31.72 87.76 43.17 84.62 43.26"/>
  <line class="cls-3" x1="73.78" y1="43.17" x2="75.65" y2="43.17"/>
</svg>