<?xml version="1.0" encoding="UTF-8"?>
<svg id="pictos" xmlns="http://www.w3.org/2000/svg" viewBox="0 0 128 128">
  <defs>
    <style>
      .cls-1 {
        stroke-linecap: round;
      }

      .cls-1, .cls-2 {
        fill: #fff;
        stroke: #000;
        stroke-linejoin: round;
        stroke-width: 2px;
      }
    </style>
  </defs>
  <circle class="cls-2" cx="29.48" cy="25.32" r="7"/>
  <path class="cls-1" d="M19.46,50.92c-.1,2.89,2.38,5.82,4.77,7.73l5.46,4.36c1.31,1.04,1.61,2.9.7,4.31h0c-.97,1.51-2.98,1.94-4.49.97l-7.63-4.9c-3.05-1.96-5.3-4.94-6.35-8.4h0c-1.31-4.33-.77-9,1.47-12.92h0c2.61-2.77,6.21-3.53,9.27-3.55h13.62c3.07.03,6.89,1.29,9.27,3.55l9.45,8.46,9.12,7.28c1.31,1.04,1.61,2.9.7,4.31h0c-.97,1.51-2.98,1.94-4.49.97l-12.36-7.93-7.4-5.4-.34,31.75.11,31.75h-8.29s-1.45-36.33-1.45-36.33c-.06-1.46-2.22-1.46-2.28,0l-1.45,36.33h-8.29l.11-31.75-.16-17.08"/>
  <path d="M107.39,23.92h-17.81l-6.17,4.78v12.36c.62.09,4.46.09,5.1,0v12.02c2.61.06,5.24,0,7.86,0h12.1c-.03-1.69,0-3.38,0-5.07-.06-1.65,0-5.31,0-6.96,1.78,0,3.56-.05,5.34,0v-12.64s-6.41-4.5-6.41-4.5ZM102.21,26.28c-.25.61-.53,1.09-.98,1.57-2.23,2.03-5.3,1.05-6.43-1.57h7.41ZM111.3,38.71h-2.83v-5.74h-2.31c0,.12.16,0,0,17.82h-15.33c.04-17.84,0-17.86,0-17.82-.77.1-1.55.04-2.32,0-.05.92,0,5.86,0,5.86-.92-.03-1.86,0-2.78,0v-9.32l3.92-3.24h2.74c1.34,6.37,10.41,6.86,12.21,0h2.58l4.12,2.65v9.78Z"/>
  <path d="M91.97,59.08c.6-.07,1.27-.01,1.88,0h9.22c.95,0,1.94-.06,2.87.06,2.79.35,3.63,3.42,2.13,5.51.93,1.38,1.03,2.57.31,4.12.69,1.36.8,2.05.61,3.57.83.02,1.67,0,2.51,0v19.66c0,7.4-.09,14.8,0,22.2-.84-.05-1.66-.05-2.51,0,.19-1.53,0-3.47,0-5.06-1.02-.07-2.08,0-3.1,0h-29.1s-17.18,0-17.18,0c0,1.54.17,3.59,0,5.06-.8.02-1.61,0-2.41,0-.06-1.17,0-2.36,0-3.53v-35.88c0-3.69,2.85-2.77,5.49-2.61,1.15.07,2.32.03,3.47.03h21.92c-.48-1.34.03-1.97.44-3.17-.91-1.57-1.26-3.6.32-4.89-1.03-2.75.29-4.79,3.13-5.06ZM63.57,75.25v9.11c0,1.52-.08,3.07,0,4.59h15.68v-.67c.39-3.54.3-9.89,1.11-13.03h-16.79ZM94,75.25c-1.97-.02-3.95,0-5.92,0-.01,1.91-.03,3.82.02,5.73l.12,7.97h10.47c1.69,0,3.37-.03,5.06,0-.05-1.18.12-2.39.22-3.56l.47-5.64c.13-1.48.31-3.02.3-4.5-3.03-.17-7.71-.16-10.73,0ZM63.57,93.41v13.22h13.93c.58,0,1.17-.04,1.75,0,.01-.27.05-.55,0-.82.54-3.11,1.03-9.17,1.11-12.4h-11.2c-1.86,0-3.74-.06-5.59,0ZM89.12,93.41c-.3,0-.6-.01-.9,0v13.22c1.14,0,15.44.05,15.53,0,.6-3.95.75-9.2.98-13.22-1.76-.04-3.53,0-5.29,0h-10.32ZM83.01,91.51c-.51,5.03-.72,10.09-1.28,15.12h3.02c.31-.02.64-.05.95,0v-15.12h-2.68ZM83.01,74.24c-.48,1.28-.64,5.76-.75,7.37l-.54,7.34h3.97l-.12-14.72c-.73,0-1.9.12-2.56,0ZM107,91.51c.73,1.28.09,3.98-.03,5.47-.25,3.22-.41,6.44-.82,9.65.64-.03,1.27-.03,1.91,0,.3,0,.62-.02.92,0v-15.12c-.72-.1-1.27-.11-1.98,0ZM108.85,74.48c-.57.11-1.01.1-1.59,0-.15,3.55-.56,7.09-.82,10.63-.04.54-.48,3.74-.11,3.85.89-.02,1.77-.04,2.65,0,0-1.67-.09-13.94.02-14.18l-.06.05v-.27s-.11-.09-.11-.09ZM96.51,65.81h-3.92c-.56,0-1.18-.07-1.73,0-.86.11-1.16,1.05-.49,1.65.82.72,2.85.32,3.85.32l5.68.04h6.03c.93-.67.75-1.9-.52-1.99-1.03-.07-2.1-.02-3.13-.02h-5.76ZM90.95,70.22c-.42.25-.71.49-.83.98-.34,1.37,2.18,1,2.9,1h10.02c.95,0,1.94.06,2.88,0,.69-.23,1.23-1.53.38-1.83-.8-.29-4.97-.15-6.06-.15h-9.3ZM91.97,61.45c-1.59.2-1.69,1.86-.15,1.98,1.38.11,2.84,0,4.23,0h9.17c1.07.05,1.66-1.11,1.01-1.73-.49-.47-12.74-.31-14.26-.26ZM60.04,91.67c-.61.04-.37.62-.38,1.08l-.05,10.06c0,1.27.04,2.55,0,3.82h1.14c.69-.1.33-1.24.34-1.76v-7.96c0-1.53-.16-3.83.2-5.25h-1.25ZM59.61,74.48c.12,4.38.21,9.92,0,14.29.49,0,.99.02,1.48,0v-9.32c0-1.65-.1-3.32,0-4.96h-1.48Z"/>
  <path d="M93.56,95.26h6.33c.09.83.09,1.58,0,2.41h-7.12v-2.41h.78Z"/>
  <path d="M67.87,95.26c2.42-.08,4.88-.03,7.3,0v2.41c-.75.07-1.57,0-2.33,0h-4.97v-2.42Z"/>
  <path d="M92.78,76.94h7.12v2.39h-7.12c-.08-.8-.05-1.59,0-2.39Z"/>
  <path d="M67.87,76.94h7.3c-.04.8-.02,1.59,0,2.39-2.02.22-5.16-.02-7.3,0,0-.8-.03-1.6,0-2.39Z"/>
  <path class="cls-1" d="M64.84,62.1s3.26,4.48,5.18,9.89,1.93,12.17,1.93,12.17c0,0-13.11-1.53-20.05,0s-15.42,4.04-15.42,4.04c0,0-1.93-10.48-2.89-13.05s-3.19-7.84-3.19-7.84l18.61-3.21,15.83-2Z"/>
</svg>