<?xml version="1.0" encoding="UTF-8"?>
<svg id="pictos" xmlns="http://www.w3.org/2000/svg" viewBox="0 0 128 128">
  <defs>
    <style>
      .cls-1, .cls-2, .cls-3, .cls-4, .cls-5, .cls-6, .cls-7, .cls-8, .cls-9 {
        stroke: #000;
        stroke-linejoin: round;
      }

      .cls-1, .cls-2, .cls-3, .cls-4, .cls-5, .cls-7, .cls-8 {
        stroke-linecap: round;
      }

      .cls-1, .cls-2, .cls-4, .cls-5, .cls-6, .cls-7, .cls-8 {
        fill: none;
      }

      .cls-1, .cls-6 {
        stroke-width: 3px;
      }

      .cls-2 {
        stroke-dasharray: .98 2.94;
      }

      .cls-3, .cls-9 {
        fill: #fff;
        stroke-width: 2px;
      }

      .cls-4 {
        stroke-dasharray: 1 2.99;
      }

      .cls-7 {
        stroke-dasharray: .98 2.94;
      }

      .cls-8 {
        stroke-dasharray: .97 2.92;
      }
    </style>
  </defs>
  <g>
    <g>
      <line class="cls-5" x1="56.95" y1="21.44" x2="56.84" y2="21.93"/>
      <line class="cls-4" x1="56.18" y1="24.85" x2="52.1" y2="42.86"/>
      <line class="cls-5" x1="51.77" y1="44.32" x2="51.66" y2="44.81"/>
    </g>
    <g>
      <line class="cls-5" x1="60.32" y1="21.44" x2="60.27" y2="21.94"/>
      <line class="cls-7" x1="59.94" y1="24.86" x2="57.94" y2="42.85"/>
      <line class="cls-5" x1="57.78" y1="44.31" x2="57.73" y2="44.81"/>
    </g>
    <g>
      <line class="cls-5" x1="63.69" y1="21.44" x2="63.69" y2="21.94"/>
      <line class="cls-8" x1="63.71" y1="24.86" x2="63.78" y2="42.85"/>
      <line class="cls-5" x1="63.79" y1="44.31" x2="63.79" y2="44.81"/>
    </g>
    <g>
      <line class="cls-5" x1="67.06" y1="21.44" x2="67.12" y2="21.94"/>
      <line class="cls-2" x1="67.47" y1="24.85" x2="69.62" y2="42.85"/>
      <line class="cls-5" x1="69.8" y1="44.31" x2="69.86" y2="44.81"/>
    </g>
    <g>
      <line class="cls-5" x1="70.19" y1="21.44" x2="70.3" y2="21.93"/>
      <line class="cls-4" x1="70.96" y1="24.85" x2="75.04" y2="42.86"/>
      <line class="cls-5" x1="75.37" y1="44.32" x2="75.48" y2="44.81"/>
    </g>
  </g>
  <g>
    <rect class="cls-3" x="53.58" y="55.16" width="19.83" height="20.66"/>
    <circle class="cls-9" cx="63.26" cy="34.84" r="6.49"/>
    <path class="cls-3" d="M73.41,69.36h0l-.15,17.57.1,29.44h-7.69s-1.35-33.69-1.35-33.69c-.05-1.35-2.06-1.35-2.11,0l-1.35,33.69h-7.69l.1-29.44-.15-15.84"/>
    <path class="cls-3" d="M53.97,58.58c-.09,2.68,2.2,5.39,4.42,7.17l5.07,4.04c1.21.97,1.49,2.69.65,3.99h0c-.9,1.4-2.76,1.8-4.16.9l-7.08-4.54c-2.83-1.81-4.91-4.58-5.89-7.79h0c-1.21-4.01-1.34-8,1.36-11.98s5.67-3.64,8.52-3.67l12.76.06c2.84.02,7.83,2.59,8.21,5.94.12,1.1.27,3.33.42,5.83.28,4.82-4.96,7.98-9.08,5.48l-9.92-5.99c-1.39-1.14-1.28-2.88.03-4.32s2.02-1.05,3.79-.12l7.45,3.47"/>
  </g>
  <path class="cls-6" d="M32.74,120.55h62.51V11.31c0-2.13-1.73-3.86-3.86-3.86h-24.04c-2.13,0-3.86,1.73-3.86,3.86v3.53"/>
  <line class="cls-1" x1="54.21" y1="17.84" x2="72.93" y2="17.84"/>
</svg>