<?xml version="1.0" encoding="UTF-8"?>
<svg id="pictos" xmlns="http://www.w3.org/2000/svg" viewBox="0 0 128 128">
  <defs>
    <style>
      .cls-1 {
        stroke-linecap: round;
      }

      .cls-1, .cls-2, .cls-3 {
        fill: #fff;
      }

      .cls-1, .cls-3 {
        stroke: #000;
        stroke-linejoin: round;
        stroke-width: 2px;
      }
    </style>
  </defs>
  <path d="M75.16,97.5c0-1.16,0-2.23,0-3.3,0-2.03,0-4.05-.01-6.08,0-.34-.12-.69-.07-1.01.04-.28.17-.66.39-.79,1.67-1.05,3.38-2.04,5.06-3.08,3.36-2.09,6.7-4.21,10.04-6.32,1.9-1.2,3.8-2.43,5.7-3.63,4.51-2.84,9.03-5.68,13.54-8.52.36-.23.72-.47,1.15-.75.03.59.06,1.09.07,1.58.03,2.61.05,5.22.1,7.83.01.66-.19,1.06-.76,1.42-4.24,2.7-8.45,5.43-12.68,8.15-2.91,1.87-5.84,3.68-8.73,5.58-3.73,2.44-7.42,4.94-11.13,7.42-.65.43-1.3.85-1.97,1.25-.18.11-.41.14-.72.25Z"/>
  <path d="M53.52,67.44c4.9-2.86,9.75-5.7,14.53-8.5.42.57.81,1.09,1.18,1.62.83,1.2,3.49,1.35,4.53-.04,1.06-1.43,1.88-2.98,1.96-4.78.03-.69.27-1.01.83-1.31,1.99-1.05,3.98-2.11,5.93-3.24,1.87-1.09,3.7-2.27,5.52-3.44.57-.37,1.05-.41,1.65-.07,3.37,1.93,6.77,3.83,10.14,5.75,3.59,2.05,7.16,4.12,10.75,6.16.42.24.61.52.58,1.01-.04.65,0,1.3-.04,1.94-.01.18-.14.41-.29.5-1.73,1.02-3.49,1.99-5.2,3.04-3.73,2.29-7.44,4.62-11.15,6.94-2.72,1.71-5.42,3.44-8.14,5.15-3.17,2-6.34,3.98-9.51,5.98-.52.33-1.01.7-1.58,1.1-.03-.44-.11-.87-.08-1.29.01-.18.21-.4.38-.51,2.11-1.33,4.25-2.62,6.36-3.95,1.64-1.04,3.25-2.14,4.89-3.18,3.18-2.01,6.38-3.99,9.56-5.98,3.09-1.93,6.17-3.88,9.27-5.81.82-.51,1.68-.98,2.52-1.47.18-.1.35-.21.6-.36-.22-.14-.36-.24-.5-.33-2.23-1.32-4.45-2.66-6.69-3.97-2.97-1.73-5.95-3.43-8.93-5.14-.04-.02-.1-.04-.13-.07-.66-.7-1.31-.49-2-.03-1.81,1.2-3.65,2.35-5.44,3.57-.36.25-.67.67-.84,1.08-.52,1.22-1.3,2.24-2.24,3.14-.59.56-1.29.92-2.07,1.14-.69.2-1.25.58-1.78,1.05-2.73,2.39-5.49,4.76-8.23,7.13-1.04.9-2.09,1.8-3.14,2.69-.94.8-1.96,1.18-3.18.65-1.2-.52-1.59-1.99-.68-2.93.73-.75,1.56-1.42,2.39-2.06,1.78-1.36,3.58-2.68,5.38-4.01.09-.06.17-.13.2-.28-1.15.74-2.3,1.48-3.46,2.21-2.26,1.43-4.53,2.84-6.77,4.3-.8.52-1.42.61-2.24-.05-1.27-1.03-2.65-1.92-3.99-2.86-.25-.18-.53-.31-.87-.51ZM83.72,55.89c0-.95-.82-1.83-1.8-1.98-1.45-.22-2.55.45-3.52,1.39-1.19,1.13-1.92,2.49-1.54,4.18.18.8.02,1.4-.51,1.94-.28.29-.58.56-.9.8-.46.35-.97.65-1.43,1.01-1.15.9-2.26,1.84-3.42,2.73-2.03,1.56-4.08,3.09-6.11,4.65-.25.19-.47.45-.61.73-.21.43-.07.65.38.81.65.23,1.17-.05,1.65-.44,1.78-1.46,3.56-2.92,5.32-4.39,2.15-1.8,4.29-3.61,6.43-5.42.58-.49,1.26-.82,2-.93,2.58-.39,3.89-3.29,4.06-5.07Z"/>
  <path d="M70.39,43.41c0-1.29.02-1.98-.02-3.24-.03-1.15-.06-1.15,1.05-1.54.24-.08.48-.17.79-.28.02.31.06.57.06.82,0,3.44,0,6.87-.03,10.31,0,.64.15,1.16.6,1.62,1,1.04,1.74,2.23,1.79,3.72.05,1.86-.54,3.52-1.73,4.93-.74.87-2.12.84-2.86-.02-1.09-1.26-1.72-2.74-1.92-4.38-.17-1.44.26-2.73,1.33-3.7.72-.65.93-1.36.9-2.31M73.18,55.6c.06-.78-.24-1.58-.8-2.29-.55-.69-1.11-.75-1.78-.16-.63.55-.93,1.25-.95,2.09-.02,1.36.48,2.56,1.15,3.7.54.91.96.92,1.51,0,.58-.98.84-2.06.86-3.33Z"/>
  <path d="M45.78,62.94c.16.09.34.2.52.3,2.35,1.32,4.52,2.89,6.61,4.6,1.47,1.2,2.98,2.35,4.52,3.44,2.94,2.09,5.94,4.11,8.88,6.2,2.1,1.49,4.16,3.04,6.24,4.57.48.35.97.71,1.45,1.06.26.19.34.39.22.74-.13.35-.15.76-.15,1.15,0,3.94.02,7.88.05,11.82,0,.53.1,1.07.13,1.6.03.58.06,1.16.06,1.75,0,.71-.23,1.16-.97,1.53-.86.42-1.46.49-2.2-.17-1.01-.89-2.1-1.68-3.18-2.48-2.09-1.53-4.21-3.02-6.3-4.56-2.71-2-5.39-4.04-8.1-6.05-2.39-1.78-4.78-3.56-7.19-5.31-.79-.57-1.65-1.02-2.46-1.56-.18-.12-.31-.38-.38-.6-.07-.22-.05-.48-.05-.72,0-5.27,0-10.54-.02-15.81,0-.32.08-.51.38-.63.54-.23,1.06-.49,1.58-.74.1-.05.22-.07.36-.11ZM71.52,99.52c.03-.41.08-.72.08-1.04,0-1.67,0-3.34-.02-5.01-.02-2.58-.05-5.16-.1-7.73,0-.27-.12-.64-.32-.79-1.45-1.06-2.94-2.06-4.4-3.11-2.31-1.65-4.6-3.32-6.9-4.97-2.76-1.99-5.52-3.98-8.3-5.95-2.06-1.46-4.13-2.89-6.28-4.4-.03.43-.06.77-.06,1.1,0,4.13,0,8.27,0,12.4,0,.32.12.49.37.67,1.98,1.35,3.98,2.69,5.91,4.1,2.96,2.16,5.86,4.4,8.8,6.57,2.85,2.11,5.74,4.18,8.61,6.26.84.61,1.68,1.21,2.6,1.88ZM73.18,83.97c-.22-.18-.41-.36-.62-.5-2.72-1.88-5.46-3.72-8.15-5.64-3.14-2.24-6.23-4.55-9.35-6.81-1.32-.96-2.72-1.82-3.91-2.96-.32-.31-.73-.54-1.1-.8-1.24-.86-2.48-1.71-3.72-2.57-.49-.34-1.07-.37-1.67.01.19.15.35.3.53.41,1.27.84,2.57,1.63,3.81,2.52,3.67,2.64,7.31,5.33,10.96,7.99,1.7,1.24,3.41,2.46,5.13,3.69,1.4,1,2.8,1.98,4.2,2.98.24.17.46.36.69.54.63.49,1.23,1,1.89,1.44.5.34.89.22,1.31-.31Z"/>
  <path d="M115.53,97.68c0-13.27-.02-26.53-.02-39.8,0-3.64-.03-11.41-.05-14.8,0-1.01-.56-1.93-1.46-2.39-3.43-1.79-11.98-6.24-15.08-7.92-1.31-.71-9.45-4.92-13.71-7.12-1.19-.61-2.59.25-2.59,1.58.01,5.2.04,15.9.07,19.94,0,.37.16.73.15,1.1,0,.16-.12.35-.26.42-1.24.7-2.51,1.35-3.76,2.04-1.08.6-2.14,1.21-3.2,1.84-.45.27-.46.83,0,1.08.12.07.37-.02.53-.1,1.7-.9,3.42-1.78,5.09-2.74,1.3-.75,2.54-1.6,3.81-2.39.2-.13.43-.23.65-.31.79-.3,1.44-.74,1.88-1.54-.67-.41-1.31-.81-1.98-1.22-.03.69-.07,1.33-.08,1.97,0,.38-.23.44-.54.44-.37,0-.35-.24-.35-.5,0-1.15,0-2.3,0-3.51.32.15.65.3.96.47,3.51,1.99,7.03,3.96,10.53,5.98,3.39,1.95,6.74,3.94,10.13,5.89,1.49.86,3.02,1.64,4.52,2.47.45.25.9.52,1.32.83.13.1.2.35.2.53.02,2.27.03,4.54.03,6.81,0,8.19-.02,16.38,0,24.57,0,4.26.06,8.53.08,12.79,0,.41,0,1.81,0,3.56-3.28-2.03-6.81-4.21-7.47-4.66-5.02-3.37-10.04-6.73-15.05-10.1-.69-.46-1.37-.93-2.08-1.34-.25-.14-.67-.26-.87-.14-.6.35-1.13.81-1.67,1.25-.11.09-.24.27-.23.39.06.66.14,1.29.81,1.71,1.2.77,2.34,1.63,3.53,2.42,5.18,3.48,10.36,6.95,15.55,10.42.42.28,3.95,2.46,6.83,4.23,1.66,1.02,3.8-.17,3.8-2.12,0-4.45,0-10.79,0-12.03ZM112.31,55.89c0,.57,0,1.13,0,1.81-.47-.25-.85-.45-1.23-.67-3.05-1.79-6.08-3.6-9.14-5.37-4.4-2.55-8.82-5.08-13.24-7.61-1.15-.66-2.31-1.32-3.48-1.95-.27-.15-.36-.32-.36-.61.01-1.99.02-3.99,0-5.98,0-1.07-.02-4.06-.03-6.94,4.79,2.5,10.73,5.56,12.24,6.39,4.33,2.37,8.65,4.77,13.01,7.07.62.33,1.28.57,1.93.85.3.13.35.28.35.55-.03,4.15-.05,8.3-.08,12.45Z"/>
  <path d="M93.85,69.18c-.83-.18-1.59.19-2.33.73-2.92,2.16-5.85,4.3-8.79,6.43-.75.54-1.52,1.05-2.32,1.51-1.25.71-3.01.37-3.95-.71-.48-.55-.46-1.7.1-2.17.56-.47,1.15-.9,1.76-1.3,2.86-1.84,5.72-3.69,8.6-5.49,1.08-.68,2.23-1.24,3.36-1.84.32-.17.49-.37.47-.75-.09-1.89.72-3.39,1.89-4.84,1.16-1.44,2.61-2.14,4.33-2.4,1.56-.24,2.89.52,3.6,1.92.86,1.69.74,3.36-.04,5.05-.75,1.64-2,2.71-3.64,3.39-.95.4-1.95.45-3.06.47ZM94.33,67.92c2-.1,3.6-.92,4.65-2.64.81-1.32,1.12-2.76.53-4.28-.39-1.01-1.27-1.57-2.36-1.54-2.13.05-4.57,2.16-5.01,4.44-.16.83-.13,1.7-.12,2.56,0,.48-.11.73-.59.88-.6.19-1.2.43-1.73.76-3.57,2.2-7.13,4.43-10.68,6.66-.3.19-.61.42-.79.7-.14.22-.18.6-.08.84.08.19.43.38.65.37.37,0,.77-.11,1.1-.29.53-.28,1.01-.65,1.5-1,3.24-2.29,6.49-4.58,9.73-6.87.61-.43,1.29-.67,2.05-.67.39,0,.78.04,1.17.06Z"/>
  <path d="M83.92,61.43s.02,0,.08.04c1,.69.97,1.05,0,1.74-2.26,1.6-4.49,3.24-6.75,4.86-1.53,1.09-3.07,2.17-4.61,3.26-.33.23-.67.47-.94.77-.44.48-.26,1.05.37,1.25.55.17,1.05.03,1.5-.32,1.86-1.49,3.72-2.98,5.58-4.47,1.71-1.37,3.42-2.74,5.13-4.09.73-.57,1.56-.92,2.48-1.05,1.36-.19,2.46-.84,3.51-1.73,1.04-.88,1.84-1.91,2.48-3.08.06-.11.13-.22.19-.34.03-.06.03-.12-.03-.26-.2.21-.43.39-.58.63-.88,1.34-2.19,2.25-3.3,3.35-.31.31-.74.54-1.28.26,1.78-2.13,4.1-3.71,5.64-6.06.31.16.55.45.48.85-.11.63-.16,1.32-.46,1.86-.45.81-1.03,1.57-1.67,2.25-.86.92-1.83,1.74-2.76,2.6-.55.51-1.22.77-1.96.91-1.12.21-1.92.97-2.77,1.65-3.34,2.67-6.66,5.38-10.01,8.04-1.11.89-2.37.87-3.51.06-1.03-.73-1.12-2.1-.18-2.93.58-.51,1.2-1,1.82-1.46,2.8-2.07,5.61-4.13,8.42-6.19.5-.36,1.04-.67,1.52-1.04.53-.41,1.03-.87,1.58-1.34Z"/>
  <path d="M94.02,40.04c.25.16.45.31.67.43,1.72.97,3.45,1.93,5.17,2.9.41.23.84.45,1.18.76.59.54,1.24.56,1.95.38.38-.09.75-.21,1.13-.27.54-.08.73.08.74.62.01.52.17,1.14-.05,1.53-.21.36-.84.5-1.29.71-.41.19-.84.34-1.25.52-.64.28-1.23.18-1.81-.15-2.21-1.25-4.43-2.5-6.65-3.74-.88-.49-1.76-.97-2.62-1.48-1.05-.62-1.45-1.55-1.16-2.72.03-.14.15-.3.28-.36.97-.45,1.95-.88,2.93-1.3.2-.09.44-.14.66-.14.66,0,1,.16.88.81-.01.08,0,.16,0,.24.06.42.07.81-.45.97-.1.03-.17.17-.31.31ZM101.69,45.54c-.33-.19-.61-.34-.89-.5-1.19-.69-2.39-1.37-3.57-2.08-1.89-1.14-4.03-1.89-5.63-3.52-.38.26-.2.55,0,.73.35.33.75.63,1.16.87,2.28,1.37,4.56,2.73,6.85,4.07.39.23.81.4,1.23.57.27.11.55.17.84-.15Z"/>
  <path d="M93.89,88.69c.98.61,1.95,1.21,2.91,1.83,1.19.78,2.42,1.52,3.55,2.38.78.59,1.54.62,2.42.45.48-.09.98-.08,1.48-.06.32,0,.48.22.44.56-.05.45-.06.91-.12,1.36-.02.14-.11.33-.23.38-.84.39-1.68.76-2.53,1.11-.63.26-1.21.05-1.75-.29-1.24-.79-2.49-1.58-3.72-2.39-1.97-1.28-3.93-2.57-5.88-3.88-.23-.15-.55-.5-.5-.67.06-.25.4-.46.66-.62.38-.22.68-.2,1.09.14.92.76,1.95,1.39,2.95,2.05,1.77,1.17,3.55,2.32,5.33,3.47.24.16.5.32.78.39.2.06.45-.02.66-.1-3.09-2.31-6.5-4.07-9.56-6.59.69-.33,1.24-.64,1.82-.86.2-.08.65,0,.67.09.06.27.01.58-.08.85-.05.16-.26.27-.38.38Z"/>
  <path d="M98.21,84.48c.41-.34.75-.61,1.09-.89.44-.36.77-.36,1.24-.07,2,1.29,4,2.58,6.01,3.87,1.29.83,2.59,1.66,3.89,2.48.56.35.83.82.77,1.5-.05.48,0,.97,0,1.57-.35-.15-.67-.23-.92-.39-1.85-1.2-3.69-2.41-5.52-3.64-2.18-1.46-4.34-2.95-6.53-4.44Z"/>
  <path d="M51.71,65.78c5.1-3.24,10.43-6.12,15.69-9.16.13.47.26.9.39,1.36-1.49.84-3.02,1.68-4.53,2.56-2.62,1.51-5.24,3.05-7.86,4.57-.66.38-1.33.74-1.99,1.13-.3.18-.57.24-.89.02-.22-.15-.5-.21-.75-.31l-.05-.17Z"/>
  <path d="M84.21,60.25c.27-.33.43-.56.63-.76,1.33-1.28,2.65-2.57,4.02-3.81.39-.35.89-.58,1.37-.82.18-.09.41-.08.62-.11.02.04.03.08.05.12-.34.33-.69.66-1.02,1-1.12,1.16-2.26,2.32-3.36,3.5-.6.64-1.37.72-2.31.87Z"/>
  <path d="M92.85,55.75c-.01.08,0,.14-.03.17-.83,1.11-1.51,2.36-2.71,3.13-.94.61-1.7,1.39-2.31,2.32-.16.25-.33.54-.68.29-.32-.23-.18-.53,0-.76.6-.74,1.19-1.49,2.05-1.96,1.01-.56,1.77-1.4,2.4-2.36.13-.2.26-.41.39-.61.21-.35.49-.44.89-.21Z"/>
  <path d="M91.97,55.63c-.26.3-.51.62-.8.9-.7.7-1.34,1.48-2.14,2.03-.61.42-1.18.83-1.68,1.37-.19.2-.35.43-.53.63-.2.22-.39.56-.74.23-.33-.31-.1-.55.15-.76.49-.42.99-.83,1.47-1.27,1-.91,1.99-1.84,3-2.75.19-.17.41-.33.64-.44.16-.08.37-.08.55-.11.02.06.05.12.07.18Z"/>
  <path class="cls-2" d="M83.72,55.89c-.17,1.78-1.47,4.68-4.06,5.07-.74.11-1.42.44-2,.93-2.14,1.81-4.28,3.62-6.43,5.42-1.77,1.48-3.55,2.93-5.32,4.39-.48.39-.99.68-1.65.44-.45-.16-.59-.39-.38-.81.14-.28.36-.54.61-.73,2.03-1.56,4.09-3.09,6.11-4.65,1.15-.89,2.27-1.83,3.42-2.73.46-.36.96-.66,1.43-1.01.32-.24.62-.52.9-.8.53-.55.69-1.14.51-1.94-.38-1.68.36-3.04,1.54-4.18.98-.93,2.07-1.61,3.52-1.39.99.15,1.81,1.03,1.8,1.98ZM78.29,58.52c0,1.04.24,1.33,1.03,1.19,1.47-.27,3.03-2.06,3.1-3.55.04-.94-.46-1.34-1.38-1.12-1.68.41-2.74,1.75-2.75,3.48Z"/>
  <path class="cls-2" d="M73.18,55.6c-.03,1.28-.28,2.35-.86,3.33-.55.92-.97.92-1.51,0-.68-1.14-1.17-2.33-1.15-3.7.01-.84.32-1.54.95-2.09.67-.59,1.22-.53,1.78.16.57.71.86,1.51.8,2.29Z"/>
  <path class="cls-2" d="M71.52,99.52c-.93-.67-1.77-1.27-2.6-1.88-2.87-2.08-5.75-4.15-8.61-6.26-2.95-2.17-5.85-4.41-8.8-6.57-1.94-1.41-3.93-2.75-5.91-4.1-.25-.17-.37-.35-.37-.67,0-4.13,0-8.27,0-12.4,0-.34.04-.67.06-1.1,2.15,1.5,4.22,2.93,6.28,4.4,2.77,1.97,5.54,3.96,8.3,5.95,2.3,1.65,4.59,3.32,6.9,4.97,1.46,1.04,2.95,2.05,4.4,3.11.2.14.31.52.32.79.05,2.58.08,5.15.1,7.73.02,1.67.02,3.34.02,5.01,0,.31-.05.63-.08,1.04ZM63.95,85.83c.01-.23.02-.34.03-.45.05-.83-.39-1.19-1.19-.97-.09.02-.18.07-.27.11-.82.34-1.57.33-2.32-.25-.96-.74-1.97-1.42-2.97-2.11-1.19-.82-2.39-1.61-3.58-2.42-.47-.32-.47-.48,0-.82.09-.07.22-.1.28-.19.13-.17.26-.35.32-.54.06-.2.02-.42.02-.63,0-.78-.55-1.15-1.29-.82-1.01.44-2.01.91-3.01,1.36-.31.14-.43.37-.47.72-.14,1.29.36,2.17,1.45,2.88,2.4,1.57,4.74,3.23,7.11,4.83.64.43,1.31.83,1.99,1.21.46.27.96.28,1.46.08.5-.2.97-.46,1.47-.63.74-.24,1.2-.63.98-1.36Z"/>
  <path class="cls-2" d="M73.18,83.97c-.42.53-.81.64-1.31.31-.66-.44-1.26-.96-1.89-1.44-.23-.18-.45-.37-.69-.54-1.4-.99-2.8-1.98-4.2-2.98-1.71-1.22-3.43-2.45-5.13-3.69-3.66-2.66-7.29-5.35-10.96-7.99-1.23-.89-2.54-1.68-3.81-2.52-.18-.12-.34-.27-.53-.41.6-.38,1.18-.35,1.67-.01,1.23.86,2.48,1.71,3.72,2.57.37.26.78.49,1.1.8,1.19,1.14,2.59,2,3.91,2.96,3.12,2.27,6.21,4.57,9.35,6.81,2.69,1.92,5.43,3.76,8.15,5.64.21.14.4.32.62.5Z"/>
  <path class="cls-2" d="M94.33,67.92c-.39-.02-.78-.06-1.17-.06-.75,0-1.43.23-2.05.67-3.24,2.29-6.48,4.58-9.73,6.87-.49.35-.97.71-1.5,1-.33.18-.73.28-1.1.29-.22,0-.57-.18-.65-.37-.1-.24-.06-.62.08-.84.18-.29.49-.52.79-.7,3.55-2.23,7.11-4.46,10.68-6.66.53-.33,1.13-.56,1.73-.76.48-.15.6-.41.59-.88-.01-.85-.04-1.73.12-2.56.44-2.28,2.88-4.39,5.01-4.44,1.08-.03,1.96.53,2.36,1.54.59,1.51.27,2.95-.53,4.28-1.05,1.72-2.66,2.54-4.65,2.64ZM93.78,66.83c.15-.22.24-.41.39-.54.15-.14.37-.2.52-.34.83-.8,1.71-1.55,2.44-2.43.55-.66.96-1.45,1.34-2.23.28-.58.1-.89-.54-.93-.52-.03-1.09-.03-1.56.16-1.47.59-2.51,1.68-3.18,3.11-.33.7-.44,1.46-.28,2.23.1.5.35.86.87.97Z"/>
  <path class="cls-2" d="M101.69,45.54c-.29.32-.58.25-.84.15-.42-.17-.84-.34-1.23-.57-2.29-1.35-4.58-2.7-6.85-4.07-.41-.25-.81-.55-1.16-.87-.2-.18-.38-.48,0-.73,1.6,1.63,3.74,2.38,5.63,3.52,1.18.71,2.38,1.39,3.57,2.08.28.16.56.31.89.5Z"/>
  <path d="M78.29,58.52c.01-1.73,1.07-3.07,2.75-3.48.92-.22,1.43.18,1.38,1.12-.07,1.49-1.63,3.28-3.1,3.55-.79.14-1.04-.14-1.03-1.19Z"/>
  <path d="M63.95,85.83c.21.74-.24,1.12-.98,1.36-.5.16-.98.43-1.47.63-.49.19-.99.18-1.46-.08-.67-.39-1.34-.78-1.99-1.21-2.37-1.61-4.71-3.26-7.11-4.83-1.09-.71-1.59-1.6-1.45-2.88.04-.35.16-.58.47-.72,1-.45,2-.92,3.01-1.36.74-.32,1.29.04,1.29.82,0,.21.03.43-.02.63-.05.2-.19.37-.32.54-.06.08-.19.12-.28.19-.46.34-.46.5,0,.82,1.19.81,2.39,1.6,3.58,2.42,1,.69,2.01,1.37,2.97,2.11.75.58,1.5.59,2.32.25.09-.04.18-.08.27-.11.8-.21,1.24.15,1.19.97,0,.11-.01.23-.03.45ZM60.88,85.79c-.54-.32-1.05-.58-1.51-.9-2.03-1.39-4.05-2.8-6.07-4.2-.73-.5-1.42-1.02-1.79-1.87-.06-.15-.24-.25-.46-.47-.03.26-.06.38-.06.5.02.66.4,1.11.91,1.47,1.67,1.18,3.33,2.36,5,3.53.82.58,1.64,1.15,2.48,1.7.44.28.92.47,1.49.23Z"/>
  <path d="M93.78,66.83c-.52-.12-.78-.48-.87-.97-.15-.77-.05-1.52.28-2.23.67-1.43,1.71-2.52,3.18-3.11.47-.19,1.04-.19,1.56-.16.63.04.82.35.54.93-.38.78-.79,1.57-1.34,2.23-.74.88-1.61,1.63-2.44,2.43-.15.14-.37.2-.52.34-.14.13-.23.32-.39.54Z"/>
  <path class="cls-2" d="M60.88,85.79c-.57.24-1.05.05-1.49-.23-.84-.55-1.66-1.12-2.48-1.7-1.67-1.17-3.33-2.36-5-3.53-.51-.36-.89-.81-.91-1.47,0-.12.03-.24.06-.5.22.22.39.32.46.47.36.85,1.06,1.37,1.79,1.87,2.03,1.4,4.04,2.81,6.07,4.2.46.32.97.58,1.51.9Z"/>
  <circle class="cls-3" cx="32.47" cy="22.63" r="7.25"/>
  <path class="cls-3" d="M38.01,48.08l10.81,4.47,9.94-1.84c1.69-.31,3.27.92,3.37,2.64h0c.08,1.33-.78,2.54-2.06,2.91l-12.54,3.58-9.56-3.08"/>
  <path class="cls-1" d="M14.35,114.59l5.67-21.93,2.24-24.33-.25-26.76c-.14-2.28,1.09-4.43,3.14-5.45h0c1.06-.53,2.25-.71,3.41-.54l6.32.97,15.41,3.05c1.57.31,3.2.15,4.68-.46l12.7-5.25c1.82-.75,3.89.23,4.46,2.12h0c.47,1.57-.27,3.24-1.74,3.95l-16.8,8.13h-15.6l6.52,66.16-6.45.19-6.24-39.02-4.28,20.65-5.6,18.82-7.62-.28Z"/>
</svg>