<?xml version="1.0" encoding="UTF-8"?>
<svg id="pictos" xmlns="http://www.w3.org/2000/svg" viewBox="0 0 128 128">
  <defs>
    <style>
      .cls-1, .cls-2, .cls-3 {
        stroke-linecap: round;
      }

      .cls-1, .cls-2, .cls-3, .cls-4 {
        stroke: #000;
      }

      .cls-1, .cls-2, .cls-5, .cls-4 {
        fill: #fff;
      }

      .cls-1, .cls-2, .cls-4 {
        stroke-width: 2px;
      }

      .cls-1, .cls-3 {
        stroke-miterlimit: 10;
      }

      .cls-2, .cls-4 {
        stroke-linejoin: round;
      }

      .cls-3 {
        fill: none;
      }
    </style>
  </defs>
  <g>
    <path d="M105.97,102.47h-43.56s-.02-.17-.02-.29c-.04-5.99-.08-11.99-.1-17.98,0-.23.16-.47.28-.68.12-.21.29-.4.44-.6.56-.79,1.12-1.58,1.67-2.38.15-.22.32-.44.42-.68.24-.59.66-.81,1.3-.81,9.94.06,19.88.12,29.83.17,1.85,0,3.7,0,5.55-.03.49,0,.83.15,1.12.53,1.02,1.3,2.08,2.58,3.1,3.88.1.13.13.35.13.53-.04,5.84-.09,11.68-.14,17.52,0,.28,0,.57,0,.82ZM64.72,100.38c3,0,5.91.03,8.83,0,2.92-.03,5.84-.18,8.76-.18,6.81,0,13.63.07,20.44.11.32,0,.63,0,.96,0v-14.82h-38.99v14.9ZM102.93,83.27c-.23-.47-.42-.8-.55-1.16-.21-.62-.62-.82-1.26-.82-4.45.02-8.89,0-13.34.01-6.56.02-13.13.06-19.69.09-1.43,0-2.08.47-2.63,1.87h37.46Z"/>
    <path d="M103.67,60.34c-11.8,0-31.54.02-43.31.02-.14-.75-.27-1.45-.42-2.29,12.65-.06,33.28-.05,46.02-.02v19.45h-43.59c-.06-3.71.22-13.83-.41-17.53.67-.16,1.31-.32,1.95-.46.35-.08.43.18.45.43.05.59.27,7.6.28,8.19.01,2.37,0,4.73,0,7.08h39.01v-14.88Z"/>
    <path d="M105.58,104.2v4.86h-41.83v-4.86h41.83Z"/>
    <path d="M106.72,78.54c.71,0,.8-.35.8-.84-.01-6.64-.01-13.28-.02-19.93,0-.45.09-.86-.47-1.16-.29-.15-.42-.66-.54-1.03-.74-2.18-1.46-4.37-2.23-6.69-1.04,0-2.12-.02-3.2,0-.43.01-.68-.14-.83-.53-.22-.56-.46-1.11-.73-1.74.24,0,.37,0,.5,0,1.93,0,3.86,0,5.78.02.2,0,.52.12.56.25.87,2.6,1.67,5.22,2.57,7.81.56,1.62.58,3.26.57,4.95-.04,8.25-.02,16.49-.01,24.74,0,6.05,0,12.1.01,18.15,0,3.42.04,6.83.06,10.25,0,.26,0,.53,0,.85h-2.88c0-.21,0-.47,0-.73.06-2.94.12-5.88.2-8.82,0-.26.11-.6.3-.75.3-.24.35-.5.35-.84,0-6.13-.01-12.25,0-18.38,0-.58-.1-1.08-.51-1.52-.15-.16-.28-.4-.28-.6-.03-1.14-.01-2.28-.01-3.5Z"/>
    <path d="M89.63,56.38c3.02-1.64,5.96-3.24,8.92-4.85-.31-.67-.57-1.21-.84-1.79-3.48,2.7-7.47,4.4-11.36,6.28-.51.25-1.13.39-1.7.41-1.94.05-3.89.02-6.01.02.65-.48,1.2-.93,1.8-1.3.19-.12.51-.01.77-.02.61-.02,1.27.1,1.84-.08,1.55-.51,3.08-1.11,4.58-1.74,2.82-1.18,5.54-2.55,8.12-4.2.42-.27.81-.56,1.24-.86-.24-.52-.46-.99-.74-1.59-3.34,2.5-7.02,4.18-10.84,5.68,0-.59-.05-1.14.03-1.68.03-.21.31-.46.53-.55,2.89-1.19,5.75-2.45,8.42-4.11,1.21-.75,1.21-.72.55-1.97-.26-.51-.47-1.04-.67-1.58-.17-.45-.45-.59-.88-.38-.67.33-1.35.62-1.99.99-1.53.89-3.05,1.81-4.57,2.73-.32.19-.62.42-1.05.72-.01-.76-.04-1.48-.03-2.21,0-.09.16-.2.27-.26,2.06-1.16,4.12-2.31,6.18-3.47.71-.4,1.44-.64,2.29-.45.81.18,1.24.71,1.54,1.39,1.08,2.44,2.15,4.88,3.23,7.32.28.63.62,1.23.87,1.86.45,1.17.18,1.86-.9,2.49-1.85,1.1-3.7,2.21-5.55,3.3-.13.07-.28.15-.42.14-1.17-.08-2.34-.17-3.63-.27Z"/>
    <path d="M62.34,103.71v10h-2.72c0-.37,0-.7,0-1.04.02-6.14.06-12.29.07-18.43,0-5.46-.02-10.92-.04-16.37-.02-3.03-.26-14.51-.3-17.55,0-.31-.02-.61,0-.92.03-.86.16-.97,1.17-.93.17,3.93.59,16.31.06,20.3h1.95c-.08.92-.11,1.87-.26,2.79-.05.28-.37.58-.64.74-.61.37-.84.87-.84,1.57.04,4.66.07,9.31.07,13.97,0,1.56-.06,3.13-.15,4.69-.06,1.1.02,1.24,1.12,1.21.15,0,.3-.02.51-.03Z"/>
    <path d="M84.03,69.03c-1.75,0-3.51,0-5.26,0-.79,0-1.4-.31-1.86-.93-.81-1.09-.26-2.56,1.08-2.83.54-.11,1.1-.16,1.49.42.07.1.3.13.46.13,2.75-.03,5.49-.06,8.24-.12.25,0,.49-.22.74-.27.36-.07.75-.17,1.08-.08.9.23,1.63,1.21,1.52,1.91-.15.94-1.12,1.78-2.1,1.79-1.79.01-3.59,0-5.38,0,0,0,0,0,0,0Z"/>
    <path d="M69.93,50.91c-.18,1.28,0,2.36.83,3.26.64.7,1.38,1.15,2.37,1,.62-.09,1.06.09,1.42.61.18.27.48.47.79.76-.22.01-.34.02-.47.02-2.27,0-4.54-.02-6.81,0-.37,0-.6-.1-.81-.39-.47-.63-.97-1.23-1.75-1.5-.11-.04-.23-.28-.2-.39.27-1.22.56-2.44.84-3.62,1.3.09,2.51.17,3.79.25Z"/>
    <path d="M62.53,46.73c1.5,0,3,0,4.51,0,.14,0,3.53.03,3.61.12.85,1.03-1.27,1.37.01,1.01.08.64-.29,1.12-.85,1.14-1.35.03-2.71.07-4.06.09-.36,0-.72-.04-1.1-.06-.46,1.53-2.3,8.99-2.72,10.41-.93-.16-1.71-.3-2.58-.45.6-2.11,2.58-10.15,3.19-12.28Z"/>
    <path d="M101.39,50.85c1.59-.36,1.58-.36,2.04,1.15.46,1.49.93,2.97,1.4,4.45h-7.75s-.04-.08-.07-.12c.17-.15.32-.32.51-.44.84-.52,1.69-1.03,2.54-1.54,1.51-.9,1.87-1.83,1.33-3.51Z"/>
    <path d="M91.02,45.05c.82-.41,1.67-.74,2.51-1.1.13-.06.28-.06.51.02-.11.15-.19.33-.33.44-.44.33-.87.69-1.36.94-2.08,1.04-4.21,1.97-6.55,2.5v-.61c.25.02.48.1.67.05"/>
    <path d="M105.48,81.08c-.56-.73-1.03-1.34-1.56-2.02.63-.06,1.15-.11,1.79-.18-.07.71-.14,1.36-.23,2.19Z"/>
    <path class="cls-5" d="M64.72,100.38v-14.9h38.99v14.82c-.33,0-.64,0-.96,0-6.81-.04-13.63-.1-20.44-.11-2.92,0-5.84.15-8.76.18-2.92.03-5.83,0-8.83,0ZM84.03,94.45s0-.04,0-.05c1.79.07,3.58.16,5.37.21.92.03,1.88-.86,2.05-1.85.14-.75-.33-1.46-1.24-1.74-.38-.12-.83-.11-1.24-.08-.64.04-1.27.19-1.9.2-2.36.04-4.73.05-7.09.06-.18,0-.41-.09-.55-.21-.56-.47-1.59-.47-2.28.03-.63.46-.83,1.25-.5,2,.38.87,1.26,1.44,2.22,1.43,1.72,0,3.43,0,5.15,0Z"/>
    <path class="cls-5" d="M102.93,83.27c-12.54,0-25,0-37.46,0,.55-1.4,1.2-1.87,2.63-1.87,6.56-.03,13.13-.07,19.69-.09,4.45-.01,8.89,0,13.34-.01.64,0,1.05.2,1.26.82.12.36.32.69.55,1.16Z"/>
    <path d="M84.03,94.45c-1.72,0-3.43,0-5.15,0-.96,0-1.84-.56-2.22-1.43-.32-.75-.12-1.54.5-2,.69-.51,1.72-.51,2.28-.03.14.12.36.21.55.21,2.36,0,4.73-.02,7.09-.06.64-.01,1.27-.16,1.9-.2.41-.02.85-.04,1.24.08.91.29,1.37,1,1.24,1.74-.18.99-1.13,1.87-2.05,1.85-1.79-.05-3.58-.14-5.37-.21,0,.02,0,.04,0,.05Z"/>
  </g>
  <circle class="cls-4" cx="34.82" cy="22.77" r="7.24"/>
  <path class="cls-2" d="M24.46,49.22c-.1,2.99,2.46,6.01,4.93,7.99l5.65,4.5c1.35,1.08,1.66,3,.73,4.45h0c-1,1.56-3.08,2.01-4.64,1.01l-7.89-5.06c-3.15-2.02-5.48-5.1-6.56-8.69h0c-1.35-4.47-.8-9.3,1.52-13.35h0c2.7-2.86,6.42-3.64,9.58-3.67h14.07c3.17.03,7.12,1.33,9.58,3.67l9.77,8.74,9.43,7.52c1.35,1.08,1.66,3,.73,4.45h0c-1,1.56-3.08,2.01-4.64,1.01l-12.77-8.2-7.64-5.58-.35,32.81.11,32.81h-8.56s-1.5-37.55-1.5-37.55c-.06-1.51-2.29-1.51-2.35,0l-1.5,37.55h-8.56l.11-32.81-.16-17.65"/>
  <path class="cls-1" d="M72.49,56.08s-4.22-3.8-.94-8.54c2-2.89,6.43-3.38,8.68-3.94s13.57-4.13,16.38-2.63c2.35,1.26,5.4,11.26,5.4,11.26l-5.49,3.57"/>
  <path class="cls-1" d="M82.68,45.66l-1.31,3.85s-3.24-2.06-4.18-3.94-.7-4.93,1.88-6.15,6.66-2.25,8.4-1.45,3.38,1.69,3.71,3.99-.47,5.44-.47,5.44l-3.47-2.3s1.18-1.24.84-3.28c-.23-1.41.8,2.91-1.78,4.08s-7.46-2.58-6.24-1.88,2.63,1.64,2.63,1.64Z"/>
  <line class="cls-3" x1="96.52" y1="56.17" x2="73.06" y2="56.17"/>
</svg>