<?xml version="1.0" encoding="UTF-8"?>
<svg id="pictos" xmlns="http://www.w3.org/2000/svg" viewBox="0 0 128 128">
  <defs>
    <style>
      .cls-1 {
        stroke-linecap: round;
      }

      .cls-1, .cls-2, .cls-3, .cls-4, .cls-5, .cls-6, .cls-7 {
        stroke-miterlimit: 10;
      }

      .cls-1, .cls-8, .cls-5, .cls-7 {
        fill: #fff;
      }

      .cls-1, .cls-5 {
        stroke: #000;
      }

      .cls-1, .cls-5, .cls-7 {
        stroke-width: 2px;
      }

      .cls-9, .cls-4 {
        fill: #1d1d1b;
      }

      .cls-2 {
        stroke-width: 1.73px;
      }

      .cls-2, .cls-3, .cls-6 {
        fill: none;
      }

      .cls-2, .cls-3, .cls-6, .cls-7 {
        stroke: #1d1d1b;
      }

      .cls-3, .cls-4 {
        stroke-width: 1.43px;
      }

      .cls-4 {
        stroke: #fff;
      }

      .cls-6 {
        stroke-width: .71px;
      }
    </style>
  </defs>
  <g>
    <path class="cls-7" d="M72.23,52.73h38.5c2.93,0,5.31,2.38,5.31,5.31v52.86h-49.12v-52.86c0-2.93,2.38-5.31,5.31-5.31Z"/>
    <circle class="cls-4" cx="91.48" cy="82.85" r="12.51"/>
    <circle class="cls-2" cx="91.48" cy="82.85" r="15.16"/>
    <line class="cls-3" x1="66.92" y1="61.61" x2="116.04" y2="61.61"/>
    <rect class="cls-3" x="69.34" y="110.9" width="44.7" height="5.3"/>
    <circle class="cls-8" cx="94.93" cy="79.4" r="3.45"/>
    <circle class="cls-6" cx="78.4" cy="56.97" r="1.33"/>
    <circle class="cls-6" cx="86.74" cy="56.97" r="1.33"/>
    <circle class="cls-6" cx="95.08" cy="56.97" r="1.33"/>
    <circle class="cls-9" cx="103.99" cy="56.97" r="1.9"/>
  </g>
  <g>
    <circle class="cls-5" cx="59.13" cy="31.77" r="7.12"/>
    <path class="cls-5" d="M47.52,54.56l5.44,10.12,8.7,4.78c1.48.81,1.91,2.73.92,4.1h0c-.77,1.06-2.17,1.45-3.38.93l-11.76-5.07-5.35-8.28"/>
    <path class="cls-1" d="M41.1,64.95l.4,4.05,6.25,46.61h-8l-6.12-38.33-4.2,20.28-6.5,18.48h-8l7.09-21.81,1.89-20.46c.21-2.29.59-4.56,1.13-6.79l1.16-4.29c.43-1.58.92-3.15,1.47-4.69l1.04-2.91c1.54-3.29,3.47-6.38,5.75-9.21l2.95-3.46c3.12-3.67,8.65-4.08,12.27-.9l2.67,2.34,9.82,11.9c1,1.21,2.34,2.1,3.85,2.56l12.92,3.91c1.85.56,2.82,2.6,2.07,4.38h0c-.62,1.48-2.22,2.3-3.78,1.92l-17.82-4.26-11.86-9.7-6,9.01-.43,1.38Z"/>
  </g>
  <g>
    <path d="M93.73,40.33c-2.1,0-4.2,0-6.3,0-.38,0-.76-.02-1.13-.07-1.28-.17-2.05-.98-2.06-2.28,0-2.59.04-5.18.04-7.77,0-3.59,0-7.19-.01-10.78,0-1.01.01-1.06,1.04-1.08,1.57-.04,3.14-.02,4.71-.04,1.51-.02,3.04.07,4.53-.14.98-.14,1.62.25,2.28.74,3.81,2.81,5.79,6.61,5.93,11.33.08,2.61.04,5.22.02,7.83-.01,1.31-.86,2.17-2.18,2.19-2.29.04-4.58.01-6.87.01,0,.02,0,.04,0,.07ZM86.66,37.59c.18.04.25.07.32.07,3.48-.01,6.96-.03,10.43-.04.49,0,.76-.28.74-.73-.02-.58-.1-1.17-.2-1.74-.4-2.23-1.18-4.35-2.22-6.34-.86-1.63-1.85-3.21-3-4.66-1.46-1.84-4.09-2.46-6.08-1.65v15.09ZM95.42,21.63c-.44.31-.55.67-.34,1.11.3.61.58,1.23.95,1.8,1.15,1.8,2.07,3.69,2.68,5.73.13.45.31.9.57,1.29.16.25.51.38.77.56.1-.3.31-.61.29-.9-.16-2.41-.74-4.71-2.14-6.73-.76-1.11-1.66-2.1-2.78-2.86Z"/>
    <path d="M85.53,15.76q1.31-.21,1.33-1.48c0-.53,0-1.06.01-1.59,0-.47.23-.7.7-.7,1.72.02,3.43.05,5.15.07.55,0,.71.33.72.81,0,.7,0,1.4.04,2.09.01.17.2.44.34.46.63.06.74.4.61.94-.05.2-.04.41-.05.61h-8.72c-.04-.38-.08-.78-.12-1.22ZM88.47,15.35h3.23c.03-.58.06-1.12.09-1.64h-3.41c.03.57.06,1.09.09,1.64Z"/>
  </g>
</svg>