<?xml version="1.0" encoding="UTF-8"?>
<svg id="pictos" xmlns="http://www.w3.org/2000/svg" viewBox="0 0 128 128">
  <defs>
    <style>
      .cls-1 {
        stroke-linecap: round;
      }

      .cls-1, .cls-2 {
        fill: #fff;
        stroke: #000;
        stroke-linejoin: round;
        stroke-width: 2px;
      }
    </style>
  </defs>
  <path d="M52.38,100.05c1.93-.17,3.88.18,5.85-.34.02.15.07.35.07.56.01,1.74,0,3.48.02,5.22,0,.53-.13.84-.71.84-1.54.02-3.08.06-4.63.07-.34,0-.61-.17-.61-.58,0-1.92,0-3.83,0-5.77Z"/>
  <path d="M104.83,99.95c0,.84,0,1.79,0,2.73,0,.87,0,1.74.02,2.61.01.91-.22,1.21-1.11,1.23-1.15.03-2.29.03-3.44-.01-1.19-.05-1.46-.36-1.43-1.53.05-1.48.12-2.96.18-4.44.02-.46.18-.62.7-.61,1.65.05,3.31.02,5.09.02Z"/>
  <path d="M106.73,76.83c-1.56-2.79-3.54-5.3-5.79-7.57-1.28-1.29-2.9-2.01-4.81-1.83-.16-.66-.31-1.33-.5-1.99-.43-1.43-1.33-2.55-2.7-3.06-2.38-.9-4.81-1-7.25-.08-1.01.38-2.06.64-3.09.97-.11.04-.27.12-.3.21-.12.36-.2.73-.27.98.33-.07.65-.15.98-.2.23-.03.47,0,.71,0,1.92,0,3.84-.04,5.76-.02,1.14.01,2.24.24,3.17.99.61.5.98,1.11.84,1.91-.14.78-.6,1.34-1.36,1.59-.42.14-.89.22-1.34.23-3.84.05-7.68.08-11.52.13-.16,0-.35.06-.47.16-.75.61-.62,1.47.33,1.75.83.24,1.7.42,2.56.44,3.05.05,6.1.03,9.15.02,1.64,0,2.99-.68,4.07-1.9.18-.21.37-.41.55-.61.37.16.7.34,1.05.45,1.04.3,1.96.81,2.64,1.63,1.5,1.79,2.95,3.62,4.39,5.45.89,1.13,1.62,2.35,1.91,3.78.56,2.72-.77,6.13-4.2,6.14.45-.53,1.07-1.21,1.65-1.93,1.3-1.6,1.07-4.03-.45-5.42-.88-.8-1.94-.91-3.05-1.1-3.68-.64-7.38-.52-11.08-.5-2.97.02-5.94.09-8.91.11-1.25,0-2.49-.08-3.74-.08-1.09,0-2.18.06-3.27.08-4.63.11-9.27.2-13.9.32-1.19.03-2.31.38-3.31,1.02-.76.48-1.37,1.13-1.5,2.04-.29,2.07.31,3.8,2.1,5.01.31.21.64.38.96.57-1.11.33-2.64-.13-3.45-.94-1.35-1.35-1.75-3.03-1.7-4.84.07-2.37,1.3-4,3.46-4.92.56-.24,1.15-.42,1.75-.55,3.65-.8,7.32-1.52,10.95-2.4,2.41-.59,4.68-1.55,6.61-3.22,1.36-1.17,2.51-2.51,3.61-3.91,1.35-1.72,2.44-3.58,2.92-5.71.55-2.44.93-4.93,1.35-7.4.02-.14-.25-.43-.43-.49-5.26-1.83-10.64-3.36-15.51-6.17-.43-.25-.87-.38-1.31-.42-.25.47-.4.97-.41,1.53,0,.64.12,1.26.25,1.89.24,1.18.4,2.31.06,3.45-.26,2.62-1.49,4.86-2.4,7.11.62.53,1.22,1.03,1.87,1.59,2.05-3.37,3.4-7,3.69-11.09,1.07.4,2.07.8,3.09,1.17,2.44.87,4.88,1.74,7.34,2.56.47.16.66.34.64.84-.08,2.08-.53,4.06-1.23,6.01-1.91,5.3-5.57,8.62-11.03,9.95-1.75.42-3.51.76-5.27,1.15-1.92.42-3.83.86-5.75,1.28-.05-.08-.1-.16-.14-.24.92-1.28,1.84-2.57,2.82-3.94-.69-.32-1.37-.64-2.05-.95-.34-.15-.56-.03-.71.29-.23.46-.43.94-.71,1.37-1.31,1.96-2.73,3.84-3.94,5.86-1.42,2.36-2.32,4.88-1.75,7.74.44,2.22,1.48,3.97,3.58,4.83,1.65.68,3.43.9,5.24.88,4.87-.06,9.74-.09,14.61-.11,5.92-.02,11.85-.03,17.77-.01,3.03.01,6.06.01,9.09.19,1.95.12,3.7-.31,5.31-1.32.65-.41,1.25-1.01,1.65-1.66,1.86-2.98,1.77-6.06.09-9.07Z"/>
  <path d="M47.01,94.25c0-1.09-.02-2.18,0-3.27.02-.81.12-.96.94-.96,1.52-.01,3.04.06,4.56.13,2.25.11,4.5.35,6.75.36,7.41.03,14.81-.05,22.22-.02,5.92.02,11.84.17,17.76.2,1.69,0,3.39-.25,5.08-.34,1.62-.08,3.24-.13,4.86-.12.82,0,1.14.37,1.15,1.2.02,2.12.03,4.24.02,6.36,0,.93-.84,1.67-1.93,1.71-.69.03-1.39-.01-2.08-.01-2.06-.01-4.11-.03-6.17-.03-3.68,0-7.37,0-11.05,0-8.61-.01-17.23-.02-25.84-.04-3.33,0-6.65-.08-9.98-.09-1.39,0-2.77.09-4.16.1-1.21.02-2.02-.75-2.06-1.96-.03-1.07,0-2.14,0-3.21-.03,0-.05,0-.08,0Z"/>
  <path d="M97.23,65.75c-.24-.78-.4-1.54-.71-2.24-.85-1.9-2.5-2.78-4.45-3.05-2.73-.38-5.45-.16-8.17.24-.13.02-.26.08-.5.16.06-.29.1-.53.15-.77.15-.66.3-1.31.44-1.97.14-.68.41-.99,1.11-1.03.89-.05,1.78-.02,2.67-.02,4.77,0,9.55,0,14.32.03.42,0,.87.08,1.27.23.74.29,1.18.86,1.21,1.68.03.87.02,1.74.02,2.61,0,3.07,0,6.14-.05,9.25-1.77-2.69-3.86-4.89-7.3-5.12Z"/>
  <path d="M54.66,67.2c-.63.74-1.17,1.36-1.7,1.98-.05-.02-.1-.04-.15-.05v-2.8c.62.29,1.15.54,1.85.87Z"/>
  <path d="M58.26,57.21h3.02c-.26.45-.44.82-.68,1.14-.07.1-.37.14-.49.08-.64-.33-1.26-.7-1.89-1.05.01-.06.03-.11.04-.17Z"/>
  <path d="M62.35,59.33c-1.12,3.69-3.55,7.05-6.72,9.23-.62.43-.91,1.23-.5,1.92.36.62,1.29.94,1.92.5,3.82-2.63,6.66-6.47,8.01-10.91.22-.73-.26-1.53-.98-1.73s-1.51.25-1.73.98h0Z"/>
  <circle class="cls-2" cx="51.19" cy="32.25" r="5.85"/>
  <path class="cls-2" d="M41.66,50.97l4.47,8.31,7.15,3.93c1.21.67,1.57,2.24.76,3.36h0c-.63.87-1.78,1.19-2.77.76l-9.66-4.17-4.39-6.8"/>
  <path class="cls-1" d="M36.39,59.5l.33,3.32,4.01,44.67-5.2.18-5.03-37.76-3.45,19.98-4.52,18.21-6.14-.27,4.57-21.22,1.55-20.16c.17-2.25.23-3.46.67-5.29l.95-3.52c.35-1.3.75-2.58,1.2-3.85l.85-2.39c1.27-2.7,2.85-5.24,4.72-7.56l2.42-2.84c2.56-3.01,7.1-3.35,10.08-.74l2.2,1.92,8.06,9.77c.82,1,1.92,1.73,3.16,2.1l10.61,3.21c1.52.46,2.31,2.13,1.7,3.6h0c-.51,1.22-1.82,1.89-3.1,1.58l-14.63-3.5-9.74-7.96-4.92,7.4-.35,1.13Z"/>
</svg>