<?xml version="1.0" encoding="UTF-8"?>
<svg id="pictos" xmlns="http://www.w3.org/2000/svg" viewBox="0 0 128 128">
  <defs>
    <style>
      .cls-1, .cls-2 {
        stroke-linecap: round;
      }

      .cls-1, .cls-2, .cls-3, .cls-4 {
        fill: #fff;
        stroke: #000;
      }

      .cls-1, .cls-3, .cls-4 {
        stroke-width: 1.92px;
      }

      .cls-1, .cls-4 {
        stroke-linejoin: round;
      }

      .cls-2 {
        stroke-width: 2px;
      }

      .cls-2, .cls-3, .cls-5 {
        stroke-miterlimit: 10;
      }

      .cls-5 {
        stroke: #fff;
        stroke-width: .75px;
      }
    </style>
  </defs>
  <path class="cls-5" d="M117.26,107.4v-11.63s-.02-80.32-.02-80.32c0-.93.28-2.35-.4-3.1-1.25-.57-10.88-.23-12.42-.23h-27.74c-1.33,0-7.67-.55-8.13.68-.25.68-.1,11.76-.11,12.86v20.02c.46.05.9.13,1.31.23.46.12.9.28,1.33.47.03-1.16,0-10.8,0-11.96v-9.69c0-.7-.13-9.47.05-9.98l.16-.05c1.28-.04,2.58,0,3.87,0h39.47c-.04,1.04,0,2.09,0,3.13v92.47s-9.37,0-9.37,0c-.85,0-1.7.05-2.55,0v-1.8c3.12-2.11,3.08-2.42,3.07-6.37v-24.62c.33.05.63.03.96,0,1.53-.8,1.18-5,.9-6.24-.36-1.62-2.78-1.14-3.99-1.16.08-.16.15-.32.22-.48,1.07-2.19.74-4.85.74-7.21,0-4.24,1.22-5.41-2.9-5.72-1-4.25-4.58-5.67-8.05-3.07-3.34-2.92-7.46-1.04-8.16,3.24h-2.43v2.52c.27.36.46.66.23,1.11-.8,1.53.11,3,.07,3.96-.54.67-.44,3.5-.24,3.83.72-.14.8,1.12.95,1.6h-20.05c2.29-3.15,1.63-6.94,1.63-10.68-1.72-.04-3.45,0-5.18,0,.63-1.28.66-2.66-.28-3.84.24-.29.57-.67.94-1.08-.24-.12-.46-.32-.61-.64-.01-.03-.03-.06-.04-.09-.19-.39-.21-.75-.12-1.1-1.11,1.22-2.21,2.46-3.25,3.74,0,.06.02.12.02.18.57.24,1.01.64,1.25,1.38-.64.54-1.25,1.05-1.99,1.45-1.14.98-2.21,1.52-3.56.73-.6-.16-1.17-.45-1.64-.86-.04-.03-.18-.18-.32-.32-.26-.07-.52-.14-.79-.21-.03,0-.04,0-.06,0v.13h-8.96c-1.1,0-1.23.12-1.8.09-.9.19-1.24,1.64-1.23,2.25.08,2.92,0,8.87.2,8.88-.04,1.29,0,2.6,0,3.9v30.96c-.38-.02-.77-.03-1.15-.04.12.36.23.72.28,1.09.06.4.12.77.16,1.14.06.15.11.32.17.48,2.05.17,3.99.79,5,2.88h-4.32c.12.9.15,1.81.08,2.69h65.86c2.4,0,9.68-.06,12.08,0,1.48-.97.83-3.87.83-5.6ZM96.7,55.1c1.18-.14,1.93.56,2.32,1.61-.51.02-1.03,0-1.54,0h-2.3c.23-.89.53-1.46,1.53-1.61ZM90.21,55.1c.9-.46,2.05.93,2.34,1.61-.59,0-1.19,0-1.78,0-.82.01-1.65,0-2.47,0,.34-.99.81-1.59,1.92-1.61ZM86.11,59.39h15.9c0,.52.02,1.03,0,1.54-5.3,0-10.61.08-15.9,0v-1.54ZM86.11,63.6c5.3-.03,10.61-.06,15.9,0,.02.56.09,1.19,0,1.74-5.1-.4-10.52.29-15.9-.19.02-.51-.01-1.03,0-1.54ZM101.39,68.76c-.99,2.08-5.24,1.36-7.24,1.36-1.92,0-4.96.39-6.7-.48-.79-.5-1.91-1.76-.06-1.67,4.27.21,9.56.33,13.79-.15.81-.12.48.38.22.94ZM47.43,62.33c-.03-.24-.17-.8,0-1,.77-.07,1.58-.03,2.36,0,0,0,0,0,0,.01,0,0,0,0,0,0,.21,0,.4.04.58.13.13.04.24.11.34.19.56.41,1.16.76,1.74,1.13,1.28.24,2.19.3,3.44-.26,1.79-.8,2.37-.59,4.34-.59h2.76c.01,2.73.26,6.7-2.96,8-.95.38-8.34.41-9.98-.31-1.55-1.07-2.77-2.62-2.62-4.6-.03-.13-.06-.27-.07-.4-.05-.5-.13-1-.09-1.5.02-.3.1-.56.24-.8-.02,0-.05,0-.07,0ZM100.17,72.67c1.67,0,3.31.19,4.98,0-.02.7,0,1.42,0,2.12H40.9c.05-.71.04-1.41,0-2.12,1.72-.07,3.47,0,5.19,0h54.07ZM103.12,80.97c0,.75.01,1.5,0,2.25h-29.82c0-1.89-.09-3.81,0-5.7,3.94-.05,7.88,0,11.82,0,0,.78-.04,1.56,0,2.34h6.72v-2.34c1.24.06,2.5,0,3.74,0h7.54c-.05,1.14-.01,2.3,0,3.45ZM59.08,79.86c0-.78,0-1.56,0-2.34.67-.04,1.37,0,2.04,0h3.95c1.84,0,3.7-.05,5.54,0,0,1.9.07,3.8,0,5.7h-29.71v-5.7h11.16v2.34c.57.09,6.36.1,7.02,0ZM40.93,61.42c.16-.08.33-.07.51-.08h3.26c0,3.81-.42,5.21,1.56,8.5-.08.08-.3.05-.42.06h-4.93c-.03-2.39-.22-6.17.03-8.48ZM41.02,104.44c-.26-1.35-.12-3.93-.12-5.37v-8.68c0-1.47.05-2.95,0-4.42,1.13-.12,2.36,0,3.49,0h20c2.06,0,4.17-.09,6.22,0v13.85c0,1.98.1,3.99,0,5.96h-24.76c-1.36,0-4.47.53-4.84-1.34ZM100,110.31h-54.5c-.18-.65-.5-1.21-.81-1.8.45.02.9,0,1.34,0h47.97c2,0,4,.05,6,0-.03.6,0,1.2,0,1.8ZM98.98,105.77h-25.68v-19.81h29.82v15.95c.02,1.1.24,2.4-.42,3.36-.94.86-2.56.5-3.72.5Z"/>
  <path d="M75.52,88.38c.86,0,1.72-.01,2.58,0v6.11c0,.54.25,1.51,0,1.98-.85.04-1.72.01-2.58,0,.11-2.64,0-5.43,0-8.09Z"/>
  <path d="M72.35,60.24c1.14-.06,2.36-.47,2.44.7-1.11-.11-2.43.35-2.44-.7Z"/>
  <path d="M69.38,60.24c.42,0,1.38-.08,1.73,0,.4.09.25.56-.03.7-.55-.04-1.89.18-2.23-.34l.07-.18c.18-.14.24-.17.46-.18Z"/>
  <path d="M76.18,60.24c1.21-.1,2.43-.57,2.5.7-.81-.09-1.68-.02-2.5,0-.01-.24-.01-.47,0-.7Z"/>
  <path d="M73.03,61.73c.59.02,1.17,0,1.76,0-.02.53-.01,1.06,0,1.6h-2.44v-1.6c.23,0,.45,0,.68,0Z"/>
  <path d="M76.42,61.73c.8-.01,1.61,0,2.41,0,.19.52.31,1.05.39,1.6-.78-.12-1.68-.02-2.47,0-.13-.53-.24-1.06-.33-1.6Z"/>
  <path d="M68.44,61.73c.88-.04,1.76,0,2.64,0-.18.53-.33,1.06-.47,1.6-.76.15-1.59.07-2.36,0,.04-.53.12-1.07.18-1.6Z"/>
  <path d="M68.05,64.11h2.38c-.16.6-.31,1.19-.43,1.8-.77.06-1.58,0-2.36,0,.11-.61.25-1.2.41-1.8Z"/>
  <path d="M72.35,64.11h2.44v1.8h-2.44v-1.8Z"/>
  <path d="M78.1,64.11c.45.03.88.03,1.32,0,.16.59.27,1.19.36,1.8-.32,0-.63,0-.95,0-.51.01-1.02.03-1.53,0-.13-.6-.24-1.2-.35-1.8.38,0,.77,0,1.15,0Z"/>
  <path d="M67.64,66.73h2.15c-.12.68-.3,1.35-.41,2.03h-2.28c.05-.71.21-1.39.54-2.03Z"/>
  <path d="M72.58,66.73c.73-.01,1.47,0,2.2,0,0,.78.32,2.01-.4,2.03-.68.02-1.35.01-2.03,0-.01-.49-.14-1.57.02-1.97l.21-.06Z"/>
  <path d="M79.42,66.73h.36c.29.67.42,1.31.54,2.03h-1.64c-1.25.03-.94-.82-1.17-2.03.64-.03,1.28,0,1.92,0Z"/>
  <path d="M68.44,88.38c-.86.11-1.75.11-2.6,0v8.09c.86,0,1.74.04,2.6,0v-5.42c0-.88.1-1.8,0-2.67Z"/>
  <path d="M67.06,45.94c1.77,0,3.23.39,4.38,1.05,1.15.66,1.96,1.57,2.49,2.48.98,1.7,1.09,3.35,1.11,4.03h.77v3h-4.5v-3h.74c0-.23-.04-.62-.15-1.09-.13-.59-.38-1.26-.81-1.82-.29-.38-.64-.72-1.13-1-.65-.37-1.55-.65-2.9-.65h-.1c-1.82.02-3.38.78-4.84,2.06-1.44,1.28-2.7,3.07-3.71,4.93-1.22,2.25-1.11,2.58-.85,2.58.11,0,.24-.06.32-.06.04,0,.06.02.05.08l.84,1.67-4.79-.13s0,0,0,0c-.02,0-.15.1-.27.1-.21,0-.34-.33.41-2.17,1.22-2.95,3.06-6.53,5.83-9.08,1.84-1.7,4.2-2.95,6.97-2.97h.13s0,0,.01,0M67.06,43.94h-.16c-2.98.03-5.85,1.24-8.31,3.5-2.48,2.28-4.55,5.49-6.33,9.79-.56,1.35-.98,2.57-.55,3.6l-.3,1.17,1.55.04c.23.08.48.13.73.13.24,0,.45-.04.63-.09l4.37.12,3.36.09-1.52-2.99-.72-1.43c-.02-.06-.04-.13-.07-.19.11-.21.24-.47.41-.79,1.01-1.87,2.15-3.39,3.28-4.39,1.19-1.05,2.31-1.54,3.54-1.56h.08c.8,0,1.45.13,1.9.39.13.07.24.15.34.25v6.92h8.5v-7h-.99c-.22-1.07-.61-2.1-1.15-3.03-.78-1.35-1.9-2.46-3.23-3.22-1.51-.87-3.32-1.31-5.37-1.31h0Z"/>
  <g>
    <path class="cls-3" d="M57.3,51.1l-13.15,1.48-4.65-12.87c-2.42-5.85-10.84-2.01-8.04,3.65l7.32,13.23c.43.9,1.18,1.63,2.23,1.81l15.18-2.33c1.3.23,2.58-.57,2.92-1.86.36-1.36-.46-2.75-1.82-3.11Z"/>
    <circle class="cls-4" cx="32.35" cy="23.78" r="6.94"/>
    <path class="cls-1" d="M15.01,111.79l5.43-20.99,2.15-23.29-.24-25.61c-.14-2.18,1.05-4.24,3-5.21h0c1.01-.5,2.15-.68,3.27-.51l5.97.21c2.67.09,4.83,2.2,4.99,4.86l4.32,70.21-6.17.18-5.97-37.35-4.09,19.76-5.36,18.01-7.29-.26Z"/>
    <path class="cls-2" d="M22.63,44l8.11,12.49c.43.92,1.2,1.66,2.28,1.85l17.7,3.22c1.32.24,2.63-.58,2.98-1.9.36-1.39-.47-2.81-1.86-3.17l-15.63-4.09-3.27-7.22"/>
  </g>
</svg>