<?xml version="1.0" encoding="UTF-8"?>
<svg id="pictos" xmlns="http://www.w3.org/2000/svg" viewBox="0 0 128 128">
  <defs>
    <style>
      .cls-1 {
        stroke-width: 1.39px;
      }

      .cls-1, .cls-2, .cls-3, .cls-4, .cls-5 {
        stroke: #000;
      }

      .cls-1, .cls-2, .cls-3, .cls-5 {
        fill: #fff;
      }

      .cls-1, .cls-3, .cls-4 {
        stroke-miterlimit: 10;
      }

      .cls-1, .cls-4 {
        stroke-linecap: square;
      }

      .cls-2 {
        stroke-linecap: round;
      }

      .cls-2, .cls-3, .cls-5 {
        stroke-width: 2px;
      }

      .cls-2, .cls-5 {
        stroke-linejoin: round;
      }

      .cls-6 {
        fill: #1d1d1b;
      }

      .cls-4 {
        fill: none;
        stroke-width: 2.59px;
      }
    </style>
  </defs>
  <g>
    <path class="cls-6" d="M101.29,41.39l2.8,1.09c.61.24.61,1.14,0,1.38l-2.8,1.09c-1.26.49-2.25,1.54-2.72,2.87l-1.03,2.95c-.22.64-1.08.64-1.31,0l-1.03-2.95c-.47-1.33-1.46-2.37-2.72-2.87l-2.8-1.09c-.61-.24-.61-1.14,0-1.38l2.8-1.09c1.26-.49,2.25-1.54,2.72-2.87l1.03-2.95c.22-.64,1.08-.64,1.31,0l1.03,2.95c.47,1.33,1.46,2.37,2.72,2.87Z"/>
    <path class="cls-6" d="M92.16,54.58l1.65.65c.36.14.36.67,0,.81l-1.65.65c-.74.29-1.33.91-1.6,1.69l-.61,1.74c-.13.38-.64.38-.77,0l-.61-1.74c-.28-.78-.86-1.4-1.6-1.69l-1.65-.65c-.36-.14-.36-.67,0-.81l1.65-.65c.74-.29,1.33-.91,1.6-1.69l.61-1.74c.13-.38.64-.38.77,0l.61,1.74c.28.78.86,1.4,1.6,1.69Z"/>
    <path class="cls-6" d="M108.67,50.96l1.27.5c.28.11.28.52,0,.63l-1.27.5c-.57.22-1.02.7-1.23,1.3l-.47,1.34c-.1.29-.49.29-.59,0l-.47-1.34c-.21-.6-.66-1.08-1.23-1.3l-1.27-.5c-.28-.11-.28-.52,0-.63l1.27-.5c.57-.22,1.02-.7,1.23-1.3l.47-1.34c.1-.29.49-.29.59,0l.47,1.34c.21.6.66,1.08,1.23,1.3Z"/>
  </g>
  <g>
    <g>
      <path class="cls-4" d="M91.38,75.24c-2,16.5-33.27,23.57-33.27,38.26"/>
      <path class="cls-4" d="M58.12,75.24c2,16.5,33.27,23.57,33.27,38.26"/>
    </g>
    <rect x="45.63" y="72.92" width="58.23" height="4.65" rx="2.32" ry="2.32"/>
  </g>
  <g>
    <g>
      <polyline class="cls-4" points="32.74 62.7 37.23 91.25 61.27 91.25"/>
      <path class="cls-4" d="M37.23,91.25c1.54,9.71,25.58,13.87,25.58,22.51"/>
      <path class="cls-4" d="M62.81,91.25c-1.54,9.71-25.58,13.87-25.58,22.51"/>
      <path class="cls-1" d="M62.5,90.89h-24.26s-1-5.47-1-5.47h25.27c1.5,0,2.72,1.22,2.72,2.72v.04c0,1.5-1.22,2.72-2.72,2.72Z"/>
    </g>
    <g>
      <polyline class="cls-4" points="116.76 62.77 112.27 91.32 88.23 91.32"/>
      <path class="cls-4" d="M112.27,91.32c-1.54,9.71-25.58,13.87-25.58,22.51"/>
      <path class="cls-4" d="M86.69,91.32c1.54,9.71,25.58,13.87,25.58,22.51"/>
      <path class="cls-1" d="M87,90.96h24.26s1-5.47,1-5.47h-25.27c-1.5,0-2.72,1.22-2.72,2.72v.04c0,1.5,1.22,2.72,2.72,2.72Z"/>
    </g>
  </g>
  <g>
    <path class="cls-3" d="M78.33,60.83c.78-.14,2.63.27,2.99.97.5.97,1.72,4.56,1.41,8.17s-3.02,8.08-4.01,9.34c-1.25,1.59-2.2.81-2.96.45-1.21-.57-.28-1.55-1.19-2.04s-1.75.98-2.78.42c-.93-.49-.39-2.35-1.4-2.75s-1.57,1.15-2.5.66c-.99-.52-1.38-1.23-.9-2.43.53-1.32.92-1.32,2.89-3s5.44-3.24,6.03-5.92c.38-1.73.71-3.57,2.42-3.87Z"/>
    <g>
      <circle class="cls-5" cx="56.31" cy="30.09" r="7.12"/>
      <path class="cls-5" d="M44.71,52.89l5.44,10.12,8.7,4.78c1.48.81,1.91,2.73.92,4.1h0c-.77,1.06-2.17,1.45-3.38.93l-11.76-5.07-5.35-8.28"/>
      <path class="cls-2" d="M38.28,63.28l.4,4.05,6.25,46.61h-8l-6.12-38.33-4.2,20.28-6.5,18.48h-8l7.09-21.81,1.89-20.46c.21-2.29.59-4.56,1.13-6.79l1.16-4.29c.43-1.58.92-3.15,1.47-4.69l1.04-2.91c1.54-3.29,3.47-6.38,5.75-9.21l2.95-3.46c3.12-3.67,8.65-4.08,12.27-.9l2.67,2.34,9.82,11.9c1,1.21,2.34,2.1,3.85,2.56l12.92,3.91c1.85.56,2.82,2.6,2.07,4.38h0c-.62,1.48-2.22,2.3-3.78,1.92l-17.82-4.26-11.86-9.7-6,9.01-.43,1.38Z"/>
    </g>
  </g>
</svg>