<?xml version="1.0" encoding="UTF-8"?>
<svg id="pictos" xmlns="http://www.w3.org/2000/svg" xmlns:xlink="http://www.w3.org/1999/xlink" viewBox="0 0 128 128">
  <defs>
    <style>
      .cls-1, .cls-2 {
        stroke-linecap: round;
      }

      .cls-1, .cls-2, .cls-3, .cls-4 {
        fill: #fff;
      }

      .cls-1, .cls-2, .cls-4 {
        stroke: #1d1d1b;
        stroke-miterlimit: 10;
      }

      .cls-1, .cls-4 {
        stroke-width: 2px;
      }

      .cls-5 {
        fill: none;
      }

      .cls-2 {
        stroke-width: 1.25px;
      }

      .cls-6 {
        fill: #1d1d1b;
      }

      .cls-7 {
        clip-path: url(#clippath);
      }
    </style>
    <clipPath id="clippath">
      <rect class="cls-5" x="12" y="78.61" width="101.82" height="37.02"/>
    </clipPath>
  </defs>
  <g class="cls-7">
    <g>
      <polygon class="cls-4" points="23.47 80.97 37.21 80.97 34.46 149.95 26.22 149.95 23.47 80.97"/>
      <polygon class="cls-4" points="87.95 80.97 101.69 80.97 98.94 149.95 90.7 149.95 87.95 80.97"/>
    </g>
  </g>
  <path class="cls-4" d="M112.85,75.11c3.11,10.07-1.87,14.95-5.69,14.95H17.73c-3.82,0-8.22-6.08-5.6-15.37"/>
  <path class="cls-4" d="M107.29,81.36H17.87c-3.82,0-6.55-3.69-5.44-7.34L29.92,16.41c.73-2.4,2.94-4.03,5.44-4.03h54.43c2.5,0,4.71,1.64,5.44,4.03l17.5,57.61c1.11,3.65-1.62,7.34-5.44,7.34Z"/>
  <path class="cls-1" d="M80.06,58.28l3.16,2.59s5.33-4.18,7.98-6.12c2.65-1.94,10.06-1.59,13.77-4.99,3.71-3.39-1.95-6.06-3.75-3.12s-8.1,3.94-12.84,5.07c-2.71.65-5.94,3.68-8.21,6.16-1.7,1.86-2.86,3.41-2.86,3.41,0,0-4.99-3.23-9.7-9.53s-15.63-12.53-15.63-12.53c0,0,.13-3.71,3.83-5.71s4.98-.72,10.82-6.25,7.92-8.14,11.57-7.35,27.42,20.89,27.93,26.79"/>
  <path class="cls-2" d="M105.99,22.51l-5.55,4.2c-.81.84-1.21,1.99-1.01,3.08.59,3.15-.15,7.02-.15,7.02l-4.02,10.12c-5.22-1.01.52-7.73-2.09-9.36-2.62-1.63-6.25,2.36-6.25,2.36l-8.39,8.55c-2.18,2.04-4.03-.26-2.32-2.1l7.49-8.5-.95-.99-11.71,8.62c-2.14,1.49-3.9-1.29-2.09-2.73l11.66-8.83-.66-1.31-10.23,5.12c-2.12,1-3.53-1.95-1.24-3.13l10.12-4.9-.37-1.17s-7.34,1.49-7.55,1.51c-2.07.21-2.39-2.45-.38-3.09l7.72-1.81s5.96-3.93,10.76-4.67c1.49-.23,5.42-2.55,6.62-3.5l13.69,6.35"/>
  <g>
    <g>
      <path class="cls-6" d="M41.85,32.87c-.53,0-.99-.33-1.17-.85l-.84-2.41c-.31-.9-.98-1.6-1.82-1.93l-2.28-.89c-.49-.19-.8-.66-.8-1.19s.31-1,.8-1.19l2.28-.89c.84-.33,1.51-1.03,1.82-1.93l.84-2.41c.18-.51.64-.85,1.17-.85s.99.33,1.17.85l.84,2.41c.31.9.98,1.6,1.82,1.93l2.28.89c.49.19.8.66.8,1.19s-.32,1-.8,1.19l-2.28.89c-.84.33-1.51,1.03-1.82,1.93l-.84,2.41c-.18.51-.64.85-1.17.85Z"/>
      <path class="cls-3" d="M41.85,19c.22,0,.44.13.53.39l.84,2.41c.38,1.08,1.19,1.94,2.22,2.34l2.28.89c.49.19.49.93,0,1.12l-2.28.89c-1.03.4-1.84,1.26-2.22,2.34l-.84,2.41c-.09.26-.31.39-.53.39s-.44-.13-.53-.39l-.84-2.41c-.38-1.08-1.19-1.94-2.22-2.34l-2.28-.89c-.49-.19-.49-.93,0-1.12l2.28-.89c1.03-.4,1.84-1.26,2.22-2.34l.84-2.41c.09-.26.31-.39.53-.39M41.85,17.64c-.83,0-1.54.51-1.81,1.3l-.84,2.41c-.25.71-.77,1.27-1.43,1.52l-2.28.89c-.75.29-1.23,1.01-1.23,1.83s.48,1.53,1.23,1.83l2.28.89c.66.26,1.18.81,1.43,1.52l.84,2.41c.28.79.99,1.3,1.81,1.3s1.54-.51,1.81-1.3l.84-2.41c.25-.71.77-1.27,1.43-1.52l2.28-.89c.75-.29,1.23-1.01,1.23-1.83s-.48-1.53-1.23-1.83l-2.28-.89c-.66-.26-1.18-.81-1.43-1.52l-.84-2.41c-.28-.79-.99-1.3-1.81-1.3h0Z"/>
    </g>
    <g>
      <path class="cls-6" d="M35.86,40.35c-.43,0-.81-.27-.96-.69l-.5-1.42c-.16-.45-.49-.81-.92-.98l-1.35-.53c-.4-.15-.65-.53-.65-.96s.25-.81.65-.96l1.35-.53c.42-.17.76-.52.92-.98l.5-1.42c.15-.42.52-.69.96-.69s.81.27.96.69l.5,1.42c.16.45.49.81.92.98l1.35.53c.4.15.65.53.65.96s-.25.81-.65.96l-1.35.53c-.42.17-.76.52-.92.98l-.5,1.42c-.15.42-.52.69-.96.69Z"/>
      <path class="cls-3" d="M35.86,31.88c.13,0,.26.08.31.23l.5,1.42c.22.64.7,1.15,1.31,1.38l1.35.53c.29.11.29.55,0,.66l-1.35.53c-.61.24-1.09.74-1.31,1.38l-.5,1.42c-.05.15-.18.23-.31.23s-.26-.08-.31-.23l-.5-1.42c-.22-.64-.7-1.15-1.31-1.38l-1.35-.53c-.29-.11-.29-.55,0-.66l1.35-.53c.61-.24,1.09-.74,1.31-1.38l.5-1.42c.05-.15.18-.23.31-.23M35.86,30.52c-.72,0-1.36.46-1.6,1.14l-.5,1.42c-.09.27-.28.47-.52.57l-1.35.53c-.66.26-1.08.88-1.08,1.6s.43,1.34,1.08,1.6l1.35.53c.24.09.43.3.52.57l.5,1.42c.24.68.88,1.14,1.6,1.14s1.36-.46,1.6-1.14l.5-1.42c.09-.27.28-.47.52-.57l1.35-.53c.66-.26,1.08-.88,1.08-1.6s-.43-1.34-1.08-1.6l-1.35-.53c-.24-.09-.43-.3-.52-.57l-.5-1.42c-.24-.68-.88-1.14-1.6-1.14h0Z"/>
    </g>
    <g>
      <path class="cls-6" d="M49.83,36.29c-.4,0-.75-.25-.88-.63l-.38-1.09c-.11-.31-.33-.55-.61-.66l-1.04-.41c-.37-.14-.6-.49-.6-.89s.24-.75.6-.89l1.04-.41c.28-.11.51-.35.61-.66l.38-1.1c.13-.38.48-.63.88-.63s.75.25.88.63l.38,1.09c.11.31.33.55.61.66l1.04.41c.36.14.6.49.6.89s-.24.75-.6.89l-1.04.41c-.28.11-.51.35-.61.66l-.38,1.1c-.13.38-.48.63-.88.63Z"/>
      <path class="cls-3" d="M49.83,29.62c.1,0,.2.06.24.18l.38,1.1c.17.49.54.88,1.01,1.06l1.04.41c.22.09.22.42,0,.51l-1.04.41c-.47.18-.84.57-1.01,1.06l-.38,1.1c-.04.12-.14.18-.24.18s-.2-.06-.24-.18l-.38-1.1c-.17-.49-.54-.88-1.01-1.06l-1.04-.41c-.22-.09-.22-.42,0-.51l1.04-.41c.47-.18.83-.57,1.01-1.06l.38-1.1c.04-.12.14-.18.24-.18M49.83,28.26c-.68,0-1.3.44-1.52,1.09l-.38,1.1c-.04.12-.12.21-.22.25l-1.04.41c-.63.24-1.03.84-1.03,1.52s.41,1.28,1.03,1.52l1.04.41c.1.04.18.13.22.25l.38,1.1c.23.65.84,1.09,1.52,1.09s1.3-.44,1.52-1.09l.38-1.09c.04-.12.12-.21.22-.25l1.04-.41c.63-.24,1.03-.84,1.03-1.52s-.41-1.28-1.03-1.52l-1.04-.41c-.1-.04-.18-.13-.22-.25l-.38-1.1c-.23-.65-.84-1.09-1.52-1.09h0Z"/>
    </g>
  </g>
</svg>