<?xml version="1.0" encoding="UTF-8"?>
<svg id="pictos" xmlns="http://www.w3.org/2000/svg" viewBox="0 0 128 128">
  <defs>
    <style>
      .cls-1 {
        stroke-width: 2.65px;
      }

      .cls-1, .cls-2, .cls-3, .cls-4 {
        stroke-linecap: round;
      }

      .cls-1, .cls-2, .cls-3, .cls-4, .cls-5 {
        stroke: #000;
      }

      .cls-1, .cls-3, .cls-4 {
        fill: none;
      }

      .cls-1, .cls-4, .cls-5 {
        stroke-linejoin: round;
      }

      .cls-2, .cls-3 {
        stroke-miterlimit: 10;
      }

      .cls-2, .cls-4, .cls-5 {
        stroke-width: 2px;
      }

      .cls-2, .cls-6, .cls-5 {
        fill: #fff;
      }

      .cls-7 {
        fill: #1d1d1b;
      }
    </style>
  </defs>
  <g>
    <path class="cls-7" d="M55.05,77.2l2.58,1.01c.56.22.56,1.05,0,1.27l-2.58,1.01c-1.16.45-2.08,1.42-2.51,2.65l-.95,2.72c-.21.59-1,.59-1.2,0l-.95-2.72c-.43-1.23-1.34-2.19-2.51-2.65l-2.58-1.01c-.56-.22-.56-1.05,0-1.27l2.58-1.01c1.16-.45,2.08-1.42,2.51-2.65l.95-2.72c.21-.59,1-.59,1.2,0l.95,2.72c.43,1.23,1.34,2.19,2.51,2.65Z"/>
    <path class="cls-7" d="M46.62,89.38l1.52.6c.33.13.33.62,0,.75l-1.52.6c-.69.27-1.23.84-1.48,1.56l-.56,1.61c-.12.35-.59.35-.71,0l-.56-1.61c-.25-.72-.79-1.3-1.48-1.56l-1.52-.6c-.33-.13-.33-.62,0-.75l1.52-.6c.69-.27,1.23-.84,1.48-1.56l.56-1.61c.12-.35.59-.35.71,0l.56,1.61c.25.72.79,1.3,1.48,1.56Z"/>
    <path class="cls-7" d="M61.85,86.03l1.17.46c.25.1.25.48,0,.58l-1.17.46c-.53.21-.94.65-1.14,1.2l-.43,1.24c-.09.27-.45.27-.55,0l-.43-1.24c-.2-.56-.61-1-1.14-1.2l-1.17-.46c-.25-.1-.25-.48,0-.58l1.17-.46c.53-.21.94-.65,1.14-1.2l.43-1.24c.09-.27.45-.27.55,0l.43,1.24c.2.56.61,1,1.14,1.2Z"/>
  </g>
  <path class="cls-6" d="M102.37,54.9l-8.82.9c-2.34.18-3.99,2.36-3.53,4.65h0c.36,1.82,1.96,3.14,3.82,3.13,3.12,0,11.95-.66,15.04-.7,2.89-.04,5.05-2.67,4.53-5.51l-4.47-11.3c-1.44-3.38-3.67-5.97-7.19-5.95l-14.92.12c-3.1.03-5.97,1.61-7.64,4.22l-6.1,9.53c-1.63,2.54-1.78,5.77-.39,8.45l7.19,13.89c.91,1.75,3.07,2.42,4.81,1.49h0c1.65-.88,2.32-2.89,1.54-4.59l-5.79-12.63,4.67-9.02h0l-1.09,64.12h8.37l1.96-40.76s4.67,13.8,5.33,18.04,3.26,22.39,3.26,22.39h7.61s-1.63-17.5-2.61-25.54-3.37-10.98-3.59-17.93c-.09-2.95-.08-4.54-.04-8.35"/>
  <path class="cls-4" d="M83.73,78.39l.31,36.96h8.37l1.96-40.76s4.67,13.8,5.33,18.04c.65,4.24,3.26,22.39,3.26,22.39h7.61s-1.63-17.5-2.61-25.54c-.98-8.04-3.37-10.98-3.59-17.93-.09-2.95-.08-4.54-.04-8.35"/>
  <circle class="cls-5" cx="94.21" cy="26.56" r="7.07"/>
  <line class="cls-1" x1="97.43" y1="45.4" x2="70.59" y2="102.11"/>
  <g>
    <path class="cls-6" d="M72.86,52.88c-1.63,2.54-1.78,5.77-.39,8.45l7.19,13.89c.91,1.75,3.07,2.42,4.81,1.49h0c1.65-.88,2.32-2.89,1.54-4.59l-5.79-12.63"/>
    <path class="cls-6" d="M102.14,53.77l-8.82.9c-2.34.18-3.99,2.36-3.53,4.65h0c.36,1.82,1.96,3.14,3.82,3.13,3.12,0,11.95-.66,15.04-.7"/>
  </g>
  <path class="cls-4" d="M102.37,54.53l-8.82.9c-2.34.18-3.99,2.36-3.53,4.65h0c.36,1.82,1.96,3.14,3.82,3.13,3.12,0,11.95-.66,15.04-.7,2.89-.04,5.05-2.67,4.53-5.51l-4.47-11.3c-1.44-3.38-3.67-5.97-7.19-5.95l-14.92.12c-3.1.03-5.97,1.61-7.64,4.22l-6.1,9.53c-1.63,2.54-1.78,5.77-.39,8.45l7.19,13.89c.91,1.75,3.07,2.42,4.81,1.49h0c1.65-.88,2.32-2.89,1.54-4.59l-5.79-12.63,4.67-9.02h0"/>
  <polygon class="cls-2" points="16.21 94.37 38.85 94.37 36.46 115.54 18.46 115.54 16.21 94.37"/>
  <g>
    <path class="cls-6" d="M63.32,115.07c-3.79,0-8.15-.03-11.06-.05,2.49-2.66,4.74-7.29,5.56-9.08l2.69-6.26c.18-.42.6-.69,1.05-.69.16,0,.31.03.45.09l15.58,6.7c.58.25.85.93.6,1.51l-2.49,5.79c-.28.65-.95,1.24-1.85,1.64-.51.2-1.3.22-2.23.24-.35,0-.72.02-1.11.04-1.09.05-3.52.08-7.22.08h0Z"/>
    <path d="M61.58,99.99s.04,0,.06.01l15.58,6.7s.06.02.08.08,0,.1,0,.11l-2.49,5.79c-.17.4-.66.81-1.3,1.1-.37.14-1.1.15-1.88.17-.36,0-.74.02-1.14.04-1.07.05-3.49.08-7.17.08-2.95,0-6.26-.02-8.95-.04,1.79-2.41,3.35-5.46,4.38-7.72l2.68-6.24c.04-.09.13-.09.14-.09M61.58,97.99c-.83,0-1.62.49-1.97,1.3l-2.68,6.24s-4.74,10.32-7.93,10.46c0,0,7.93.08,14.33.08,3.2,0,6.02-.02,7.27-.08,1.48-.07,2.75.02,3.68-.36,1.13-.49,1.98-1.26,2.37-2.16l2.49-5.79c.47-1.09-.03-2.35-1.12-2.82l-15.58-6.7c-.28-.12-.56-.18-.85-.18h0Z"/>
  </g>
  <path class="cls-3" d="M17.25,94.37c0-5.68,4.6-10.28,10.28-10.28s10.28,4.6,10.28,10.28"/>
  <line class="cls-3" x1="11.49" y1="116.27" x2="90.04" y2="115.72"/>
</svg>