<?xml version="1.0" encoding="UTF-8"?>
<svg id="pictos" xmlns="http://www.w3.org/2000/svg" viewBox="0 0 128 128">
  <defs>
    <style>
      .cls-1 {
        fill: #fff;
        stroke-linecap: round;
        stroke-width: 2px;
      }

      .cls-1, .cls-2 {
        stroke: #1d1d1b;
        stroke-miterlimit: 10;
      }

      .cls-3 {
        fill: #1d1d1b;
      }

      .cls-2 {
        fill: none;
        stroke-width: 2.27px;
      }
    </style>
  </defs>
  <path class="cls-1" d="M73.97,97.2l5.59,3.82s8.18-7.67,12.27-11.25,16.36-4.09,21.99-10.23-4.09-9.72-6.65-4.6-12.78,7.67-20.46,10.23c-4.38,1.46-9.27,6.93-12.65,11.35-2.53,3.31-4.22,6.03-4.22,6.03,0,0-8.69-4.6-17.39-14.32s-27.61-18.41-27.61-18.41c0,0-.32-6.14,5.5-9.97s8.12-1.92,16.94-11.89,11.89-14.57,18.03-13.81,48.27,30.48,49.96,40.15"/>
  <polyline class="cls-2" points="-5.99 63.6 52.51 18.36 133.66 64.92"/>
  <g>
    <path class="cls-3" d="M30.25,86.67l2.58,1.01c.56.22.56,1.05,0,1.27l-2.58,1.01c-1.16.45-2.08,1.42-2.51,2.65l-.95,2.72c-.21.59-1,.59-1.2,0l-.95-2.72c-.43-1.23-1.34-2.19-2.51-2.65l-2.58-1.01c-.56-.22-.56-1.05,0-1.27l2.58-1.01c1.16-.45,2.08-1.42,2.51-2.65l.95-2.72c.21-.59,1-.59,1.2,0l.95,2.72c.43,1.23,1.34,2.19,2.51,2.65Z"/>
    <path class="cls-3" d="M21.82,98.85l1.52.6c.33.13.33.62,0,.75l-1.52.6c-.69.27-1.23.84-1.48,1.56l-.56,1.61c-.12.35-.59.35-.71,0l-.56-1.61c-.25-.72-.79-1.3-1.48-1.56l-1.52-.6c-.33-.13-.33-.62,0-.75l1.52-.6c.69-.27,1.23-.84,1.48-1.56l.56-1.61c.12-.35.59-.35.71,0l.56,1.61c.25.72.79,1.3,1.48,1.56Z"/>
    <path class="cls-3" d="M37.05,95.5l1.17.46c.25.1.25.48,0,.58l-1.17.46c-.53.21-.94.65-1.14,1.2l-.43,1.24c-.09.27-.45.27-.55,0l-.43-1.24c-.2-.56-.61-1-1.14-1.2l-1.17-.46c-.25-.1-.25-.48,0-.58l1.17-.46c.53-.21.94-.65,1.14-1.2l.43-1.24c.09-.27.45-.27.55,0l.43,1.24c.2.56.61,1,1.14,1.2Z"/>
  </g>
  <path class="cls-1" d="M111.56,34.41l-8.55,7.74c-1.21,1.5-1.71,3.46-1.21,5.23,1.43,5.11.76,11.61.76,11.61l-5.16,17.28c-8.77-.91-.25-12.82-4.81-15.13-4.56-2.31-9.96,4.79-9.96,4.79l-12.6,15.33c-3.31,3.68-6.69.15-4.13-3.13l11.13-15.11-1.71-1.5-18.07,15.92c-3.32,2.76-6.62-1.57-3.84-4.19l17.96-16.26-1.28-2.07-16.13,9.93c-3.35,1.95-6.11-2.7-2.5-4.99l15.98-9.55-.78-1.88s-11.9,3.52-12.24,3.59c-3.39.65-4.3-3.7-1.08-5.05l12.47-4.1s9.27-7.36,17.08-9.26c2.43-.59,8.58-4.99,10.41-6.74l23.51,8.49"/>
</svg>