<?xml version="1.0" encoding="UTF-8"?>
<svg id="pictos" xmlns="http://www.w3.org/2000/svg" viewBox="0 0 128 128">
  <defs>
    <style>
      .cls-1 {
        fill: none;
        stroke-width: 1.86px;
      }

      .cls-1, .cls-2 {
        stroke-linecap: round;
      }

      .cls-1, .cls-2, .cls-3 {
        stroke: #000;
        stroke-miterlimit: 10;
      }

      .cls-2 {
        stroke-width: 1.92px;
      }

      .cls-2, .cls-3 {
        fill: #fff;
      }

      .cls-3 {
        stroke-width: 2px;
      }
    </style>
  </defs>
  <path d="M28.85,72.73h-8.91c-.4,0-.72.32-.72.72v1.85c0,.4.32.72.72.72h8.91c.4,0,.72-.32.72-.72v-1.85c0-.4-.32-.72-.72-.72Z"/>
  <path d="M78.84,72.73h-8.91c-.4,0-.72.32-.72.72v1.85c0,.4.32.72.72.72h8.91c.4,0,.72-.32.72-.72v-1.85c0-.4-.32-.72-.72-.72Z"/>
  <path d="M60.6,77.09h-22.42c-.4,0-.72.32-.72.72v5.91c0,.4.32.72.72.72h22.42c.4,0,.72-.32.72-.72v-5.91c0-.4-.32-.72-.71-.72h0Z"/>
  <path d="M66.77,72.73h-34.76c-.4,0-.72.32-.72.72v1.85c0,.4.32.72.72.72h34.76c.4,0,.72-.32.72-.72v-1.85c0-.4-.32-.72-.72-.72Z"/>
  <path d="M19.94,71.64h3.73c.4,0,.72-.32.72-.72v-1.85c0-.4-.32-.72-.72-.72h-3.73c-.4,0-.72.32-.72.72v1.85c0,.4.32.72.72.72Z"/>
  <path d="M31.29,69.07c0-.4-.32-.72-.72-.72h-3.73c-.4,0-.72.32-.72.72v1.85c0,.4.32.72.72.72h3.73c.4,0,.72-.32.72-.72v-1.85Z"/>
  <path d="M33.73,71.64h3.73c.4,0,.72-.32.72-.72v-1.85c0-.4-.32-.72-.72-.72h-3.73c-.4,0-.72.32-.72.72v1.85c0,.4.32.72.72.72Z"/>
  <path d="M40.63,71.64h3.73c.4,0,.72-.32.72-.72v-1.85c0-.4-.32-.72-.72-.72h-3.73c-.4,0-.72.32-.72.72v1.85c0,.4.32.72.72.72Z"/>
  <path d="M47.52,71.64h3.73c.4,0,.72-.32.72-.72v-1.85c0-.4-.32-.72-.72-.72h-3.73c-.4,0-.72.32-.72.72v1.85c0,.4.32.72.72.72Z"/>
  <path d="M54.42,71.64h3.73c.4,0,.72-.32.72-.72v-1.85c0-.4-.32-.72-.72-.72h-3.73c-.4,0-.72.32-.72.72v1.85c0,.4.32.72.72.72Z"/>
  <path d="M61.31,71.64h3.73c.4,0,.72-.32.72-.72v-1.85c0-.4-.32-.72-.72-.72h-3.73c-.4,0-.72.32-.72.72v1.85c0,.4.32.72.72.72Z"/>
  <path d="M72.66,70.92v-1.85c0-.4-.32-.72-.72-.72h-3.73c-.4,0-.72.32-.72.72v1.85c0,.4.32.72.72.72h3.73c.4,0,.72-.32.72-.72Z"/>
  <path d="M78.84,68.35h-3.73c-.4,0-.72.32-.72.72v1.85c0,.4.32.72.72.72h3.73c.4,0,.72-.32.72-.72v-1.85c0-.4-.32-.72-.72-.72Z"/>
  <path d="M19.94,62.87h3.73c.4,0,.72-.32.72-.72v-1.85c0-.4-.32-.72-.72-.72h-3.73c-.4,0-.72.32-.72.72v1.85c0,.4.32.72.72.72Z"/>
  <path d="M26.84,62.87h3.73c.4,0,.72-.32.72-.72v-1.85c0-.4-.32-.72-.72-.72h-3.73c-.4,0-.72.32-.72.72v1.85c0,.4.32.72.72.72Z"/>
  <path d="M33.73,62.87h3.73c.4,0,.72-.32.72-.72v-1.85c0-.4-.32-.72-.72-.72h-3.73c-.4,0-.72.32-.72.72v1.85c0,.4.32.72.72.72Z"/>
  <path d="M40.63,62.87h3.73c.4,0,.72-.32.72-.72v-1.85c0-.4-.32-.72-.72-.72h-3.73c-.4,0-.72.32-.72.72v1.85c0,.4.32.72.72.72Z"/>
  <path d="M47.52,62.87h3.73c.4,0,.72-.32.72-.72v-1.85c0-.4-.32-.72-.72-.72h-3.73c-.4,0-.72.32-.72.72v1.85c0,.4.32.72.72.72Z"/>
  <path d="M54.42,62.87h3.73c.4,0,.72-.32.72-.72v-1.85c0-.4-.32-.72-.72-.72h-3.73c-.4,0-.72.32-.72.72v1.85c0,.4.32.72.72.72Z"/>
  <path d="M61.31,62.87h3.73c.4,0,.72-.32.72-.72v-1.85c0-.4-.32-.72-.72-.72h-3.73c-.4,0-.72.32-.72.72v1.85c0,.4.32.72.72.72Z"/>
  <path d="M68.21,62.87h3.73c.4,0,.72-.32.72-.72v-1.85c0-.4-.32-.72-.72-.72h-3.73c-.4,0-.72.32-.72.72v1.85c0,.4.32.72.72.72Z"/>
  <path d="M78.84,59.59h-3.73c-.4,0-.72.32-.72.72v1.85c0,.4.32.72.72.72h3.73c.4,0,.72-.32.72-.72v-1.85c0-.4-.32-.72-.72-.72Z"/>
  <path d="M19.94,67.25h7.18c.4,0,.72-.32.72-.72v-1.85c0-.4-.32-.72-.72-.72h-7.18c-.4,0-.72.32-.72.72v1.85c0,.4.32.72.72.72Z"/>
  <path d="M34.74,66.54v-1.85c0-.4-.32-.72-.72-.72h-3.73c-.4,0-.72.32-.72.72v1.85c0,.4.32.72.72.72h3.73c.4,0,.72-.32.72-.72Z"/>
  <path d="M41.63,66.54v-1.85c0-.4-.32-.72-.72-.72h-3.73c-.4,0-.72.32-.72.72v1.85c0,.4.32.72.72.72h3.73c.4,0,.72-.32.72-.72Z"/>
  <path d="M48.53,66.54v-1.85c0-.4-.32-.72-.72-.72h-3.73c-.4,0-.72.32-.72.72v1.85c0,.4.32.72.72.72h3.73c.4,0,.72-.32.72-.72Z"/>
  <path d="M55.43,66.54v-1.85c0-.4-.32-.72-.72-.72h-3.73c-.4,0-.72.32-.72.72v1.85c0,.4.32.72.72.72h3.73c.4,0,.72-.32.72-.72Z"/>
  <path d="M62.32,66.54v-1.85c0-.4-.32-.72-.72-.72h-3.73c-.4,0-.72.32-.72.72v1.85c0,.4.32.72.72.72h3.73c.4,0,.72-.32.72-.72Z"/>
  <path d="M69.22,66.54v-1.85c0-.4-.32-.72-.72-.72h-3.73c-.4,0-.72.32-.72.72v1.85c0,.4.32.72.72.72h3.73c.4,0,.72-.32.72-.72Z"/>
  <path d="M78.84,63.97h-7.18c-.4,0-.72.32-.72.72v1.85c0,.4.32.72.72.72h7.18c.4,0,.72-.32.72-.72v-1.85c0-.4-.32-.72-.72-.72Z"/>
  <path d="M79.56,19.37H19.23c-2.38,0-4.3,1.93-4.31,4.31v60.33c0,2.38,1.93,4.3,4.31,4.31h60.33c2.38,0,4.3-1.93,4.31-4.31V23.68c0-2.38-1.93-4.3-4.31-4.31ZM17.79,23.68c0-.4.16-.75.42-1.01.27-.27.62-.42,1.01-.42h60.33c.4,0,.75.16,1.01.42s.42.62.42,1.01v31.96H17.79v-31.96h0ZM80.57,85.02c-.27.27-.62.42-1.01.42H19.23c-.4,0-.75-.16-1.01-.42s-.42-.62-.42-1.01v-26.22h63.21v26.22c0,.4-.16.75-.42,1.01h0Z"/>
  <path d="M19.42,23.68h60.14v30.17H19.42v-30.17Z"/>
  <g>
    <g>
      <path class="cls-3" d="M110.17,48.65s-.04-.07-.07-.11c-1.12-1.72-2.56-3.52-3.98-5.05-.71-.77-1.42-1.46-2.09-2.05-.67-.59-1.29-1.06-1.87-1.4-1.47-.84-3.18-1.12-4.97-1.12-2.53,0-5.29.55-8.05,1.11-2.76.56-5.52,1.14-7.95,1.23-7.18.28-11.87,3.55-15.32,5.49-1.08.62-2.15,1.72-3.29,3.09-1.69,2.05-3.48,4.68-5.01,6.99-.77,1.15-1.47,2.23-2.05,3.1-.32.47-.6.88-.84,1.21-.21.22-.41.47-.58.75-.19.31-.23.62-.24.89,0,.39.09.75.21,1.15.24.74.65,1.61,1.18,2.61,1.87,3.47,5.32,8.47,8.32,12.64,3,4.17,5.53,7.48,5.54,7.48l.59.77.75-.62s.16-.14.46-.38c1.04-.85,3.71-3,6.57-5.03,1.43-1.02,2.91-2,4.24-2.77,1.33-.77,2.54-1.33,3.3-1.5,1.4-.31,2.7-.44,3.92-.44,3.05,0,5.64.81,8.08,1.66,2.44.84,4.72,1.76,7.16,1.77.36-.01.54-.15.66-.23.23-.18.34-.34.48-.53.25-.36.51-.85.81-1.47.61-1.26,1.37-3.1,2.14-5.28,1,.27,1.89.53,2.58.75.62.19,1.1.35,1.43.46.16.06.29.1.38.13.08.03.12.04.12.04l.84.3.34-.83c.03-.08,1.35-3.36,1.35-8.35,0-4.49-1.09-10.37-5.15-16.44Z"/>
      <path class="cls-1" d="M54.72,63.2c.51-.8,1.09-1.25,1.73-1.41,0,0,.86-.32,1.94-.12,1.71.32,7.1,7.15,13.48,17.02,0,0,4.41-8.09,16.06-8.83s25.01,4.05,25.01,4.05"/>
    </g>
    <path class="cls-2" d="M87.51,101.72l-1.18-6.63c-.3-1.7-1.33-3.18-2.81-3.88-4.28-2.03-8.27-6.29-8.27-6.29l-8.62-13.6c5.75-5.38,8.79,7.34,13.02,5.62,4.23-1.72,2.61-9.52,2.61-9.52l-2.95-17.48c-.54-4.38,3.82-4.6,4.53-.95l3.66,16.35,2.01-.28-.14-21.51c.08-3.85,4.94-3.54,5.08-.13l.43,21.63,2.14.35,2.76-16.69c.65-3.4,5.4-2.53,4.82,1.24l-2.93,16.37,1.72.58s4.6-10.08,4.75-10.35c1.55-2.66,5.01-.73,4.04,2.23l-4.54,10.81s-.47,10.56-3.77,16.94c-1.02,1.98-.68,5.04-.58,7.3l-19.5,10.86"/>
  </g>
</svg>