<?xml version="1.0" encoding="UTF-8"?>
<svg id="pictos" xmlns="http://www.w3.org/2000/svg" viewBox="0 0 128 128">
  <defs>
    <style>
      .cls-1 {
        stroke-linecap: round;
      }

      .cls-1, .cls-2, .cls-3 {
        fill: #fff;
        stroke: #000;
        stroke-width: 2px;
      }

      .cls-1, .cls-3 {
        stroke-linejoin: round;
      }

      .cls-4 {
        fill: #1d1d1b;
      }

      .cls-2 {
        stroke-miterlimit: 10;
      }
    </style>
  </defs>
  <g>
    <path class="cls-2" d="M104.02,111.35h-22.81c-4.03,0-7.36-3.14-7.6-7.16l-1.64-27.81h41.28l-1.64,27.81c-.24,4.02-3.57,7.16-7.6,7.16Z"/>
    <path class="cls-2" d="M72.69,68.82h39.87c2.71,0,4.91,2.2,4.91,4.91v2.65h-49.69v-2.65c0-2.71,2.2-4.91,4.91-4.91Z"/>
    <rect class="cls-2" x="84.77" y="81.9" width="15.69" height="6.4" rx="2.3" ry="2.3"/>
  </g>
  <g>
    <path class="cls-2" d="M104.02,68.6h-22.81c-4.03,0-7.36-3.14-7.6-7.16l-1.64-27.81h41.28l-1.64,27.81c-.24,4.02-3.57,7.16-7.6,7.16Z"/>
    <path class="cls-2" d="M72.69,26.07h39.87c2.71,0,4.91,2.2,4.91,4.91v2.65h-49.69v-2.65c0-2.71,2.2-4.91,4.91-4.91Z"/>
    <rect class="cls-2" x="84.77" y="39.15" width="15.69" height="6.4" rx="2.3" ry="2.3"/>
  </g>
  <g>
    <path class="cls-2" d="M79.73,75.78c.88-.15,2.99.3,3.4,1.1.56,1.1,1.96,5.18,1.6,9.28-.36,4.1-3.43,9.18-4.56,10.61-1.42,1.81-2.51.92-3.37.52-1.37-.64-.32-1.76-1.36-2.32s-1.99,1.11-3.16.48c-1.05-.56-.45-2.67-1.59-3.13s-1.78,1.31-2.84.75c-1.12-.59-1.57-1.39-1.02-2.76.6-1.5,1.05-1.5,3.28-3.41s6.18-3.68,6.86-6.73c.44-1.96.8-4.06,2.75-4.4Z"/>
    <g>
      <circle class="cls-3" cx="54.72" cy="40.84" r="8.1"/>
      <path class="cls-3" d="M41.52,66.75l6.19,11.5,9.89,5.44c1.68.92,2.17,3.11,1.05,4.66h0c-.87,1.21-2.47,1.65-3.84,1.06l-13.37-5.77-6.08-9.41"/>
      <path class="cls-1" d="M35.67,86.21l16.88,11.18c2.9,1.92,4.09,5.6,2.86,8.85h0c-1.1,2.91-3.88,4.83-6.98,4.83H14.95l-.48-7.04,30.56-.64-20.16-5.16c-3.86-.99-7.11-3.59-8.92-7.14h0c-.87-1.71-1.2-3.64-.92-5.53.24-1.58.54-3.14.92-4.69l1.32-4.87c.49-1.8,1.04-3.57,1.67-5.33l1.18-3.3c1.76-3.73,3.95-7.25,6.53-10.47l3.35-3.94c3.55-4.17,9.83-4.63,13.95-1.03l3.04,2.66,11.16,13.52c1.14,1.38,2.66,2.39,4.37,2.91l14.69,4.44c2.1.64,3.2,2.95,2.36,4.98h0c-.7,1.68-2.52,2.61-4.29,2.19l-20.26-4.85-13.48-11.03-4.57,6.87c-1.48,2.23-2.49,4.74-2.95,7.37l-.17.95c-.29,1.66.43,3.35,1.84,4.28Z"/>
    </g>
  </g>
  <g>
    <path class="cls-4" d="M95.28,51.84l1.68.66c.36.14.36.69,0,.83l-1.68.66c-.76.3-1.35.93-1.63,1.72l-.62,1.77c-.13.38-.65.38-.78,0l-.62-1.77c-.28-.8-.88-1.43-1.63-1.72l-1.68-.66c-.36-.14-.36-.69,0-.83l1.68-.66c.76-.3,1.35-.93,1.63-1.72l.62-1.77c.13-.38.65-.38.78,0l.62,1.77c.28.8.88,1.43,1.63,1.72Z"/>
    <path class="cls-4" d="M89.79,59.78l.99.39c.22.08.22.41,0,.49l-.99.39c-.45.17-.8.55-.96,1.02l-.37,1.05c-.08.23-.38.23-.46,0l-.37-1.05c-.17-.47-.52-.84-.96-1.02l-.99-.39c-.22-.08-.22-.41,0-.49l.99-.39c.45-.17.8-.55.96-1.02l.37-1.05c.08-.23.38-.23.46,0l.37,1.05c.17.47.52.84.96,1.02Z"/>
    <path class="cls-4" d="M99.72,57.6l.76.3c.17.06.17.31,0,.38l-.76.3c-.34.13-.62.42-.74.78l-.28.81c-.06.17-.3.17-.36,0l-.28-.81c-.13-.36-.4-.65-.74-.78l-.76-.3c-.17-.06-.17-.31,0-.38l.76-.3c.34-.13.62-.42.74-.78l.28-.81c.06-.17.3-.17.36,0l.28.81c.13.36.4.65.74.78Z"/>
  </g>
</svg>