<?xml version="1.0" encoding="UTF-8"?>
<svg id="pictos" xmlns="http://www.w3.org/2000/svg" viewBox="0 0 128 128">
  <defs>
    <style>
      .cls-1, .cls-2, .cls-3 {
        stroke-linecap: round;
      }

      .cls-1, .cls-2, .cls-3, .cls-4, .cls-5, .cls-6, .cls-7 {
        stroke: #000;
      }

      .cls-1, .cls-2, .cls-3, .cls-4, .cls-7 {
        stroke-linejoin: round;
      }

      .cls-1, .cls-2, .cls-5, .cls-6, .cls-7 {
        fill: #fff;
      }

      .cls-1, .cls-3, .cls-4, .cls-6, .cls-7 {
        stroke-width: 2px;
      }

      .cls-3, .cls-4 {
        fill: none;
      }

      .cls-5, .cls-6 {
        stroke-miterlimit: 10;
      }
    </style>
  </defs>
  <g>
    <rect class="cls-7" x="59.67" y="58.13" width="60.02" height="54.39"/>
    <line class="cls-4" x1="64" y1="57.54" x2="64" y2="113.11"/>
    <line class="cls-4" x1="115.18" y1="57.54" x2="115.18" y2="113.11"/>
    <line class="cls-4" x1="89.68" y1="58.13" x2="89.68" y2="98.45"/>
    <line class="cls-4" x1="63.13" y1="72.19" x2="115.18" y2="72.19"/>
    <line class="cls-4" x1="63.13" y1="85.32" x2="115.18" y2="85.32"/>
    <line class="cls-4" x1="63.13" y1="98.45" x2="115.18" y2="98.45"/>
    <line class="cls-3" x1="73.92" y1="63.27" x2="79.49" y2="63.27"/>
    <line class="cls-3" x1="99.69" y1="63.27" x2="105.26" y2="63.27"/>
    <line class="cls-3" x1="73.92" y1="77.13" x2="79.49" y2="77.13"/>
    <line class="cls-3" x1="99.69" y1="77.13" x2="105.26" y2="77.13"/>
    <line class="cls-3" x1="73.92" y1="90.37" x2="79.49" y2="90.37"/>
    <line class="cls-3" x1="99.69" y1="90.37" x2="105.26" y2="90.37"/>
  </g>
  <g>
    <path class="cls-6" d="M81.68,61.14c.78-.14,2.63.27,2.99.97.5.97,1.72,4.56,1.41,8.17s-3.02,8.08-4.01,9.34c-1.25,1.59-2.2.81-2.96.45-1.21-.57-.28-1.55-1.19-2.04s-1.75.98-2.78.42c-.93-.49-.39-2.35-1.4-2.75s-1.57,1.15-2.5.66c-.99-.52-1.38-1.23-.9-2.43.53-1.32.92-1.32,2.89-3s5.44-3.24,6.03-5.92c.38-1.73.71-3.57,2.42-3.87Z"/>
    <g>
      <circle class="cls-7" cx="59.67" cy="30.39" r="7.12"/>
      <path class="cls-7" d="M48.06,53.19l5.44,10.12,8.7,4.78c1.48.81,1.91,2.73.92,4.1h0c-.77,1.06-2.17,1.45-3.38.93l-11.76-5.07-5.35-8.28"/>
      <path class="cls-1" d="M41.64,63.58l.4,4.05,6.25,46.61h-8l-6.12-38.33-4.2,20.28-6.5,18.48h-8l7.09-21.81,1.89-20.46c.21-2.29.59-4.56,1.13-6.79l1.16-4.29c.43-1.58.92-3.15,1.47-4.69l1.04-2.91c1.54-3.29,3.47-6.38,5.75-9.21l2.95-3.46c3.12-3.67,8.65-4.08,12.27-.9l2.67,2.34,9.82,11.9c1,1.21,2.34,2.1,3.85,2.56l12.92,3.91c1.85.56,2.82,2.6,2.07,4.38h0c-.62,1.48-2.22,2.3-3.78,1.92l-17.82-4.26-11.86-9.7-6,9.01-.43,1.38Z"/>
    </g>
  </g>
  <g>
    <path class="cls-6" d="M101.02,18.75c-1.41-1.81-3.11-3.3-5.03-4.34-1.92-1.04-4.06-1.63-6.3-1.63-2.24,0-4.39.59-6.3,1.63-2.88,1.56-5.26,4.12-6.93,7.29-1.67,3.16-2.62,6.94-2.63,10.99,0,5.4,1.7,10.31,4.52,13.93,1.41,1.81,3.11,3.3,5.03,4.34,1.92,1.04,4.06,1.63,6.3,1.63,2.24,0,4.39-.59,6.3-1.63,2.88-1.56,5.26-4.12,6.93-7.29,1.67-3.16,2.62-6.94,2.63-10.99,0-5.4-1.7-10.31-4.52-13.93Z"/>
    <path class="cls-5" d="M98.65,44.77c-1.19,1.52-2.58,2.73-4.1,3.55-1.52.82-3.15,1.26-4.87,1.26-1.72,0-3.36-.44-4.87-1.26-2.27-1.23-4.28-3.33-5.71-6.05-1.43-2.71-2.28-6.01-2.28-9.59,0-4.76,1.51-9.05,3.89-12.09,1.19-1.52,2.58-2.73,4.1-3.55,1.52-.82,3.15-1.26,4.87-1.26,1.72,0,3.36.44,4.87,1.26,2.27,1.23,4.28,3.34,5.71,6.05,1.43,2.71,2.28,6.01,2.28,9.59,0,4.76-1.51,9.05-3.89,12.09Z"/>
  </g>
  <polygon class="cls-2" points="106.47 57.54 109.26 38.39 98.12 38.39 100.91 57.54 106.47 57.54"/>
</svg>