<?xml version="1.0" encoding="UTF-8"?>
<svg id="pictos" xmlns="http://www.w3.org/2000/svg" viewBox="0 0 128 128">
  <defs>
    <style>
      .cls-1, .cls-2 {
        stroke-linecap: round;
      }

      .cls-1, .cls-2, .cls-3, .cls-4, .cls-5, .cls-6 {
        stroke: #000;
      }

      .cls-1, .cls-2, .cls-3, .cls-6 {
        fill: #fff;
      }

      .cls-1, .cls-6 {
        stroke-linejoin: round;
        stroke-width: 1.98px;
      }

      .cls-2 {
        stroke-width: 2.06px;
      }

      .cls-2, .cls-3, .cls-4, .cls-5 {
        stroke-miterlimit: 10;
      }

      .cls-7 {
        fill: #1d1d1b;
      }

      .cls-3, .cls-5 {
        stroke-width: 2px;
      }

      .cls-4 {
        stroke-width: 2.09px;
      }

      .cls-4, .cls-5 {
        fill: none;
      }
    </style>
  </defs>
  <path class="cls-3" d="M53.73,60.53c.62-.49,2.45-1.01,3.09-.56.9.62,3.67,3.2,5.11,6.53s1.16,8.55.88,10.13c-.35,1.99-1.56,1.75-2.39,1.8-1.33.07-.98-1.23-2.02-1.23s-1.08,1.69-2.25,1.69c-1.05,0-1.45-1.88-2.53-1.76s-.84,1.76-1.89,1.76c-1.12,0-1.8-.43-1.94-1.72-.15-1.41.19-1.6,1.13-4.01s3.26-5.42,2.52-8.07c-.48-1.7-1.07-3.48.3-4.55Z"/>
  <rect class="cls-4" x="68.14" y="13.62" width="47.48" height="102.55" rx="2.44" ry="2.44" transform="translate(183.76 129.78) rotate(-180)"/>
  <g>
    <ellipse class="cls-5" cx="78.63" cy="67.51" rx="5.26" ry="5.76"/>
    <rect class="cls-3" x="77.27" y="65.97" width="13.23" height="3.06" rx="1.46" ry="1.46" transform="translate(167.78 135.01) rotate(-180)"/>
  </g>
  <g>
    <path class="cls-7" d="M81.82,43.75l1.85.72c.4.16.4.76,0,.91l-1.85.72c-.83.33-1.49,1.02-1.8,1.9l-.69,1.95c-.15.42-.72.42-.86,0l-.69-1.95c-.31-.88-.97-1.57-1.8-1.9l-1.85-.72c-.4-.16-.4-.76,0-.91l1.85-.72c.83-.33,1.49-1.02,1.8-1.9l.69-1.95c.15-.42.72-.42.86,0l.69,1.95c.31.88.97,1.57,1.8,1.9Z"/>
    <path class="cls-7" d="M75.77,52.49l1.09.43c.24.09.24.45,0,.54l-1.09.43c-.49.19-.88.6-1.06,1.12l-.4,1.15c-.09.25-.42.25-.51,0l-.4-1.15c-.18-.52-.57-.93-1.06-1.12l-1.09-.43c-.24-.09-.24-.45,0-.54l1.09-.43c.49-.19.88-.6,1.06-1.12l.4-1.15c.09-.25.42-.25.51,0l.4,1.15c.18.52.57.93,1.06,1.12Z"/>
    <path class="cls-7" d="M86.7,50.09l.84.33c.18.07.18.34,0,.41l-.84.33c-.38.15-.68.46-.82.86l-.31.89c-.07.19-.33.19-.39,0l-.31-.89c-.14-.4-.44-.71-.82-.86l-.84-.33c-.18-.07-.18-.34,0-.41l.84-.33c.38-.15.68-.46.82-.86l.31-.89c.07-.19.33-.19.39,0l.31.89c.14.4.44.71.82.86Z"/>
  </g>
  <g>
    <circle class="cls-6" cx="32.78" cy="25.57" r="7.16"/>
    <path class="cls-1" d="M14.9,116.33l5.6-21.65,2.21-24.02-.25-26.41c-.14-2.25,1.08-4.37,3.1-5.38h0c1.04-.52,2.22-.71,3.37-.53l6.15.21c2.75.1,4.98,2.27,5.15,5.02l4.45,72.41-6.36.18-6.15-38.52-4.22,20.38-5.53,18.57-7.52-.27Z"/>
    <path class="cls-2" d="M22.76,46.42l8.36,12.88c.45.95,1.24,1.71,2.35,1.9l18.26,3.32c1.36.24,2.72-.6,3.07-1.96.37-1.43-.48-2.9-1.91-3.27l-16.12-4.22-3.37-7.45"/>
  </g>
</svg>