<?xml version="1.0" encoding="UTF-8"?>
<svg id="pictos" xmlns="http://www.w3.org/2000/svg" viewBox="0 0 128 128">
  <defs>
    <style>
      .cls-1 {
        stroke-linecap: round;
      }

      .cls-1, .cls-2, .cls-3, .cls-4, .cls-5 {
        fill: #fff;
      }

      .cls-1, .cls-2, .cls-4, .cls-5, .cls-6, .cls-7, .cls-8 {
        stroke: #000;
        stroke-miterlimit: 10;
      }

      .cls-1, .cls-4, .cls-8 {
        stroke-width: 2px;
      }

      .cls-9 {
        fill: #1d1d1b;
      }

      .cls-5 {
        stroke-width: .81px;
      }

      .cls-6 {
        stroke-width: .83px;
      }

      .cls-6, .cls-7, .cls-8 {
        fill: none;
      }
    </style>
  </defs>
  <path d="M113.34,14.37v100h-48V14.37h48M115.34,12.37h-52v104h52V12.37h0Z"/>
  <rect x="72.58" y="79.34" width="33.53" height="21.82"/>
  <rect class="cls-6" x="69.3" y="75.81" width="40.08" height="3.52"/>
  <g>
    <rect x="72.62" y="41.54" width="27.71" height="16.96"/>
    <rect class="cls-7" x="69.21" y="37.71" width="40.35" height="24.62"/>
    <circle class="cls-7" cx="104.9" cy="55.43" r="2.28"/>
    <line class="cls-7" x1="102.04" y1="50.02" x2="107.5" y2="50.02"/>
    <line class="cls-7" x1="102.04" y1="47.46" x2="107.5" y2="47.46"/>
    <line class="cls-7" x1="102.04" y1="44.91" x2="107.5" y2="44.91"/>
    <line class="cls-7" x1="102.04" y1="42.36" x2="107.5" y2="42.36"/>
  </g>
  <line class="cls-7" x1="64.09" y1="65.93" x2="113.78" y2="65.93"/>
  <line class="cls-7" x1="64.09" y1="34.11" x2="113.78" y2="34.11"/>
  <g>
    <circle class="cls-2" cx="74.42" cy="71.1" r="1.8"/>
    <circle class="cls-2" cx="83.98" cy="71.1" r="1.8"/>
    <circle class="cls-2" cx="93.54" cy="71.1" r="1.8"/>
    <circle class="cls-2" cx="103.1" cy="71.1" r="1.8"/>
  </g>
  <line class="cls-8" x1="64.09" y1="71.9" x2="12" y2="71.9"/>
  <g>
    <g>
      <path class="cls-9" d="M78.09,34.15c-.53,0-.99-.33-1.17-.85l-.84-2.41c-.31-.9-.98-1.6-1.82-1.93l-2.28-.89c-.49-.19-.8-.66-.8-1.19s.31-1,.8-1.19l2.28-.89c.84-.33,1.51-1.03,1.82-1.93l.84-2.41c.18-.51.64-.85,1.17-.85s.99.33,1.17.85l.84,2.41c.31.9.98,1.6,1.82,1.93l2.28.89c.49.19.8.66.8,1.19s-.31,1-.8,1.19l-2.28.89c-.84.33-1.51,1.03-1.82,1.93l-.84,2.41c-.18.51-.64.85-1.17.85Z"/>
      <path class="cls-3" d="M78.09,20.28c.22,0,.44.13.53.39l.84,2.41c.38,1.08,1.19,1.94,2.22,2.34l2.28.89c.49.19.49.93,0,1.12l-2.28.89c-1.03.4-1.84,1.26-2.22,2.34l-.84,2.41c-.09.26-.31.39-.53.39s-.44-.13-.53-.39l-.84-2.41c-.38-1.08-1.19-1.94-2.22-2.34l-2.28-.89c-.49-.19-.49-.93,0-1.12l2.28-.89c1.03-.4,1.84-1.26,2.22-2.34l.84-2.41c.09-.26.31-.39.53-.39M78.09,18.92c-.83,0-1.54.51-1.81,1.3l-.84,2.41c-.25.71-.77,1.27-1.43,1.52l-2.28.89c-.75.29-1.23,1.01-1.23,1.83,0,.82.48,1.53,1.23,1.83l2.28.89c.66.26,1.18.81,1.43,1.52l.84,2.41c.28.79.99,1.3,1.81,1.3s1.54-.51,1.81-1.3l.84-2.41c.25-.71.77-1.27,1.43-1.52l2.28-.89c.75-.29,1.23-1.01,1.23-1.83,0-.82-.48-1.53-1.23-1.83l-2.28-.89c-.66-.26-1.18-.81-1.43-1.52l-.84-2.41c-.28-.79-.99-1.3-1.81-1.3h0Z"/>
    </g>
    <g>
      <path class="cls-9" d="M72.1,41.63c-.43,0-.81-.27-.96-.69l-.5-1.42c-.16-.45-.49-.81-.92-.98l-1.35-.53c-.4-.15-.65-.53-.65-.96s.26-.81.65-.96l1.35-.53c.42-.17.76-.52.92-.98l.5-1.42c.15-.42.52-.69.96-.69s.81.27.96.69l.5,1.42c.16.45.49.81.92.98l1.35.53c.4.15.65.53.65.96s-.26.81-.65.96l-1.35.53c-.42.17-.76.52-.92.98l-.5,1.42c-.15.42-.52.69-.96.69Z"/>
      <path class="cls-3" d="M72.1,33.16c.13,0,.26.08.31.23l.5,1.42c.22.64.7,1.15,1.31,1.38l1.35.53c.29.11.29.55,0,.66l-1.35.53c-.61.24-1.09.74-1.31,1.38l-.5,1.42c-.05.15-.18.23-.31.23s-.26-.08-.31-.23l-.5-1.42c-.22-.64-.7-1.15-1.31-1.38l-1.35-.53c-.29-.11-.29-.55,0-.66l1.35-.53c.61-.24,1.09-.74,1.31-1.38l.5-1.42c.05-.15.18-.23.31-.23M72.1,31.8c-.72,0-1.36.46-1.6,1.14l-.5,1.42c-.09.27-.28.47-.52.57l-1.35.53c-.66.26-1.08.88-1.08,1.6,0,.71.43,1.34,1.08,1.6l1.35.53c.24.09.43.3.52.57l.5,1.42c.24.68.88,1.14,1.6,1.14s1.36-.46,1.6-1.14l.5-1.42c.09-.27.28-.47.52-.57l1.35-.53c.66-.26,1.08-.88,1.08-1.6,0-.71-.43-1.34-1.08-1.6l-1.35-.53c-.24-.09-.43-.3-.52-.57l-.5-1.42c-.24-.68-.88-1.14-1.6-1.14h0Z"/>
    </g>
    <g>
      <path class="cls-9" d="M86.07,37.57c-.4,0-.75-.25-.88-.63l-.38-1.09c-.11-.31-.33-.55-.61-.66l-1.04-.41c-.36-.14-.6-.49-.6-.89s.24-.75.6-.89l1.04-.41c.28-.11.51-.35.61-.66l.38-1.1c.13-.38.48-.63.88-.63s.75.25.88.63l.38,1.09c.11.31.33.55.61.66l1.04.41c.36.14.6.49.6.89s-.24.75-.6.89l-1.04.41c-.28.11-.51.35-.61.66l-.38,1.1c-.13.38-.48.63-.88.63Z"/>
      <path class="cls-3" d="M86.07,30.89c.1,0,.2.06.24.18l.38,1.1c.17.49.54.88,1.01,1.06l1.04.41c.22.09.22.42,0,.51l-1.04.41c-.47.18-.84.57-1.01,1.06l-.38,1.1c-.04.12-.14.18-.24.18s-.2-.06-.24-.18l-.38-1.1c-.17-.49-.54-.88-1.01-1.06l-1.04-.41c-.22-.09-.22-.42,0-.51l1.04-.41c.47-.18.83-.57,1.01-1.06l.38-1.1c.04-.12.14-.18.24-.18M86.07,29.54c-.68,0-1.3.44-1.52,1.09l-.38,1.1c-.04.12-.12.21-.22.25l-1.04.41c-.63.24-1.03.84-1.03,1.52s.41,1.28,1.03,1.52l1.04.41c.1.04.18.13.22.25l.38,1.1c.23.65.84,1.09,1.52,1.09s1.3-.44,1.52-1.09l.38-1.1c.04-.12.12-.21.22-.25l1.04-.41c.63-.25,1.03-.84,1.03-1.52,0-.68-.41-1.28-1.03-1.52l-1.04-.41c-.1-.04-.18-.13-.22-.25l-.38-1.1c-.23-.65-.84-1.09-1.52-1.09h0Z"/>
    </g>
  </g>
  <g>
    <path class="cls-5" d="M58.66,48.84c.05-1.95.76-4.27,2.95-4.6,2.32-.35,3.8,1.62,4.38,3.45s2.34,6.28,2.32,8.63c-.01,1.62-.6,4.65-1.74,4.53s-1.03-1.4-1.95-1.4-.92,1.53-2.06,1.41-1.09-1.73-2.07-1.66c-1.09.08-1.04,2.2-2.82.88-1.25-.94,1.15-4.76,1.38-6.02s-.44-2.86-.39-5.22Z"/>
    <circle class="cls-4" cx="28.23" cy="35.95" r="6.3"/>
    <g>
      <path class="cls-4" d="M33.04,58.05l9.39,3.88,8.63-1.6c1.46-.27,2.84.8,2.92,2.29h0c.07,1.16-.68,2.21-1.79,2.53l-10.89,3.11-8.3-2.67"/>
      <path class="cls-1" d="M13.11,116.04l4.31-19.28,1.95-21.13-.22-23.24c-.12-1.98.95-3.84,2.73-4.73h0c.92-.46,1.95-.62,2.96-.46l5.49.84,13.38,2.65c1.37.27,2.78.13,4.07-.4l11.03-4.56c1.58-.65,3.38.2,3.87,1.84h0c.41,1.36-.23,2.81-1.51,3.43l-14.58,7.06h-13.55l6.07,57.61h-6l-5.41-33.89-3.71,17.93-4.87,16.34h-6Z"/>
    </g>
  </g>
</svg>