<?xml version="1.0" encoding="UTF-8"?>
<svg id="pictos" xmlns="http://www.w3.org/2000/svg" viewBox="0 0 128 128">
  <defs>
    <style>
      .cls-1 {
        stroke-linecap: round;
      }

      .cls-1, .cls-2, .cls-3, .cls-4, .cls-5, .cls-6 {
        fill: #fff;
        stroke: #000;
      }

      .cls-1, .cls-4, .cls-6 {
        stroke-width: 2px;
      }

      .cls-1, .cls-6 {
        stroke-linejoin: round;
      }

      .cls-2 {
        stroke-width: 1.92px;
      }

      .cls-2, .cls-3, .cls-4, .cls-5 {
        stroke-miterlimit: 10;
      }

      .cls-3 {
        stroke-width: 1.91px;
      }

      .cls-5 {
        stroke-width: 1.53px;
      }
    </style>
  </defs>
  <path class="cls-3" d="M101.45,58.7l1.1,7.11h4.57c-.01-.07-.01-.14-.03-.22l-1.7-8.08c-.42-1.85-2.19-4.02-4.3-3.91l-1.15.03-4.59.13-.57.02c-2.29-.18-4.04,2-4.38,4.14-.06.35-.06,1.01-.04,1.48h3.24c0-.36.04-.62.12-.86.11-.32.57-.9,1.58-.87,0,.02,3.17-.03,4.37.02s1.56.09,1.76,1Z"/>
  <path class="cls-2" d="M85.38,105.11h-41.6c-9.89,0-18.59-6.03-21.31-14.78l-7.91-25.44h100.03l-7.91,25.44c-2.72,8.75-11.41,14.78-21.31,14.78Z"/>
  <g>
    <rect class="cls-5" x="35.07" y="99.35" width="6.66" height="16.6" rx="3.33" ry="3.33" transform="translate(58.97 -4.78) rotate(30)"/>
    <rect class="cls-5" x="87.44" y="99.35" width="6.66" height="16.6" rx="3.33" ry="3.33" transform="translate(223.2 155.49) rotate(150)"/>
  </g>
  <g>
    <path class="cls-4" d="M79.76,61.62c.78-.14,2.63.27,2.99.97.5.97,1.72,4.56,1.41,8.17s-3.02,8.08-4.01,9.34c-1.25,1.59-2.2.81-2.96.45-1.21-.57-.28-1.55-1.19-2.04s-1.75.98-2.78.42c-.93-.49-.39-2.35-1.4-2.75s-1.57,1.15-2.5.66c-.99-.52-1.38-1.23-.9-2.43.53-1.32.92-1.32,2.89-3s5.44-3.24,6.03-5.92c.38-1.73.71-3.57,2.42-3.87Z"/>
    <g>
      <circle class="cls-6" cx="57.75" cy="30.88" r="7.12"/>
      <path class="cls-6" d="M46.14,53.67l5.44,10.12,8.7,4.78c1.48.81,1.91,2.73.92,4.1h0c-.77,1.06-2.17,1.45-3.38.93l-11.76-5.07-5.35-8.28"/>
      <path class="cls-1" d="M39.72,64.06l.4,4.05,6.25,46.61h-8l-6.12-38.33-4.2,20.28-6.5,18.48h-8l7.09-21.81,1.89-20.46c.21-2.29.59-4.56,1.13-6.79l1.16-4.29c.43-1.58.92-3.15,1.47-4.69l1.04-2.91c1.54-3.29,3.47-6.38,5.75-9.21l2.95-3.46c3.12-3.67,8.65-4.08,12.27-.9l2.67,2.34,9.82,11.9c1,1.21,2.34,2.1,3.85,2.56l12.92,3.91c1.85.56,2.82,2.6,2.07,4.38h0c-.62,1.48-2.22,2.3-3.78,1.92l-17.82-4.26-11.86-9.7-6,9.01-.43,1.38Z"/>
    </g>
  </g>
</svg>