<?xml version="1.0" encoding="UTF-8"?>
<svg id="pictos" xmlns="http://www.w3.org/2000/svg" viewBox="0 0 128 128">
  <defs>
    <style>
      .cls-1, .cls-2 {
        fill: none;
      }

      .cls-1, .cls-2, .cls-3, .cls-4 {
        stroke-linecap: round;
      }

      .cls-1, .cls-2, .cls-3, .cls-4, .cls-5 {
        stroke: #000;
      }

      .cls-1, .cls-2, .cls-3, .cls-5 {
        stroke-linejoin: round;
      }

      .cls-1, .cls-3 {
        stroke-width: 2.65px;
      }

      .cls-2, .cls-5 {
        stroke-width: 2px;
      }

      .cls-3, .cls-6, .cls-4, .cls-5 {
        fill: #fff;
      }

      .cls-4 {
        stroke-linejoin: bevel;
        stroke-width: 1.32px;
      }
    </style>
  </defs>
  <path d="M34.29,110.91c1.96-.23,1.35,2.16,2.11,3.19.23.31,2.95,1.19,1.08,2.24-2.21.82-3.04-2.46-3.41-3.79-.21-.74-.53-1.11.22-1.64Z"/>
  <path d="M28.01,106.79c2.01-.09,5.03,2.27,2.54,3.36-1.02-.61-1.35-2.01-2.79-1.5-.86.4-.95.93-1.44,1.65-.47.68-1.53.34-1.55-.46-.05-1.67,1.78-2.88,3.24-3.04Z"/>
  <path d="M39.01,111.69c.46-.1,1.09-.02,1.56-.01h8.9c.77,0,4.52-.19,5,.06.9.47.33,1.58-.46,1.76h-9.56c-1.07,0-5.2.3-5.95-.25-.77-.57-.32-1.44.51-1.55Z"/>
  <path d="M40.06,105.02c1.67-.13,2.63.44,3.75,1.71,1.94-1.42,4.17.53,4.73,2.59.8.05,1.69.16,2.42.5.71.33.53,1.3-.2,1.51-.51.15-3.85.12-4.06-.94.06-1.31-.1-1.85-1.41-2.33-.33.05-.62.13-.93.23-2.51,2.78-1.18-1.09-3.75-1.56-2.1.59-1.5,2.96-2.87,2.19-1.67-.93.39-3.44,2.32-3.91Z"/>
  <path d="M22.5,91.92c2.05-.2,1.38,1.38.26,2.22-.47,3.05-.83,5.7-4.6,6.46-2.89.58-1.29.52-3.09,1.3-.53.1-1.12-.24-1.24-.8-.16-.78.82-1.16,1.09-1.78.19-.45.03-1.16.03-1.64-.03-2.58,2.23-4.86,4.73-5.11,1.18-.12,1.73-.07,2.81-.65ZM20.82,95.43c-.61.49-2.05,2.33-2.32,3.07l.03.1c1.04-.46,2.27-1.95,2.29-3.17ZM18.99,94.46c-.94.71-2.51,2.04-2.23,3.41.33-.4,2.25-3.08,2.23-3.41Z"/>
  <path d="M31.91,94.56c1.71-.06.89,1.55.45,2.43,3.66,2.34,4.97,2.02,4.83,7.43.45.42,1.72,1.27.67,1.91-.41.25-.73.18-1.17.06-1.31-.37-2.79-.55-4.01-1.15-3.5-1.72-4.1-5.2-2.43-8.52.38-.76.79-1.87,1.66-2.16ZM31.07,99.52c-.05,1.9.9,3.64,2.72,4.36-.16-.27-2.67-4.33-2.72-4.36ZM33.29,99.52c.45.82,1.4,2.65,2.12,3.15-.29-1.4-.72-2.57-2.12-3.15Z"/>
  <path d="M26.63,100.53c1.07-.09,3.95.67,2.72,1.92-.78.79-2.43-.88-3.46.28-.92,1.03-.13,2.49-.77,3.18-.84.9-2.51-.58-3.66.65-.94,1.01-.18,2.11-.16,3.24v.09c-1.17.75-1.77,1.1-1.68,2.68.02.32.99.22,1.25.22h7.5c1.11,0,2.41-.12,3.49.03.7.1.98,1.07.47,1.55-.41.39-2.61.23-3.24.22h-10.54c-.95,0-5.52.28-6.11-.18-.36-.28-.48-1.1-.13-1.42.42-.39,1.59-.21,2.11-.21h3.38c.02-1.38.21-2.63,1.35-3.57.15-.47.02-1.1.03-1.59.05-2.37,2.24-3.48,4.36-3.34.09-1.96,1.1-3.4,3.1-3.75Z"/>
  <path d="M37.92,69.41c2.32-.2,3.53.72,5.22.75.85.02,2.69-.85,2.91.5.21,1.3-1.84,1.03-2.76,1.68-2.79,1.97-2.29,6.04-7.67,6.7-.81,0-1.61.02-2.42,0l-.08.11c-.45.58-1.05,3.7-2.33,2.72-.91-.69.45-2.95.61-3.76.11-.61-.03-1.26-.04-1.87-.11-3.79,2.83-6.73,6.58-6.82ZM40.41,72.74c-1.35.67-5.44,2.92-5.86,4.47l.04.05c3.26-.12,4.39-1.86,5.84-4.47l-.03-.05ZM37.92,71.21c-2.92.42-4.25,1.73-4.72,4.55.29-.28.57-.56.83-.86,1.51-1.58,3.42-2.96,5.5-3.68-.51-.06-1.1-.11-1.61,0Z"/>
  <path d="M42.31,85.95c1.87,0,1.01,1.98.96,3.19,4.66,2.4,7.8,4.55,6.57,10.41.81.93,2.89,1.69,3.15,2.36.36.92-.74,1.28-1.42.94-1.1-.38-1.9-1-2.79-1.73-2.83.11-5.47-.42-7.25-2.88-1.33-1.83-1.98-4.55-1.29-6.76.25-.79.73-1.48.97-2.25.32-1.09.07-2.53,1.1-3.27ZM41.89,92.36c-.35,3.75,1.27,6.19,4.94,6.96,0-.21-1.03-1.23-1.25-1.49-1.04-1.27-2.98-4.78-3.7-5.47ZM43.7,91.44c.49,1.36,3.33,5.74,4.57,6.45.17-3-1.79-5.49-4.57-6.45Z"/>
  <path d="M56.23,91.52c-.69.02-1.34-.61-1.36-1.3-.02-.72.56-1.34,1.28-1.37.76-.03,1.34.5,1.38,1.25.04.77-.54,1.41-1.3,1.42Z"/>
  <path d="M47.35,83.43c0,.75-.56,1.31-1.31,1.32-.76,0-1.33-.54-1.34-1.28-.02-.76.6-1.39,1.35-1.38.71.01,1.3.62,1.3,1.35Z"/>
  <path d="M53.37,83.58c0,.72-.59,1.32-1.31,1.33-.73.01-1.33-.57-1.34-1.29-.02-.79.56-1.37,1.35-1.36.75,0,1.3.57,1.3,1.32Z"/>
  <path class="cls-6" d="M104.8,51.64l-8.82.9c-2.34.18-3.99,2.36-3.53,4.65h0c.36,1.82,1.96,3.14,3.82,3.13,3.12,0,11.95-.66,15.04-.7,2.89-.04,5.05-2.67,4.53-5.51l-4.47-11.3c-1.44-3.38-3.67-5.97-7.19-5.95l-14.92.12c-3.1.03-5.97,1.61-7.64,4.22l-6.1,9.53c-1.63,2.54-1.78,5.77-.39,8.45l7.19,13.89c.91,1.75,3.07,2.42,4.81,1.49h0c1.65-.88,2.32-2.89,1.54-4.59l-5.79-12.63,4.67-9.02h0l-1.09,64.12h8.37l1.96-40.76s4.67,13.8,5.33,18.04,3.26,22.39,3.26,22.39h7.61s-1.63-17.5-2.61-25.54-3.37-10.98-3.59-17.93c-.09-2.95-.08-4.54-.04-8.35"/>
  <path class="cls-2" d="M86.16,75.13l.31,36.96h8.37l1.96-40.76s4.67,13.8,5.33,18.04c.65,4.24,3.26,22.39,3.26,22.39h7.61s-1.63-17.5-2.61-25.54c-.98-8.04-3.37-10.98-3.59-17.93-.09-2.95-.08-4.54-.04-8.35"/>
  <circle class="cls-5" cx="96.65" cy="23.3" r="7.07"/>
  <line class="cls-1" x1="99.86" y1="42.14" x2="73.49" y2="96.98"/>
  <g>
    <path class="cls-6" d="M75.3,49.62c-1.63,2.54-1.78,5.77-.39,8.45l7.19,13.89c.91,1.75,3.07,2.42,4.81,1.49h0c1.65-.88,2.32-2.89,1.54-4.59l-5.79-12.63"/>
    <path class="cls-6" d="M104.58,50.51l-8.82.9c-2.34.18-3.99,2.36-3.53,4.65h0c.36,1.82,1.96,3.14,3.82,3.13,3.12,0,11.95-.66,15.04-.7"/>
  </g>
  <path class="cls-3" d="M55.5,112.27l12.4-13.8c.98-1.21,2.66-1.59,4.07-.94l2,.93c1.33.62,2.11,2.01,1.94,3.47l-3.17,11.46"/>
  <path class="cls-2" d="M104.8,51.27l-8.82.9c-2.34.18-3.99,2.36-3.53,4.65h0c.36,1.82,1.96,3.14,3.82,3.13,3.12,0,11.95-.66,15.04-.7,2.89-.04,5.05-2.67,4.53-5.51l-4.47-11.3c-1.44-3.38-3.67-5.97-7.19-5.95l-14.92.12c-3.1.03-5.97,1.61-7.64,4.22l-6.1,9.53c-1.63,2.54-1.78,5.77-.39,8.45l7.19,13.89c.91,1.75,3.07,2.42,4.81,1.49h0c1.65-.88,2.32-2.89,1.54-4.59l-5.79-12.63,4.67-9.02h0"/>
  <line class="cls-4" x1="71.35" y1="98.19" x2="59.7" y2="113.01"/>
  <line class="cls-4" x1="73.03" y1="98.85" x2="63.52" y2="113.2"/>
  <line class="cls-4" x1="74.61" y1="99.5" x2="67.99" y2="113.11"/>
</svg>