<?xml version="1.0" encoding="UTF-8"?>
<svg id="pictos" xmlns="http://www.w3.org/2000/svg" viewBox="0 0 128 128">
  <defs>
    <style>
      .cls-1, .cls-2, .cls-3, .cls-4, .cls-5, .cls-6, .cls-7 {
        stroke-miterlimit: 10;
      }

      .cls-1, .cls-2, .cls-3, .cls-5, .cls-6, .cls-7 {
        stroke: #1d1d1b;
      }

      .cls-1, .cls-3 {
        stroke-linecap: round;
      }

      .cls-1, .cls-3, .cls-8, .cls-7 {
        fill: #fff;
      }

      .cls-1, .cls-4, .cls-5, .cls-7 {
        stroke-width: 2px;
      }

      .cls-2, .cls-5, .cls-6 {
        fill: none;
      }

      .cls-3 {
        stroke-width: 1.25px;
      }

      .cls-4 {
        stroke: #fff;
      }

      .cls-4, .cls-9 {
        fill: #1d1d1b;
      }

      .cls-6 {
        stroke-width: 2.42px;
      }
    </style>
  </defs>
  <g>
    <path class="cls-7" d="M36.65,22.23h54c4.11,0,7.45,3.34,7.45,7.45v74.15H29.2V29.68c0-4.11,3.34-7.45,7.45-7.45Z"/>
    <circle class="cls-4" cx="63.65" cy="64.47" r="17.55"/>
    <circle class="cls-6" cx="63.65" cy="64.47" r="21.27"/>
    <line class="cls-5" x1="29.2" y1="34.68" x2="98.1" y2="34.68"/>
    <rect class="cls-5" x="32.59" y="103.82" width="62.71" height="7.44"/>
    <circle class="cls-8" cx="68.49" cy="59.64" r="4.84"/>
    <circle class="cls-2" cx="45.29" cy="28.17" r="1.86"/>
    <circle class="cls-2" cx="56.99" cy="28.17" r="1.86"/>
    <circle class="cls-2" cx="68.69" cy="28.17" r="1.86"/>
    <circle class="cls-9" cx="81.2" cy="28.17" r="2.67"/>
  </g>
  <path class="cls-1" d="M79.96,48.09l-2.99,2.78s3.43,5.84,4.99,8.72c1.56,2.89.23,10.18,3.1,14.31s6.27-1.12,3.59-3.3-2.82-8.55-3.3-13.41c-.28-2.78-2.85-6.38-5-8.96-1.61-1.93-2.99-3.29-2.99-3.29,0,0,3.87-4.51,10.74-8.34s14.51-13.82,14.51-13.82c0,0,3.66.63,5.14,4.56s.05,5.04,4.75,11.56,7,8.94,5.74,12.45-24.37,24.38-30.29,24.09"/>
  <path class="cls-3" d="M111.94,78.58l-3.42-6.06c-.72-.91-1.81-1.47-2.92-1.41-3.2.16-6.94-1.09-6.94-1.09l-9.49-5.33c1.7-5.04,7.59,1.55,9.55-.82,1.97-2.38-1.5-6.51-1.5-6.51l-7.35-9.46c-1.73-2.44.8-3.96,2.39-2.02l7.42,8.56,1.11-.81-6.98-12.76c-1.18-2.32,1.8-3.69,2.98-1.7l7.19,12.74,1.39-.48-3.71-10.82c-.7-2.23,2.4-3.24,3.27-.81l3.5,10.68,1.21-.21s-.49-7.47-.49-7.69c.07-2.08,2.75-2.04,3.12.03l.76,7.89s3.1,6.44,3.18,11.29c.03,1.51,1.8,5.71,2.59,7.03l-8.13,12.72"/>
  <g>
    <g>
      <path class="cls-9" d="M28.63,44.06c-.53,0-.99-.33-1.17-.85l-.84-2.41c-.31-.9-.98-1.6-1.82-1.93l-2.28-.89c-.49-.19-.8-.66-.8-1.19s.31-1,.8-1.19l2.28-.89c.84-.33,1.51-1.03,1.82-1.93l.84-2.41c.18-.51.64-.85,1.17-.85s.99.33,1.17.85l.84,2.41c.31.9.98,1.6,1.82,1.93l2.28.89c.49.19.8.66.8,1.19s-.32,1-.8,1.19l-2.28.89c-.84.33-1.51,1.03-1.82,1.93l-.84,2.41c-.18.51-.64.85-1.17.85Z"/>
      <path class="cls-8" d="M28.63,30.19c.22,0,.44.13.53.39l.84,2.41c.38,1.08,1.19,1.94,2.22,2.34l2.28.89c.49.19.49.93,0,1.12l-2.28.89c-1.03.4-1.84,1.26-2.22,2.34l-.84,2.41c-.09.26-.31.39-.53.39s-.44-.13-.53-.39l-.84-2.41c-.38-1.08-1.19-1.94-2.22-2.34l-2.28-.89c-.49-.19-.49-.93,0-1.12l2.28-.89c1.03-.4,1.84-1.26,2.22-2.34l.84-2.41c.09-.26.31-.39.53-.39M28.63,28.83c-.83,0-1.54.51-1.81,1.3l-.84,2.41c-.25.71-.77,1.27-1.43,1.52l-2.28.89c-.75.29-1.23,1.01-1.23,1.83s.48,1.53,1.23,1.83l2.28.89c.66.26,1.18.81,1.43,1.52l.84,2.41c.28.79.99,1.3,1.81,1.3s1.54-.51,1.81-1.3l.84-2.41c.25-.71.77-1.27,1.43-1.52l2.28-.89c.75-.29,1.23-1.01,1.23-1.83s-.48-1.53-1.23-1.83l-2.28-.89c-.66-.26-1.18-.81-1.43-1.52l-.84-2.41c-.28-.79-.99-1.3-1.81-1.3h0Z"/>
    </g>
    <g>
      <path class="cls-9" d="M22.64,51.54c-.43,0-.81-.27-.96-.69l-.5-1.42c-.16-.45-.49-.81-.92-.98l-1.35-.53c-.4-.15-.65-.53-.65-.96s.25-.81.65-.96l1.35-.53c.42-.17.76-.52.92-.98l.5-1.42c.15-.42.52-.69.96-.69s.81.27.96.69l.5,1.42c.16.45.49.81.92.98l1.35.53c.4.15.65.53.65.96s-.25.81-.65.96l-1.35.53c-.42.17-.76.52-.92.98l-.5,1.42c-.15.42-.52.69-.96.69Z"/>
      <path class="cls-8" d="M22.64,43.07c.13,0,.26.08.31.23l.5,1.42c.22.64.7,1.15,1.31,1.38l1.35.53c.29.11.29.55,0,.66l-1.35.53c-.61.24-1.09.74-1.31,1.38l-.5,1.42c-.05.15-.18.23-.31.23s-.26-.08-.31-.23l-.5-1.42c-.22-.64-.7-1.15-1.31-1.38l-1.35-.53c-.29-.11-.29-.55,0-.66l1.35-.53c.61-.24,1.09-.74,1.31-1.38l.5-1.42c.05-.15.18-.23.31-.23M22.64,41.71c-.72,0-1.36.46-1.6,1.14l-.5,1.42c-.09.27-.28.47-.52.57l-1.35.53c-.66.26-1.08.88-1.08,1.6s.43,1.34,1.08,1.6l1.35.53c.24.09.43.3.52.57l.5,1.42c.24.68.88,1.14,1.6,1.14s1.36-.46,1.6-1.14l.5-1.42c.09-.27.28-.47.52-.57l1.35-.53c.66-.26,1.08-.88,1.08-1.6s-.43-1.34-1.08-1.6l-1.35-.53c-.24-.09-.43-.3-.52-.57l-.5-1.42c-.24-.68-.88-1.14-1.6-1.14h0Z"/>
    </g>
    <g>
      <path class="cls-9" d="M36.61,47.48c-.4,0-.75-.25-.88-.63l-.38-1.09c-.11-.31-.33-.55-.61-.66l-1.04-.41c-.37-.14-.6-.49-.6-.89s.24-.75.6-.89l1.04-.41c.28-.11.51-.35.61-.66l.38-1.1c.13-.38.48-.63.88-.63s.75.25.88.63l.38,1.09c.11.31.33.55.61.66l1.04.41c.36.14.6.49.6.89s-.24.75-.6.89l-1.04.41c-.28.11-.51.35-.61.66l-.38,1.1c-.13.38-.48.63-.88.63Z"/>
      <path class="cls-8" d="M36.61,40.81c.1,0,.2.06.24.18l.38,1.1c.17.49.54.88,1.01,1.06l1.04.41c.22.09.22.42,0,.51l-1.04.41c-.47.18-.84.57-1.01,1.06l-.38,1.1c-.04.12-.14.18-.24.18s-.2-.06-.24-.18l-.38-1.1c-.17-.49-.54-.88-1.01-1.06l-1.04-.41c-.22-.09-.22-.42,0-.51l1.04-.41c.47-.18.83-.57,1.01-1.06l.38-1.1c.04-.12.14-.18.24-.18M36.61,39.45c-.68,0-1.3.44-1.52,1.09l-.38,1.1c-.04.12-.12.21-.22.25l-1.04.41c-.63.24-1.03.84-1.03,1.52s.41,1.28,1.03,1.52l1.04.41c.1.04.18.13.22.25l.38,1.1c.23.65.84,1.09,1.52,1.09s1.3-.44,1.52-1.09l.38-1.09c.04-.12.12-.21.22-.25l1.04-.41c.63-.24,1.03-.84,1.03-1.52s-.41-1.28-1.03-1.52l-1.04-.41c-.1-.04-.18-.13-.22-.25l-.38-1.1c-.23-.65-.84-1.09-1.52-1.09h0Z"/>
    </g>
  </g>
</svg>