<?xml version="1.0" encoding="UTF-8"?>
<svg id="pictos" xmlns="http://www.w3.org/2000/svg" viewBox="0 0 128 128">
  <defs>
    <style>
      .cls-1 {
        fill: none;
      }

      .cls-1, .cls-2, .cls-3 {
        stroke-linecap: round;
      }

      .cls-1, .cls-2, .cls-3, .cls-4, .cls-5 {
        stroke: #000;
        stroke-width: 2px;
      }

      .cls-1, .cls-2, .cls-4 {
        stroke-miterlimit: 10;
      }

      .cls-2, .cls-3, .cls-4, .cls-5 {
        fill: #fff;
      }

      .cls-3, .cls-5 {
        stroke-linejoin: round;
      }

      .cls-6 {
        fill: #1d1d1b;
      }
    </style>
  </defs>
  <g>
    <path class="cls-6" d="M84.86,42.16l1.68.66c.36.14.36.69,0,.83l-1.68.66c-.76.3-1.35.93-1.63,1.72l-.62,1.77c-.13.38-.65.38-.78,0l-.62-1.77c-.28-.8-.88-1.43-1.63-1.72l-1.68-.66c-.36-.14-.36-.69,0-.83l1.68-.66c.76-.3,1.35-.93,1.63-1.72l.62-1.77c.13-.38.65-.38.78,0l.62,1.77c.28.8.88,1.43,1.63,1.72Z"/>
    <path class="cls-6" d="M79.36,50.1l.99.39c.22.08.22.41,0,.49l-.99.39c-.45.17-.8.55-.96,1.02l-.37,1.05c-.08.23-.38.23-.46,0l-.37-1.05c-.17-.47-.52-.84-.96-1.02l-.99-.39c-.22-.08-.22-.41,0-.49l.99-.39c.45-.17.8-.55.96-1.02l.37-1.05c.08-.23.38-.23.46,0l.37,1.05c.17.47.52.84.96,1.02Z"/>
    <path class="cls-6" d="M89.29,47.92l.76.3c.17.06.17.31,0,.38l-.76.3c-.34.13-.62.42-.74.78l-.28.81c-.06.17-.3.17-.36,0l-.28-.81c-.13-.36-.4-.65-.74-.78l-.76-.3c-.17-.06-.17-.31,0-.38l.76-.3c.34-.13.62-.42.74-.78l.28-.81c.06-.17.3-.17.36,0l.28.81c.13.36.4.65.74.78Z"/>
  </g>
  <g>
    <path class="cls-2" d="M68.38,77.84c-.94,0-1.67.86-1.47,1.78,1.64,7.78,8.28,13.84,16.6,15.01,1.44.2,2.33,1.67,1.82,3.02l-6.6,17.51h37.32v-37.32h-47.67Z"/>
    <path class="cls-2" d="M104.73,41.53h6.94c2.42,0,4.38,1.96,4.38,4.38v29.52h-15.71v-29.52c0-2.42,1.96-4.38,4.38-4.38Z"/>
    <rect class="cls-2" x="66.63" y="69.88" width="30.77" height="5.55" rx="2.77" ry="2.77"/>
    <path class="cls-1" d="M89.77,94.84c6.94,0,13.06-3.38,16.63-8.5"/>
  </g>
  <g>
    <path class="cls-4" d="M78.17,61.48c.78-.14,2.63.27,2.99.97.5.97,1.72,4.56,1.41,8.17s-3.02,8.08-4.01,9.34c-1.25,1.59-2.2.81-2.96.45-1.21-.57-.28-1.55-1.19-2.04s-1.75.98-2.78.42c-.93-.49-.39-2.35-1.4-2.75s-1.57,1.15-2.5.66c-.99-.52-1.38-1.23-.9-2.43.53-1.32.92-1.32,2.89-3,1.97-1.68,5.44-3.24,6.03-5.92.38-1.73.71-3.57,2.42-3.87Z"/>
    <g>
      <circle class="cls-5" cx="56.16" cy="30.74" r="7.12"/>
      <path class="cls-5" d="M44.56,53.54l5.44,10.12,8.7,4.78c1.48.81,1.91,2.73.92,4.1h0c-.77,1.06-2.17,1.45-3.38.93l-11.76-5.07-5.35-8.28"/>
      <path class="cls-3" d="M38.13,63.93l.4,4.05,6.25,46.61h-8l-6.12-38.33-4.2,20.28-6.5,18.48h-8l7.09-21.81,1.89-20.46c.21-2.29.59-4.56,1.13-6.79l1.16-4.29c.43-1.58.92-3.15,1.47-4.69l1.04-2.91c1.54-3.29,3.47-6.38,5.75-9.21l2.95-3.46c3.12-3.67,8.65-4.08,12.27-.9l2.67,2.34,9.82,11.9c1,1.21,2.34,2.1,3.85,2.56l12.92,3.91c1.85.56,2.82,2.6,2.07,4.38h0c-.62,1.48-2.22,2.3-3.78,1.92l-17.82-4.26-11.86-9.7-6,9.01-.43,1.38Z"/>
    </g>
  </g>
</svg>