<?xml version="1.0" encoding="UTF-8"?>
<svg id="pictos" xmlns="http://www.w3.org/2000/svg" viewBox="0 0 128 128">
  <defs>
    <style>
      .cls-1 {
        stroke-linecap: round;
      }

      .cls-1, .cls-2, .cls-3, .cls-4, .cls-5 {
        fill: #fff;
      }

      .cls-1, .cls-2, .cls-4, .cls-5 {
        stroke: #000;
      }

      .cls-1, .cls-4, .cls-5 {
        stroke-width: 2px;
      }

      .cls-1, .cls-5 {
        stroke-linejoin: round;
      }

      .cls-6 {
        fill: #1d1d1b;
      }

      .cls-2 {
        stroke-width: 1.94px;
      }

      .cls-2, .cls-4 {
        stroke-miterlimit: 10;
      }
    </style>
  </defs>
  <g>
    <polygon class="cls-1" points="100.17 113.67 78.68 113.67 80.83 75.58 98.02 75.58 100.17 113.67"/>
    <path class="cls-1" d="M89.56,81.43c15.56,0,28.17-7.93,28.17-17.72h-56.34c0,9.79,12.61,17.72,28.17,17.72Z"/>
    <path class="cls-2" d="M86.53,59.22l-.61,4h-4.68c.01-.07.01-.14.03-.22l1.23-4.97c.43-1.86,2.24-4.04,4.4-3.93l1.17.03,4.7.13.59.02c2.35-.18,4.14,2.01,4.48,4.16.06.36.06,1.02.04,1.48h-3.32c0-.36-.04-.63-.13-.86-.12-.32-.59-.91-1.62-.87,0,.02-3.25-.03-4.48.02s-1.6.09-1.81,1.01Z"/>
  </g>
  <g>
    <path class="cls-4" d="M80.39,61.14c.78-.14,2.63.27,2.99.97.5.97,1.72,4.56,1.41,8.17s-3.02,8.08-4.01,9.34c-1.25,1.59-2.2.81-2.96.45-1.21-.57-.28-1.55-1.19-2.04s-1.75.98-2.78.42c-.93-.49-.39-2.35-1.4-2.75s-1.57,1.15-2.5.66c-.99-.52-1.38-1.23-.9-2.43.53-1.32.92-1.32,2.89-3s5.44-3.24,6.03-5.92c.38-1.73.71-3.57,2.42-3.87Z"/>
    <g>
      <circle class="cls-5" cx="58.38" cy="30.39" r="7.12"/>
      <path class="cls-5" d="M46.77,53.19l5.44,10.12,8.7,4.78c1.48.81,1.91,2.73.92,4.1h0c-.77,1.06-2.17,1.45-3.38.93l-11.76-5.07-5.35-8.28"/>
      <path class="cls-1" d="M40.34,63.58l.4,4.05,6.25,46.61h-8l-6.12-38.33-4.2,20.28-6.5,18.48h-8l7.09-21.81,1.89-20.46c.21-2.29.59-4.56,1.13-6.79l1.16-4.29c.43-1.58.92-3.15,1.47-4.69l1.04-2.91c1.54-3.29,3.47-6.38,5.75-9.21l2.95-3.46c3.12-3.67,8.65-4.08,12.27-.9l2.67,2.34,9.82,11.9c1,1.21,2.34,2.1,3.85,2.56l12.92,3.91c1.85.56,2.82,2.6,2.07,4.38h0c-.62,1.48-2.22,2.3-3.78,1.92l-17.82-4.26-11.86-9.7-6,9.01-.43,1.38Z"/>
    </g>
  </g>
  <g>
    <g>
      <path class="cls-6" d="M80.06,51.49c-.39,0-.73-.24-.86-.62l-.62-1.77c-.23-.66-.72-1.18-1.34-1.42l-1.68-.66c-.36-.14-.59-.49-.59-.88,0-.39.23-.74.59-.88l1.68-.66c.62-.24,1.11-.76,1.34-1.42l.62-1.77c.13-.38.47-.62.86-.62s.73.24.86.62l.62,1.77c.23.66.72,1.18,1.34,1.42l1.68.66c.36.14.59.49.59.88,0,.39-.23.74-.59.88l-1.68.66c-.62.24-1.11.76-1.34,1.42l-.62,1.77c-.13.38-.47.62-.86.62Z"/>
      <path class="cls-3" d="M80.06,41.27c.16,0,.33.1.39.29l.62,1.77c.28.8.88,1.43,1.63,1.72l1.68.66c.36.14.36.69,0,.83l-1.68.66c-.76.3-1.35.93-1.63,1.72l-.62,1.77c-.07.19-.23.29-.39.29s-.33-.1-.39-.29l-.62-1.77c-.28-.8-.88-1.43-1.63-1.72l-1.68-.66c-.36-.14-.36-.69,0-.83l1.68-.66c.76-.3,1.35-.93,1.63-1.72l.62-1.77c.07-.19.23-.29.39-.29M80.06,40.27c-.61,0-1.13.38-1.34.96l-.62,1.77c-.18.52-.57.93-1.05,1.12l-1.68.66c-.55.22-.91.74-.91,1.35s.36,1.13.91,1.35l1.68.66c.49.19.87.6,1.05,1.12l.62,1.77c.2.58.73.96,1.34.96s1.13-.38,1.34-.96l.62-1.77c.18-.52.57-.93,1.05-1.12l1.68-.66c.55-.22.91-.74.91-1.35s-.36-1.13-.91-1.35l-1.68-.66c-.49-.19-.87-.6-1.05-1.12l-.62-1.77c-.2-.58-.73-.96-1.34-.96h0Z"/>
    </g>
    <g>
      <path class="cls-6" d="M75.65,57c-.32,0-.6-.2-.7-.5l-.37-1.05c-.12-.33-.36-.6-.68-.72l-.99-.39c-.29-.11-.48-.39-.48-.71s.19-.6.48-.71l.99-.39c.31-.12.56-.38.68-.72l.37-1.05c.11-.31.38-.5.7-.5s.6.2.7.5l.37,1.05c.12.33.36.6.68.72l.99.39c.29.11.48.39.48.71s-.19.6-.48.71l-.99.39c-.31.12-.56.38-.68.72l-.37,1.05c-.11.31-.38.51-.7.51Z"/>
      <path class="cls-3" d="M75.65,50.76c.1,0,.19.06.23.17l.37,1.05c.17.47.52.84.96,1.02l.99.39c.22.08.22.41,0,.49l-.99.39c-.45.17-.8.55-.96,1.02l-.37,1.05c-.04.11-.14.17-.23.17s-.19-.06-.23-.17l-.37-1.05c-.17-.47-.52-.84-.96-1.02l-.99-.39c-.22-.08-.22-.41,0-.49l.99-.39c.45-.17.8-.55.96-1.02l.37-1.05c.04-.11.14-.17.23-.17M75.65,49.76c-.53,0-1,.34-1.18.84l-.37,1.05c-.07.2-.21.35-.39.42l-.99.39c-.48.19-.8.65-.8,1.18s.31.99.8,1.18l.99.39c.18.07.32.22.39.42l.37,1.05c.18.5.65.84,1.18.84s1-.34,1.18-.84l.37-1.05c.07-.2.21-.35.39-.42l.99-.39c.48-.19.8-.65.8-1.18s-.31-.99-.8-1.18l-.99-.39c-.18-.07-.32-.22-.39-.42l-.37-1.05c-.18-.5-.65-.84-1.18-.84h0Z"/>
    </g>
    <g>
      <path class="cls-6" d="M85.94,54.01c-.3,0-.55-.18-.65-.46l-.28-.81c-.08-.23-.24-.4-.45-.48l-.76-.3c-.27-.1-.44-.36-.44-.65s.17-.55.44-.65l.76-.3c.21-.08.37-.26.45-.48l.28-.81c.1-.28.35-.47.65-.47s.55.18.65.46l.28.81c.08.23.24.4.45.48l.76.3c.27.1.44.36.44.65s-.17.55-.44.65l-.76.3c-.21.08-.37.26-.45.48l-.28.81c-.1.28-.35.47-.65.47Z"/>
      <path class="cls-3" d="M85.94,49.1c.07,0,.15.04.18.13l.28.81c.13.36.4.65.74.78l.76.3c.17.06.17.31,0,.38l-.76.3c-.34.13-.62.42-.74.78l-.28.81c-.03.09-.1.13-.18.13s-.15-.04-.18-.13l-.28-.81c-.13-.36-.4-.65-.74-.78l-.76-.3c-.17-.06-.17-.31,0-.38l.76-.3c.34-.13.62-.42.74-.78l.28-.81c.03-.09.1-.13.18-.13M85.94,48.1c-.5,0-.95.32-1.12.8l-.28.81c-.03.09-.09.16-.16.18l-.76.3c-.46.18-.76.62-.76,1.12s.3.94.76,1.12l.76.3c.07.03.13.1.16.18l.28.81c.17.48.62.8,1.12.8s.95-.32,1.12-.8l.28-.81c.03-.09.09-.16.16-.18l.76-.3c.46-.18.76-.62.76-1.12s-.3-.94-.76-1.12l-.76-.3c-.07-.03-.13-.1-.16-.18l-.28-.81c-.17-.48-.62-.8-1.12-.8h0Z"/>
    </g>
  </g>
</svg>