<?xml version="1.0" encoding="UTF-8"?>
<svg id="pictos" xmlns="http://www.w3.org/2000/svg" xmlns:xlink="http://www.w3.org/1999/xlink" viewBox="0 0 128 128">
  <defs>
    <style>
      .cls-1 {
        fill: none;
      }

      .cls-2 {
        stroke-linecap: round;
      }

      .cls-2, .cls-3, .cls-4 {
        fill: #fff;
        stroke: #000;
      }

      .cls-2, .cls-4 {
        stroke-linejoin: round;
        stroke-width: 2px;
      }

      .cls-5 {
        fill: #1d1d1b;
      }

      .cls-3 {
        stroke-miterlimit: 10;
        stroke-width: .81px;
      }

      .cls-6 {
        opacity: .44;
      }

      .cls-7 {
        clip-path: url(#clippath);
      }
    </style>
    <clipPath id="clippath">
      <rect class="cls-1" x="68.26" y="23.26" width="45.88" height="91.12"/>
    </clipPath>
  </defs>
  <g class="cls-6">
    <g class="cls-7">
      <g>
        <circle class="cls-4" cx="107.48" cy="35.74" r="6.3"/>
        <g>
          <path class="cls-4" d="M102.67,57.84l-9.39,3.88-8.63-1.6c-1.46-.27-2.84.8-2.92,2.29h0c-.07,1.16.68,2.21,1.79,2.53l10.89,3.11,8.3-2.67"/>
          <path class="cls-2" d="M122.6,115.83l-4.31-19.28-1.95-21.13.22-23.24c.12-1.98-.95-3.84-2.73-4.73h0c-.92-.46-1.95-.62-2.96-.46l-5.49.84-13.38,2.65c-1.37.27-2.78.13-4.07-.4l-11.03-4.56c-1.58-.65-3.38.2-3.87,1.84h0c-.41,1.36.23,2.81,1.51,3.43l14.58,7.06h13.55s-6.07,57.61-6.07,57.61h6s5.41-33.89,5.41-33.89l3.71,17.93,4.87,16.34h6Z"/>
        </g>
      </g>
    </g>
  </g>
  <g>
    <path class="cls-5" d="M78.21,25.62l1.68.66c.36.14.36.69,0,.83l-1.68.66c-.76.3-1.35.93-1.63,1.72l-.62,1.77c-.13.38-.65.38-.78,0l-.62-1.77c-.28-.8-.88-1.43-1.63-1.72l-1.68-.66c-.36-.14-.36-.69,0-.83l1.68-.66c.76-.3,1.35-.93,1.63-1.72l.62-1.77c.13-.38.65-.38.78,0l.62,1.77c.28.8.88,1.43,1.63,1.72Z"/>
    <path class="cls-5" d="M72.72,33.55l.99.39c.22.08.22.41,0,.49l-.99.39c-.45.17-.8.55-.96,1.02l-.37,1.05c-.08.23-.38.23-.46,0l-.37-1.05c-.17-.47-.52-.84-.96-1.02l-.99-.39c-.22-.08-.22-.41,0-.49l.99-.39c.45-.17.8-.55.96-1.02l.37-1.05c.08-.23.38-.23.46,0l.37,1.05c.17.47.52.84.96,1.02Z"/>
    <path class="cls-5" d="M82.65,31.37l.76.3c.17.06.17.31,0,.38l-.76.3c-.34.13-.62.42-.74.78l-.28.81c-.06.17-.3.17-.36,0l-.28-.81c-.13-.36-.4-.65-.74-.78l-.76-.3c-.17-.06-.17-.31,0-.38l.76-.3c.34-.13.62-.42.74-.78l.28-.81c.06-.17.3-.17.36,0l.28.81c.13.36.4.65.74.78Z"/>
  </g>
  <path d="M114.2,14.15v100h-48V14.15h48M116.2,12.15h-52v104h52V12.15h0Z"/>
  <g>
    <path class="cls-3" d="M71.23,48.63c.05-1.95.76-4.27,2.95-4.6,2.32-.35,3.8,1.62,4.38,3.45s2.34,6.28,2.32,8.63c-.01,1.62-.6,4.65-1.74,4.53s-1.03-1.4-1.95-1.4-.92,1.53-2.06,1.41-1.09-1.73-2.07-1.66c-1.09.08-1.04,2.2-2.82.88-1.25-.94,1.15-4.76,1.38-6.02s-.44-2.86-.39-5.22Z"/>
    <circle class="cls-4" cx="40.8" cy="35.74" r="6.3"/>
    <g>
      <path class="cls-4" d="M45.62,57.84l9.39,3.88,8.63-1.6c1.46-.27,2.84.8,2.92,2.29h0c.07,1.16-.68,2.21-1.79,2.53l-10.89,3.11-8.3-2.67"/>
      <path class="cls-2" d="M25.69,115.83l4.31-19.28,1.95-21.13-.22-23.24c-.12-1.98.95-3.84,2.73-4.73h0c.92-.46,1.95-.62,2.96-.46l5.49.84,13.38,2.65c1.37.27,2.78.13,4.07-.4l11.03-4.56c1.58-.65,3.38.2,3.87,1.84h0c.41,1.36-.23,2.81-1.51,3.43l-14.58,7.06h-13.55l6.07,57.61h-6l-5.41-33.89-3.71,17.93-4.87,16.34h-6Z"/>
    </g>
  </g>
</svg>