<?xml version="1.0" encoding="UTF-8"?>
<svg id="pictos" xmlns="http://www.w3.org/2000/svg" viewBox="0 0 128 128">
  <defs>
    <style>
      .cls-1 {
        fill: #fff;
        stroke-linecap: round;
        stroke-width: 2px;
      }

      .cls-1, .cls-2 {
        stroke: #1d1d1b;
        stroke-miterlimit: 10;
      }

      .cls-2 {
        fill: none;
        stroke-width: 2.27px;
      }
    </style>
  </defs>
  <path class="cls-1" d="M71.32,95.21l5.59,3.82s8.18-7.67,12.27-11.25,16.36-4.09,21.99-10.23-4.09-9.72-6.65-4.6-12.78,7.67-20.46,10.23c-4.38,1.46-9.27,6.93-12.65,11.35-2.53,3.31-4.22,6.03-4.22,6.03,0,0-8.69-4.6-17.39-14.32-8.69-9.72-27.61-18.41-27.61-18.41,0,0-.32-6.14,5.5-9.97s8.12-1.92,16.94-11.89,11.89-14.57,18.03-13.81,48.27,30.48,49.96,40.15"/>
  <polyline class="cls-2" points="-8.64 61.61 49.86 16.37 131.01 62.93"/>
  <path class="cls-1" d="M108.91,32.42l-8.55,7.74c-1.21,1.5-1.71,3.46-1.21,5.23,1.43,5.11.76,11.61.76,11.61l-5.16,17.28c-8.77-.91-.25-12.82-4.81-15.13-4.56-2.31-9.96,4.79-9.96,4.79l-12.6,15.33c-3.31,3.68-6.69.15-4.13-3.13l11.13-15.11-1.71-1.5-18.07,15.92c-3.32,2.76-6.62-1.57-3.84-4.19l17.96-16.26-1.28-2.07-16.13,9.93c-3.35,1.95-6.11-2.7-2.5-4.99l15.98-9.55-.78-1.88s-11.9,3.52-12.24,3.59c-3.39.65-4.3-3.7-1.08-5.05l12.47-4.1s9.27-7.36,17.08-9.26c2.43-.59,8.58-4.99,10.41-6.74l23.51,8.49"/>
</svg>