<?xml version="1.0" encoding="UTF-8"?>
<svg id="pictos" xmlns="http://www.w3.org/2000/svg" viewBox="0 0 128 128">
  <defs>
    <style>
      .cls-1 {
        fill: #fff;
      }
    </style>
  </defs>
  <path d="M114.08,38.75c0,6.81,0,13.62,0,20.43,0,.33.08.67-.47.67-3.79-.02-7.58,0-11.37-.01-7.41-.01-14.83-.04-22.24-.03-.64,0-.58-.36-.58-.76.04-5.6.09-11.2.1-16.81,0-7.85-.02-15.7-.03-23.56,0-.91,0-.92.92-.92,11,0,21.99,0,32.99,0,.39,0,.71-.04.71.56-.04,6-.06,12-.08,18,0,.81,0,1.62,0,2.44h.05ZM111.75,57.32c-.12-12.41-.11-24.78-.01-37.13h-29.96c-.01.23-.03.43-.03.63,0,2.25.02,4.5.02,6.75,0,9.7,0,19.41-.01,29.11,0,.49.09.68.64.68,7.12-.03,14.24-.04,21.36-.04,2.66,0,5.32,0,7.99,0Z"/>
  <g>
    <path d="M95.73,41.46c-.08-.14-.17-.28-.23-.42-.04-.09-.07-.19-.07-.28,0-.43,0-.87.01-1.3,0-.11.04-.16.15-.16,0,0,.02,0,.03,0,.22-.02.23-.01.23.21,0,.44,0,.88-.01,1.32,0,.13.06.23.16.3.03.02.1.03.14.01.02,0,.04-.07.04-.11,0-.39-.02-.77-.04-1.16,0-.17-.03-.34-.05-.51.03,0,.06-.02.08-.02.77,0,1.55-.02,2.32-.02.25,0,.24,0,.25.25,0,.44.03.89.02,1.33,0,.11-.07.23-.12.34-.02.06-.06.11-.1.18.08,0,.14,0,.19,0,.06,0,.13,0,.19,0,.14,0,.26.09.26.19,0,.09-.14.19-.26.19-.32,0-.65,0-.97,0-.98,0-1.97.02-2.95.03-.03,0-.06,0-.09,0-.11-.01-.21-.12-.2-.21,0-.1.09-.18.21-.18.25,0,.49.02.74.03.02,0,.04,0,.07,0Z"/>
    <path d="M97.98,36.35c0,.34-.03.66.01.97.02.17.17.32.26.48.12.2.26.4.38.6.1.17.14.37.11.59h-2.61c-.04-.24.07-.44.2-.63.1-.14.2-.28.31-.42.13-.17.19-.36.19-.57,0-.26,0-.52.01-.78,0-.09-.05-.1-.11-.1-.08,0-.2-.03-.21.1,0,.1,0,.2,0,.29,0,.08,0,.15,0,.23.05.36-.08.64-.31.91-.24.29-.4.62-.42,1.03-.1-.01-.2-.02-.29-.04-.02,0-.05-.05-.06-.08-.01-.19,0-.37.1-.53.19-.32.39-.64.58-.96.03-.06.05-.13.05-.19,0-.29,0-.59,0-.89-.17-.03-.29-.12-.36-.26-.12-.21,0-.44.24-.44.66,0,1.33-.01,1.99-.02.04,0,.09,0,.13,0,.22.02.33.22.25.42-.08.2-.21.31-.47.28Z"/>
  </g>
  <path class="cls-1" d="M53.7,49.61q.27,1.75-1.34,1.76c-1.05,0-2.11,0-3.14,0-.05-.13-.1-.19-.1-.24.03-1.79-.18-1.53,1.51-1.51,1.01.01,2.03,0,3.07,0Z"/>
  <path class="cls-1" d="M64.86,49.64c1.31,0,2.54-.01,3.76.02.13,0,.26.23.39.35.01.01,0,.04,0,.06,0,1.59.17,1.26-1.19,1.3-.79.02-1.58-.01-2.37.02-.47.02-.63-.15-.59-.61.03-.41,0-.82,0-1.14Z"/>
  <path class="cls-1" d="M111.75,57.32c-2.67,0-5.33,0-7.99,0-7.12,0-14.24.01-21.36.04-.56,0-.64-.19-.64-.68.01-9.7.01-19.41.01-29.11,0-2.25-.02-4.5-.02-6.75,0-.2.02-.41.03-.63h29.96c-.09,12.35-.11,24.72.01,37.13ZM109.67,22.38c-.36,0-.57,0-.77,0-7.94.01-15.87.03-23.81.03-1.35,0-1.33-.02-1.33,1.34.02,9.81.04,19.62.06,29.43,0,.66,0,1.31,0,1.96h25.86V22.38Z"/>
  <g>
    <path d="M57.24,52.39c-1.14-3.7-2.26-7.33-3.38-10.98h15.86c-1.14,3.65-2.26,7.24-3.4,10.87.98,0,1.82,0,2.66,0,.18,0,.36,0,.53.05.33.09.6.28.56.66-.04.35-.26.62-.65.64-.52.03-1.05.03-1.58.04-4.46.01-8.92.02-13.38.03-.14,0-.27.01-.41,0-.36-.02-.69-.33-.71-.64-.01-.31.31-.62.69-.63.9-.02,1.8-.03,2.7-.04.12,0,.23,0,.5,0Z"/>
    <path d="M52.96,33.92c.37-2.16,1.35-3.86,3.29-4.93.14-.08.27-.3.29-.47.04-.31.03-.63,0-.94-.04-.36.09-.47.45-.47,2.04.03,4.09.04,6.13.06,1.26,0,2.52,0,3.86,0,0,.32.04.7,0,1.06-.06.46.16.7.52.94,1.55,1,2.6,2.38,3.06,4.19.04.17.06.35.1.57h-17.68ZM55.32,33.02s.15-.13.23-.23c.36-.44.66-.93,1.07-1.32.45-.43,1-.76,1.48-1.17.13-.11.13-.36.19-.55-.17-.03-.35-.11-.5-.07-1.47.37-2.37,1.39-2.98,2.71-.17.37,0,.59.51.62Z"/>
    <path d="M70.04,40.14c-5.28,0-10.55,0-15.82.01-.4,0-.61-.09-.68-.5-.28-1.46-.57-2.91-.86-4.41h18.15c-.02,1.67-.32,3.29-.79,4.89ZM62.77,37.73c0-.55-.44-1.01-.99-1.01-.53,0-1.06.49-1.08,1.01-.02.54.51,1.06,1.06,1.07.54,0,1-.48,1-1.06ZM58.63,37.76c0-.53-.44-1-.95-1.02-.56-.02-1.15.51-1.14,1.01,0,.53.57,1.06,1.1,1.05.51-.01.98-.51.99-1.04ZM65.77,38.75c.52,0,1.03-.51,1.04-1.05.01-.49-.44-.95-.95-.95-.59,0-1.13.51-1.13,1.07,0,.49.49.93,1.03.93ZM69.1,36.73c-.29,0-.57.31-.57.63,0,.31.39.68.73.67.33,0,.49-.2.49-.51,0-.39-.33-.79-.65-.78ZM54.43,36.92c-.38.07-.68.03-.71.42-.02.28.12.41.39.41.31,0,.6-.05.58-.43,0-.15-.19-.29-.26-.4Z"/>
    <path d="M61.64,25.9c-2.15,0-4.29,0-6.44,0-.47,0-.86-.14-1.13-.53-.2-.3-.29-.63-.11-.97.18-.34.46-.57.86-.57,3.38,0,6.76,0,10.13,0,1.11,0,2.22.02,3.33.04.13,0,.27,0,.4.02.51.08.89.44.91.86.02.48-.36,1.01-.85,1.08-.5.08-1.01.1-1.52.11-1.86.01-3.72,0-5.59,0,0,0,0-.01,0-.02Z"/>
    <path class="cls-1" d="M55.32,33.02c-.51-.03-.68-.25-.51-.62.61-1.31,1.51-2.33,2.98-2.71.15-.04.33.04.5.07-.06.19-.07.44-.19.55-.47.41-1.03.73-1.48,1.17-.4.39-.71.88-1.07,1.32-.08.1-.19.18-.23.23Z"/>
    <path class="cls-1" d="M62.77,37.73c0,.58-.46,1.06-1,1.06-.56,0-1.08-.53-1.06-1.07.02-.52.55-1.01,1.08-1.01.55,0,.99.46.99,1.01Z"/>
    <path class="cls-1" d="M58.63,37.76c0,.53-.47,1.03-.99,1.04-.54.01-1.09-.52-1.1-1.05,0-.5.58-1.03,1.14-1.01.51.02.95.49.95,1.02Z"/>
    <path class="cls-1" d="M65.77,38.75c-.54,0-1.03-.44-1.03-.93,0-.56.54-1.07,1.13-1.07.51,0,.96.46.95.95-.01.54-.52,1.04-1.04,1.05Z"/>
    <path class="cls-1" d="M69.1,36.73c.32,0,.66.39.65.78,0,.32-.17.5-.49.51-.34.01-.73-.35-.73-.67,0-.32.28-.63.57-.63Z"/>
    <path class="cls-1" d="M54.43,36.92c.08.11.25.25.26.4.02.38-.27.44-.58.43-.27,0-.41-.13-.39-.41.03-.39.33-.35.71-.42Z"/>
  </g>
  <g>
    <path d="M25.62,48.29c0,1.08,0,2.12,0,3.17.01.9.04,1.8.07,2.7.01.29-.05.44-.39.45-1.57.03-3.15.07-4.72.11-.16,0-.33-.03-.49-.03-.32,0-.44-.18-.44-.49-.02-3.85-.05-7.71-.08-11.56,0-.34.04-.68.07-1.03-.05-.02-.1-.05-.14-.07-.11.2-.3.39-.31.59-.06.81-.07,1.61-.07,2.42,0,.37-.17.64-.47.74-.19.07-.49.02-.65-.1-.16-.12-.29-.39-.3-.6-.04-.7-.03-1.41-.02-2.11,0-1.34.64-2.33,1.69-3.1.18-.13.37-.33.43-.53.84-2.83,2.71-4.59,5.53-5.38,1.53-.43,3.08-.29,4.76-.34-.19.18-.27.27-.37.35-2.85,2.27-3.06,5.42-1.24,7.94.59.82,1.29,1.49,2.13,2.04,1.68,1.09,3.56.6,4.82-.39,1.3-1.03,1.91-2.39,1.91-4.04,0-.45-.02-.9,0-1.35.08-1.83-.78-3.18-2.19-4.25-.07-.05-.14-.1-.21-.16,0,0,0-.03-.02-.07.89-.12,1.72.05,2.52.4,1.79.8,3.04,2.07,3.71,3.94.29.8.37,1.6.39,2.42.04,1.81.05,3.63.09,5.44.02.84.61,1.31,1.43,1.2.56-.08.96-.5.95-1.07,0-1.08-.03-2.16-.05-3.24,0-.09-.01-.18,0-.27.12-.5.62-.74,1.41-.67.68.06,1.03.34,1.05.88.04,1.15.06,2.31.09,3.46.06,2.08-1.8,4.19-4.31,3.99-1.97-.16-3.61-1.3-4.08-3.01-.24-.87-.24-1.8-.34-2.7.06-.03.11-.06.17-.09.16.1.31.22.48.31.43.23.85.5,1.3.65.37.12.67-.1.81-.47.14-.37-.05-.62-.35-.83-.75-.55-1.49-1.1-2.21-1.68-.25-.2-.4-.18-.59.06-.53.66-.67,1.43-.67,2.24-.02,3.3-.04,6.6-.03,9.9,0,.41-.12.56-.52.57-1.53.02-3.06.05-4.59.1-.42.01-.56-.11-.56-.56.02-1.8,0-3.6.01-5.4,0-.4-.13-.52-.51-.52-1.51.01-3.03,0-4.54,0-.07,0-.15.02-.33.04ZM21.98,45.6s-.04,0-.06,0c0-1.6-.02-3.21.01-4.81,0-.45.09-.94.27-1.35.69-1.64,1.79-2.89,3.52-3.5.34-.12.45-.33.36-.69-.1-.4-.32-.46-.66-.34-.13.04-.26.07-.39.11-2.38.83-4.28,3.57-4.25,6.08.03,2.19.03,4.38.03,6.56,0,.93-.01,1.86,0,2.79,0,.2.04.52.15.57.24.11.56.13.82.08.09-.02.18-.35.18-.55.01-1.65,0-3.3,0-4.95ZM24.21,51.86c-.75,0-1.48,0-2.21,0-1.22-.01-1.06-.2-1.09,1.09,0,.04.03.08.07.18.74,0,1.5,0,2.26,0q1.16,0,.97-1.27ZM32.24,51.88c0,.23.02.53,0,.82-.03.33.09.46.43.44.57-.03,1.14,0,1.71-.02.98-.03.87.21.86-.94,0-.01,0-.04,0-.04-.09-.09-.18-.25-.28-.25-.88-.02-1.76-.01-2.71-.01ZM32.07,50.1s.02,0,.03,0c0,.22,0,.45,0,.67,0,.25.04.45.36.45.31,0,.6-.05.59-.44-.01-.57-.06-1.13-.09-1.7-.02-.26-.2-.39-.42-.33-.14.04-.33.19-.36.33-.08.33-.08.68-.11,1.02ZM38.38,38.45c0,.34.36.72.68.71.36,0,.69-.38.68-.76,0-.38-.28-.66-.64-.67-.37,0-.72.34-.72.72Z"/>
    <path d="M35.92,38.16c0,.48.02.96,0,1.44-.09,1.99-2.11,3.48-4.02,2.97-.13-.03-.26-.08-.37-.15-1.54-1-2.64-2.3-2.91-4.17-.28-1.96,1.46-4.27,3.39-4.4,1.55-.11,2.88.43,3.68,1.85.22.38.24.88.3,1.34.05.37,0,.75,0,1.12-.02,0-.05,0-.07,0ZM33.34,35.97c-.19-.61-.3-.67-.85-.7-1.75-.09-2.84,1.73-2.58,2.98.04.2.21.51.33.51.21,0,.46-.15.63-.31.12-.12.17-.35.21-.53.2-.94.75-1.54,1.69-1.77.18-.04.36-.12.57-.18Z"/>
    <path class="cls-1" d="M21.98,45.6c0,1.65,0,3.3,0,4.95,0,.19-.08.53-.18.55-.26.05-.58.03-.82-.08-.11-.05-.15-.37-.15-.57-.01-.93,0-1.86,0-2.79,0-2.19,0-4.38-.03-6.56-.03-2.51,1.87-5.25,4.25-6.08.13-.04.26-.07.39-.11.34-.12.56-.06.66.34.09.37-.02.57-.36.69-1.73.61-2.83,1.86-3.52,3.5-.17.42-.26.9-.27,1.35-.03,1.6-.01,3.21-.01,4.81.02,0,.04,0,.06,0Z"/>
    <path class="cls-1" d="M32.07,50.1c.03-.34.03-.69.11-1.02.03-.13.22-.29.36-.33.23-.06.41.07.42.33.04.57.08,1.13.09,1.7,0,.39-.29.44-.59.44-.32,0-.36-.2-.36-.45,0-.22,0-.45,0-.67-.01,0-.02,0-.03,0Z"/>
    <path class="cls-1" d="M38.38,38.45c0-.38.35-.73.72-.72.37,0,.64.29.64.67,0,.38-.32.75-.68.76-.32,0-.69-.37-.68-.71Z"/>
    <path class="cls-1" d="M33.34,35.97c-.21.07-.39.14-.57.18-.94.23-1.49.82-1.69,1.77-.04.19-.08.41-.21.53-.17.16-.42.31-.63.31-.11,0-.29-.32-.33-.51-.26-1.25.83-3.06,2.58-2.98.54.03.65.08.85.7Z"/>
  </g>
  <path d="M109.67,22.38v32.76h-25.86c0-.64,0-1.3,0-1.96-.02-9.81-.03-19.62-.06-29.43,0-1.36-.02-1.34,1.33-1.34,7.94,0,15.87-.02,23.81-.03.21,0,.41,0,.77,0ZM107.81,53.06v-28.65h-22.08v28.65h22.08Z"/>
  <path class="cls-1" d="M107.81,53.06h-22.08v-28.65h22.08v28.65ZM105.31,38.9s.06,0,.09,0c0-2.89,0-5.79,0-8.68,0-.38-.03-.63-.52-.62-5.2.04-10.41.07-15.61.08-.56,0-.74.15-.73.74.03,4.06.02,8.12.03,12.18,0,1.67.01,3.33,0,5,0,.49.15.68.65.65.62-.04,1.25-.02,1.87-.02,4.52-.02,9.03-.06,13.55-.06.53,0,.7-.12.7-.7-.04-2.85-.02-5.7-.02-8.55Z"/>
  <path d="M105.31,38.9c0,2.85-.02,5.7.02,8.55,0,.58-.17.7-.7.7-4.52,0-9.03.04-13.55.06-.62,0-1.25-.02-1.87.02-.5.03-.66-.16-.65-.65.02-1.67,0-3.33,0-5,0-4.06,0-8.12-.03-12.18,0-.59.17-.74.73-.74,5.2-.01,10.41-.04,15.61-.08.49,0,.52.24.52.62,0,2.89,0,5.79,0,8.68-.03,0-.06,0-.09,0ZM90.05,31v15.7c.13.02.19.04.25.04,4.33,0,8.66-.02,13-.01.57,0,.74-.19.74-.75.02-4.44.07-8.87.09-13.31,0-.55-.07-1.1-.12-1.68h-13.97Z"/>
  <path class="cls-1" d="M90.05,31h13.97c.04.58.12,1.13.12,1.68-.02,4.44-.07,8.87-.09,13.31,0,.56-.17.75-.74.75-4.33-.01-8.66,0-13,.01-.06,0-.12-.02-.25-.04v-15.7ZM90.98,45.64c3.84,0,7.57,0,11.3,0,.87,0,.88,0,.88-.89.02-4,.04-8,.05-11.99,0-.24-.04-.48-.06-.67h-12.17v13.56Z"/>
  <path d="M90.98,45.64v-13.56h12.17c.02.19.06.43.06.67-.01,4-.03,8-.05,11.99,0,.88,0,.89-.88.89-3.73,0-7.45,0-11.3,0ZM92.19,33.39c-.32,3.68-.48,7.32-.02,11h9.85v-11h-9.83Z"/>
  <path class="cls-1" d="M96.2,35.28c-.65.72-1.3,1.45-1.99,2.2-.3-.21-.41-.58-.14-.98.5-.76,1.14-1.32,2.14-1.21,0,0-.01,0-.01,0Z"/>
  <g>
    <g>
      <path class="cls-1" d="M64.49,84.32l2.83-2.8,2.51-3.28,1.98-3.43c.2-.49,1.18-2.87,1.53-3.5,1.17-2.13,2.74-2.45,3.56-2.45.58,0,.99.15,1.06.18l.93.37-2.26,5.6-1.91,3.56-2.69,6.12-5.28,8.97-2.26-9.34Z"/>
      <path d="M76.9,69.85c.42,0,.69.11.69.11l-1.87,4.63-1.88,3.51-2.7,6.14-4,6.79-1.55-6.39,2.47-2.45,2.59-3.39,2.04-3.54s1.16-2.83,1.51-3.46c.89-1.63,1.99-1.93,2.69-1.93M76.9,67.85c-1.05,0-3.02.39-4.44,2.97-.36.65-1.22,2.74-1.55,3.55l-1.91,3.32-2.43,3.18-2.38,2.36-.8.79.27,1.1,1.55,6.39,1.16,4.8,2.5-4.25,4-6.79.06-.1.05-.11,2.67-6.06,1.85-3.44.05-.1.04-.1,1.87-4.63.75-1.86-1.86-.75c-.19-.08-.71-.25-1.44-.25h0Z"/>
    </g>
    <g>
      <path class="cls-1" d="M63.54,81.53l1.53-3.85.82-4.02.12-3.92c-.1-.68-.44-3.13-.44-3.86.02-3.11,2.43-4.03,3.7-4.08l.9-.04.9,5.96.04,4.02.75,6.76-.44,10.07-7.88-7.04Z"/>
      <path d="M69.32,62.8l.75,5.01.04,4,.74,6.74-.34,7.88-5.79-5.17,1.31-3.28.85-4.19.13-4.1s-.44-3.07-.44-3.8c.02-2.98,2.74-3.09,2.74-3.09M71.03,60.73l-1.79.07c-1.86.08-4.64,1.49-4.66,5.08,0,.76.3,3.01.43,3.92l-.12,3.75-.79,3.84-1.24,3.12-.52,1.3,1.04.93,5.79,5.17,3.15,2.81.18-4.22.34-7.88v-.15s-.01-.15-.01-.15l-.73-6.64-.04-3.9v-.14s-.02-.14-.02-.14l-.75-5.01-.27-1.77h0Z"/>
    </g>
    <g>
      <path class="cls-1" d="M60.88,81.4l.45-4.12-.28-4.09-.93-3.81c-.28-.63-1.26-2.9-1.45-3.6-.82-3,1.26-4.53,2.48-4.92l.85-.28,2.46,5.51,1.11,3.86,2.52,6.32,2.26,9.82-9.48-4.68Z"/>
      <path d="M61.46,61.8l2.06,4.62,1.1,3.84,2.51,6.29,1.77,7.69-6.96-3.44.38-3.51-.29-4.26-.97-3.98s-1.24-2.84-1.44-3.54c-.78-2.87,1.82-3.71,1.82-3.71M62.55,59.35l-1.71.55c-1.78.57-4.08,2.68-3.14,6.14.2.73,1.1,2.82,1.46,3.66l.89,3.65.27,3.92-.36,3.34-.15,1.39,1.25.62,6.96,3.44,3.78,1.87-.95-4.11-1.77-7.69-.03-.15-.06-.14-2.48-6.2-1.08-3.75-.04-.13-.06-.13-2.06-4.62-.73-1.64h0Z"/>
    </g>
    <g>
      <path class="cls-1" d="M60.78,108.65l3.51-2.82-1.91-2.42-3.16-1.21-4.3-1.27-6-6.04-2.12-5.03,1.26-2.98.04-2.73-.41-.3.42-.55v-.15s.1,0,.1,0l4.8-6.34,7.99-1,9.96,8.43.19,11.14,1.22,1.47-.19,2,1.44,2.03-11.61,9.32-1.25-1.56ZM58.72,90.79l1.53-3.32.31-2.51-1.08-2.5-2.88-1.17-2.28,1.21c-.2.41-.61,1.06-1.42,1.9-.09.09-.18.17-.27.25.46.44.81,1,.93,1.69.21,1.3.15,2.38.06,3.05l1.81,1.26,3.3.14Z"/>
      <path d="M60.71,76.87l9.28,7.85.19,11.04,1.18,1.42-.19,1.96,1.11,1.57-10.87,8.73,4.28-3.44-2.69-3.42-3.42-1.31-4.13-1.22-5.68-5.73-1.88-4.46,1.17-2.77.04-2.84s3.13.3,3.45,2.26c.32,1.96-.06,3.34-.06,3.34l2.58,1.79,4.26.18,1.87-4.07.36-2.93-1.35-3.12-3.69-1.5-3,1.6s-.19.7-1.36,1.92c-.4.42-.87.56-1.31.56-.92,0-1.76-.62-1.76-.62l4.46-5.89,7.14-.89M61.33,74.78l-.87.11-7.14.89-.84.1-.51.67-4.21,5.56-.62-.06v.9s-.84,1.09-.84,1.09l.8.6-.03,2.02-1.02,2.41-.33.78.33.78,1.88,4.46.15.36.27.28,5.68,5.73.36.36.49.15,4.05,1.2,2.83,1.08,1.12,1.43-2.74,2.2,2.5,3.12,10.87-8.73,1.47-1.18-1.09-1.54-.68-.96.12-1.22.08-.83-.53-.64-.73-.88-.17-10.33-.02-.91-.69-.59-9.28-7.85-.67-.57h0ZM55.06,83.24l1.6-.85,2.07.84.81,1.87-.25,2.08-1.18,2.57-2.34-.1-1.09-.75c.05-.72.05-1.65-.13-2.72-.09-.57-.29-1.06-.56-1.48.51-.58.85-1.07,1.08-1.46h0Z"/>
    </g>
  </g>
</svg>