<?xml version="1.0" encoding="UTF-8"?>
<svg id="pictos" xmlns="http://www.w3.org/2000/svg" viewBox="0 0 128 128">
  <defs>
    <style>
      .cls-1, .cls-2 {
        stroke-linejoin: bevel;
      }

      .cls-1, .cls-2, .cls-3, .cls-4, .cls-5 {
        stroke: #000;
      }

      .cls-1, .cls-2, .cls-4, .cls-5 {
        fill: none;
      }

      .cls-1, .cls-3, .cls-5 {
        stroke-width: 2px;
      }

      .cls-2, .cls-4 {
        stroke-width: .5px;
      }

      .cls-6, .cls-3 {
        fill: #fff;
      }

      .cls-3, .cls-4, .cls-5 {
        stroke-miterlimit: 10;
      }
    </style>
  </defs>
  <g>
    <rect class="cls-3" x="73.34" y="18.03" width="8.87" height="68.63" rx="2.29" ry="2.29" transform="translate(162.69 92.07) rotate(171.13)"/>
    <line class="cls-5" x1="79.93" y1="37.37" x2="71.16" y2="38.74"/>
    <path d="M65.88,20.87s-.09,0-.14.01c-.5.08-.84.55-.76,1.05l2.28,14.61c.07.45.46.77.9.77.05,0,.09,0,.14-.01.5-.08.84-.55.76-1.05l-2.28-14.61c-.07-.45-.46-.77-.9-.77h0Z"/>
    <rect class="cls-5" x="67.29" y="22.14" width="1.69" height="5.35" transform="translate(139.28 38.83) rotate(171.13)"/>
  </g>
  <line class="cls-5" x1="116" y1="95.2" x2="12" y2="95.2"/>
  <g>
    <path d="M105.46,17.34h0,0M104.96,18.5l.55,9.68-10.99,62.37-4.37-.77,10.99-62.37,3.82-8.91M101.15,27.38h0,0M105.18,16.52c-.26,0-.52.13-.64.43l-4.33,10.1s-.04.1-.05.16l-11.05,62.69c-.07.38.19.75.57.82l4.95.87s.08.01.12.01c.34,0,.63-.24.69-.58l11.05-62.69c0-.05.01-.11,0-.16l-.62-10.97c-.02-.43-.37-.67-.71-.67h0Z"/>
    <path class="cls-2" d="M106,28.15c-.18,1-.65,1.74-1.07,1.67s-.61-.94-.43-1.94c-.18,1-.83,1.71-1.47,1.6s-1.01-1.01-.83-2.01c-.18,1-.65,1.74-1.07,1.67s-.61-.94-.43-1.94"/>
    <polygon points="105.07 17.35 105.74 20.8 103.57 20.41 105.07 17.35"/>
    <line class="cls-2" x1="102.2" y1="27.48" x2="91.14" y2="90.23"/>
    <line class="cls-2" x1="104.5" y1="27.89" x2="93.44" y2="90.64"/>
  </g>
  <g>
    <polygon class="cls-1" points="92.85 15.51 88.56 28.91 83.48 93.16 89.89 93.66 94.97 29.42 92.85 15.51"/>
    <path class="cls-4" d="M94.45,29.38c-.08,1.01-.48,1.8-.9,1.77s-.69-.88-.62-1.89c-.08,1.01-.67,1.78-1.31,1.73s-1.1-.91-1.02-1.92c-.08,1.01-.48,1.8-.9,1.77s-.69-.88-.62-1.89"/>
    <polygon points="92.85 15.51 94.02 23.22 90.48 22.94 92.85 15.51"/>
    <line class="cls-4" x1="90.6" y1="29.08" x2="85.58" y2="92.6"/>
    <line class="cls-4" x1="92.93" y1="29.26" x2="87.91" y2="92.78"/>
  </g>
  <path class="cls-3" d="M100.51,95.2h-26.77c-1.09,0-1.99-.86-2.04-1.94l-1.81-38.17c-.06-1.16.87-2.14,2.04-2.14h30.39c1.17,0,2.09.97,2.04,2.14l-1.81,38.17c-.05,1.09-.95,1.94-2.04,1.94Z"/>
  <g>
    <g>
      <path class="cls-6" d="M39.16,53.07l2.83-2.8,2.51-3.28,1.98-3.43c.2-.49,1.18-2.87,1.53-3.5,1.17-2.13,2.74-2.45,3.56-2.45.58,0,.99.15,1.06.18l.93.37-2.26,5.61-1.91,3.56-2.69,6.12-5.28,8.97-2.26-9.34Z"/>
      <path d="M51.57,38.6c.42,0,.69.11.69.11l-1.87,4.63-1.88,3.51-2.7,6.14-4,6.79-1.55-6.39,2.47-2.45,2.59-3.39,2.04-3.54s1.16-2.83,1.51-3.46c.89-1.63,1.99-1.93,2.69-1.93M51.57,36.6c-1.05,0-3.02.39-4.44,2.97-.36.65-1.22,2.74-1.55,3.55l-1.91,3.32-2.43,3.18-2.38,2.36-.8.79.27,1.1,1.55,6.39,1.16,4.8,2.5-4.25,4-6.79.06-.1.05-.11,2.67-6.06,1.85-3.44.05-.1.04-.1,1.87-4.63.75-1.86-1.86-.75c-.19-.08-.71-.25-1.44-.25h0Z"/>
    </g>
    <g>
      <path class="cls-6" d="M38.2,50.28l1.53-3.85.82-4.02.12-3.92c-.1-.68-.44-3.13-.44-3.86.02-3.11,2.43-4.03,3.7-4.08l.9-.04.9,5.96.04,4.02.75,6.76-.44,10.07-7.88-7.04Z"/>
      <path d="M43.98,31.55l.75,5.01.04,4,.74,6.74-.34,7.88-5.79-5.17,1.31-3.28.85-4.19.13-4.1s-.44-3.07-.44-3.8c.02-2.98,2.74-3.09,2.74-3.09M45.69,29.48l-1.79.07c-1.86.08-4.64,1.49-4.66,5.08,0,.76.3,3.01.43,3.92l-.12,3.75-.79,3.84-1.24,3.12-.52,1.3,1.04.93,5.79,5.17,3.15,2.81.18-4.22.34-7.88v-.15s-.01-.15-.01-.15l-.73-6.64-.04-3.9v-.14s-.02-.14-.02-.14l-.75-5.01-.27-1.77h0Z"/>
    </g>
    <g>
      <path class="cls-6" d="M35.55,50.15l.45-4.12-.28-4.09-.93-3.81c-.28-.63-1.26-2.9-1.45-3.6-.82-3,1.26-4.53,2.48-4.92l.85-.28,2.46,5.51,1.11,3.86,2.52,6.32,2.26,9.82-9.48-4.69Z"/>
      <path d="M36.12,30.55l2.06,4.62,1.1,3.84,2.51,6.29,1.77,7.69-6.96-3.44.38-3.51-.29-4.26-.97-3.98s-1.24-2.84-1.44-3.54c-.78-2.87,1.82-3.71,1.82-3.71M37.22,28.1l-1.71.55c-1.78.57-4.08,2.68-3.14,6.14.2.73,1.1,2.82,1.46,3.66l.89,3.65.27,3.92-.36,3.34-.15,1.39,1.25.62,6.96,3.44,3.78,1.87-.95-4.11-1.77-7.69-.03-.15-.06-.14-2.48-6.2-1.08-3.75-.04-.13-.06-.13-2.06-4.62-.73-1.64h0Z"/>
    </g>
    <g>
      <path class="cls-6" d="M35.45,77.4l3.51-2.82-1.91-2.42-3.16-1.21-4.3-1.27-6-6.04-2.12-5.03,1.26-2.98.04-2.73-.41-.3.42-.55v-.15s.1,0,.1,0l4.8-6.34,7.99-1,9.96,8.43.19,11.14,1.22,1.47-.19,2,1.44,2.03-11.61,9.31-1.25-1.56ZM33.38,59.54l1.53-3.32.31-2.51-1.08-2.5-2.88-1.17-2.28,1.21c-.2.41-.61,1.06-1.42,1.9-.09.09-.18.17-.27.25.46.44.81,1,.93,1.69.21,1.3.15,2.38.06,3.05l1.81,1.26,3.3.14Z"/>
      <path d="M35.37,45.62l9.28,7.85.19,11.04,1.18,1.42-.19,1.96,1.11,1.57-10.87,8.73,4.28-3.44-2.69-3.42-3.42-1.31-4.13-1.22-5.68-5.73-1.88-4.46,1.17-2.77.04-2.84s3.13.3,3.45,2.26c.32,1.96-.06,3.34-.06,3.34l2.58,1.79,4.26.18,1.87-4.07.36-2.93-1.35-3.12-3.69-1.5-3,1.6s-.19.7-1.36,1.92c-.4.42-.87.56-1.31.56-.92,0-1.76-.62-1.76-.62l4.46-5.89,7.14-.89M36,43.53l-.87.11-7.14.89-.84.1-.51.67-4.21,5.56-.62-.06v.9s-.84,1.09-.84,1.09l.8.6-.03,2.02-1.02,2.41-.33.78.33.78,1.88,4.46.15.36.27.28,5.68,5.73.36.36.49.15,4.05,1.2,2.83,1.08,1.12,1.43-2.74,2.2,2.5,3.12,10.87-8.73,1.47-1.18-1.09-1.54-.68-.96.12-1.22.08-.83-.53-.64-.73-.88-.17-10.33-.02-.91-.69-.59-9.28-7.85-.67-.57h0ZM29.72,51.99l1.6-.85,2.07.84.81,1.87-.25,2.08-1.18,2.57-2.34-.1-1.09-.75c.05-.72.05-1.65-.13-2.72-.09-.57-.29-1.06-.56-1.48.51-.58.85-1.07,1.08-1.46h0Z"/>
    </g>
  </g>
</svg>