<?xml version="1.0" encoding="UTF-8"?>
<svg id="pictos" xmlns="http://www.w3.org/2000/svg" viewBox="0 0 128 128">
  <defs>
    <style>
      .cls-1 {
        fill: #1d1d1b;
      }

      .cls-2, .cls-3 {
        fill: #fff;
      }

      .cls-3 {
        stroke-miterlimit: 10;
      }

      .cls-3, .cls-4 {
        stroke: #000;
        stroke-width: 2px;
      }

      .cls-4 {
        fill: none;
        stroke-linecap: square;
        stroke-linejoin: round;
      }
    </style>
  </defs>
  <g>
    <polyline class="cls-3" points="60.09 103.36 60.09 115.53 63.98 115.53 67.08 103.36"/>
    <polyline class="cls-3" points="103.35 103.36 103.35 115.53 99.47 115.53 96.36 103.36"/>
  </g>
  <g>
    <path class="cls-1" d="M54.2,28.79l2.8,1.09c.61.24.61,1.14,0,1.38l-2.8,1.09c-1.26.49-2.25,1.54-2.72,2.87l-1.03,2.95c-.22.64-1.08.64-1.31,0l-1.03-2.95c-.47-1.33-1.46-2.37-2.72-2.87l-2.8-1.09c-.61-.24-.61-1.14,0-1.38l2.8-1.09c1.26-.49,2.25-1.54,2.72-2.87l1.03-2.95c.22-.64,1.08-.64,1.31,0l1.03,2.95c.47,1.33,1.46,2.37,2.72,2.87Z"/>
    <path class="cls-1" d="M45.06,41.99l1.65.65c.36.14.36.67,0,.81l-1.65.65c-.74.29-1.33.91-1.6,1.69l-.61,1.74c-.13.38-.64.38-.77,0l-.61-1.74c-.28-.78-.86-1.4-1.6-1.69l-1.65-.65c-.36-.14-.36-.67,0-.81l1.65-.65c.74-.29,1.33-.91,1.6-1.69l.61-1.74c.13-.38.64-.38.77,0l.61,1.74c.28.78.86,1.4,1.6,1.69Z"/>
    <path class="cls-1" d="M61.57,38.36l1.27.5c.28.11.28.52,0,.63l-1.27.5c-.57.22-1.02.7-1.23,1.3l-.47,1.34c-.1.29-.49.29-.59,0l-.47-1.34c-.21-.6-.66-1.08-1.23-1.3l-1.27-.5c-.28-.11-.28-.52,0-.63l1.27-.5c.57-.22,1.02-.7,1.23-1.3l.47-1.34c.1-.29.49-.29.59,0l.47,1.34c.21.6.66,1.08,1.23,1.3Z"/>
  </g>
  <rect class="cls-3" x="55.13" y="55.9" width="52.59" height="50.65"/>
  <rect class="cls-3" x="52.71" y="50.72" width="58.03" height="5.18" rx="2.59" ry="2.59"/>
  <g>
    <g>
      <rect class="cls-2" x="59.73" y="60.81" width="43.38" height="16.96"/>
      <path d="M102.11,61.81v14.96h-41.38v-14.96h41.38M104.11,59.81h-45.38v18.96h45.38v-18.96h0Z"/>
    </g>
    <g>
      <path class="cls-4" d="M86.74,68.95c-.63.18-1.15.63-1.41,1.25-.34.81-1.13,1.34-2.01,1.34h-3.79c-.88,0-1.67-.53-2.01-1.34-.26-.62-.78-1.07-1.41-1.25"/>
      <path d="M86.5,66.75c1.24-.07,2.31.88,2.38,2.12.07,1.24-.88,2.31-2.12,2.38-1.24.07-2.31-.88-2.38-2.12-.07-1.24.88-2.31,2.12-2.38Z"/>
      <path d="M76.34,66.75c-1.24-.07-2.31.88-2.38,2.12-.07,1.24.88,2.31,2.12,2.38,1.24.07,2.31-.88,2.38-2.12.07-1.24-.88-2.31-2.12-2.38Z"/>
    </g>
  </g>
  <g>
    <g>
      <rect class="cls-2" x="59.73" y="82.58" width="43.38" height="16.96"/>
      <path d="M102.11,83.58v14.96h-41.38v-14.96h41.38M104.11,81.58h-45.38v18.96h45.38v-18.96h0Z"/>
    </g>
    <g>
      <path class="cls-4" d="M86.74,90.73c-.63.18-1.15.63-1.41,1.25h0c-.34.81-1.13,1.34-2.01,1.34h-3.79c-.88,0-1.67-.53-2.01-1.34h0c-.26-.62-.78-1.07-1.41-1.25"/>
      <path d="M86.5,88.52c1.24-.07,2.31.88,2.38,2.12.07,1.24-.88,2.31-2.12,2.38-1.24.07-2.31-.88-2.38-2.12-.07-1.24.88-2.31,2.12-2.38Z"/>
      <path d="M76.34,88.52c-1.24-.07-2.31.88-2.38,2.12-.07,1.24.88,2.31,2.12,2.38,1.24.07,2.31-.88,2.38-2.12.07-1.24-.88-2.31-2.12-2.38Z"/>
    </g>
  </g>
  <g>
    <path class="cls-2" d="M85.08,50.41v-1c0-3.18,2.51-5.69,5.59-5.69h1.91V14.25h4.25v29.47h1.91c3.08,0,5.59,2.51,5.59,5.59v1l-1,.1h-18.27Z"/>
    <path d="M95.84,15.25v29.47h2.91c2.54,0,4.59,2.06,4.59,4.59v.1h-17.27v-.1c0-2.54,2.06-4.59,4.59-4.59h2.91V15.25h2.25M97.84,13.25h-6.25v29.47h-.91c-3.64,0-6.59,2.96-6.59,6.59v2.1h21.27v-2.1c0-3.64-2.96-6.59-6.59-6.59h-.91V13.25h0Z"/>
  </g>
  <polygon class="cls-3" points="109.17 28.06 80.26 28.06 87.49 12.47 101.94 12.47 109.17 28.06"/>
  <g>
    <g>
      <path class="cls-2" d="M33.83,79.93l2.83-2.8,2.51-3.28,1.98-3.43c.2-.49,1.18-2.87,1.53-3.5,1.17-2.13,2.74-2.45,3.56-2.45.58,0,.99.15,1.06.18l.93.37-2.26,5.61-1.91,3.56-2.69,6.12-5.28,8.97-2.26-9.34Z"/>
      <path d="M46.24,65.46c.42,0,.69.11.69.11l-1.87,4.63-1.88,3.51-2.7,6.14-4,6.79-1.55-6.39,2.47-2.45,2.59-3.39,2.04-3.54s1.16-2.83,1.51-3.46c.89-1.63,1.99-1.93,2.69-1.93M46.24,63.46c-1.05,0-3.02.39-4.44,2.97-.36.65-1.22,2.74-1.55,3.55l-1.91,3.32-2.43,3.18-2.38,2.36-.8.79.27,1.1,1.55,6.39,1.16,4.8,2.5-4.25,4-6.79.06-.1.05-.11,2.67-6.06,1.85-3.44.05-.1.04-.1,1.87-4.63.75-1.86-1.86-.75c-.19-.08-.71-.25-1.44-.25h0Z"/>
    </g>
    <g>
      <path class="cls-2" d="M32.88,77.15l1.53-3.85.82-4.02.12-3.92c-.1-.68-.44-3.13-.44-3.86.02-3.11,2.43-4.03,3.7-4.08l.9-.04.9,5.96.04,4.02.75,6.76-.44,10.07-7.88-7.04Z"/>
      <path d="M38.66,58.42l.75,5.01.04,4,.74,6.74-.34,7.88-5.79-5.17,1.31-3.28.85-4.19.13-4.1s-.44-3.07-.44-3.8c.02-2.98,2.74-3.09,2.74-3.09M40.37,56.34l-1.79.07c-1.86.08-4.64,1.49-4.66,5.08,0,.76.3,3.01.43,3.92l-.12,3.75-.79,3.84-1.24,3.12-.52,1.3,1.04.93,5.79,5.17,3.15,2.81.18-4.22.34-7.88v-.15s-.01-.15-.01-.15l-.73-6.64-.04-3.9v-.14s-.02-.14-.02-.14l-.75-5.01-.27-1.77h0Z"/>
    </g>
    <g>
      <path class="cls-2" d="M30.22,77.01l.45-4.12-.28-4.09-.93-3.81c-.28-.63-1.26-2.9-1.45-3.6-.81-3,1.27-4.53,2.48-4.92l.85-.28,2.46,5.51,1.12,3.91,2.51,6.27,2.26,9.82-9.48-4.69Z"/>
      <path d="M30.8,57.41l2.06,4.62,1.1,3.84,2.51,6.29,1.77,7.69-6.96-3.44.38-3.51-.29-4.26-.97-3.98s-1.24-2.84-1.44-3.54c-.78-2.87,1.82-3.71,1.82-3.71M31.89,54.96l-1.71.55c-1.78.57-4.08,2.68-3.14,6.14.2.73,1.1,2.82,1.46,3.66l.89,3.65.27,3.92-.36,3.34-.15,1.39,1.25.62,6.96,3.44,3.78,1.87-.95-4.11-1.77-7.69-.03-.15-.06-.14-2.48-6.2-1.08-3.75-.04-.13-.06-.13-2.06-4.62-.73-1.64h0Z"/>
    </g>
    <g>
      <path class="cls-2" d="M30.12,104.26l3.51-2.82-1.91-2.42-3.16-1.21-4.3-1.27-6-6.04-2.12-5.03,1.26-2.98.04-2.72-.41-.3.42-.55v-.15s.1,0,.1,0l4.8-6.34,7.99-1,9.96,8.43.19,11.14,1.22,1.47-.19,2,1.44,2.03-11.61,9.32-1.25-1.56ZM28.06,86.41l1.53-3.32.31-2.51-1.08-2.5-2.88-1.17-2.28,1.21c-.2.41-.61,1.06-1.42,1.9-.09.09-.18.17-.27.25.46.44.81,1,.93,1.69.21,1.3.15,2.38.06,3.05l1.81,1.26,3.3.14Z"/>
      <path d="M30.05,72.48l9.28,7.85.19,11.04,1.18,1.42-.19,1.96,1.11,1.57-6.59,5.29-2.69-3.42-3.42-1.31-4.13-1.22-5.68-5.73-1.88-4.46,1.17-2.77.04-2.84s3.13.3,3.45,2.26c.32,1.96-.06,3.34-.06,3.34l2.58,1.79,4.26.18,1.87-4.07.36-2.93-1.35-3.12-3.69-1.5-3,1.6s-.19.7-1.36,1.92c-.4.42-.87.56-1.31.56-.92,0-1.76-.62-1.76-.62l4.46-5.89,7.14-.89M35.03,101.6h0l-4.28,3.44,4.28-3.44M30.67,70.39l-.87.11-7.14.89-.84.1-.51.67-4.21,5.56-.62-.06v.9s-.84,1.09-.84,1.09l.8.6-.03,2.02-1.02,2.41-.33.78.33.78,1.88,4.46.15.36.27.28,5.68,5.73.36.36.49.15,4.05,1.2,2.83,1.08,1.12,1.43-2.74,2.2,2.5,3.12,2.71-2.17h0l1.57-1.26,6.59-5.29,1.47-1.18-1.09-1.54-.68-.96.12-1.22.08-.83-.53-.64-.73-.88-.17-10.33-.02-.91-.69-.59-9.28-7.85-.67-.57h0ZM24.4,78.86l1.6-.85,2.07.84.81,1.87-.25,2.08-1.18,2.57-2.34-.1-1.09-.75c.05-.72.05-1.65-.13-2.72-.09-.57-.29-1.06-.56-1.48.51-.58.85-1.07,1.08-1.46h0Z"/>
    </g>
  </g>
</svg>