<?xml version="1.0" encoding="UTF-8"?>
<svg id="pictos" xmlns="http://www.w3.org/2000/svg" viewBox="0 0 128 128">
  <defs>
    <style>
      .cls-1 {
        stroke-linecap: round;
      }

      .cls-1, .cls-2, .cls-3 {
        stroke-miterlimit: 10;
      }

      .cls-1, .cls-2, .cls-3, .cls-4 {
        stroke: #000;
      }

      .cls-1, .cls-2, .cls-4 {
        fill: #fff;
      }

      .cls-1, .cls-4 {
        stroke-width: 2px;
      }

      .cls-2 {
        stroke-width: 1.5px;
      }

      .cls-3 {
        fill: none;
        stroke-width: .97px;
      }

      .cls-4 {
        stroke-linejoin: round;
      }
    </style>
  </defs>
  <g>
    <path class="cls-2" d="M101.83,90.67h-8.85c-1.56,0-2.86-1.22-2.95-2.78l-.64-10.8h16.03l-.64,10.8c-.09,1.56-1.39,2.78-2.95,2.78Z"/>
    <path class="cls-2" d="M89.67,74.16h15.48c1.05,0,1.91.85,1.91,1.91v1.03h-19.29v-1.03c0-1.05.85-1.91,1.91-1.91Z"/>
    <rect class="cls-2" x="94.36" y="79.23" width="6.09" height="2.48" rx=".89" ry=".89"/>
  </g>
  <path d="M69.32,72.2c.36.22.71.46,1.08.67.23.13.48.28.73.31,3.59.44,6.45,2.1,8.49,5.1,1.16,1.71,1.67,3.65,1.73,5.69.06,1.77.03,3.54-.04,5.31-.06,1.4-.99,2.27-2.37,2.28-4.91.06-9.82.1-14.73.13-.45,0-.94-.02-1.34-.19-.93-.39-1.5-1.1-1.49-2.15.04-4.25.06-8.51.14-12.76.02-1.13.19-2.25.31-3.37.06-.53.31-.89.9-.91.34,0,.48-.17.46-.52-.03-.45-.04-.91-.05-1.37,0-.84.32-1.16,1.15-1.16,1.26,0,2.52,0,3.78.03.88.02,1.14.3,1.14,1.17,0,.58,0,1.17-.01,1.75,0,.02.02.03.03.05.03-.02.06-.04.1-.06ZM70.79,79.48c-.36-.51-.72-.95-.99-1.44-.36-.65-.31-1.34.14-1.91.45-.57,1.13-.76,1.83-.59,3.01.69,5.24,2.39,6.63,5.15.37.73.49,1.48.21,2.28-.05.15-.02.33-.03.51-1.31.55-2.45.36-3.51-.65-.68-.65-1.49-1.17-2.29-1.69-.3-.19-.72-.25-1.09-.25-1.28,0-2.55.06-3.83.07-1.64.01-3.28,0-4.98,0,0,.33,0,.67,0,1.01.03,1.79.06,3.58.09,5.37.01.64-.01,1.28.02,1.92.03.56.34.96.9,1,.82.06,1.65.01,2.47.01,0-.02,0-.04,0-.07-.49-.03-.97-.06-1.32-.08.27-.27.54-.57.84-.84.12-.11.28-.24.43-.26.65-.06,1.31-.12,1.97-.11,2.44.05,4.89.12,7.33.2.16,0,.32.15.48.23-.13.19-.23.45-.41.57-.16.1-.42.07-.64.07-1.26,0-2.52-.02-3.78,0-.44,0-.87.11-1.31.17.07.14.14.17.21.18.18.02.36.02.55.03,2.69.15,5.36-.06,8.03-.32.68-.07.87-.17.9-.92.06-1.73.03-3.47.03-5.2,0-.19-.09-.38-.08-.57.02-.31.17-.64.12-.93-.74-4.47-4.91-7.41-8.27-7.64-2.55-.18-5.14.09-7.7.2-.17,0-.39.27-.49.46-.1.18-.1.43-.1.64,0,1.1,0,2.21,0,3.39h7.65ZM71.6,77.1c-.14.08-.37.13-.45.27-.06.1.03.36.13.48.47.5.94,1.02,1.47,1.45,1.01.83,2.07,1.61,3.11,2.41.17.13.35.27.54.37.45.23.74.04.65-.45-.06-.35-.21-.71-.41-1-1.07-1.54-2.51-2.63-4.24-3.32-.23-.09-.49-.13-.8-.21ZM64.85,70.87v1.46h2.85v-1.46h-2.85Z"/>
  <path d="M74.99,17.77c.83.12.9.21.83,1-.01.15-.03.29-.05.44-.04.22.04.34.24.48.98.65,1.67,1.57,2.13,2.63,1.19,2.75,1.4,5.56.29,8.4-.38.96-.58,1.07-1.6,1.08-2.11.01-4.23.03-6.34.08-.71.02-1.16-.26-1.45-.86-.45-.92-.61-1.92-.71-2.93-.26-2.68.16-5.23,1.46-7.61.18-.33.53-.58.63-.92.1-.33-.06-.73-.05-1.09,0-.32.05-.66.5-.7.05,0,.12-.21.12-.33,0-.57,0-1.13-.02-1.7-.01-.37.16-.56.52-.57,1-.01,1.99-.03,2.99-.01.33,0,.55.21.54.57-.01.5-.03,1-.04,1.49,0,.18,0,.37,0,.54ZM77.8,26.06c-.37-.02-.7-.02-1.01-.06-1.3-.17-2.44-.64-3.11-1.83-.39-.7-.68-1.46-1.01-2.19-.13-.3-.24-.59-.64-.64-.39-.04-.67.12-.85.42-.32.5-.62,1.01-.89,1.54-.58,1.15-.68,2.4-.74,3.65-.04.92.03,1.82.37,2.7.12.31.27.41.59.4.42-.02.83.02,1.25.02,1.6.01,3.2.03,4.81.03.65,0,.76-.08.96-.7.35-1.07.33-2.17.27-3.33ZM74.25,21.8c.09.37.13.64.23.88.42,1.03,1.1,1.78,2.25,1.98.37.06.53-.06.47-.39-.25-1.21-.83-2.24-1.86-2.96-.18-.12-.52-.18-.69-.09-.19.1-.28.4-.39.57ZM72.22,17.79c.55,0,1.06,0,1.56,0,.08,0,.21-.13.21-.21.02-.44,0-.88,0-1.35h-1.78v1.57Z"/>
  <path d="M62.71,18.51c.78.29.81.32.65,1.18-.06.33.03.48.3.64.95.59,1.56,1.48,2.05,2.45.77,1.52,1.4,3.09,1.44,4.83.03,1.1-.17,2.15-.67,3.13-.38.74-1,1.11-1.85,1.11-2.06,0-4.11-.06-6.16.03-1.49.06-2.26-.67-2.75-1.94-.51-1.34-.53-2.73-.26-4.12.4-2.03,1.27-3.84,2.73-5.32.32-.33.2-.68.16-1.05-.03-.26-.22-.58.23-.69.05-.01.07-.23.07-.35,0-.56-.02-1.12,0-1.68,0-.47.2-.72.66-.75.93-.05,1.87-.07,2.8-.06.43,0,.61.26.61.72,0,.63,0,1.26,0,1.88ZM65.72,25.88c-.81.47-1.56.44-2.25-.05-1.1-.79-1.83-1.85-2.16-3.17-.2-.81-.02-1.5.66-2.04.09-.07.11-.21.17-.32-.11-.04-.23-.11-.34-.11-.56-.01-1.12,0-1.68-.01-.4,0-.84-.07-.82.55,0,.08-.11.16-.17.24-1.22,1.6-2.09,3.36-2.43,5.36-.23,1.35-.19,2.67.54,3.88.14.23.45.49.68.49,2.23.02,4.46,0,6.68-.02.41,0,.63-.21.78-.56.48-1.1.58-2.24.47-3.42-.03-.26-.08-.52-.13-.82ZM65.08,25.02c0-.22,0-.27,0-.33-.25-1.3-1.06-2.24-1.99-3.09-.09-.08-.35-.12-.41-.05-.1.1-.17.32-.13.46.3,1.08.75,2.09,1.7,2.76.21.15.51.16.83.26ZM59.76,17.1c.03.56.07,1.09.1,1.61h1.72v-1.61h-1.82Z"/>
  <path d="M87.08,48.22c.78.29.81.32.65,1.18-.06.33.03.48.3.64.95.59,1.56,1.48,2.05,2.45.77,1.52,1.4,3.09,1.44,4.83.03,1.1-.17,2.15-.67,3.13-.38.74-1,1.11-1.85,1.11-2.06,0-4.11-.06-6.16.03-1.49.06-2.26-.67-2.75-1.94-.51-1.34-.53-2.73-.26-4.12.4-2.03,1.27-3.84,2.73-5.32.32-.33.2-.68.16-1.05-.03-.26-.22-.58.23-.69.05-.01.07-.23.07-.35,0-.56-.02-1.12,0-1.68,0-.47.2-.72.66-.75.93-.05,1.87-.07,2.8-.06.43,0,.61.26.61.72,0,.63,0,1.26,0,1.88ZM90.09,55.59c-.81.47-1.56.44-2.25-.05-1.1-.79-1.83-1.85-2.16-3.17-.2-.81-.02-1.5.66-2.04.09-.07.11-.21.17-.32-.11-.04-.23-.11-.34-.11-.56-.01-1.12,0-1.68-.01-.4,0-.84-.07-.82.55,0,.08-.11.16-.17.24-1.22,1.6-2.09,3.36-2.43,5.36-.23,1.35-.19,2.67.54,3.88.14.23.45.49.68.49,2.23.02,4.46,0,6.68-.02.41,0,.63-.21.78-.56.48-1.1.58-2.24.47-3.42-.03-.26-.08-.52-.13-.82ZM89.46,54.73c0-.22,0-.27,0-.33-.25-1.3-1.06-2.24-1.99-3.09-.09-.08-.35-.12-.41-.05-.1.1-.17.32-.13.46.3,1.08.75,2.09,1.7,2.76.21.15.51.16.83.26ZM84.14,46.81c.03.56.07,1.09.1,1.61h1.72v-1.61h-1.82Z"/>
  <g>
    <path d="M100.57,61.59c-1.45,0-2.9,0-4.35,0-.26,0-.52-.01-.78-.05-.89-.11-1.42-.68-1.42-1.57,0-1.79.03-3.58.03-5.36,0-2.48,0-4.96,0-7.44,0-.7.01-.73.72-.75,1.08-.03,2.17-.02,3.25-.03,1.04-.02,2.1.05,3.13-.1.68-.1,1.11.17,1.58.51,2.63,1.94,3.99,4.56,4.09,7.82.05,1.8.03,3.6.01,5.4,0,.9-.6,1.5-1.5,1.51-1.58.03-3.16,0-4.74,0,0,.02,0,.03,0,.05ZM95.69,59.69c.12.03.17.05.22.05,2.4,0,4.8-.02,7.2-.03.34,0,.52-.19.51-.51-.01-.4-.07-.8-.14-1.2-.28-1.54-.81-3-1.53-4.37-.59-1.12-1.28-2.22-2.07-3.21-1-1.27-2.82-1.7-4.19-1.14v10.41ZM101.74,48.68c-.31.21-.38.47-.23.76.21.42.4.85.65,1.24.79,1.24,1.43,2.54,1.85,3.95.09.31.22.62.39.89.11.17.35.26.53.39.07-.21.22-.42.2-.62-.11-1.66-.51-3.25-1.47-4.64-.53-.76-1.15-1.45-1.92-1.97Z"/>
    <path d="M94.91,44.63q.9-.15.92-1.02c0-.36,0-.73,0-1.09,0-.32.16-.48.48-.48,1.18.02,2.37.04,3.55.05.38,0,.49.23.49.56,0,.48,0,.96.03,1.44,0,.11.14.31.23.32.44.04.51.27.42.65-.03.14-.03.28-.04.42h-6.02c-.03-.26-.05-.54-.08-.84ZM96.94,44.35h2.23c.02-.4.04-.77.06-1.13h-2.35c.02.39.04.75.06,1.13Z"/>
  </g>
  <path d="M115.9,14v100H50.57V14h65.33M117.9,12H48.57v104h69.33V12h0Z"/>
  <g>
    <line class="cls-3" x1="48.57" y1="32.8" x2="117.9" y2="32.8"/>
    <line class="cls-3" x1="48.57" y1="35.5" x2="117.9" y2="35.5"/>
  </g>
  <g>
    <line class="cls-3" x1="48.57" y1="62.65" x2="117.9" y2="62.65"/>
    <line class="cls-3" x1="48.57" y1="65.35" x2="117.9" y2="65.35"/>
  </g>
  <g>
    <line class="cls-3" x1="48.57" y1="92.5" x2="117.9" y2="92.5"/>
    <line class="cls-3" x1="48.57" y1="95.2" x2="117.9" y2="95.2"/>
  </g>
  <g>
    <ellipse class="cls-4" cx="31.38" cy="24.82" rx="7.02" ry="7.03"/>
    <path class="cls-4" d="M36.75,49.49l10.46,4.33,9.62-1.79c1.63-.3,3.16.9,3.26,2.56h0c.08,1.29-.75,2.47-2,2.82l-12.14,3.47-9.25-2.98"/>
    <path class="cls-1" d="M15.05,115.25l4.29-21.53,2.17-23.59-.24-25.95c-.14-2.21,1.06-4.29,3.04-5.28h0c1.02-.51,2.18-.69,3.3-.52l6.12.94,14.91,2.95c1.52.3,3.1.15,4.53-.45l12.29-5.09c1.76-.73,3.77.22,4.31,2.05h0c.45,1.52-.26,3.14-1.68,3.83l-16.25,7.88h-15.1l6.31,64.15-6.24.18-6.03-37.84-4.14,20.02-5.42,18.24h-6.17Z"/>
  </g>
</svg>