<?xml version="1.0" encoding="UTF-8"?>
<svg id="pictos" xmlns="http://www.w3.org/2000/svg" viewBox="0 0 128 128">
  <defs>
    <style>
      .cls-1 {
        stroke-linecap: round;
      }

      .cls-1, .cls-2, .cls-3 {
        stroke: #000;
      }

      .cls-1, .cls-2, .cls-4 {
        stroke-miterlimit: 10;
      }

      .cls-1, .cls-3 {
        stroke-width: 2px;
      }

      .cls-1, .cls-3, .cls-4 {
        fill: #fff;
      }

      .cls-5 {
        fill: #1d1d1b;
      }

      .cls-2 {
        fill: none;
        stroke-width: .97px;
      }

      .cls-3 {
        stroke-linejoin: round;
      }

      .cls-4 {
        stroke: #1d1d1b;
        stroke-width: .73px;
      }
    </style>
  </defs>
  <path d="M80.83,18.1c.83.12.9.21.83,1-.01.15-.03.29-.05.44-.04.22.04.34.24.48.98.65,1.67,1.57,2.13,2.63,1.19,2.75,1.4,5.56.29,8.4-.38.96-.58,1.07-1.6,1.08-2.11.01-4.23.03-6.34.08-.71.02-1.16-.26-1.45-.86-.45-.92-.61-1.92-.71-2.93-.26-2.68.16-5.23,1.46-7.61.18-.33.53-.58.63-.92.1-.33-.06-.73-.05-1.09,0-.32.05-.66.5-.7.05,0,.12-.21.12-.33,0-.57,0-1.13-.02-1.7-.01-.37.16-.56.52-.57,1-.01,1.99-.03,2.99-.01.33,0,.55.21.54.57-.01.5-.03,1-.04,1.49,0,.18,0,.37,0,.54ZM83.63,26.39c-.37-.02-.7-.02-1.01-.06-1.3-.17-2.44-.64-3.11-1.83-.39-.7-.68-1.46-1.01-2.19-.13-.3-.24-.59-.64-.64-.39-.04-.67.12-.85.42-.32.5-.62,1.01-.89,1.54-.58,1.15-.68,2.4-.74,3.65-.04.92.03,1.82.37,2.7.12.31.27.41.59.4.42-.02.83.02,1.25.02,1.6.01,3.2.03,4.81.03.65,0,.76-.08.96-.7.35-1.07.33-2.17.27-3.33ZM80.08,22.13c.09.37.13.64.23.88.42,1.03,1.1,1.78,2.25,1.98.37.06.53-.06.47-.39-.25-1.21-.83-2.24-1.86-2.96-.18-.12-.52-.18-.69-.09-.19.1-.28.4-.39.57ZM78.06,18.12c.55,0,1.06,0,1.56,0,.08,0,.21-.13.21-.21.02-.44,0-.88,0-1.35h-1.78v1.57Z"/>
  <path d="M68.55,18.84c.78.29.81.32.65,1.18-.06.33.03.48.3.64.95.59,1.56,1.48,2.05,2.45.77,1.52,1.4,3.09,1.44,4.83.03,1.1-.17,2.15-.67,3.13-.38.74-1,1.11-1.85,1.11-2.06,0-4.11-.06-6.16.03-1.49.06-2.26-.67-2.75-1.94-.51-1.34-.53-2.73-.26-4.12.4-2.03,1.27-3.84,2.73-5.32.32-.33.2-.68.16-1.05-.03-.26-.22-.58.23-.69.05-.01.07-.23.07-.35,0-.56-.02-1.12,0-1.68,0-.47.2-.72.66-.75.93-.05,1.87-.07,2.8-.06.43,0,.61.26.61.72,0,.63,0,1.26,0,1.88ZM71.56,26.21c-.81.47-1.56.44-2.25-.05-1.1-.79-1.83-1.85-2.16-3.17-.2-.81-.02-1.5.66-2.04.09-.07.11-.21.17-.32-.11-.04-.23-.11-.34-.11-.56-.01-1.12,0-1.68-.01-.4,0-.84-.07-.82.55,0,.08-.11.16-.17.24-1.22,1.6-2.09,3.36-2.43,5.36-.23,1.35-.19,2.67.54,3.88.14.23.45.49.68.49,2.23.02,4.46,0,6.68-.02.41,0,.63-.21.78-.56.48-1.1.58-2.24.47-3.42-.03-.26-.08-.52-.13-.82ZM70.92,25.35c0-.22,0-.27,0-.33-.25-1.3-1.06-2.24-1.99-3.09-.09-.08-.35-.12-.41-.05-.1.1-.17.32-.13.46.3,1.08.75,2.09,1.7,2.76.21.15.51.16.83.26ZM65.6,17.43c.03.56.07,1.09.1,1.61h1.72v-1.61h-1.82Z"/>
  <g>
    <path d="M106.15,62.29c-1.45,0-2.9,0-4.35,0-.26,0-.52-.01-.78-.05-.89-.11-1.42-.68-1.42-1.57,0-1.79.03-3.58.03-5.36,0-2.48,0-4.96,0-7.44,0-.7.01-.73.72-.75,1.08-.03,2.17-.02,3.25-.03,1.04-.02,2.1.05,3.13-.1.68-.1,1.11.17,1.58.51,2.63,1.94,3.99,4.56,4.09,7.82.05,1.8.03,3.6.01,5.4,0,.9-.6,1.5-1.5,1.51-1.58.03-3.16,0-4.74,0,0,.02,0,.03,0,.05ZM101.27,60.39c.12.03.17.05.22.05,2.4,0,4.8-.02,7.2-.03.34,0,.52-.19.51-.51-.01-.4-.07-.8-.14-1.2-.28-1.54-.81-3-1.53-4.37-.59-1.12-1.28-2.22-2.07-3.21-1-1.27-2.82-1.7-4.19-1.14v10.41ZM107.31,49.39c-.31.21-.38.47-.23.76.21.42.4.85.65,1.24.79,1.24,1.43,2.54,1.85,3.95.09.31.22.62.39.89.11.17.35.26.53.39.07-.21.22-.42.2-.62-.11-1.66-.51-3.25-1.47-4.64-.53-.76-1.15-1.45-1.92-1.97Z"/>
    <path d="M100.49,45.33q.9-.15.92-1.02c0-.36,0-.73,0-1.09,0-.32.16-.48.48-.48,1.18.02,2.37.04,3.55.05.38,0,.49.23.49.56,0,.48,0,.96.03,1.44,0,.11.14.31.23.32.44.04.51.27.42.65-.03.14-.03.28-.04.42h-6.02c-.03-.26-.05-.54-.08-.84ZM102.52,45.05h2.23c.02-.4.04-.77.06-1.13h-2.35c.02.39.04.75.06,1.13Z"/>
  </g>
  <path d="M115.31,13.41v100H49.98V13.41h65.33M117.31,11.41H47.98v104h69.33V11.41h0Z"/>
  <g>
    <line class="cls-2" x1="47.98" y1="32.21" x2="117.31" y2="32.21"/>
    <line class="cls-2" x1="47.98" y1="34.91" x2="117.31" y2="34.91"/>
  </g>
  <g>
    <line class="cls-2" x1="47.98" y1="62.06" x2="117.31" y2="62.06"/>
    <line class="cls-2" x1="47.98" y1="64.76" x2="117.31" y2="64.76"/>
  </g>
  <g>
    <line class="cls-2" x1="47.98" y1="91.9" x2="117.31" y2="91.9"/>
    <line class="cls-2" x1="47.98" y1="94.61" x2="117.31" y2="94.61"/>
  </g>
  <g>
    <ellipse class="cls-3" cx="30.22" cy="27.37" rx="6.77" ry="6.79"/>
    <path class="cls-3" d="M35.4,51.19l10.1,4.18,9.29-1.72c1.58-.29,3.05.87,3.14,2.47h0c.07,1.25-.73,2.38-1.93,2.72l-11.71,3.35-8.93-2.88"/>
    <path class="cls-1" d="M14.46,114.66l4.14-20.78,2.09-22.77-.23-25.05c-.13-2.13,1.02-4.14,2.93-5.1h0c.99-.49,2.1-.67,3.19-.5l5.9.91,14.39,2.85c1.47.29,2.99.14,4.37-.43l11.87-4.92c1.7-.7,3.64.22,4.16,1.98h0c.44,1.46-.25,3.03-1.62,3.7l-15.69,7.61h-14.57l6.09,61.92-6.02.18-5.82-36.52-3.99,19.32-5.23,17.61h-5.96Z"/>
  </g>
  <g>
    <path class="cls-5" d="M88.81,44.08s1.03,1.97-.71,3.36c-.09.07-.11.19-.04.28h0c.05.07.15.1.24.07.51-.18,2.18-.96,2.18-3.38l-1.67-.33Z"/>
    <path class="cls-4" d="M91.34,47.39h3.3s2.83,5.72,2.83,7.76v4.84c0,1.11-.9,2.01-2.01,2.01h-5.37c-1.11,0-2.01-.9-2.01-2.01v-5.18c0-.63.29-1.22.79-1.6l2.69-2.22c.16-.13.17-.36.02-.5l-.42-.42c-.13-.13-.14-.33-.02-.47l.22-.25c.12-.14.11-.35-.02-.48l-.49-.45c-.14-.13-.15-.34-.02-.48l.51-.56Z"/>
    <path class="cls-4" d="M87.26,42.48h6.72s2.27.41,2.27,2.45h-1.52l-.11.82h-3.19s-.3-1.05-1.1-1.25-3.06-.66-3.06-.66v-1.36Z"/>
    <rect class="cls-4" x="91.12" y="45.75" width="3.68" height="1.63" rx=".34" ry=".34"/>
  </g>
  <g>
    <g>
      <path d="M101.25,75.47c-.15,0-.23-.06-.31-.17l-.03-.2c-.05-.61-.07-1.26.24-1.38h.02c.17,0,.26.06.3.16.04.09.13,1-.03,1.39-.04.1-.1.16-.16.19h-.01s-.02,0-.02,0Z"/>
      <path d="M101.18,73.79c.09,0,.18.03.22.12.04.09.16,1.35-.15,1.48-.12,0-.18-.05-.26-.14-.02-.33-.15-1.34.18-1.46,0,0,0,0,.01,0M101.18,73.64h-.01s-.03,0-.03,0h-.02c-.36.14-.34.8-.28,1.46v.16s.01.05.01.05l.03.04c.1.12.19.2.37.2h.03s.03-.01.03-.01c.09-.04.16-.12.21-.23.17-.41.08-1.32.03-1.45-.04-.1-.14-.21-.36-.21h0Z"/>
    </g>
    <g>
      <path d="M101.24,79.95c-.2-.03-.3-.14-.31-.31,0-.03-.04-3.54.02-3.66.03-.08.11-.11.17-.14.01,0,.03,0,.04,0,.33,0,.33.22.34.38,0,.16.04,3.36-.02,3.54-.04.1-.12.16-.2.19h-.02s-.02,0-.02,0Z"/>
      <path d="M101.22,75.9c.2,0,.2.17.21.33,0,.31.04,3.35-.01,3.5-.03.08-.09.12-.16.15-.15-.02-.24-.09-.25-.24-.02-.34-.02-3.55.01-3.63.03-.06.11-.09.16-.11.02,0,.03,0,.05,0M101.22,75.75s-.04,0-.06,0h-.03s-.02.01-.02.01c-.08.04-.19.08-.23.18-.07.14-.03,3.67-.03,3.7,0,.14.08.33.38.38h.05s.04-.01.04-.01c.08-.04.19-.1.23-.23.07-.2.02-3.52.02-3.55,0-.16-.01-.48-.36-.48h0Z"/>
    </g>
    <g>
      <path d="M89.55,90.97c-1.56,0-2.16-.14-2.74-1.76-.34-.97-.7-2-.92-3.08-.32-1.51-.78-5.3,1.78-7.79,1.23-1.19,1.62-2.05,1.7-3.65,0-.16,0-.33,0-.51-.01-.81-.03-1.73,1.03-2.09-.05-.06-.06-.19-.07-.31-.03-.3-.05-.55.1-.71.08-.09.21-.13.39-.13-.05-.07-.06-.16-.06-.26-.04,0-.62,0-.62,0h-.15c-.21.01-.69.15-1.04.24-.28.08-.39.11-.44.11-.14-.07-.36-.58-.42-.85-.03-.12-.02-.2.01-.25.08-.12.47-.23.57-.24.23-.17,1.83-.89,2.16-.96.14-.03.64-.04,1.08-.04.17,0,.73,0,.9.03.58.1.88.58.88,1.01,0,.42-.27.91-1.03,1.05l.04.16c.13.01.23.04.35.16l.02,1.05c.98.41.98,1.16.98,2.02,0,.13,0,.26,0,.4.02.9.27,1.84.67,2.59.06.1.11.2.17.3.1.17.19.33.27.5,1,2.07.95,4.88.91,7.36,0,.62-.02,1.22-.01,1.79,0,.17,0,.35-.02.53-.02.33-.04.68.02.97l1.44-.07c.08,0,.18-.01.28-.01.14,0,.55,0,.56.32,0,.07-.02.12-.06.17-.08.08-.21.11-.42.11-.08,0-.17,0-.24,0h-.24s-1.38,0-1.38,0c0,.48-.18.87-.54,1.26h3.51c-.58-.61-.56-1.33-.54-2.09,0-.14,0-.28,0-.42v-4.08c0-.16,0-.31,0-.47-.02-.25-.14-.55-.25-.83-.13-.33-.25-.63-.25-.89,0-.91.97-.91,1.33-.91.14,0,.28,0,.41.01.11,0,.22,0,.31,0h1.64c.23,0,.47,0,.7,0v-5.84s0-.32,0-.32c.02-.62.05-2.08-.16-2.3-.19-.19-.46-.38-.72-.56l-.27-.19-1.19-.87c-.2-.15-.4-.29-.61-.42-.24.02-.52.02-.8.02h-1.69s-.21.17-.44.35c-1.26.98-2.04,1.55-2.26,1.55-.11-.03-.17-.09-.2-.17-.03-.08-.03-.17,0-.23.08-.15,2.34-1.83,2.57-1.91,0-.6-.07-.62-.16-.64-.12-.03-.25-.08-.35-.36-.08-.21-.07-1.46-.04-1.71.03-.34.19-.53.55-.64.09,0,.16,0,.23,0h.37s2.35,0,2.35,0c.25,0,.76,0,.86.5.04.21.04,1.49,0,1.73-.04.3-.25.5-.6.56.07.04.06.15.06.26,0,.13,0,.26,0,.38.28.15.59.38.89.61.17.13.33.25.5.38l.8.58c.86.63.85.83.84,1.66v.38s0,6.06,0,6.06c0,.39,0,.77,0,1.16h1.75s.56-.01.56-.01c.55,0,1.13.09,1.28.76.07.33-.08.7-.23,1.06-.11.26-.21.51-.22.73,0,.15,0,.3,0,.44v4.95c0,.48.01.85-.16,1.22-.48,1-1.33,1.08-2.24,1.08h-14.08ZM93.18,90.41h.65c.24.01.41,0,.53-.03,1.1-.24,1.1-1.16,1.1-2.04,0-.15,0-.29,0-.43.03-.84.03-1.68.03-2.52,0,0,0-1.1,0-1.42.03-2.07.05-4.2-.98-6.01-.62-1.08-1.03-2.06-1.05-3.34-.29,0-3.55,0-3.55,0,.06,1.16-.44,2.62-1.21,3.5-.15.17-.32.33-.48.49-.2.19-.4.38-.57.6-2.11,2.64-1.46,6.23-.87,8.14.21.7.72,2.37,1.13,2.71.37.31.7.37,1.16.37h.49s1.45,0,1.45,0h2.15ZM99.03,88.28c0,.12,0,.24,0,.36,0,.53,0,1.04.43,1.43.33.29.69.35,1.16.35h.49s2.52,0,2.52,0c.75,0,1.21-.12,1.48-.39.34-.34.37-.94.37-1.74h-6.45ZM105.48,87.72c0-.12,0-.24,0-.36v-3.91s-6.45,0-6.45,0v4.27h.24s6.2,0,6.2,0ZM98.96,81.29c-.28.02-.4.12-.45.37.12.35.44,1.25.44,1.25.02-.04.1-.05.19-.05,0,0,.51,0,.51,0h5.92c.04-.06.07-.18.11-.3.02-.07.04-.14.06-.21.02-.06.05-.13.08-.2.17-.4.25-.68-.12-.84-.04-.02-.22-.05-.92-.05-.37,0-.78,0-1.09.01h-.41s-4.32,0-4.32,0ZM93.48,74.06c0-.54-.05-.95-.28-1.18-.19-.2-.53-.28-1.07-.28h-1.16c-.05,0-.1,0-.15,0-.78.09-.89.78-.88,1.47h3.55ZM92.5,72.02v-.51h-1.1c-.16-.01-.32,0-.48,0v.17c0,.12,0,.23,0,.35h1.57ZM90.89,70.11c.1,0,.36,0,.41.19.02.08.02.2,0,.33,0,.1-.02.29.01.32h.6s.25,0,.25,0c0-.02,0-.05,0-.07-.01-.22-.02-.49.11-.61.07-.07.19-.07.31-.07.24,0,.46-.01.53-.38.03-.15,0-.27-.07-.36-.16-.19-.53-.21-.8-.21-.1,0-.45.01-.45.01-.78,0-.89.04-1.28.21-.13.05-.29.12-.51.2l.02.07c.03.14.07.3.13.4,0,0,.1,0,.17,0,.08,0,.18,0,.28-.01.1,0,.2-.02.3-.02ZM88.7,70.25c.02.06.03.11.05.12.25-.05.52-.12.81-.22-.02-.09-.05-.19-.07-.24-.13.05-.26.11-.38.16-.13.06-.27.12-.41.17ZM99.31,69.7v-.44h-2.2v.44h2.2ZM96.74,67.04c-.08,0-.11.04-.15.11v.93c.01.64.08.67.31.67.07,0,.15,0,.25-.01.14,0,.32-.02.53-.02h2.05c.16-.15.16-1.46.11-1.64h0s-.11-.06-.8-.06c-.29,0-.61,0-.84.02-.14,0-.24,0-.3,0h-1.02s-.09,0-.14,0Z"/>
      <path d="M99.55,66.55c.34,0,.7.05.78.43.04.2.04,1.48,0,1.7-.04.29-.25.44-.54.5,0,.24-.01.49,0,.73.49.32.95.7,1.42,1.04l.8.58c.94.69.8.82.8,1.99v5.44c0,.62.01,1.24,0,1.85h1.83s0,0,0,0c.17,0,.37-.01.56-.01.54,0,1.07.08,1.21.7.12.54-.42,1.23-.45,1.77-.01.2,0,.41,0,.61v4.79c0,.41.02.8-.16,1.19-.46.96-1.29,1.04-2.18,1.04-.16,0-.32,0-.48,0h-13.6c-1.54,0-2.11-.14-2.67-1.71-.36-1.01-.7-2.02-.92-3.07-.56-2.63-.28-5.74,1.76-7.72,1.17-1.14,1.64-2,1.72-3.7.04-.93-.24-2.11.99-2.53,0-.59-.23-1.15.39-1.15,0,0,.02,0,.02,0-.01-.14-.02-.27,0-.41-.07,0-.15,0-.22,0-.16,0-.33,0-.49,0-.05,0-.1,0-.15,0-.35.01-1.37.35-1.48.35,0,0,0,0,0,0-.08-.05-.42-.85-.33-.98.06-.09.41-.2.51-.21.27-.19,1.86-.9,2.17-.96.12-.02.61-.04,1.07-.04.39,0,.76,0,.89.03,1.01.17,1.23,1.66-.15,1.91v.31c.15.01.24.02.35.14v1c1.13.52.96,1.39.98,2.42.02.88.26,1.84.68,2.62.15.27.31.53.45.8,1.23,2.57.86,6.26.89,9.13,0,.48-.1,1.05,0,1.52h1.37c.09,0,.26-.02.43-.02.24,0,.48.04.49.24,0,.17-.2.21-.41.21-.14,0-.28-.02-.35-.02h0c-.06,0-.12,0-.18,0-.3,0-.59,0-.89,0-.17,0-.34,0-.51,0,0,.58-.22,1.01-.65,1.41h3.87c-.81-.72-.64-1.6-.64-2.58v-3.93c0-.21,0-.41-.01-.62-.05-.54-.5-1.25-.5-1.72,0-.72.64-.83,1.25-.83.26,0,.52.02.72.02h.03c.54,0,1.08,0,1.61,0,.25,0,.51,0,.76,0v-5.91c0-.44.1-2.39-.17-2.67-.26-.27-.69-.53-1-.76l-1.04-.76c-.25-.18-.5-.37-.76-.53-.28,0-.56,0-.83,0-.56,0-1.11,0-1.67,0h-.02c-.31.22-2.38,1.9-2.7,1.9,0,0-.01,0-.02,0-.1-.03-.16-.19-.11-.28.05-.09,2.27-1.78,2.53-1.88.08-1.24-.22-.44-.46-1.1-.07-.19-.06-1.42-.04-1.68.03-.33.18-.48.5-.58.07,0,.14,0,.21,0,.12,0,.25,0,.37,0h2.08c.09,0,.18,0,.28,0M97.9,66.96h-.75c-.09,0-.18,0-.26,0-.05,0-.1,0-.15,0-.11.01-.15.06-.21.14v.97c0,.63.06.75.37.75.17,0,.42-.03.77-.04h2.05s.12-.01.16-.05c.09-.11.08-1.5.03-1.68-.02-.09-.43-.12-.87-.12-.47,0-.98.03-1.14.03M90.32,70.21c.17,0,.39-.03.57-.03s.31.03.34.14c.05.19-.09.7.09.7,0,0,0,0,0,0,.2,0,.4,0,.6,0,.11,0,.22,0,.33,0,0-.17-.06-.58.08-.7.17-.15.76.14.86-.49.1-.58-.46-.66-.95-.66-.17,0-.33,0-.45.01-1.07,0-.9.09-1.87.44.04.16.08.4.17.55.06.03.14.04.24.04M97.3,69.19c-.09,0-.17,0-.26,0v.59h2.35v-.59h-1.68c-.14,0-.28,0-.41,0M88.74,70.45s0,0,0,0c.3-.05.61-.14.9-.24-.02-.07-.08-.34-.12-.38h-.02c-.31.11-.59.27-.9.38.02.06.04.24.13.24M90.84,72.09h1.73v-.66s-.05,0-.08,0c-.37,0-.74-.01-1.11-.01-.18,0-.37,0-.55.01,0,.22.01.44,0,.66M89.85,74.13h3.7c.01-1.19-.2-1.62-1.43-1.62,0,0-.02,0-.02,0h-.86c-.09,0-.18,0-.28,0-.05,0-.11,0-.16,0-.88.1-.97.92-.95,1.62M90.73,74.53h-.88c.09,1.17-.42,2.66-1.18,3.52-.34.38-.74.69-1.06,1.09-1.85,2.32-1.71,5.52-.89,8.21.19.63.71,2.38,1.15,2.75.4.34.78.38,1.21.38.15,0,.32,0,.49,0h1.45s2.15,0,2.15,0c.19,0,.43.01.66.01.2,0,.39,0,.55-.04,1.35-.3,1.13-1.54,1.16-2.54.03-1,.03-2,.03-3,0-2.33.22-4.88-.98-6.99-.62-1.09-1.04-2.09-1.04-3.38-.31,0-.63,0-.94,0-.63,0-1.25,0-1.88,0M99.14,82.95c.17,0,.33,0,.5,0h5.92s.06,0,.06,0c.08-.16.13-.38.19-.56.13-.38.46-.88-.08-1.13-.1-.04-.5-.06-.96-.06-.59,0-1.28.02-1.49.02h-4.32c-.31.02-.46.14-.52.44.14.43.29.86.44,1.29.09,0,.17,0,.26,0M98.96,87.79c.11,0,.23,0,.34,0,.17,0,.34,0,.5,0h5.76c-.01-.2,0-.4,0-.6v-3.83c-.09,0-.18,0-.27,0-.18,0-.36,0-.54,0h-5.79v4.42M100.63,90.49c.16,0,.33,0,.49,0h1.65s.86,0,.86,0c1.83,0,1.92-.71,1.92-2.28h-6.6c.04.69-.12,1.4.47,1.92.37.32.77.37,1.21.37M99.55,66.4h-.16s-.12,0-.12,0h-2.08s-.17,0-.17,0c-.07,0-.13,0-.2,0-.07,0-.15,0-.22,0-.42.13-.6.34-.64.71-.02.21-.04,1.51.05,1.74.12.32.27.38.4.41.04.02.08.11.05.54-.5.3-2.43,1.75-2.52,1.9-.05.08-.05.19,0,.29.04.1.11.18.2.2h.02s.04,0,.04,0c.22,0,.78-.38,2.31-1.56.19-.15.35-.27.44-.34.28,0,.55,0,.81,0,.28,0,.56,0,.84,0,.26,0,.53,0,.79,0,.19.12.38.26.56.39l.15.11,1.04.76c.09.06.18.13.28.2.26.18.52.36.7.55.12.13.17.89.14,2.25,0,.14,0,.25,0,.32v5.76c-.2,0-.41,0-.61,0-.27,0-.54,0-.81,0-.27,0-.54,0-.81,0-.13,0-.23,0-.34,0-.13,0-.27-.01-.41-.01-.38,0-1.4,0-1.4.98,0,.27.12.59.25.92.11.28.22.57.25.81.01.15.01.31.01.46v.15s0,3.93,0,3.93c0,.14,0,.28,0,.42,0,.12,0,.23,0,.35-.1-.11-.28-.17-.56-.17-.1,0-.2,0-.29.01-.06,0-.1,0-.14,0h-1.24c-.03-.26-.02-.55,0-.83.01-.18.02-.37.02-.54,0-.57,0-1.17.01-1.79.04-2.49.08-5.31-.92-7.4-.08-.17-.18-.34-.27-.5-.06-.1-.12-.2-.17-.31-.4-.74-.64-1.67-.66-2.55,0-.14,0-.27,0-.4,0-.83,0-1.62-.98-2.12v-.97l-.04-.04c-.1-.12-.2-.16-.31-.18v-.05c.72-.18.97-.67.97-1.1,0-.54-.4-.99-.95-1.08-.18-.03-.7-.03-.91-.03-.33,0-.93,0-1.09.04-.34.06-1.85.74-2.2.96-.15.03-.49.13-.58.27-.05.07-.05.16-.02.31.04.21.26.8.4.89l.04.02h.05c.06,0,.14-.02.46-.11.33-.09.82-.23,1.02-.24.05,0,.1,0,.15,0,.08,0,.16,0,.24,0,.08,0,.17,0,.25,0,.02,0,.04,0,.06,0,0,.04,0,.08,0,.12-.14.02-.24.07-.31.15-.17.18-.14.47-.11.77,0,.09.02.18.02.27-1.01.4-.99,1.31-.98,2.12,0,.17,0,.34,0,.5-.07,1.58-.46,2.42-1.68,3.6-2.59,2.52-2.12,6.34-1.8,7.86.23,1.08.58,2.12.93,3.09.59,1.65,1.24,1.81,2.81,1.81h13.6s.23,0,.23,0h.24c.94,0,1.82-.08,2.31-1.12.18-.38.18-.78.18-1.16v-.09s0-4.78,0-4.78v-.16c0-.15,0-.3,0-.44.01-.21.11-.45.22-.71.15-.37.31-.75.23-1.1-.18-.82-1-.82-1.35-.82-.1,0-.2,0-.3,0-.09,0-.18,0-.26,0h-1.67c0-.36,0-.72,0-1.09v-.62s0-5.44,0-5.44c0-.14,0-.27,0-.38.02-.89-.01-1.1-.87-1.73l-.8-.58c-.17-.12-.34-.25-.5-.37-.28-.21-.57-.43-.86-.63,0-.1,0-.2,0-.3,0-.07,0-.15,0-.22.3-.09.49-.3.54-.59.03-.22.04-1.52,0-1.75-.12-.55-.69-.55-.93-.55h0ZM97.9,67.11h0c.06,0,.17,0,.3,0,.23,0,.54-.02.83-.02.49,0,.67.03.73.05.03.26.03,1.27-.01,1.5-.01,0-.03,0-.04,0h-2.04c-.21,0-.39.01-.53.02-.09,0-.17.01-.24.01-.14,0-.16-.03-.17-.05-.05-.09-.05-.33-.05-.54v-.93s.04-.04.08-.04c.04,0,.08,0,.13,0h.14s.13,0,.13,0h.75ZM90.09,69.72c.19-.07.33-.13.45-.18.39-.17.49-.21,1.25-.21.05,0,.11,0,.17,0,.09,0,.18,0,.28,0,.15,0,.59,0,.75.18.06.07.08.17.05.3-.05.29-.2.31-.45.32-.13,0-.26,0-.36.09-.16.14-.15.42-.13.66-.06,0-.11,0-.17,0h-.33s-.21,0-.21,0c0-.06,0-.17,0-.24,0-.13.02-.26,0-.35-.07-.25-.38-.25-.48-.25-.09,0-.2,0-.3.02-.09,0-.19.01-.27.01-.06,0-.11,0-.13-.01-.04-.09-.07-.21-.1-.33h0ZM97.3,69.34h.29s.13,0,.13,0h1.53v.29h-2.05v-.28s.07,0,.11,0h0ZM88.85,70.28c.1-.04.2-.09.29-.13.1-.05.2-.09.31-.13,0,.03.02.06.02.1-.21.07-.42.13-.62.17h0ZM91,71.58c.13,0,.26,0,.4,0,.18,0,.37,0,.55,0,.16,0,.32,0,.48,0v.36h-1.42c0-.09,0-.19,0-.28,0-.03,0-.06,0-.09h0ZM90,73.98c0-.86.25-1.26.82-1.32.05,0,.09,0,.14,0h.14s.13,0,.13,0h.86s0,0,0,0c.55,0,.87.08,1.04.26.18.18.25.48.26,1.06h-3.4ZM90.01,74.68h1.66s.94,0,.94,0c.26,0,.53,0,.79,0,.03,1.26.45,2.24,1.06,3.31,1.02,1.79,1,3.92.97,5.97,0,.32,0,.63,0,.95v.49c0,.82,0,1.67-.03,2.5,0,.14,0,.28,0,.43,0,.89,0,1.74-1.04,1.97-.12.03-.28.04-.51.04-.12,0-.24,0-.36,0-.11,0-.21,0-.3,0h-2.15s-1.45,0-1.45,0c-.09,0-.17,0-.26,0-.08,0-.16,0-.24,0-.46,0-.77-.06-1.12-.35-.39-.33-.91-2.05-1.09-2.61l-.02-.07c-.58-1.89-1.23-5.45.86-8.07.17-.21.36-.4.57-.59.16-.16.33-.32.49-.49.76-.87,1.27-2.3,1.23-3.47h0ZM98.59,81.65c.05-.19.14-.26.38-.28h4.31c.08,0,.22,0,.41,0,.3,0,.71-.01,1.08-.01.73,0,.87.03.9.04.29.13.25.33.08.74-.03.07-.06.14-.08.2-.02.07-.04.14-.07.21-.02.09-.05.17-.08.25h-5.88s-.25,0-.25,0h-.25c-.05,0-.1,0-.15,0l-.03-.08c-.12-.36-.25-.71-.36-1.07h0ZM99.11,83.52h5.91s.27,0,.27,0c.04,0,.08,0,.12,0v3.68s0,.15,0,.15c0,.1,0,.2,0,.29h-5.69s-.41,0-.41,0c-.06,0-.13,0-.19,0v-4.12h0ZM99.11,88.35h6.3c0,.75-.04,1.31-.35,1.62-.25.25-.7.36-1.42.36h-.86s-1.65,0-1.65,0c-.09,0-.17,0-.25,0-.08,0-.16,0-.24,0-.46,0-.8-.06-1.11-.33-.41-.37-.41-.83-.41-1.37,0-.09,0-.19,0-.28h0ZM97.88,89.24c.23,0,.39-.04.48-.14,0,0,.01-.01.02-.02.03.44.13.86.45,1.25h-3.18c.28-.34.43-.7.45-1.11.12,0,.24,0,.36,0h.44s.45,0,.45,0h.18s.06,0,.11,0c.07,0,.16.01.24.01h0Z"/>
    </g>
    <g>
      <path d="M90.74,73.81c-.08,0-.19-.03-.26-.18-.14-.29-.04-.93.04-1.03l.02-.03h.13c.21,0,.29.09.31.32.03.31.06.69-.12.89l-.02.03h-.09Z"/>
      <path d="M90.67,72.64c.16,0,.22.05.24.25.02.24.07.64-.1.84-.02,0-.04,0-.06,0-.4,0-.24-.99-.16-1.09.03,0,.06,0,.09,0M90.67,72.49h0s-.06,0-.1,0h-.07s-.04.06-.04.06c-.11.14-.2.8-.05,1.11.07.14.19.22.33.22.03,0,.06,0,.09,0h.05s.03-.05.03-.05c.21-.23.17-.63.15-.9v-.05c-.03-.27-.15-.39-.39-.39h0Z"/>
    </g>
    <g>
      <path d="M92.65,73.81c-.07-.01-.16-.05-.22-.18-.14-.3-.03-.89.01-.96.04-.07.13-.1.19-.12.14.02.22.07.27.17.15.26.08.76.03.94-.08.11-.17.13-.25.15h-.01s-.01,0-.01,0Z"/>
      <path d="M92.66,72.62c.35.08.26.8.19,1.02-.05.07-.11.08-.19.1-.35-.05-.2-.96-.16-1.02.03-.05.1-.07.16-.09M92.65,72.46h-.04s.05.16.05.16l-.06-.14c-.07.02-.17.06-.23.15-.06.09-.16.71-.01,1.03.07.16.19.21.28.22h.03s.03,0,.03,0c.09-.02.19-.04.28-.15l.02-.02v-.03c.05-.13.16-.68-.03-1-.06-.11-.15-.18-.27-.2h-.04Z"/>
    </g>
    <g>
      <path d="M91.68,73.82c-.14,0-.21-.07-.24-.12-.05-.09-.12-.63-.02-.94.04-.11.09-.17.16-.21.01,0,.02,0,.03,0,.17,0,.24.05.32.14.05.31.1.94-.11,1.1-.07.02-.11.03-.15.03Z"/>
      <path d="M91.65,72.62c.1,0,.16.04.24.12.02.2.07.85-.1,1-.03,0-.07.01-.11.01-.07,0-.14-.02-.17-.08-.05-.09-.15-.93.11-1.04.01,0,.02,0,.03,0M91.65,72.47h-.04s-.03,0-.03,0h-.02c-.09.05-.16.13-.2.26-.11.31-.04.89.02,1,.04.07.13.16.31.16.04,0,.09,0,.13-.01h.04s.03-.03.03-.03c.22-.19.19-.79.15-1.13v-.05s-.04-.04-.04-.04c-.1-.1-.19-.17-.35-.17h0Z"/>
    </g>
    <g>
      <path d="M101.76,85.29c-.24,0-.37-.15-.4-.3-.02-.14.05-.32.26-.4h.02c.28,0,.39.13.42.25.04.17-.06.35-.25.44h-.05Z"/>
      <path d="M101.67,84.66c.4,0,.42.39.1.55,0,0-.01,0-.02,0-.37,0-.45-.43-.11-.55,0,0,.01,0,.02,0M101.67,84.51h-.03s-.02,0-.02,0h-.02c-.26.1-.34.32-.31.49.03.18.19.36.47.36h.04l.05-.02c.22-.11.34-.33.29-.53-.04-.15-.17-.31-.46-.31h0Z"/>
    </g>
    <g>
      <path d="M102.9,87.38c-.17-.12-.22-.22-.2-.32.03-.16.25-.22.43-.28l.12-.04c.38-.14.65-.43.78-.83.13-.44.05-.94-.22-1.31-.07-.09-.15-.17-.25-.25-.02.94-.11,1.95-1.43,2.21-.07.01-.44.07-.8.07s-.58-.06-.66-.18c-.03-.05-.06-.12-.01-.24.07-.18.39-.18.79-.19.28,0,.6,0,.79-.08.86-.35.8-1.03.75-1.58-.03-.35-.06-.66.19-.75.5.05.87.41,1.01.56.6.66.55,1.5.29,2.08-.3.67-.88,1.11-1.49,1.11h-.08Z"/>
      <path d="M103.19,83.7c.36.04.69.29.93.54,1.05,1.14.12,3.06-1.14,3.06-.02,0-.05,0-.07,0-.38-.32.14-.4.37-.48.93-.34,1.13-1.51.59-2.25-.11-.14-.24-.25-.38-.36-.02,1.01-.05,2.03-1.38,2.29-.08.02-.45.07-.79.07-.37,0-.71-.07-.61-.32.1-.25,1.1-.05,1.54-.23,1.46-.59.41-2.12.94-2.33M103.17,83.54h-.04c-.31.13-.27.48-.24.85.05.55.11,1.18-.7,1.5-.17.07-.49.07-.76.08-.43,0-.77,0-.86.23-.06.14-.02.25.02.31.1.15.33.22.72.22.36,0,.74-.06.82-.07,1.31-.26,1.46-1.21,1.49-2.13.04.04.08.09.12.13.25.35.33.82.2,1.24-.11.37-.37.65-.73.78-.03.01-.07.02-.11.04-.2.06-.45.13-.49.33-.04.18.13.32.19.37l.04.03h.05s.05,0,.08,0c.64,0,1.25-.45,1.56-1.15.33-.76.22-1.59-.31-2.16-.3-.33-.68-.55-1.02-.59h-.04Z"/>
    </g>
    <g>
      <path d="M89.38,88.12c-.97,0-1.26-.22-1.57-1.19-.69-2.15-.69-4.06,0-6.01.2-.57.45-1.27,1.33-1.33h3.56c.94,0,1.44.41,1.44,1.17,0,.25-.09.48-.18.71-.04.11-.08.21-.11.32-.39,1.38-.4,2.63-.02,4.06.03.12.07.23.11.35.17.54.35,1.09-.16,1.59-.24.23-.51.34-.87.34h-3.52ZM89.13,80.14c-.46.06-.59.4-.73.8l-.04.12c-.63,1.69-.64,3.51-.03,5.58.26.89.28.9,1.21.9h3.37c.23,0,.4-.06.49-.18.19-.26.04-.77-.06-1.14l-.03-.12c-.42-1.47-.44-2.89-.05-4.35.04-.13.08-.27.13-.4.06-.16.12-.32.15-.49.04-.21.02-.37-.07-.48-.19-.23-.64-.26-.96-.26-.15,0-.29,0-.42.01-.11,0-.2,0-.29,0h-2.66Z"/>
      <path d="M89.13,79.65h3.56c.72,0,1.36.25,1.37,1.1,0,.35-.19.68-.29,1.01-.4,1.41-.39,2.69-.02,4.1.17.65.55,1.3-.03,1.87-.24.23-.49.32-.82.32,0,0-.01,0-.02,0h-3.49s0,0,0,0c-.94,0-1.2-.2-1.5-1.14-.65-2.03-.71-3.96,0-5.97.23-.65.47-1.23,1.26-1.28M89.53,87.62h3.37c.98,0,.62-.99.46-1.54-.41-1.43-.43-2.86-.05-4.31.08-.3.22-.59.28-.89.15-.72-.5-.83-1.11-.83-.26,0-.52.02-.7.02h-2.66c-.56.07-.67.52-.84.97-.7,1.87-.58,3.75-.03,5.62.27.91.32.96,1.27.96M89.13,79.5h0c-.93.06-1.19.79-1.4,1.38-.69,1.97-.68,3.89,0,6.06.32,1,.64,1.25,1.65,1.25h3.5s0,0,0,0c.4,0,.68-.11.94-.36.55-.53.35-1.13.18-1.66-.04-.12-.08-.23-.11-.35-.37-1.41-.36-2.65.02-4.02.03-.11.07-.21.11-.32.09-.23.18-.47.18-.73,0-.8-.54-1.24-1.52-1.24h-3.56ZM91.79,80.21c.08,0,.18,0,.29,0,.13,0,.27-.01.41-.01.48,0,.77.08.9.23.08.1.1.24.06.42-.03.16-.09.31-.15.48-.05.13-.1.27-.13.41-.38,1.45-.37,2.93.05,4.39l.03.12c.1.34.25.84.08,1.08-.07.1-.22.15-.43.15h-3.37s0,.15,0,.15v-.15q-.88,0-1.13-.85c-.6-2.05-.6-3.86.03-5.53l.05-.12c.16-.45.27-.7.67-.75h2.64Z"/>
    </g>
  </g>
  <g>
    <path d="M58.64,90.98c-.38,0-.81-.04-1.11-.38-.3-.33-.58-1.41-.79-2.32-.83-3.59-.44-7.28,1.08-10.41.04-.08.11-.21.18-.35.16-.3.38-.7.4-.84.05-.25.03-.74.02-1.17,0-.28-.02-.54-.01-.73.02-.46.36-.78.83-.78-.03-.08-.04-.25-.04-.41,0-.34-.02-.69.01-1.01.03-.37.4-.37.52-.37.06,0,.34.01.34.01h.94c.07,0,.17,0,.27-.01.13,0,.27-.02.41-.02.23,0,.56.02.71.21.06.22.06.41.06.6v1.01c.26.01.45.09.58.24.35.37.3,1.1.26,1.68,0,.14-.02.26-.02.38-.01.49.04.59.2.86.06.1.13.23.22.41.17.35.32.7.46,1.08.24-.51.53-1.03,1.01-1.42l-.03-.12c-.02-.53-.05-1.18.34-1.58.22-.22.52-.35.83-.35s.61.12.83.35c.32.33.35.71.35,1.15v.61c.22.12.4.38.56.63.06-.1.12-.2.17-.3l2.04-3.64c.43-.76.43-.77.41-1.28,0-.15-.02-.33-.02-.58h-.04c-.17,0-.31,0-.45-.21,0-.29-.01-.57-.02-.86-.01-.46-.03-.95.04-1.31.17-.86.82-1.44,1.75-1.57.08,0,.17-.01.25-.01h.48s4.42,0,4.42,0c.86,0,1.82.09,2.21,1.1l.13-.05c.16,0,.39,0,.6,0,.53,0,.61.03.65.05.09.07.14.32.16.75,0,.04.03.96-.16,1.11-.04.04-.13.07-.67.07-.18,0-.68-.01-.68-.01-.11.13-.34.17-.54.2.04.3,0,.52-.15.83.05.05.1.15.16.26l.1.19.68,1.36c.08.16.17.33.22.5.07.24.02.49-.14.7-.16.22-.43.35-.68.35-.2,0-.39-.08-.53-.23-.14-.15-.24-.34-.33-.53l-.64-1.29-.1-.21c-.08-.17-.16-.35-.27-.5-.38-.04-.61-.16-.76-.41v2.43c0,1.37.08,1.43.87,2.01.17.13.38.28.62.47l.27.21c.57.44,1.34,1.04,1.55,1.55.08.2.28.84.2,1.14.18.06.23.25.3.49.13.44.31,1.04,1.1,1.34.04.02.1.03.16.04.19.05.42.1.5.26.04.07.04.15,0,.24-.05.12-.2.16-.42.23-.42.13-1.07.33-1.27,1.17-.01.05-.02.11-.03.16-.02.18-.05.38-.26.46.04.31.05.83.07,1.39.03,1.16.06,2.47-.08,3.16-.34,1.6-1.61,1.81-2.82,1.81h-12.57c-.28,0-.6-.01-.89-.24-.24.22-.5.24-.76.24h-3.59c-.1,0-.2,0-.31,0-.12,0-.24,0-.36,0ZM62.02,90.36c.09,0,.18,0,.29.01.12,0,.24.02.36.02.27,0,.44-.04.55-.12.03-.03.06-.07.09-.11,0-.27-.01-.61-.05-1.01h-5.68c.35,1.17.42,1.24.98,1.24.1,0,.2,0,.33,0,.17,0,.36-.01.59-.01h2.54ZM63.62,83.76c0,.41.02.82.04,1.22l.22,4.32c.06,1.04.16,1.08.61,1.08.09,0,.18,0,.29,0,.15,0,.32-.01.52-.01h2.43c.94,0,.95-.12.97-.91,0-.12,0-.26.01-.42,0,0,.13-2.28.16-2.72.05-.85.11-1.71.14-2.56h-5.39ZM71.21,90.36h6.35c.14,0,.29,0,.42-.02,1.42-.24,1.42-1.52,1.41-2.65v-2.04c0-.13,0-.29,0-.46.01-.41.03-.93-.02-1.19-.1-.61-.62-1.12-1.22-1.19-.27-.03-.44-.13-.48-.27-.03-.12.04-.24.22-.36.22-.03.39-.08.57-.12l.15-.04c.36-.25.68-.5.82-.98,0-.03.02-.09.03-.15.02-.15.05-.33.11-.47-.21-.02-.27-.34-.3-.48-.15-.81-.36-.97-.92-1.41l-.52-.4c-.74-.56-1.86-1.41-2.02-2.05-.09-.34-.07-1.19-.06-1.88,0-.21,0-.4,0-.54h-1.3c-.04.69-.03,2,.05,2.55.15,1.14,1.06,1.87,1.78,2.46.51.42.96.78,1.01,1.18.02.21.02.45.01.67v.28s0,6.43,0,6.43c0,.58-.04.78-.43.78-.06,0-.13,0-.22,0-.11,0-.25-.01-.42-.01h-6.32c-.18,0-.36,0-.54,0-.02.93-.06,1.94-.24,2.38.2,0,.4,0,.6,0h1.45ZM59.37,77.11c-.14,0-.29,0-.43.01-.19.06-.93,1.78-1.18,2.46-.92,2.55-1.11,5.44-.53,8.13.02.11.05.22.08.33.05.18.09.37.12.55.04-.05.13-.05.24-.05,0,0,.71,0,.71,0h4.01s.63.01.63.01c.08,0,.16,0,.24,0-.06-.39-.06-.81-.06-1.24-.2,0-.4,0-.6,0h-1.67s-1.39,0-1.39,0c-.79,0-1.18-.09-1.4-.31-.26-.26-.25-.67-.24-1.36v-.38s0-.6,0-.6c0-.38,0-.76,0-1.14.04-.96.59-1.04,1.21-1.04h.12c.57,0,1.14.01,1.7.01.48,0,.96,0,1.44-.01h.28c.07,0,.13,0,.2,0,.03-.28.31-.47.69-.47h.02c0-.46.01-.98.08-1.5.01-.1.04-.22.07-.34.04-.17.08-.33.08-.46.02-.53-.73-2.07-1.03-2.61l-2.55.04h-.87ZM71.43,87.37h5.29v-7.49c-.61-.8-1.39-.97-2.36-.97-.16,0-.32,0-.49.01-1.71.18-3.96,1.2-4.77,2.75.01.06.01.16.01.25v.08c.26.02.48.12.62.28.15.16.22.39.2.66-.01.18-.09.31-.16.43-.06.09-.11.18-.13.29-.13.93-.21,2.64-.21,3.71.2,0,.41,0,.61,0h1.37ZM59.16,83.04c-.4,0-.59.09-.63.3-.09.46-.06,1.75-.04,2.52v.38c.01.38.27.46.67.46h1.18s2.59,0,2.59,0c.07,0,.15,0,.22,0,0-.43-.04-.86-.06-1.29-.04-.62-.08-1.25-.06-1.88-.18-.12-.27-.27-.33-.53l-.54.05h-2.59s-.33,0-.41,0ZM79,82.45c.46.25.6.51.71.73.04.08.08.15.12.21.14-.37.45-.7.89-.94-.43-.27-.51-.39-.69-.63-.04-.06-.09-.13-.16-.22-.2.37-.5.66-.88.86ZM68.8,82.6c-.1,0-.19,0-.27,0h-.16s-4.9,0-4.9,0c-.08.03-.12.08-.18.19.02.19.04.26.21.35h5.66c.06-.03.11-.09.13-.13.04-.08.04-.17.01-.26-.04-.1-.2-.15-.5-.15ZM67.55,81l.11.06c.16.16.16.63.15.97l.16-.03h.3c.08,0,.15,0,.23,0,.03-1.32-.41-3.22-1.2-4.07-.17-.18-.62-.51-.91-.51l-.11.02c-1.95.28-2.09,3.69-2.1,4.56h.59v-.05c-.02-.37-.02-.72.1-.83.06-.05.12-.08.19-.08.16,0,.28.15.32.22v.75h.59s0-.06,0-.09c-.01-.27-.03-.63.12-.79.05-.05.12-.08.19-.08.07,0,.14.02.23.06.11.16.11.48.1.82v.08s.57,0,.57,0v-.08c-.02-.37-.02-.69.11-.81.08-.07.15-.11.22-.11h.03ZM71.53,73.64c-.1,0-.21,0-.31,0-.13.02-.28.36-.37.54-.03.07-.06.13-.08.17l-1.83,3.28-.19.32c-.12.2-.24.41-.35.62.3.46.56,1.49.61,2.17.5-.58,1.1-1.09,1.8-1.51.95-.58,2.18-.91,3.45-.91.26,0,.52.01.78.04-.89-.93-1.15-1.63-1.15-2.98v-1.74s-1.76,0-1.76,0h-.6ZM66.28,75.79c-.54.09-.53.6-.52,1.09v.05c.2-.07.39-.11.63-.11h.02c.15.01.31.04.47.1,0-.37-.01-.83-.22-1.04-.07-.07-.17-.11-.28-.11-.03,0-.06,0-.1,0ZM62.69,76.5c0-.22,0-1.22,0-1.22v-.13c.02-.29,0-.51-.2-.53-.13-.01-.27-.02-.42-.02h-.77s-1.44,0-1.44,0c-.24,0-.47,0-.71.01-.22.08-.18,1.01-.15,1.51,0,.15.01.28.02.38h3.68ZM77.44,72.18c.39.57.79,1.34,1.28,2.41.1.23.16.36.29.36.05,0,.12-.02.19-.05l.06-.17c-.06-.12-.15-.29-.23-.45l-.75-1.5c-.33-.66-.3-.74-.19-.89.05-.07.11-.15.12-.43l-.06-.04v.08c-.43.06-1.08.27-1.3.52.04.13.12.16.29.16h.26s.04,0,.04,0ZM61.67,74.01c.06,0,.12,0,.18,0v-1.18h-1.34c-.23,0-.46,0-.69,0,0,.19,0,.97,0,1.17h1.85ZM75.77,73.04c0-.09,0-.18,0-.28,0-.22-.02-.45,0-.65h-4.48v.26c0,.22,0,.45,0,.67h4.49ZM70.92,71.52h.48s3.85-.01,3.85-.01h.62c.17.01.34,0,.47-.02.13-.02.33-.12.53-.22.14-.07.28-.14.4-.18.33-.12.67-.18,1-.23.22-.04.44-.08.66-.13-.07-1.45-.22-1.94-1.85-1.94h-3.95c-.14,0-.68-.01-.82-.01s-.27,0-.4.01c-1.07.19-1.15.94-1.15,1.91v.82c.06,0,.11,0,.17,0ZM80.23,70.58v-.21c0-.19,0-.38,0-.56,0,0-.71,0-.75,0v.78h.75Z"/>
    <path d="M72.19,68.23c.16,0,.32.01.48.01h3.9c.17,0,.35,0,.53,0,.86,0,1.77.08,2.14,1.05h0c.11,0,.48-.01.8-.01.29,0,.56,0,.6.04.17.12.17,1.6,0,1.74-.06.05-.34.06-.63.06s-.58-.01-.68-.01c-.15.15-.38.18-.58.21,0,.34-.03.56-.17.86.07.18.18.34.27.52l.6,1.21c.1.2.23.42.29.64.14.5-.3.95-.75.95-.17,0-.34-.06-.48-.21-.17-.17-.27-.43-.37-.64l-.58-1.16c-.11-.23-.22-.51-.37-.72v-.02c-.54-.06-.78-.23-.9-.77-.01.16,0,.33,0,.49v2.36c0,1.72.16,1.46,1.52,2.54.53.42,1.56,1.15,1.8,1.73.1.24.28.89.18,1.12-.08.07-.14.1-.19.1-.16,0-.22-.26-.25-.42-.17-.91-.43-1.04-1.11-1.58-.62-.49-2.17-1.55-2.36-2.28-.12-.46-.04-1.93-.04-2.47h-1.44c-.04.64-.04,2.03.04,2.64.26,1.97,2.68,2.72,2.79,3.64.04.3,0,.64,0,.94v6.43c0,.6-.05.7-.36.7-.15,0-.35-.02-.64-.02h-5.1c-.41,0-.81,0-1.22,0-.2,0-.4,0-.61,0-.01.56-.03,2.15-.28,2.53.24,0,.48-.01.73-.01.48,0,.97.01,1.45.01h5.85c.16,0,.33,0,.5,0,.15,0,.29,0,.44-.03,1.5-.25,1.48-1.65,1.48-2.78v-1.99c0-.43.05-1.28,0-1.67-.1-.63-.65-1.18-1.29-1.26-.4-.05-.59-.25-.22-.5.24-.02.46-.09.69-.15.41-.28.73-.54.87-1.03.04-.15.06-.77.3-.77.01,0,.02,0,.03,0,.36.07.12,1.35,1.4,1.83.21.08.75.11.61.45-.11.27-1.38.13-1.7,1.41-.05.21,0,.48-.24.57-.03,1.15.15,3.58-.06,4.6-.32,1.51-1.48,1.75-2.75,1.75,0,0-.01,0-.02,0h-12.15s0,0,0,0c-.14,0-.27,0-.39,0-.32,0-.62-.03-.9-.27-.23.24-.47.27-.75.27-.08,0-.16,0-.24,0h-3.35c-.21,0-.44.02-.67.02-.39,0-.78-.05-1.05-.35-.33-.37-.66-1.8-.78-2.32-.8-3.47-.47-7.11,1.08-10.32.13-.27.55-1,.6-1.21.08-.43-.01-1.41,0-1.91.02-.43.34-.71.76-.71.01,0,.03,0,.04,0,0-.48-.03-1.02,0-1.5.02-.26.22-.3.44-.3.12,0,.24.01.34.01h.94c.17,0,.43-.03.68-.03.28,0,.54.04.65.18.06.23.04.46.04.7v.94s.02,0,.03,0c1.1,0,.81,1.44.79,2.22-.02.71.11.66.42,1.3.2.41.36.81.52,1.24.26-.58.56-1.15,1.06-1.56-.02-.54-.1-1.29.31-1.71.21-.22.5-.32.78-.32s.57.11.78.33c.31.31.33.68.33,1.1v.61c.26.19.46.5.64.77.13-.18.23-.4.34-.59l1.94-3.45c.58-1.01.4-.74.4-1.98-.23-.01-.36.03-.51-.18.03-.63-.08-1.53.04-2.12.17-.86.83-1.39,1.69-1.51.08,0,.16-.01.24-.01M70.93,71.6c.16,0,.32-.01.48-.01h3.85c.18,0,.41.01.63.01.18,0,.35,0,.48-.03.23-.04.66-.3.94-.4.54-.19,1.1-.22,1.65-.36-.02-1.57-.2-2.09-1.87-2.09h-3.95c-.27,0-.54-.01-.82-.01-.14,0-.28,0-.41.01-1.13.2-1.22,1.03-1.22,1.98v.89c.08,0,.16.01.24.01M79.4,70.65h.91c0-.31-.02-.62,0-.92-.06,0-.13,0-.19,0-.17,0-.35,0-.52,0-.06,0-.13,0-.19,0v.92M77.14,72.27c.08,0,.17,0,.26,0,.01,0,.02,0,.03,0,.41.67.87,1.63,1.21,2.37.1.23.18.41.36.41.06,0,.13-.02.22-.06l.1-.2c-.07-.24-.22-.47-.33-.7l-.66-1.32c-.54-1.09-.07-.49-.06-1.31-.04,0-.09,0-.13,0-.03,0-.05,0-.08,0-.36.05-1.04.26-1.28.54.02.25.17.29.35.29M75.85,72.04h-4.64c0,.36-.02.72,0,1.07h4.64c0-.33-.05-.77,0-1.07M60.48,72.76c-.25,0-.49,0-.74,0,0,.44,0,.88,0,1.32h1.45c.16,0,.31,0,.47,0,.08,0,.17,0,.25,0v-1.32c-.48,0-.96,0-1.44,0M68.95,80.94c.53-.65,1.18-1.2,1.9-1.64.99-.61,2.22-.9,3.41-.9.33,0,.66.02.98.07-.98-.98-1.28-1.66-1.28-3.08v-1.82s-1.83,0-1.83,0c-.2,0-.4,0-.6,0-.1,0-.21,0-.31,0-.22.04-.41.57-.51.75l-1.84,3.27c-.18.31-.38.62-.54.95.33.56.6,1.74.61,2.4M61.29,74.54h0c-.48,0-.96-.01-1.44-.01-.23,0-.47,0-.7.01-.39.14-.19,1.6-.21,2.04h3.83c0-.43,0-.86,0-1.3,0-.24.08-.7-.27-.74-.13-.01-.28-.02-.43-.02-.26,0-.54.01-.78.01M65.68,77.05c.25-.09.45-.14.71-.14,0,0,.01,0,.02,0,.2.02.37.05.54.14,0-.41.05-1.34-.58-1.34-.04,0-.07,0-.11,0-.67.11-.59.8-.58,1.33M57.7,88.61c.23,0,.46,0,.68,0h4.01c.21,0,.42.01.63.01.11,0,.22,0,.32-.01-.07-.45-.07-.93-.07-1.38-.23,0-.45,0-.68,0-.47,0-.95,0-1.42,0-.08,0-.16,0-.24,0h-1.39s0,0,0,0c-1.73,0-1.56-.41-1.55-1.97,0-.58-.02-1.16,0-1.74.03-.88.5-.97,1.14-.97.04,0,.08,0,.12,0,.57,0,1.13.01,1.7.01.48,0,.96,0,1.44-.01.09,0,.19,0,.28,0,.06,0,.12,0,.18,0,.11-.33.38-.47.7-.47.03,0,.06,0,.1,0,0-.53,0-1.04.08-1.57.03-.24.14-.59.15-.81.02-.57-.77-2.15-1.03-2.65h-2.61c-.28,0-.57-.01-.86-.01-.15,0-.29,0-.44.01-.26.02-1.12,2.16-1.25,2.51-.94,2.59-1.12,5.48-.53,8.17.06.29.15.58.2.87.11,0,.23,0,.34,0M64.1,82.08c.1,0,.2,0,.3,0,.15,0,.3,0,.45,0,0-.19-.06-.78.08-.91.04-.04.09-.06.13-.06.1,0,.2.09.26.18v.78h.73c0-.25-.1-.96.23-.96.05,0,.12.02.19.06.1.15.05.7.05.91h.73c0-.2-.06-.78.08-.91.07-.06.12-.09.17-.09.27,0,.22.92.22,1,.18,0,.36,0,.54,0,.1,0,.2,0,.3,0,.05-1.25-.35-3.27-1.22-4.2-.18-.19-.64-.53-.97-.53-.04,0-.09,0-.12.02-1.85.26-2.17,3.28-2.16,4.71M69.37,87.45c.23,0,.45,0,.68,0,.46,0,.91,0,1.37,0h5.38v-7.57c-.65-.88-1.46-1.05-2.44-1.05-.16,0-.32,0-.49.01-1.71.18-4,1.19-4.83,2.79,0,.15,0,.29,0,.44.52.02.86.31.82.86-.02.3-.25.45-.28.71-.14,1-.22,2.8-.21,3.8M79.86,83.53c.13-.49.56-.86,1.01-1.08-.68-.42-.59-.47-1.01-.99-.22.46-.58.79-1.04.99.83.4.73.82,1.04,1.08M63.47,83.22h5.69c.2-.06.29-.29.22-.49-.06-.17-.32-.2-.57-.2-.17,0-.34.02-.44.02h-4.9c-.13.04-.18.11-.24.23,0,.24.03.34.24.45M59.16,86.77c.12,0,.24,0,.34,0,.28,0,.56,0,.84,0,.13,0,.26,0,.39,0h1.65c.18,0,.36,0,.55,0,.1,0,.2,0,.29,0-.02-1.08-.15-2.16-.12-3.24-.19-.17-.28-.3-.33-.55-.2,0-.4,0-.6,0-.4,0-.8,0-1.21,0h-1.39c-.11,0-.26-.01-.41-.01-.31,0-.64.05-.7.37-.1.56-.04,2.28-.03,2.91,0,.47.37.53.74.53M69.1,83.68h-5.07s-.01,0-.02,0c-.1,0-.19,0-.29,0-.05,0-.11,0-.16,0,0,.54.03,1.08.06,1.62l.2,4.01c.06,1.01.15,1.15.68,1.15.2,0,.47-.02.82-.02h2.25c.06,0,.12,0,.18,0,1.17,0,1-.25,1.05-1.39l.08-1.38c.07-1.32.18-2.65.22-3.98M58.57,90.45c.22,0,.51-.02.91-.02h2.54c.18,0,.42.03.65.03s.45-.03.6-.14c.04-.04.08-.08.11-.13.02-.37,0-.76-.04-1.13h-5.84c.37,1.23.44,1.39,1.08,1.39M72.19,68.08c-.09,0-.17,0-.26.01-.97.13-1.64.74-1.82,1.63-.07.38-.06.86-.04,1.33,0,.29.02.57,0,.81v.05s.03.04.03.04c.16.22.32.23.48.23,0,.22.01.38.02.51q.02.5-.4,1.24l-1.94,3.45c-.03.06-.07.13-.1.19-.03.06-.07.13-.11.19-.14-.21-.3-.41-.49-.57v-.53c0-.45-.03-.85-.37-1.2-.24-.24-.55-.37-.89-.37s-.65.13-.88.37c-.42.42-.39,1.09-.37,1.64v.11c-.4.35-.67.79-.89,1.23-.12-.32-.25-.62-.4-.92-.09-.18-.16-.31-.22-.42-.15-.26-.2-.35-.19-.82,0-.11.01-.24.02-.38.04-.6.09-1.34-.28-1.74-.14-.15-.33-.24-.57-.26v-.79s0-.14,0-.14c0-.19,0-.39-.05-.6v-.03s-.03-.02-.03-.02c-.17-.22-.52-.24-.77-.24-.14,0-.29,0-.42.02-.1,0-.19.01-.27.01h-.94s-.1,0-.15,0c-.06,0-.13,0-.19,0-.37,0-.57.15-.59.44-.03.33-.02.68-.01,1.03,0,.11,0,.23,0,.34-.45.05-.78.39-.8.85,0,.19,0,.46.01.74.01.42.03.9-.02,1.15-.02.12-.25.54-.4.82-.08.14-.14.27-.18.35-1.53,3.15-1.92,6.85-1.09,10.42v.04c.22.91.5,2,.81,2.35.32.36.79.4,1.17.4.12,0,.24,0,.36,0,.11,0,.21,0,.31,0h3.35s.11,0,.11,0h.13c.25,0,.51-.02.76-.22.3.21.61.23.89.23.06,0,.13,0,.2,0,.07,0,.13,0,.2,0h12.15c1.26,0,2.57-.22,2.91-1.87.15-.7.11-2.01.08-3.18-.01-.51-.03-1-.02-1.36.17-.12.2-.32.22-.47,0-.05.01-.1.02-.15.2-.8.79-.98,1.22-1.12.24-.07.41-.12.47-.27.06-.14.03-.24,0-.31-.09-.19-.35-.25-.55-.3-.06-.01-.11-.03-.15-.04-.76-.28-.93-.86-1.05-1.29-.07-.24-.13-.44-.29-.52.05-.36-.16-.99-.22-1.11-.22-.53-1-1.14-1.58-1.58-.1-.08-.19-.15-.27-.21-.25-.2-.45-.35-.63-.48-.78-.57-.84-.62-.83-1.95v-2.21c.15.15.35.23.64.27.09.14.17.3.23.45.03.07.06.14.1.21l.58,1.16.06.13c.09.19.19.4.34.55.16.17.36.26.59.26.28,0,.56-.15.74-.38.17-.22.22-.5.15-.76-.05-.18-.14-.35-.23-.52l-.08-.15-.6-1.21c-.03-.07-.07-.13-.11-.2-.05-.08-.09-.17-.13-.25.11-.25.15-.45.16-.74.18-.03.35-.08.49-.19.03,0,.07,0,.12,0,.14,0,.33,0,.51,0,.56,0,.66-.04.72-.09.2-.16.19-.94.18-1.17-.02-.69-.14-.77-.19-.81-.06-.04-.14-.07-.69-.07-.21,0-.43,0-.59,0-.04,0-.08,0-.12,0-.43-.97-1.38-1.05-2.24-1.05h-.27s-.25,0-.25,0h-3.9c-.07,0-.15,0-.23,0-.08,0-.17,0-.25,0h0ZM70.83,71.44v-.75c0-.93.08-1.65,1.1-1.83.12,0,.25-.01.39-.01s.27,0,.41,0c.14,0,.27,0,.41,0h3.95c1.49,0,1.69.37,1.72,1.82-.18.04-.36.07-.54.1-.33.06-.68.12-1.01.24-.12.04-.26.11-.4.18-.18.09-.39.19-.51.21-.11.02-.25.03-.46.03-.11,0-.23,0-.34,0-.1,0-.2,0-.28,0h-3.85c-.08,0-.16,0-.24,0-.08,0-.16,0-.24,0-.03,0-.06,0-.09,0h0ZM79.55,69.88s.03,0,.04,0c.09,0,.17,0,.26,0,.09,0,.18,0,.27,0,.01,0,.02,0,.03,0,0,.16,0,.32,0,.48,0,.05,0,.09,0,.14h-.6v-.63h0ZM76.95,72.03c.24-.21.8-.39,1.14-.44.01,0,.02,0,.03,0-.02.16-.06.22-.1.27-.15.2-.13.34.18.97l.66,1.32c.03.06.06.12.09.18.08.15.16.3.21.44l-.05.1c-.06.02-.09.03-.11.03-.07,0-.12-.08-.22-.32-.49-1.07-.89-1.86-1.22-2.39l-.04-.07h-.08s0,0,0,0h-.04s-.1,0-.14,0c-.04,0-.08,0-.12,0-.12,0-.17-.02-.19-.09h0ZM71.36,72.19h4.32c-.01.18,0,.38,0,.58,0,.07,0,.13,0,.2h-4.34c0-.2,0-.39,0-.59,0-.06,0-.12,0-.19h0ZM60.48,72.91h.74s.55,0,.55,0v1.03s-.07,0-.1,0c-.08,0-.16,0-.24,0-.08,0-.16,0-.23,0h-1.3c0-.18,0-.36,0-.54,0-.16,0-.32,0-.48.2,0,.39,0,.59,0h0ZM68.5,78.54c.09-.18.2-.37.31-.54.06-.11.13-.22.19-.33l1.84-3.28s.05-.1.09-.17c.06-.12.22-.48.32-.5.08,0,.18,0,.28,0s.2,0,.3,0c.1,0,.2,0,.3,0h1.68s0,1.67,0,1.67c0,1.3.24,2.01,1.04,2.89-.19-.02-.39-.02-.59-.02-1.28,0-2.52.33-3.49.92-.65.39-1.22.86-1.7,1.39-.08-.65-.3-1.52-.57-2.03h0ZM74.55,73.73h1.15c0,.13,0,.29,0,.46-.02.69-.03,1.54.06,1.9.17.67,1.3,1.52,2.05,2.09.14.1.26.2.36.27l.16.12c.56.44.75.58.89,1.37.02.12.08.42.28.51-.04.13-.06.29-.08.41,0,.06-.01.11-.02.14-.13.45-.42.68-.79.93l-.13.03c-.18.04-.34.09-.52.1h-.04s-.03.03-.03.03c-.25.17-.28.34-.25.44.04.17.23.29.54.33.57.07,1.07.56,1.16,1.13.04.26.03.77.02,1.18,0,.18,0,.34,0,.47v1.99s0,.05,0,.05c0,1.1,0,2.35-1.35,2.58-.11.02-.24.03-.41.03-.09,0-.18,0-.27,0-.08,0-.16,0-.23,0h-5.85c-.24,0-.48,0-.72,0-.24,0-.49,0-.73,0-.17,0-.33,0-.5,0,.14-.48.19-1.37.2-2.23.15,0,.31,0,.46,0h.61s.61,0,.61,0h5.1c.16,0,.3,0,.41.01.09,0,.16,0,.22,0,.1,0,.32,0,.43-.21.07-.13.08-.33.08-.64v-6.43c0-.09,0-.18,0-.28,0-.23.01-.47-.01-.68-.05-.43-.51-.8-1.03-1.23-.72-.58-1.61-1.3-1.75-2.41-.07-.53-.09-1.77-.05-2.47h0ZM61.29,74.69h0c.12,0,.25,0,.38,0,.13,0,.27,0,.41,0,.15,0,.29,0,.42.02.12.01.15.11.14.45,0,.05,0,.1,0,.14,0,.18,0,.36,0,.55,0,.2,0,.4,0,.6h-3.53c0-.09,0-.2-.01-.31-.02-.33-.07-1.31.11-1.43.22,0,.44-.01.66-.01.24,0,.48,0,.72,0,.24,0,.48,0,.72,0h0ZM65.83,76.84c0-.54.03-.9.46-.97.03,0,.06,0,.09,0,.1,0,.17.03.23.09.17.18.2.58.2.88-.13-.04-.26-.06-.38-.07h0c-.24,0-.42.03-.59.08h0ZM59.02,77.19c.1,0,.23,0,.35,0,.14,0,.29,0,.43,0,.14,0,.29,0,.43,0h2.52c.42.79.99,2.05.98,2.5,0,.12-.04.29-.08.45-.03.12-.06.25-.07.35-.07.5-.08,1-.08,1.43-.34.02-.62.18-.75.46-.03,0-.06,0-.09,0-.06,0-.12,0-.18,0h-.11c-.48.01-.96.02-1.44.02-.57,0-1.14,0-1.7-.01h-.12c-.63,0-1.25.09-1.29,1.11-.01.38-.01.77,0,1.14,0,.2,0,.4,0,.6,0,.13,0,.26,0,.38,0,.68-.02,1.13.26,1.41.23.24.64.33,1.44.33h1.4s.24,0,.24,0c.24,0,.47,0,.71,0,.24,0,.48,0,.71,0,.18,0,.35,0,.53,0,0,.37,0,.74.05,1.09-.05,0-.1,0-.15,0-.11,0-.21,0-.32,0-.1,0-.21,0-.31,0h-4.01c-.11,0-.23,0-.34,0-.11,0-.23,0-.34,0-.07,0-.14,0-.21,0-.03-.15-.06-.29-.1-.43-.03-.11-.06-.22-.08-.33-.58-2.68-.39-5.55.53-8.09.23-.63.94-2.29,1.15-2.42.01,0,.02,0,.04,0h0ZM64.25,81.92c.01-.84.18-4.15,2.03-4.41.05-.01.07-.02.1-.02.25,0,.68.29.86.49.76.82,1.19,2.65,1.18,3.95-.05,0-.1,0-.16,0-.1,0-.21,0-.31,0h-.08c0-.5-.05-.79-.17-.92-.05-.06-.12-.09-.2-.09-.09,0-.18.04-.27.13-.15.14-.15.46-.14.87,0,0,0,0,0,0h-.42c.01-.37.02-.69-.08-.84l-.02-.03-.04-.02c-.1-.05-.18-.07-.26-.07-.1,0-.18.04-.25.1-.18.18-.16.57-.14.85,0,0,0,0,0,.01h-.42v-.68l-.03-.04c-.05-.08-.19-.25-.39-.25-.09,0-.17.03-.24.1-.14.14-.15.47-.13.87h-.29s-.1,0-.15,0h0ZM69.19,81.67c.81-1.5,3.02-2.5,4.7-2.67.16,0,.32-.01.47-.01.96,0,1.69.16,2.29.95v7.37h-5.22c-.24,0-.46,0-.69,0-.23,0-.46,0-.69,0-.18,0-.36,0-.53,0,0-1.07.08-2.72.21-3.63.01-.09.06-.17.12-.26.07-.12.16-.27.17-.46.02-.29-.06-.54-.22-.71-.14-.16-.35-.26-.6-.29h0c0-.1,0-.18,0-.27h0ZM79.15,82.45c.31-.18.55-.42.74-.72.03.05.06.09.09.12.16.23.25.35.6.58-.35.21-.61.48-.76.79-.01-.03-.03-.05-.04-.08-.11-.2-.24-.45-.63-.69h0ZM63.49,82.69h4.87s.1,0,.17,0c.08,0,.18,0,.27,0,.37,0,.42.09.43.1.02.07.02.14-.01.2-.02.04-.05.07-.09.09h-5.63c-.11-.06-.12-.1-.13-.26.04-.07.07-.09.12-.11h0ZM59.16,86.62c-.43,0-.58-.1-.59-.38v-.38c-.03-.77-.06-2.05.03-2.51.02-.12.11-.24.55-.24.08,0,.16,0,.23,0,.07,0,.13,0,.18,0h1.36s.63,0,.63,0h.6c.16,0,.32,0,.49,0,.06.19.14.33.3.47-.01.61.03,1.22.06,1.82.02.4.05.81.06,1.21-.05,0-.09,0-.14,0h-.27s-.27,0-.27,0h-1.65c-.13,0-.26,0-.39,0h-.49s-.35,0-.35,0c-.05,0-.11,0-.16,0-.06,0-.12,0-.18,0h0ZM64.02,83.83h1.08s3.84,0,3.84,0c-.03.83-.08,1.67-.13,2.49-.03.44-.06.89-.08,1.33l-.08,1.38c0,.16-.01.29-.01.42-.02.77-.02.83-.89.83h-.17s-2.26,0-2.26,0c-.2,0-.37,0-.52.01-.11,0-.21,0-.29,0-.39,0-.48,0-.53-1.01l-.2-4.01-.02-.3c-.02-.38-.04-.77-.04-1.15,0,0,0,0,.01,0h.15s.14,0,.14,0h.02ZM57.7,89.21h5.51c.03.35.04.65.03.93-.02.03-.04.05-.07.08-.08.06-.25.09-.49.09-.12,0-.24,0-.36-.02-.11,0-.21-.01-.29-.01h-2.54c-.23,0-.42,0-.59.01-.12,0-.23,0-.32,0-.48,0-.55-.03-.87-1.09h0Z"/>
  </g>
  <path d="M44.34,74.97c.45-.02.32.7.3,1.02-.05.05-.09.08-.14.12-.44.06-.29-.76-.29-1.02.04-.05.08-.09.13-.13Z"/>
  <path d="M43.6,74.97c.09.01.13.06.2.13.02.3.11.87-.2,1.02-.38-.06-.28-.82-.22-1.05.06-.07.12-.08.22-.1Z"/>
  <path d="M45.18,74.97c.59-.02.31,1.05.19,1.15-.58.02-.3-1.05-.19-1.15Z"/>
  <path d="M46.15,74.97c.33.02.2.79.2,1.02-.06.07-.11.1-.2.12-.08-.01-.18-.03-.21-.11-.07-.18-.17-.95.21-1.03Z"/>
  <path d="M59.95,88.85c.25-.01,1.65-.03,1.85.02.22.06.16.26,0,.35h-1.17c-.21,0-.49.03-.69-.02-.19-.05-.13-.29.02-.35Z"/>
  <path d="M60.74,85.74c.74-.1,1.96.59,1.37,1.37-.23.31-.62.47-.99.52-.8.14-2.01-.57-1.41-1.37.24-.32.65-.46,1.03-.52ZM60.79,86.11c-.36.04-.73.18-.88.54.08.5.68.65,1.12.62.25-.03.58-.14.74-.35.4-.5-.56-.88-.99-.81Z"/>
</svg>