<?xml version="1.0" encoding="UTF-8"?>
<svg id="pictos" xmlns="http://www.w3.org/2000/svg" viewBox="0 0 128 128">
  <defs>
    <style>
      .cls-1 {
        stroke-linecap: round;
      }

      .cls-1, .cls-2, .cls-3 {
        stroke-miterlimit: 10;
      }

      .cls-1, .cls-2, .cls-3, .cls-4 {
        stroke: #000;
      }

      .cls-1, .cls-2, .cls-4 {
        fill: #fff;
      }

      .cls-1, .cls-4 {
        stroke-width: 1.95px;
      }

      .cls-2 {
        stroke-width: 1px;
      }

      .cls-3 {
        fill: none;
        stroke-width: .97px;
      }

      .cls-4 {
        stroke-linejoin: round;
      }
    </style>
  </defs>
  <path d="M114,14.05v100H48.67V14.05h65.33M116,12.05H46.67v104h69.33V12.05h0Z"/>
  <g>
    <g>
      <line class="cls-3" x1="46.67" y1="43.23" x2="116" y2="43.23"/>
      <line class="cls-3" x1="46.67" y1="45.94" x2="116" y2="45.94"/>
    </g>
    <g>
      <line class="cls-3" x1="46.67" y1="82.17" x2="116" y2="82.17"/>
      <line class="cls-3" x1="46.67" y1="84.88" x2="116" y2="84.88"/>
    </g>
  </g>
  <g>
    <g>
      <path class="cls-2" d="M102.69,82.17h-11.4c-2.01,0-3.68-1.57-3.8-3.58l-.82-13.9h20.63l-.82,13.9c-.12,2.01-1.78,3.58-3.8,3.58Z"/>
      <path class="cls-2" d="M87.04,60.92h19.93c1.35,0,2.45,1.1,2.45,2.45v1.33h-24.84v-1.33c0-1.35,1.1-2.45,2.45-2.45Z"/>
      <rect class="cls-2" x="93.07" y="67.45" width="7.84" height="3.2" rx="1.15" ry="1.15"/>
    </g>
    <g>
      <path class="cls-2" d="M71.36,82.17h-11.4c-2.01,0-3.68-1.57-3.8-3.58l-.82-13.9h20.63l-.82,13.9c-.12,2.01-1.78,3.58-3.8,3.58Z"/>
      <path class="cls-2" d="M55.7,60.92h19.93c1.35,0,2.45,1.1,2.45,2.45v1.33h-24.84v-1.33c0-1.35,1.1-2.45,2.45-2.45Z"/>
      <rect class="cls-2" x="61.74" y="67.45" width="7.84" height="3.2" rx="1.15" ry="1.15"/>
    </g>
  </g>
  <g>
    <g>
      <path class="cls-2" d="M102.72,43.23h-11.4c-2.01,0-3.68-1.57-3.8-3.58l-.82-13.9h20.63l-.82,13.9c-.12,2.01-1.78,3.58-3.8,3.58Z"/>
      <path class="cls-2" d="M87.06,21.98h19.93c1.35,0,2.45,1.1,2.45,2.45v1.33h-24.84v-1.33c0-1.35,1.1-2.45,2.45-2.45Z"/>
      <rect class="cls-2" x="93.1" y="28.51" width="7.84" height="3.2" rx="1.15" ry="1.15"/>
    </g>
    <g>
      <path class="cls-2" d="M71.38,43.23h-11.4c-2.01,0-3.68-1.57-3.8-3.58l-.82-13.9h20.63l-.82,13.9c-.12,2.01-1.78,3.58-3.8,3.58Z"/>
      <path class="cls-2" d="M55.73,21.98h19.93c1.35,0,2.45,1.1,2.45,2.45v1.33h-24.84v-1.33c0-1.35,1.1-2.45,2.45-2.45Z"/>
      <rect class="cls-2" x="61.77" y="28.51" width="7.84" height="3.2" rx="1.15" ry="1.15"/>
    </g>
  </g>
  <g>
    <ellipse class="cls-4" cx="29.95" cy="29.87" rx="6.63" ry="6.65"/>
    <path class="cls-4" d="M35.02,53.19l9.89,4.09,9.09-1.69c1.54-.29,2.99.85,3.08,2.42h0c.07,1.22-.71,2.33-1.89,2.67l-11.47,3.28-8.74-2.82"/>
    <path class="cls-1" d="M14.52,115.34l4.05-20.35,2.05-22.3-.23-24.52c-.13-2.09,1-4.06,2.87-4.99h0c.96-.48,2.06-.65,3.12-.49l5.78.89,14.09,2.79c1.44.28,2.93.14,4.28-.42l11.62-4.81c1.66-.69,3.56.21,4.08,1.94h0c.43,1.43-.24,2.97-1.59,3.62l-15.36,7.45h-14.27l5.96,60.62-5.89.17-5.7-35.76-3.91,18.92-5.12,17.24h-5.83Z"/>
  </g>
</svg>