<?xml version="1.0" encoding="UTF-8"?>
<svg id="pictos" xmlns="http://www.w3.org/2000/svg" viewBox="0 0 128 128">
  <defs>
    <style>
      .cls-1 {
        stroke-linecap: round;
      }

      .cls-1, .cls-2, .cls-3 {
        stroke: #000;
      }

      .cls-1, .cls-4, .cls-3 {
        fill: #fff;
      }

      .cls-1, .cls-3 {
        stroke-linejoin: round;
        stroke-width: 2px;
      }

      .cls-2 {
        stroke-miterlimit: 10;
        stroke-width: .5px;
      }
    </style>
  </defs>
  <g>
    <path class="cls-2" d="M96.3,67.42c.84.12.15,1.86.03,2.43-.13.62-.24,1.25-.39,1.87.43.48.92,1,1.42,1.41.51-.28.95-.7,1.44-1.02.02-.93.14-1.86.23-2.78.06-.63.08-2.14,1.07-1.02,1.26,1.43,1.92,3.34,1.78,5.24-.22,2.86-3.03,2.13-3.42,7.48h6.01c.44-.85.83-1.73,1.26-2.59.64-1.3,1.18-1.65.66-3.09-1.42-3.92,3.81-6.28,4.45-5.35.07.49-1.32,2.98-1.59,3.61.43.38.87.76,1.25,1.19.33-.09.65-.21.97-.31.88-1.32,1.62-5.55,2.83-1.68.64,2.05-.51,4.54-2.65,5.08-.33.08-.67.09-1,.2-.68.76-1.23,2.08-1.87,2.94,1.41,0,1.2-.06,1.68,1.17l3.44,8.67c.48,1.2,1,2.38,1.44,3.59.18.49-.08.64-.51.66-1.29.04-2.88.04-4.18,0-.73-.02-.78-.83-1.01-1.43l-.87-2.33c-.03,2.75-.35,5.51-.55,8.26-.07,1.05-.36,7.62-.8,8.28-.55.83-2.65.53-3.66.53h-29.63c-1.12,0-2.24.02-3.36,0-.86-.02-1.3-.38-1.45-1.26-.06-1.16-.19-2.32-.28-3.48l-.84-10.66c-.04-.56-.13-1.12-.14-1.68-.22.69-1.09,3.56-1.27,3.68-.66.16-4.77.12-4.97.02-.15-.08-.19-.28-.23-.43.2-.66.63-1.59.9-2.24l3.77-9.13c.22-.55.6-1.7.93-2.14.44-.09.94-.05,1.39-.08-.5-1.07-1.55-1.81-.51-2.6-.11-.22-.22-.44-.33-.66-.87.43-3.18,1.81-3.81,1.94l-.02-.06h-.03c-.4-.46-.66-1.08-.95-1.62l-2.09-3.86c-.77-1.37-.58-1.14.72-1.85l3.91-2.17c.38-.21.76-.45,1.16-.6,1.3.33,2.82.58,4.16.87.47.1.98.17,1.43.33.49.52.73,1.24,1.2,1.79h4.16c1.6,0,1.93.41,2.95-.67,1.12-.07,5.31-.06,5.39.14.13.31.09,2.8-.03,3.16-.23.2-1.81.09-2.2.1-.72.57.02,1.37-.79,1.61.02,1.38,0,2.77,0,4.15,1.37.02,2.75-.05,4.13,0,.25-.88.57-1.74.88-2.6-.23-.26-.47-.51-.68-.79-1.02-1.39-.74-3.29.67-4.3.27-.19,1.64-.94,1.85-.39.21.54-1.32,2.03-1.08,2.71.09.25,1.6,1.05,1.98.9.54-.2,1.68-4.13,2.26-1.27.45,2.25-1,3.38-3.02,3.79-.26.62-.44,1.3-.65,1.94h3.4c.61,0,1.22-.02,1.84,0,.26-1.74.15-4.16-.8-5.67-.39-.61-.93-1.18-1.11-1.89-.52-2.11,1.75-5.55,3.73-6.05ZM78.74,92.98c-.02,1.87,0,3.75,0,5.62,0,2.56.61,3.27-2.3,3.26-.81,0-2.19.23-2.36-.89-.11-.7-.03-1.88-.03-2.64v-5.35c-.61,0-1.21,0-1.82,0-1.04,0-2.11.05-3.15,0-.02,1.19.13,2.41.23,3.6l.55,6.56c.04.44.29,4.23.41,4.34.15.14.35.13.54.13h34.31c.83,0,1.57.31,1.68-.62.08-.69.11-1.39.17-2.08l.72-9.57c.06-.75.17-1.55.14-2.3l-.04-.02.02-.03-.03-.02c-1.68-.05-3.37.04-5.06,0v5.62c0,2.69.68,3.38-2.42,3.37-1.84,0-2.31.29-2.31-1.75v-7.24c-.57-.03-1.16,0-1.73,0h-12.88c-1.56,0-3.13.04-4.68,0ZM68.75,88.85c-.02.63.13,2.69.28,3.29h5.03c1.11-2.4,3.74-2.4,4.69,0h18.8c.24,0,.44.08.53-.18.76-2.26,3.79-2.27,4.69.18h5.2c-.08-1.09.14-2.19.13-3.29-1.45-.02-2.91,0-4.37,0h-34.97ZM66.84,70.38c-.66.3-2.55,1.3-3.05,1.74.31.41.55.9.8,1.35l1.47,2.53c.25.44.49.9.78,1.32.5-.23.99-.53,1.51-.72.35.22.39.4.11.72.21.44.46.86.57,1.33-.15.18-.37.32-.57.45.34.77.86,1.52,1.28,2.25.82,1.42,1.63,2.93,2.43,4.37.42.75.92,1.51,1.27,2.29h5.57c-.49-.98-1.07-1.92-1.6-2.88l-4.01-7.04c-.28-.48-1.72-2.76-1.72-3.15.14-.4,1.14-.88,1.51-1.11-.43-.79-.9-1.56-1.38-2.32-1.64-.45-3.33-.69-4.96-1.13ZM95.76,68.67c-1.15.7-2.02,1.94-2.33,3.25-.47,2.01.75,2.29,1.43,3.89.8,1.89.5,4.15.38,6.14l-.22,3.56c-.05.81-.19,1.7-.08,2.5h2.24c.17-1.89.36-4.09.42-5.99.29-2.68.23-4.81,2.46-6.65.65-.54.87-.7,1-1.56.23-1.57-.29-3.23-1.21-4.51-.09,1.06-.17,2.2-.35,3.25-.22.26-1.84,1.47-2.13,1.61-.32-.17-2.13-1.85-2.22-2.19-.13-.49.69-2.99.62-3.31ZM109.73,70.77c-1.76.55-3.24,2.27-2.63,4.18.34,1.06.53,1.54,0,2.6l-3.35,6.79c-.56,1.12-1.41,2.53-1.8,3.68.63,0,1.27,0,1.91,0,.71-1.29,1.46-2.55,2.18-3.84.78-1.37,3.02-5.48,3.96-6.49.43-.47.94-.46,1.51-.6,2.03-.48,2.57-2.93,1.82-4.63-.28.61-.92,2.22-1.27,2.69-.56.19-1.14.35-1.72.45-.32-.17-1.89-1.53-1.97-1.81-.11-.42,1.4-2.78,1.36-3.03ZM108.33,81.86c-.39.8-.99,1.73-1.47,2.5l.86,2.28c.17.45.36.91.48,1.37,1.15.12.52.66.8,1.53.48,1.5,1.18,3.26,1.77,4.73.68.02,1.36,0,2.05,0h1.56l-3.96-9.99c-.32-.79-.71-1.6-.93-2.43-.37,0-.8.05-1.16,0ZM69.09,81.86c-.44.03-.89,0-1.34,0-.69,1.79-1.45,3.55-2.19,5.32l-2.19,5.33c-.23.58-.49,1.17-.67,1.77h3.54c.48-1.46,1.3-3.64,1.63-5.1.21-.89-.36-1.14.87-1.17.54-1.33,1.04-2.68,1.54-4.02-.13-.22-1.17-2.11-1.2-2.13ZM75.73,74.82c-1.07,0-2.26-.28-3.11.33l2.22,3.84c.39.68.75,1.39,1.18,2.05.59-.05,1.2,0,1.8,0,.98,0,1.97-.02,2.95,0v-4.15c-.77-.06-.47-1.08-.49-1.61-.61-.59-1.15-.47-1.94-.47h-2.6ZM89.07,81.86c-.59,1.05-1.62,4.79-2.02,6.16h5.46c.52,0,1.04.02,1.55,0,.12-1.72.08-4.55.43-6.16-.6-.03-1.22,0-1.82,0h-3.59ZM100.2,91.19c-1.42.02-1.39,1.06-1.4,2.19v7.78s1.87,0,1.87,0c.42,0,.87.04,1.28,0-.04-.81,0-1.62,0-2.43l-.02-4.49c0-.58.09-1.59-.03-2.14-.16-.69-1.06-1.08-1.7-.91ZM76.25,91.19c-1.63.33-1.37,1.68-1.37,2.95v5.41c0,1.84-.21,1.49,1.78,1.48.41,0,.84.03,1.25,0,.04-.45,0-.92,0-1.37v-5.64c0-1.24.23-2.93-1.66-2.84ZM98.45,81.86c-.25,1.26-.48,4.81-.43,6.16.98,0,1.99.05,2.96,0,.26-.55.53-1.09.8-1.63l1.1-2.22c.38-.76.78-1.52,1.11-2.3-.62.02-1.24,0-1.86,0h-3.69ZM82.92,81.86c0,1.04.05,2.04.06,3.06,0,.36-.06.73-.06,1.09.02,1.3.31.97-.6,2h2.44c.08-.28.15-.57.29-.83.49-1.76,1.26-3.6,1.68-5.32h-3.81ZM76.54,81.86c.42,1.21,2.64,4.86,3.4,6.16.41,0,.91.04,1.31-.06v-.03s-.02-.02-.02-.02c-.98-1.06-.5-2.57-.46-3.97.02-.69,0-1.39,0-2.08-1.34-.01-2.92.09-4.22,0ZM63.02,72.46c-.52.33-1.13.68-1.71.9.3.62,2.77,5.27,2.97,5.35l.09-.05c.56-.31,1.15-.67,1.77-.87-.2-.46-2.75-5-3.07-5.32v.02s-.03-.02-.03-.02h0ZM80.88,72.68c-.4.49-.66.72-1.3.67.06,1.37,1.45.37,1.46,2.72.47.03.94,0,1.41,0,.06-.41.11-.74.37-1.08.67-.64,1.52-.49,2.37-.49.02-.61,0-1.22,0-1.82h-4.31ZM88.7,78.76c-.57,1.11-1.13,3.19-1.52,4.41-.51,1.61-1.1,3.21-1.53,4.84h.44c.27-.07.32-.64.39-.88l.65-2.13c.62-1.96,1.45-4.15,1.94-6.1-.12-.05-.24-.1-.37-.13ZM88.29,74.17c-.93.61-1.11,1.99-.5,2.89,1.04,1.55,3.23,1.53,4.22-.17.11-.37.18-.72.2-1.1-.28.51-.67,1.4-1.27,1.58-.71.21-2.8-.56-3.03-1.41-.23-.84.4-1.68.38-1.79ZM70.8,84.98c-.38.89-.85,2.11-1.15,3.03h1.76c.37-.01.73-.01,1.1,0-.55-1.02-1.15-2.01-1.71-3.03ZM81.61,76.89l-.06.04c-.04.63,0,1.26,0,1.89v3.58c0,.65.03,1.3,0,1.95h.56v-7.47c-.16-.01-.32-.02-.49,0ZM106.29,85.37c-.47.88-1.07,1.73-1.47,2.65.35-.01.7-.02,1.06,0,.49.01.99,0,1.48,0-.15-.42-.81-2.44-1.07-2.65ZM81.54,85.1c0,.62-.06,1.23,0,1.85v.03c.15.19.23.49.42.19l.14-.29c.09-.54,0-1.23,0-1.79h-.56ZM74.4,73.35c-.42.05-.3.32-.35.66.32,0,.64,0,.96,0,.33-.02.2-.42.19-.66-.27.01-.53,0-.8,0ZM76.02,73.35c-.02.23-.02.44,0,.66.3,0,.71.06.99,0,0-.22,0-.44,0-.66h-.99ZM77.81,73.35c0,.22,0,.44,0,.66.35,0,.71.02,1.06,0-.05-.22-.09-.44-.14-.66-.28.01-.65.05-.92,0Z"/>
    <path class="cls-2" d="M76.25,92.27c1.23-.08,1.73,1.9.41,2.01-1.35.35-1.86-1.47-.41-2.01ZM76.25,93.06c-.15.3-.07.59.29.51.23-.29.1-.55-.29-.51Z"/>
    <path class="cls-2" d="M100.2,92.27c1.41-.03,1.69,1.69.47,2.01-1.48.29-1.76-1.56-.47-2.01ZM100.37,92.98c-.28.28-.32.51.1.6.27-.21.22-.47-.1-.6Z"/>
  </g>
  <g>
    <circle class="cls-3" cx="54.59" cy="40.32" r="8.1"/>
    <path class="cls-3" d="M41.39,66.23l6.19,11.5,9.89,5.44c1.68.92,2.17,3.11,1.05,4.66h0c-.87,1.21-2.47,1.65-3.84,1.06l-13.37-5.77-6.08-9.41"/>
    <path class="cls-1" d="M35.54,85.69l16.88,11.18c2.9,1.92,4.09,5.6,2.86,8.85h0c-1.1,2.91-3.88,4.83-6.98,4.83H14.82l-.48-7.04,30.56-.64-20.16-5.16c-3.86-.99-7.11-3.59-8.92-7.14h0c-.87-1.71-1.2-3.64-.92-5.53.24-1.58.54-3.14.92-4.69l1.32-4.87c.49-1.8,1.04-3.57,1.67-5.33l1.18-3.3c1.76-3.73,3.95-7.25,6.53-10.47l3.35-3.94c3.55-4.17,9.83-4.63,13.95-1.03l3.04,2.66,11.16,13.52c1.14,1.38,2.66,2.39,4.37,2.91l14.69,4.44c2.1.64,3.2,2.95,2.36,4.98h0c-.7,1.68-2.52,2.61-4.29,2.19l-20.26-4.85-13.48-11.03-4.57,6.87c-1.48,2.23-2.49,4.74-2.95,7.37l-.17.95c-.29,1.66.43,3.35,1.84,4.28Z"/>
  </g>
  <g>
    <g>
      <path class="cls-4" d="M92.56,39.03l2.83-2.8,2.51-3.28,1.98-3.43c.2-.49,1.18-2.87,1.53-3.5,1.17-2.13,2.74-2.45,3.56-2.45.58,0,.99.15,1.06.18l.93.37-2.26,5.61-1.91,3.56-2.69,6.12-5.28,8.97-2.26-9.34Z"/>
      <path d="M104.97,24.56c.42,0,.69.11.69.11l-1.87,4.63-1.88,3.51-2.7,6.14-4,6.79-1.55-6.39,2.47-2.45,2.59-3.39,2.04-3.54s1.16-2.83,1.51-3.46c.89-1.63,1.99-1.93,2.69-1.93M104.97,22.56c-1.05,0-3.02.39-4.44,2.97-.36.65-1.22,2.74-1.55,3.55l-1.91,3.32-2.43,3.18-2.38,2.36-.8.79.27,1.1,1.55,6.39,1.16,4.8,2.5-4.25,4-6.79.06-.1.05-.11,2.67-6.06,1.85-3.44.05-.1.04-.1,1.87-4.63.75-1.86-1.86-.75c-.19-.08-.71-.25-1.44-.25h0Z"/>
    </g>
    <g>
      <path class="cls-4" d="M91.61,36.24l1.53-3.85.82-4.02.12-3.92c-.1-.68-.44-3.13-.44-3.86.02-3.11,2.43-4.03,3.7-4.08l.9-.04.9,5.96.04,4.02.75,6.76-.44,10.07-7.88-7.04Z"/>
      <path d="M97.39,17.51l.75,5.01.04,4,.74,6.74-.34,7.88-5.79-5.17,1.31-3.28.85-4.19.13-4.1s-.44-3.07-.44-3.8c.02-2.98,2.74-3.09,2.74-3.09M99.1,15.44l-1.79.07c-1.86.08-4.64,1.49-4.66,5.08,0,.76.3,3.01.43,3.92l-.12,3.75-.79,3.84-1.24,3.12-.52,1.3,1.04.93,5.79,5.17,3.15,2.81.18-4.22.34-7.88v-.15s-.01-.15-.01-.15l-.73-6.64-.04-3.9v-.14s-.02-.14-.02-.14l-.75-5.01-.27-1.77h0Z"/>
    </g>
    <g>
      <path class="cls-4" d="M88.95,36.1l.45-4.12-.28-4.09-.93-3.81c-.28-.63-1.26-2.9-1.45-3.6-.81-3,1.27-4.53,2.48-4.92l.85-.27,2.46,5.51,1.11,3.86,2.52,6.32,2.26,9.82-9.48-4.68Z"/>
      <path d="M89.53,16.51l2.06,4.62,1.1,3.84,2.51,6.29,1.77,7.69-6.96-3.44.38-3.51-.29-4.26-.97-3.98s-1.24-2.84-1.44-3.54c-.78-2.87,1.82-3.71,1.82-3.71M90.62,14.05l-1.71.55c-1.78.57-4.08,2.68-3.14,6.14.2.73,1.1,2.82,1.46,3.66l.89,3.65.27,3.92-.36,3.34-.15,1.39,1.25.62,6.96,3.44,3.78,1.87-.95-4.11-1.77-7.69-.03-.15-.06-.14-2.48-6.2-1.08-3.75-.04-.13-.06-.13-2.06-4.62-.73-1.64h0Z"/>
    </g>
    <g>
      <path class="cls-4" d="M88.85,63.35l3.51-2.82-1.91-2.42-3.16-1.21-4.3-1.27-6-6.04-2.12-5.03,1.26-2.98.04-2.73-.41-.3.42-.55v-.15s.1,0,.1,0l4.8-6.34,7.99-1,9.96,8.43.19,11.14,1.22,1.47-.19,2,1.44,2.03-11.61,9.32-1.25-1.56ZM86.79,45.5l1.53-3.32.31-2.5-1.08-2.5-2.88-1.17-2.28,1.21c-.2.41-.61,1.06-1.42,1.9-.09.09-.18.17-.27.25.46.44.81,1,.93,1.7.21,1.3.15,2.38.06,3.05l1.81,1.26,3.3.14Z"/>
      <path d="M88.78,31.58l9.28,7.85.19,11.04,1.18,1.42-.19,1.96,1.11,1.57-6.59,5.29-2.69-3.42-3.42-1.31-4.13-1.22-5.68-5.73-1.88-4.46,1.17-2.77.04-2.84s3.13.3,3.45,2.26c.32,1.96-.06,3.34-.06,3.34l2.58,1.79,4.26.18,1.87-4.07.36-2.93-1.35-3.12-3.69-1.5-3,1.6s-.19.7-1.36,1.92c-.4.42-.87.56-1.31.56-.92,0-1.76-.62-1.76-.62l4.46-5.89,7.14-.89M93.76,60.7h0l-4.28,3.44,4.28-3.44M89.4,29.48l-.87.11-7.14.89-.84.1-.51.67-4.21,5.56-.62-.06v.9s-.84,1.09-.84,1.09l.8.6-.03,2.02-1.02,2.41-.33.78.33.78,1.88,4.46.15.36.27.28,5.68,5.73.36.36.49.15,4.05,1.2,2.83,1.08,1.12,1.43-2.74,2.2,2.5,3.12,2.71-2.17h0l1.57-1.26,6.59-5.29,1.47-1.18-1.09-1.54-.68-.96.12-1.22.08-.83-.53-.64-.73-.88-.17-10.33-.02-.91-.69-.59-9.28-7.85-.67-.57h0ZM83.13,37.95l1.6-.85,2.07.84.81,1.87-.25,2.08-1.18,2.57-2.34-.1-1.09-.75c.05-.72.05-1.65-.13-2.72-.09-.57-.29-1.06-.56-1.48.51-.58.85-1.07,1.08-1.46h0Z"/>
    </g>
  </g>
</svg>