<?xml version="1.0" encoding="UTF-8"?>
<svg id="pictos" xmlns="http://www.w3.org/2000/svg" viewBox="0 0 128 128">
  <defs>
    <style>
      .cls-1 {
        stroke-linecap: round;
        stroke-miterlimit: 10;
      }

      .cls-1, .cls-2 {
        fill: #fff;
        stroke: #000;
        stroke-width: 2px;
      }

      .cls-2 {
        stroke-linejoin: round;
      }
    </style>
  </defs>
  <path d="M51.82,23.48c.42-.06.89,0,1.31,0h32.16c3.33,0,5.2-.32,6.54,3.72.87-.39,1.8-.45,2.73-.59l16.9-2.57c.73-.11,1.5-.32,2.23-.34,2.87-.06,2.26,4.22,2.26,6.27v77.66c0,1.97.05,3.96,0,5.93-.07,2.52-2.34,2.32-3.83,2.21l-2.81-.22-14.59-1.14c-1.88-.14-2.96.05-4.17-1.86-.28.57-.67.93-1.09,1.36.74,3.39-2.87,2.8-4.65,2.82-1.93.01-3.65.27-3.7-2.5-.82-.04-1.65,0-2.47,0h-19.87c.06,2.7-1.86,2.5-3.67,2.5-2.13,0-4.79.64-4.7-2.81-3.29-1.68-3.03-4.3-3.03-7.65V33.79c0-4.31-.86-9.51,4.45-10.31ZM113.7,25.5c-1.78.19-3.56.53-5.33.8l-13.42,2.01c-1.79.26-3.2-.12-3.24,2.51-.06,4.26.12,8.81.12,13.12v64.07c0,1.25-.05,2.54.07,3.78.5.78,1.06.74,1.82.76.96.11,1.94.15,2.9.23l13.26,1.03c1.13.09,2.27.24,3.4.28,1.17.04,1.09-.57,1.1-1.74.03-1.98,0-3.97,0-5.96V29.24c0-1.08.07-2.21,0-3.28-.19-.26-.37-.52-.69-.46ZM51.82,25.15c-3.99.6-2.98,6.3-2.98,9.65v71.21c0,2.46-.26,6.26,2.9,6.53.75.06,1.53.02,2.29.02h32.24c1.29,0,3.17.19,3.42-1.76.2-1.55.04-4.88.02-6.54h-2.1c-.2,3.27-2.11,4.08-4.7,4.08h-25.07c-1.03,0-2.05.05-3.07-.22-3.4-1.77-2.95-4.75-2.95-8.23v-62.42c0-3.15-.6-8.53,3.52-8.82.69-.05,1.39-.01,2.07-.01h22.38c2.73,0,6.47-.76,7.57,2.94.42,1.41.12,2.94.25,4.39h2.1c-.07-1.32-.1-4.33.06-5.6.11-.85.57-1.57.53-2.46-.15-3.13-2.85-2.78-4.79-2.78h-31.88c-.59,0-1.21-.05-1.79,0ZM55.31,30.31c-2.14.64-2.01,2.48-2,4.41v12.36h17.3c-.88-.95-1.28-1.92-1.3-3.29-.02-.89-.12-6.04.14-6.41.14-.2.69-.15.91-.15h6.97c5.23,0,4.65-1.27,4.65,3.96,0,2.25.31,4.19-1.36,5.89h-8.03,13.47v-12.66c0-3.87-.79-4.14-4.09-4.13h-23.78c-.95.01-1.92-.04-2.87.02ZM75.1,81.24h-21.78c.06,1.76,0,3.54,0,5.3v14.53c0,2.79-.06,5.68,3.16,5.7-1.29-1.22-1.09-7.26-1.3-9.35-.58-.72-.93-4.7.33-4.85.28-.04,2.84,0,3.03.06,0-.74-.14-2.64.2-3.21.7-.42,6.14-.33,6.7-.16.29.09.39.35.45.64v2.73c1.44-.19,2.67,0,4.09.04,1.03.03,2.08-.04,3.12-.04,0-.68-.18-2.27.23-2.8.84-.42,6.29-.32,6.91-.08.71.27.41,2.23.41,2.87.92.01,3.05-.36,3.77.34.36.78.57,3.61-.45,4.45.06,2.96.27,6.51-.45,9.35,2.97-.3,2.55-2.72,2.54-5.18v-20.34c-3.65.06-7.31,0-10.96,0ZM53.32,65.56v13.84h4.32c-.68-.57-3.23-3.62-1.01-3.7,1.96-.07,3.95,0,5.92,0h18c2.24,0,3.86-.74,2.23,2.25-.39.58-.77.99-1.27,1.44,1.51.04,3.02,0,4.54,0v-13.84h-28.54c-1.39,0-2.79-.04-4.18,0ZM77.1,48.91h-23.78v14.85h3.43c0-1.39-.12-8.12.12-8.83l.09.03-.07-.06c.66-.36,6.6-.27,7.03-.11.64.24.3,7.68.33,8.97h4.46c.86,0,1.73.03,2.59,0-1.19-3.41-1.44-6.46,1.79-8.84.83-.49,1.64-.82,2.58-.88-.08-3.21-1.16-1.04-1.34-2.15-.2-1.29,2.54-1.94,2.48,2.15,1.59.44,3.03,1.27,3.9,2.9,1.39,2.6.86,4.38-.07,6.82h5.41c.03-1.01,0-2.02,0-3.04v-9.08c0-.91.04-1.82,0-2.73-2.53-.03-5.07,0-7.6,0h-1.34ZM87.6,44.42v46.1c0,1.67.06,3.36,0,5.03.64,0,1.26.04,1.9.06l.05-.06v-49.78c0-.44.03-.92,0-1.36h-1.95ZM56.34,97.41c-.01,1.31.28,6.95.55,8.11.39.43.98.28,1.48.28l8.29.02c.23,0,.8.07.95-.18-.1-2.75.18-5.49.08-8.24-3.78-.05-7.57-.02-11.35,0ZM75.35,97.41c-1.17,0-2.35-.04-3.51,0,0,2.48-.12,5.8.12,8.24h10.68c-.03-.74.02-1.49.01-2.23v-6.01h-7.3ZM75.51,55.26c-3.71.83-5.37,5.2-2.65,8.49h3.66c.84,0,1.69-.03,2.53,0,2.98-3.71.52-8.94-3.54-8.49ZM59.94,76.99c-.92.04-1.84,0-2.76,0,1.57,2.88,4.48,2.23,7.05,2.23h13.25c.58,0,1.21.07,1.78,0,1.21-.63,1.84-1.04,2.67-2.23-1.15.07-2.33,0-3.49,0h-14.68c-1.27,0-2.56.07-3.83,0ZM70.48,42.79c-.18,4.81,2.71,3.88,5.83,3.88,1.46,0,2.54.23,3.77-.8.72-.89.85-1.94.68-3.08h-10.28ZM59.94,93.79c-1.35,0-2.7.03-4.04,0v2.31h12.08c.14-.7-.01-1.58,0-2.31h-8.04ZM70.98,38.55h-.5c-.02.97,0,1.95,0,2.92,1.15-.03,2.31.03,3.46,0,.2-1.11,1.31-1.27,1.52,0,.32,0,1.68.11,1.82-.07.38-.49.92-1.84,1.49-.2.31.65,1.44.31,1.99.27v-2.92c-3.26,0-6.52-.07-9.78,0ZM71.3,93.95c-.09.17,0,1.84,0,2.15,1.33-.05,2.67,0,4.01,0h8.1c.12-.53,0-1.55,0-2.15h-10.71c-.46,0-.94-.04-1.39,0ZM57.9,59.78c0,1.32.04,2.66,0,3.98h5.21c0-1.32-.09-2.67,0-3.98h-5.21ZM69.97,93.79c-.27.05-.56.09-.82.16.08,1.84-.2,2.29-.29,3.63-.18,2.55-.24,5.62-.24,8.21.3.03.62.05.92,0,.44.06.81.09,1.25,0,0-2.34-.39-6.23-.12-8.39-.17-.25-.36-.44-.54-.68,0-.72.11-2.3-.06-2.91l-.1-.03ZM57.9,56.02v2.45c1.73,0,3.48.08,5.21,0,.02-.82.05-1.64,0-2.45h-5.21ZM87.6,97.1v5.61c.5.01,1.4.12,1.85,0,.03-1.87,0-3.74,0-5.61-.62,0-1.23,0-1.85,0ZM59.7,90.49c-.05.72-.07,1.4,0,2.12,1.02-.08,4.09-.14,5.07,0,.14-.31-.02-1.66,0-2.12h-5.07ZM87.6,37.76c0,1.62-.02,3.25,0,4.87.64,0,1.31.05,1.95,0,.09-1.63.15-3.23.15-4.87h-2.1ZM74.26,90.93v1.68h5.26v-1.68h-5.26ZM82.64,114.24c-.72,1.45,4.8.9,5.23.82.09-.28.14-.53.19-.82h-3.62c-.59,0-1.21-.04-1.79,0ZM53.32,114.24c-.33-.01-1.16-.13-1.4.07-.26,1.27,3.29.74,3.98.74.3,0,2.02.09,1.28-.79-.25-.12-3.36-.03-3.85-.03Z"/>
  <g>
    <ellipse class="cls-2" cx="29.61" cy="24.23" rx="7.09" ry="7.11"/>
    <path class="cls-2" d="M35.03,49.16l10.57,4.38,9.72-1.8c1.65-.31,3.19.91,3.29,2.58h0c.08,1.31-.76,2.49-2.02,2.85l-12.26,3.51-9.34-3.02"/>
    <path class="cls-1" d="M13.11,115.6l4.33-21.76,2.19-23.84-.24-26.22c-.14-2.23,1.07-4.34,3.07-5.34h0c1.03-.52,2.2-.7,3.34-.52l6.18.95,15.07,2.99c1.54.3,3.13.15,4.58-.45l12.42-5.15c1.78-.74,3.81.23,4.36,2.08h0c.46,1.53-.26,3.17-1.7,3.87l-16.42,7.96h-15.26l6.38,64.81-6.3.18-6.1-38.23-4.18,20.23-5.48,18.43h-6.24Z"/>
  </g>
</svg>