<?xml version="1.0" encoding="UTF-8"?>
<svg id="pictos" xmlns="http://www.w3.org/2000/svg" viewBox="0 0 128 128">
  <defs>
    <style>
      .cls-1 {
        stroke-linecap: round;
      }

      .cls-1, .cls-2, .cls-3 {
        fill: #fff;
      }

      .cls-1, .cls-4 {
        stroke-miterlimit: 10;
      }

      .cls-1, .cls-4, .cls-3 {
        stroke: #000;
      }

      .cls-1, .cls-3 {
        stroke-width: 2px;
      }

      .cls-4 {
        fill: none;
        stroke-width: 2.09px;
      }

      .cls-3 {
        stroke-linejoin: round;
      }
    </style>
  </defs>
  <path d="M83.15,71.83h29.58c0-.3,0-.59,0-.89,0-10.79-.01-21.58-.02-32.37,0-.77,0-1.55.06-2.32.03-.5-.14-.69-.57-.65-.12.01-.25-.01-.38-.02-.87-.07-1.01-.24-1.01-1.26,0-.53.38-.88,1.05-.95.56-.06,1.13-.12,1.69-.15,1.25-.07,1.83.56,1.82,1.95-.02,8.05-.06,16.09-.07,24.14,0,17.92,0,35.85,0,53.77,0,.21,0,.42,0,.63-.03,1.22-.49,1.77-1.58,1.8-2.18.06-4.36.13-6.54.12-8.62-.01-17.23-.07-25.85-.07-8.74,0-17.49.04-26.23.05-2.16,0-4.32-.05-6.48-.07-.94-.01-1.53-.65-1.52-1.71.02-14.15.05-28.29.06-42.44,0-10.04-.03-20.08-.04-30.12,0-2.06.02-4.13.01-6.19,0-.73.29-1.21.85-1.51.78-.41,1.5-.02,1.66.92.08.5.1,1.02.16,1.65.3,0,.6,0,.91,0,2.76.04,5.52.12,8.28.12,2.78,0,5.57-.11,8.35-.13,1.61,0,3.22.12,4.83.12,2.61,0,5.23-.08,7.84-.1.43,0,.6-.16.57-.66-.03-.51,0-1.03,0-1.55,0-.43.19-.66.56-.68,1.62-.08,2.56-.07,2.96,2.41h-.97v36.14ZM49.77,112.55c.24.01.44.03.65.03,9.83,0,19.67,0,29.5.01.51,0,.66-.18.65-.72-.03-1.9-.06-3.8-.05-5.7.02-10.88.05-21.77.06-32.65.01-10.74,0-21.49,0-32.23,0-.79,0-1.58,0-2.43h-4.55c0,.25,0,.48,0,.71,0,.73-.11,1.43.65,1.93.51.33.35.8-.1,1.27-.65.67-1.25,1.42-1.82,2.19-.23.32-.25.78.18,1.01.69.36,1.38.8,2.12.98.74.18.86.7.84,1.32-.13,3.65-.31,7.3-.46,10.95-.03.79-.07,1.59-.02,2.38.15,2.45.33,4.9.53,7.35.05.59-.18.74-.64.73-1.22-.02-2.43-.02-3.65-.04-.97-.02-.98-.03-.98-1.12.02-4.39.06-8.77.06-13.16,0-4.03-.07-8.07-.07-12.1,0-.38.15-.89.39-1.11,1.05-.92.89-2.11.78-3.32h-4.57c-.16,1.34-.11,2.5.81,3.53,1.11,1.24,1.35,2.84,1.15,4.57-.14,1.25-.22,2.52-.23,3.78-.05,5.65-.07,11.31-.1,16.96,0,1.01-.08,1.11-.96,1.1-1.3-.01-2.6-.07-3.9-.09-.18,0-.36.07-.53.12-.39.12-.78.36-1.17.36-1.17,0-2.35-.06-3.52-.12-.58-.03-1.16-.08-1.78-.12,0-.46,0-.83,0-1.2.05-8.05.11-16.09.13-24.14,0-.74.14-1.32.68-1.76.97-.77.88-1.85.71-2.97h-4.53c0,.46.02.88,0,1.3-.02.41.06.7.43.91.69.4.66,1.08.06,1.65-.71.67-1.38,1.41-2,2.18-.5.63-.36.93.35,1.15.28.09.56.2.84.3.7.27,1.03.81,1.01,1.65-.05,2.18-.08,4.36-.1,6.54,0,.42-.13.58-.51.58-1.03-.02-2.06-.04-3.08,0-.52.02-.65-.19-.66-.72,0-3.57-.03-7.13-.01-10.7,0-.29.17-.68.38-.87,1-.9,1.47-1.98,1.26-3.44-.06-.4-.15-.58-.53-.57-.57.02-1.13-.02-1.7-.02-.66,0-1.32,0-2.02,0v73.71ZM83.27,74.88c0,3.3,0,6.41.02,9.53,0,.15.27.42.42.43,1.99.1,3.98.23,5.96.21,2.97-.03,5.95-.23,8.92-.25,4.29-.03,8.59.05,12.88.08,1.11,0,1.13,0,1.11-1.28-.04-2.41-.12-4.83-.13-7.24-.01-1.46.03-1.48-1.29-1.48-6.92,0-13.83,0-20.75.01-2.34,0-4.69,0-7.14,0ZM95.24,99.21s0,.05,0,.08c-.52,0-1.05,0-1.57,0-3.29.06-6.58.13-9.87.19-.37,0-.7,0-.68.62.08,2.3.13,4.59.17,6.89,0,.36.1.53.46.57,4.06.55,8.15.71,12.23.75,3.67.03,7.34.01,11-.11,1.62-.05,3.23-.41,4.85-.63.39-.05.58-.32.59-.76.08-2.23.16-4.45.26-6.68.02-.46-.15-.63-.54-.65-2.09-.08-4.19-.23-6.28-.26-3.54-.04-7.09-.01-10.63-.01ZM97.96,87.81c0,.09,0,.18,0,.26-1.84,0-3.69-.02-5.53,0-2.91.04-5.83.11-8.74.15-.41,0-.61.1-.59.63.06,2.13.09,4.27.11,6.4,0,.5.19.72.63.74,1.3.08,2.59.25,3.89.27,3.58.06,7.17.13,10.75.08,4.44-.06,8.88-.23,13.32-.33.58-.01.78-.27.79-.87.03-2.11.07-4.22.12-6.33.01-.48-.14-.59-.54-.6-4.73-.13-9.47-.27-14.2-.4ZM68.19,43.56c-.35.32-.61.69-.95.84-.62.28-.93.77-1.03,1.46-.07.51-.13,1.02-.15,1.53-.17,5.64-.39,11.29-.47,16.93-.03,2.29-.42,2.05,1.94,1.92,1.45-.08,1.46-.16,1.46-1.84.01-3.59-.02-7.17.02-10.76.02-1.85.13-3.7.24-5.54.11-1.68,0-3.27-1.07-4.54ZM83.12,112.61c.27,0,.48,0,.69,0,6.6.04,13.2.09,19.8.1,2.87,0,5.74-.06,8.61-.09.25,0,.59.11.59-.39,0-.53,0-1.06,0-1.57-2.46-.34-28.6-.16-29.69.19v1.76ZM61.96,43.45c-1.11,1.35-1.16.95-.95,2.91.05.46.06.94.07,1.4.04,5.95.08,11.91.12,17.86,0,.2.02.4.04.63.37.02.68.04.99.06,1.2.06,1.19.06,1.2-1.31.05-5.6.08-11.2.2-16.8.03-1.56-.14-2.93-1.22-4.02-.18-.18-.28-.46-.45-.74ZM65.24,44.11c.08-.03.15-.07.23-.1-.22-1.06.25-1.71.93-2.26.82-.66.77-1.63.68-2.6,0-.1-.19-.27-.29-.27-1.35-.02-2.71-.01-4.05-.01q-.26,1.81.76,3.07c.18.23.37.45.55.67.39.5.79,1,1.18,1.5ZM76.18,63.77c.04-.51-.05-.87-.58-.87-.53,0-.73.3-.71.89.02.45.07.8.57.77.47-.03.84-.15.71-.79Z"/>
  <path d="M99.12,39.39c1.25.72,2.5,1.33,3.64,2.14,2.01,1.43,3.96,2.98,5.92,4.49.53.41,1.03.88,1.55,1.32.81.69.84,1.44.14,2.23-1.09,1.23-2.15,2.5-3.21,3.77-.29.35-.53.52-.89.14-.36-.37-.39-.7-.02-1.12.63-.75,1.26-1.51,1.8-2.34.28-.43.41-1,.54-1.53.04-.17-.06-.5-.19-.59-.14-.09-.44-.07-.57.05-.44.39-.85.82-1.24,1.27-.28.32-.52.68-.78,1.01-.47.6-.61.6-1.08,0-.1-.12-.19-.25-.32-.41-.24.25-.47.48-.69.71-.74.79-.77.98-.06,1.82.31.37.7.66,1.09.93.5.34.72.8.71,1.45-.04,3.94-.07,7.88-.1,11.82,0,.65-.31.97-.97.99-.96.03-1.93.03-2.89.03-3.31,0-6.63,0-9.94,0-1.06,0-1.31-.29-1.3-1.45.02-3.54.05-7.08.04-10.62,0-.98.17-1.78.96-2.34.35-.25.65-.6.92-.95.13-.17.23-.47.19-.68-.1-.54-1.14-1.1-1.67-1.06-.22.02-.55-.17-.68-.38-.75-1.16-1.83-1.84-2.92-2.49-.19-.11-.42-.15-.72-.08.74,1.2,1.47,2.4,2.24,3.58.24.37.58.67.88,1,.37.41.43.85.06,1.3-.38.47-.74.4-1.1-.07-1.09-1.43-2.2-2.83-3.27-4.26-.4-.54-.2-1.2.37-1.51.33-.18.67-.37.93-.65,2.98-3.23,6.56-5.5,10.13-7.76.55-.35.89-.76.93-1.45.01-.19-.08-.39-.12-.58-.16.07-.33.13-.48.22-.11.06-.2.24-.3.24-.33.02-.76.13-.96-.06-.2-.19-.32-.73-.24-1.03.43-1.62,2.34-2.04,3.43-.8.74.83.92,1.87.52,2.98-.07.19-.14.39-.27.74ZM95.04,42.9c1.82,1.58,3.67,1.61,5.61.35-.5.96-1.05,1.82-2.01,2.11-1.51.45-2.86-.26-3.64-1.8-.1-.19-.31-.42-.49-.44-1.29-.11-1.78.71-1.19,2,.15.33.34.65.56.93,1.57,1.99,4.42,2.59,6.49,1.32,1.18-.72,2.03-1.78,2.23-3.37-1.68-.91-3.34-1.81-4.95-2.69-.87.53-1.71,1.04-2.59,1.58Z"/>
  <path class="cls-2" d="M68.19,43.56c1.06,1.27,1.17,2.86,1.07,4.54-.12,1.84-.22,3.69-.24,5.54-.04,3.59-.01,7.17-.02,10.76,0,1.68-.01,1.76-1.46,1.84-2.36.13-1.97.38-1.94-1.92.08-5.64.3-11.29.47-16.93.02-.51.08-1.03.15-1.53.1-.69.41-1.18,1.03-1.46.34-.15.6-.52.95-.84Z"/>
  <path class="cls-2" d="M61.96,43.45c.17.28.27.55.45.74,1.07,1.1,1.25,2.46,1.22,4.02-.12,5.6-.14,11.2-.2,16.8-.01,1.37,0,1.37-1.2,1.31-.31-.02-.62-.04-.99-.06-.01-.23-.04-.43-.04-.63-.04-5.95-.08-11.91-.12-17.86,0-.47-.01-.94-.07-1.4-.22-1.96-.17-1.56.95-2.91Z"/>
  <path class="cls-2" d="M65.24,44.11c-.39-.5-.78-1-1.18-1.5-.18-.23-.37-.45-.55-.67q-1.03-1.27-.76-3.07c1.35,0,2.7,0,4.05.01.1,0,.28.17.29.27.09.96.14,1.94-.68,2.6-.68.54-1.15,1.19-.93,2.26-.08.03-.15.07-.23.1Z"/>
  <path class="cls-2" d="M76.18,63.77c.13.64-.24.77-.71.79-.5.03-.55-.33-.57-.77-.03-.58.17-.88.71-.89.53,0,.62.36.58.87Z"/>
  <path class="cls-2" d="M95.04,42.9c.89-.54,1.72-1.05,2.59-1.58,1.61.87,3.28,1.78,4.95,2.69-.2,1.59-1.05,2.65-2.23,3.37-2.08,1.27-4.93.67-6.49-1.32-.22-.28-.41-.6-.56-.93-.58-1.29-.1-2.11,1.19-2,.17.01.39.24.49.44.78,1.54,2.13,2.26,3.64,1.8.96-.29,1.51-1.15,2.01-2.11-1.93,1.26-3.78,1.22-5.61-.35Z"/>
  <path d="M52.31,86.71c0-.4,0-.7,0-.99,0-2.06-.01-4.13,0-6.19,0-.44.01-.89.08-1.33.15-.88.55-1.34,1.35-1.38,3.39-.21,6.78-.5,10.17-.54,3.14-.04,6.28.21,9.42.34.84.03,1.68.05,2.51.09.38.02.76.05,1.12.14.69.16.99.6.99,1.39,0,2.6,0,5.21.03,7.81,0,.54-.21.61-.6.61-2.45,0-4.9.01-7.36.02-5.62.01-11.23.03-16.85.04-.27,0-.53,0-.86,0ZM65.26,83.74v.13c.94,0,1.88,0,2.82,0,.6,0,1.12-.51,1.16-1.11.03-.53-.4-1.1-.95-1.23-.16-.04-.33-.03-.5-.03-1.86-.03-3.72-.07-5.58-.09-.21,0-.46.1-.63.24-.36.3-.64.79-.38,1.21.24.39.7.8,1.1.85.97.12,1.96.04,2.94.04Z"/>
  <path d="M56.91,111.14h-2.45c-.04-.69-.07-1.34-.1-1.99-.02-.43-.22-.59-.6-.63-1.46-.16-1.46-.17-1.45-1.8.01-2.04.02-4.08.04-6.12,0-.94,0-.96.81-.96,8.03-.02,16.05-.03,24.08-.04.2,0,.41.04.69.07,0,.47,0,.91,0,1.35,0,2.11.01,4.22.02,6.33,0,.96-.16,1.17-1.03,1.09-.63-.06-.93.09-.9.87.02.62-.1,1.25-.16,1.9-.78,0-1.55.02-2.31-.02-.12,0-.3-.27-.33-.45-.06-.39-.04-.79-.07-1.19-.07-1.1-.07-1.14-1.04-1.2-1.84-.12-3.68-.31-5.52-.28-2.83.04-5.65.26-8.48.38-.62.03-.97.22-.96,1.02,0,.55-.14,1.1-.23,1.67ZM65.22,104.59v-.02c.9,0,1.8-.01,2.7,0,.73.01,1.24-.42,1.26-1.11.02-.72-.51-1.23-1.24-1.23-1.86.01-3.72.02-5.58.03-.71,0-1.19.43-1.2,1.11-.01.75.42,1.2,1.18,1.21.96,0,1.92,0,2.89,0Z"/>
  <path d="M52.34,97.16c0-2.1-.01-4.18,0-6.26.02-1.83.03-1.83,1.65-1.84,6.71-.02,13.41-.03,20.12-.05,1.25,0,2.5,0,3.79,0v8.14h-25.56ZM65.12,91.88s0,.03,0,.04c-.9-.05-1.8-.09-2.7-.14-.64-.04-1.3.57-1.31,1.19,0,.48.67,1.06,1.23,1.07,1.86.05,3.73.09,5.59.15.7.02,1.29-.46,1.31-1.09.02-.66-.56-1.21-1.29-1.22-.94,0-1.89,0-2.83,0Z"/>
  <path d="M52.4,65.79c0-1.38,0-2.77,0-4.15,0-.81.11-.8.81-.67.74.13,1.5.07,2.25.08,1.13.02,1.13.01,1.1,1.27q-.04,1.66-1.5,1.66c-.19,0-.38-.02-.57,0-.31.05-.87.07-.89.2-.09.49-.03,1.02.05,1.51.02.12.34.23.52.25.69.07,1.38.07,2.07.16.19.03.48.27.5.45.14,1.13.22,2.26.32,3.4.06.63-.13.97-.76.96-1.11-.02-2.21-.01-3.32,0-.52,0-.7-.29-.69-.83,0-1.43,0-2.86,0-4.29.03,0,.07,0,.1,0Z"/>
  <path d="M56.67,59.45c-.85.05-1.55.05-2.23.15-.4.06-.79.24-1.15.44-.46.26-.83.09-.89-.49,0-.02,0-.05,0-.07.07-3.12-.5-2.53,2.14-2.52.58,0,1.17.06,1.75.15.14.02.36.26.37.41.04.62.02,1.25.02,1.94Z"/>
  <path d="M97.93,78.09c.77.04,1.46.07,2.14.12.59.04,1.08.63,1.11,1.3.03.66-.46,1.46-1.02,1.48-1.52.06-3.04.07-4.56.05-.45,0-1.04-.85-1.03-1.35.02-.66.6-1.45,1.12-1.49.77-.05,1.55-.08,2.24-.11Z"/>
  <path d="M98.72,106.01c-1.06-.06-2.12-.12-3.18-.2-.53-.04-1.02-.68-1.04-1.3-.02-.8.52-1.71,1.16-1.77.83-.07,1.66-.06,2.49-.05.65.01,1.29.06,1.94.16.73.11,1.31,1.06,1.23,1.92-.07.71-.62,1.17-1.41,1.18-.4,0-.79,0-1.19,0v.06Z"/>
  <path d="M98.25,94.06c-.79-.05-1.59-.08-2.38-.17-.81-.09-1.36-.66-1.36-1.35,0-.68.69-1.46,1.36-1.63,1.31-.33,2.58.03,3.86.2.17.02.33.04.5.08.69.17,1.15.84,1.07,1.57-.08.76-.56,1.21-1.3,1.21-.59,0-1.17,0-1.76,0v.08Z"/>
  <path class="cls-2" d="M65.26,83.74c-.98,0-1.97.08-2.94-.04-.4-.05-.86-.45-1.1-.85-.26-.42.02-.91.38-1.21.17-.14.42-.24.63-.24,1.86.01,3.72.05,5.58.09.17,0,.34,0,.5.03.55.13.98.7.95,1.23-.04.6-.56,1.11-1.16,1.11-.94,0-1.88,0-2.82,0v-.13Z"/>
  <path class="cls-2" d="M65.22,104.59c-.96,0-1.92,0-2.89,0-.75,0-1.19-.46-1.18-1.21.01-.68.49-1.11,1.2-1.11,1.86,0,3.72-.01,5.58-.03.73,0,1.26.51,1.24,1.23-.02.68-.53,1.12-1.26,1.11-.9-.01-1.8,0-2.7,0v.02Z"/>
  <path class="cls-2" d="M65.12,91.88c.94,0,1.89,0,2.83,0,.73,0,1.31.56,1.29,1.22-.02.63-.6,1.11-1.31,1.09-1.86-.05-3.73-.1-5.59-.15-.57-.01-1.24-.6-1.23-1.07,0-.63.67-1.23,1.31-1.19.9.05,1.8.09,2.7.14,0-.01,0-.03,0-.04Z"/>
  <g>
    <ellipse class="cls-3" cx="30.01" cy="24.92" rx="7.01" ry="7.02"/>
    <path class="cls-3" d="M35.37,49.57l10.45,4.33,9.61-1.78c1.63-.3,3.16.9,3.25,2.55h0c.08,1.29-.75,2.46-1.99,2.82l-12.12,3.47-9.24-2.98"/>
    <path class="cls-1" d="M13.7,115.25l4.28-21.51,2.17-23.57-.24-25.92c-.14-2.21,1.06-4.29,3.03-5.28h0c1.02-.51,2.17-.69,3.3-.52l6.11.94,14.9,2.95c1.52.3,3.09.15,4.53-.45l12.28-5.09c1.76-.73,3.76.22,4.31,2.05h0c.45,1.52-.26,3.14-1.68,3.83l-16.23,7.87h-15.08l6.3,64.07-6.23.18-6.03-37.79-4.13,19.99-5.42,18.22h-6.17Z"/>
  </g>
  <g>
    <rect class="cls-2" x="47.71" y="13.04" width="66.63" height="23.19"/>
    <path d="M113.3,14.09v21.1H48.76V14.09h64.54M115.39,12H46.67v25.28h68.72V12h0Z"/>
  </g>
  <line class="cls-4" x1="82.19" y1="12.58" x2="82.19" y2="36.7"/>
</svg>