<?xml version="1.0" encoding="UTF-8"?>
<svg id="pictos" xmlns="http://www.w3.org/2000/svg" viewBox="0 0 128 128">
  <defs>
    <style>
      .cls-1 {
        stroke-linecap: round;
      }

      .cls-1, .cls-2, .cls-3 {
        fill: #fff;
      }

      .cls-1, .cls-2, .cls-3, .cls-4 {
        stroke: #000;
        stroke-miterlimit: 10;
      }

      .cls-1, .cls-3 {
        stroke-width: 2px;
      }

      .cls-2 {
        stroke-width: 1.39px;
      }

      .cls-2, .cls-4 {
        stroke-linecap: square;
      }

      .cls-4 {
        fill: none;
        stroke-width: 2.59px;
      }
    </style>
  </defs>
  <g>
    <polygon points="62.22 54.05 55.54 54.05 55.54 24.77 58.88 21 62.22 24.77 62.22 54.05"/>
    <polygon points="73.99 54.05 67.31 54.05 67.31 24.77 70.65 21 73.99 24.77 73.99 54.05"/>
    <polygon points="85.76 54.05 79.08 54.05 79.08 24.77 82.42 21 85.76 24.77 85.76 54.05"/>
    <polygon points="97.53 54.05 90.85 54.05 90.85 24.77 94.19 21 97.53 24.77 97.53 54.05"/>
    <polygon points="109.3 54.05 102.61 54.05 102.61 24.77 105.96 21 109.3 24.77 109.3 54.05"/>
    <rect x="51.42" y="31.03" width="61.87" height="3.1"/>
    <rect x="51.42" y="44.55" width="61.87" height="3.1"/>
  </g>
  <g>
    <g>
      <path class="cls-4" d="M89.51,74.68c-2,16.5-33.27,23.57-33.27,38.26"/>
      <path class="cls-4" d="M56.25,74.68c2,16.5,33.27,23.57,33.27,38.26"/>
    </g>
    <rect x="43.76" y="72.36" width="58.23" height="4.65" rx="2.32" ry="2.32"/>
  </g>
  <g>
    <g>
      <polyline class="cls-4" points="30.87 62.14 35.36 90.69 59.4 90.69"/>
      <path class="cls-4" d="M35.36,90.69c1.54,9.71,25.58,13.87,25.58,22.51"/>
      <path class="cls-4" d="M60.94,90.69c-1.54,9.71-25.58,13.87-25.58,22.51"/>
      <path class="cls-2" d="M60.63,90.33h-24.26s-1-5.47-1-5.47h25.27c1.5,0,2.72,1.22,2.72,2.72v.04c0,1.5-1.22,2.72-2.72,2.72Z"/>
    </g>
    <g>
      <polyline class="cls-4" points="114.89 62.21 110.4 90.76 86.36 90.76"/>
      <path class="cls-4" d="M110.4,90.76c-1.54,9.71-25.58,13.87-25.58,22.51"/>
      <path class="cls-4" d="M84.82,90.76c1.54,9.71,25.58,13.87,25.58,22.51"/>
      <path class="cls-2" d="M85.14,90.4h24.26s1-5.47,1-5.47h-25.27c-1.5,0-2.72,1.22-2.72,2.72v.04c0,1.5,1.22,2.72,2.72,2.72Z"/>
    </g>
  </g>
  <g>
    <circle class="cls-3" cx="32.67" cy="23.68" r="7.35"/>
    <path class="cls-1" d="M22.15,50.56c-.11,3.04,2.5,6.11,5.01,8.12l5.74,4.58c1.37,1.09,1.69,3.05.74,4.52h0c-1.02,1.58-3.13,2.04-4.72,1.02l-8.02-5.15c-3.2-2.05-5.56-5.18-6.66-8.83h0c-1.37-4.54-.81-9.45,1.54-13.57h0c2.74-2.91,6.52-3.7,9.74-3.73h14.3c3.22.03,7.24,1.36,9.74,3.73l9.92,8.88,9.58,7.64c1.37,1.09,1.69,3.05.74,4.52h0c-1.02,1.58-3.13,2.04-4.72,1.02l-12.98-8.33-7.77-5.67-.36,33.34.11,33.34h-8.7s-1.53-38.15-1.53-38.15c-.06-1.53-2.33-1.53-2.39,0l-1.53,38.15h-8.7l.11-33.34-.17-17.94"/>
  </g>
</svg>