<?xml version="1.0" encoding="UTF-8"?>
<svg id="pictos" xmlns="http://www.w3.org/2000/svg" viewBox="0 0 128 128">
  <defs>
    <style>
      .cls-1 {
        stroke-linecap: round;
      }

      .cls-1, .cls-2, .cls-3, .cls-4 {
        stroke-miterlimit: 10;
      }

      .cls-1, .cls-2, .cls-3, .cls-4, .cls-5 {
        stroke: #000;
      }

      .cls-1, .cls-2, .cls-3, .cls-5 {
        fill: #fff;
      }

      .cls-1, .cls-5 {
        stroke-width: 2px;
      }

      .cls-3, .cls-4 {
        stroke-width: .97px;
      }

      .cls-4 {
        fill: none;
      }

      .cls-5 {
        stroke-linejoin: round;
      }
    </style>
  </defs>
  <path d="M114,14v100H48.67V14h65.33M116,12H46.67v104h69.33V12h0Z"/>
  <line class="cls-4" x1="46.67" y1="32.8" x2="116" y2="32.8"/>
  <line class="cls-4" x1="46.67" y1="53.6" x2="116" y2="53.6"/>
  <line class="cls-4" x1="46.67" y1="74.4" x2="116" y2="74.4"/>
  <line class="cls-4" x1="46.67" y1="95.2" x2="116" y2="95.2"/>
  <line class="cls-4" x1="46.67" y1="35.5" x2="116" y2="35.5"/>
  <line class="cls-4" x1="46.67" y1="56.3" x2="116" y2="56.3"/>
  <line class="cls-4" x1="46.67" y1="77.1" x2="116" y2="77.1"/>
  <line class="cls-4" x1="46.67" y1="97.9" x2="116" y2="97.9"/>
  <g>
    <path class="cls-3" d="M51.68,95.2c0-1.88,1.88-3.28,3-3.38s3.94.19,4.6-.47.56-3.85.56-3.85h4.97v7.7h-13.14Z"/>
    <path class="cls-3" d="M56.21,95.2c0-1.88,1.88-3.28,3-3.38s3.94.19,4.6-.47.56-3.85.56-3.85h4.97v7.7h-13.14Z"/>
  </g>
  <g>
    <path class="cls-2" d="M81.44,85.72s.09,3.19-.56,3.85-3.47.38-4.6.47c-1.13.09-3,1.5-3,3.38v1.78h6.92l1.92-1.78v1.78h4.29v-9.48h-4.97Z"/>
    <path class="cls-2" d="M85.34,85.72s.09,3.19-.56,3.85-3.47.38-4.6.47c-1.13.09-3,1.5-3,3.38v1.78h6.92l1.92-1.78v1.78h4.29v-9.48h-4.97Z"/>
  </g>
  <g>
    <path class="cls-2" d="M104.68,90.8c-1.32,0-2.49-.48-3.27-1.21-.19.43-.39.8-.56.98-.66.66-2.47.38-3.6.47-1.13.09-3,1.5-3,3.38v.78h6.92l1.92-.78v.78h4.29v-5.16c-.74.47-1.67.77-2.7.77Z"/>
    <path class="cls-2" d="M109.53,90.8c-1.32,0-2.49-.48-3.27-1.21-.19.43-.39.8-.56.98-.66.66-2.47.38-3.6.47-1.13.09-3,1.5-3,3.38v.78h6.92l1.92-.78v.78h4.29v-5.16c-.74.47-1.67.77-2.7.77Z"/>
  </g>
  <g>
    <path class="cls-3" d="M51.68,74.4c0-1.88,1.88-3.28,3-3.38s3.94.19,4.6-.47.56-3.85.56-3.85h4.97v7.7h-13.14Z"/>
    <path class="cls-3" d="M56.21,74.4c0-1.88,1.88-3.28,3-3.38s3.94.19,4.6-.47.56-3.85.56-3.85h4.97v7.7h-13.14Z"/>
  </g>
  <g>
    <path class="cls-2" d="M81.44,64.92s.09,3.19-.56,3.85-3.47.38-4.6.47c-1.13.09-3,1.5-3,3.38v1.78h6.92l1.92-1.78v1.78h4.29v-9.48h-4.97Z"/>
    <path class="cls-2" d="M85.34,64.92s.09,3.19-.56,3.85-3.47.38-4.6.47c-1.13.09-3,1.5-3,3.38v1.78h6.92l1.92-1.78v1.78h4.29v-9.48h-4.97Z"/>
  </g>
  <g>
    <path class="cls-2" d="M102.4,64.92s.09,3.19-.56,3.85-3.47.38-4.6.47c-1.13.09-3,1.5-3,3.38v1.78h6.92l1.92-1.78v1.78h4.29v-9.48h-4.97Z"/>
    <path class="cls-2" d="M106.3,64.92s.09,3.19-.56,3.85-3.47.38-4.6.47c-1.13.09-3,1.5-3,3.38v1.78h6.92l1.92-1.78v1.78h4.29v-9.48h-4.97Z"/>
  </g>
  <g>
    <path class="cls-3" d="M51.68,53.6c0-1.88,1.88-3.28,3-3.38s3.94.19,4.6-.47.56-3.85.56-3.85h4.97v7.7h-13.14Z"/>
    <path class="cls-3" d="M56.21,53.6c0-1.88,1.88-3.28,3-3.38s3.94.19,4.6-.47.56-3.85.56-3.85h4.97v7.7h-13.14Z"/>
  </g>
  <g>
    <path class="cls-3" d="M94.24,53.6c0-1.88,1.88-3.28,3-3.38s3.94.19,4.6-.47.56-3.85.56-3.85h4.97v7.7h-13.14Z"/>
    <path class="cls-3" d="M98.77,53.6c0-1.88,1.88-3.28,3-3.38s3.94.19,4.6-.47.56-3.85.56-3.85h4.97v7.7h-13.14Z"/>
  </g>
  <g>
    <path class="cls-2" d="M81.44,44.12s.09,3.19-.56,3.85-3.47.38-4.6.47c-1.13.09-3,1.5-3,3.38v1.78h6.92l1.92-1.78v1.78h4.29v-9.48h-4.97Z"/>
    <path class="cls-2" d="M85.34,44.12s.09,3.19-.56,3.85-3.47.38-4.6.47c-1.13.09-3,1.5-3,3.38v1.78h6.92l1.92-1.78v1.78h4.29v-9.48h-4.97Z"/>
  </g>
  <g>
    <path class="cls-3" d="M51.68,32.8c0-1.88,1.88-3.28,3-3.38s3.94.19,4.6-.47.56-3.85.56-3.85h4.97v7.7h-13.14Z"/>
    <path class="cls-3" d="M56.21,32.8c0-1.88,1.88-3.28,3-3.38s3.94.19,4.6-.47.56-3.85.56-3.85h4.97v7.7h-13.14Z"/>
  </g>
  <g>
    <path class="cls-2" d="M104.68,28.4c-1.32,0-2.49-.48-3.27-1.21-.19.43-.39.8-.56.98-.66.66-2.47.38-3.6.47-1.13.09-3,1.5-3,3.38v.78h6.92l1.92-.78v.78h4.29v-5.16c-.74.47-1.67.77-2.7.77Z"/>
    <path class="cls-2" d="M109.53,28.4c-1.32,0-2.49-.48-3.27-1.21-.19.43-.39.8-.56.98-.66.66-2.47.38-3.6.47-1.13.09-3,1.5-3,3.38v.78h6.92l1.92-.78v.78h4.29v-5.16c-.74.47-1.67.77-2.7.77Z"/>
  </g>
  <g>
    <path class="cls-2" d="M83.72,28.4c-1.32,0-2.49-.48-3.27-1.21-.19.43-.39.8-.56.98-.66.66-2.47.38-3.6.47-1.13.09-3,1.5-3,3.38v.78h6.92l1.92-.78v.78h4.29v-5.16c-.74.47-1.67.77-2.7.77Z"/>
    <path class="cls-2" d="M88.57,28.4c-1.32,0-2.49-.48-3.27-1.21-.19.43-.39.8-.56.98-.66.66-2.47.38-3.6.47-1.13.09-3,1.5-3,3.38v.78h6.92l1.92-.78v.78h4.29v-5.16c-.74.47-1.67.77-2.7.77Z"/>
  </g>
  <g>
    <ellipse class="cls-5" cx="30.23" cy="27.37" rx="6.77" ry="6.79"/>
    <path class="cls-5" d="M35.41,51.19l10.1,4.18,9.29-1.72c1.58-.29,3.05.87,3.14,2.47h0c.07,1.25-.73,2.38-1.93,2.72l-11.71,3.35-8.93-2.88"/>
    <path class="cls-1" d="M14.47,114.66l4.14-20.78,2.09-22.77-.23-25.05c-.13-2.13,1.02-4.14,2.93-5.1h0c.99-.49,2.1-.67,3.19-.5l5.9.91,14.39,2.85c1.47.29,2.99.14,4.37-.43l11.87-4.92c1.7-.7,3.64.22,4.16,1.98h0c.44,1.46-.25,3.03-1.62,3.7l-15.69,7.61h-14.57l6.09,61.92-6.02.18-5.82-36.52-3.99,19.32-5.23,17.61h-5.96Z"/>
  </g>
</svg>