<?xml version="1.0" encoding="UTF-8"?>
<svg id="pictos" xmlns="http://www.w3.org/2000/svg" viewBox="0 0 128 128">
  <defs>
    <style>
      .cls-1 {
        stroke-linejoin: round;
      }

      .cls-1, .cls-2, .cls-3, .cls-4 {
        fill: #fff;
      }

      .cls-1, .cls-2, .cls-4, .cls-5 {
        stroke: #000;
      }

      .cls-2, .cls-4, .cls-5, .cls-6 {
        stroke-miterlimit: 10;
      }

      .cls-4 {
        stroke-width: 2px;
      }

      .cls-5, .cls-6 {
        fill: none;
      }

      .cls-6 {
        stroke: #f9f9f9;
      }
    </style>
  </defs>
  <g>
    <g>
      <path class="cls-3" d="M40.69,68.12l2.83-2.8,2.51-3.28,1.98-3.43c.2-.49,1.18-2.87,1.53-3.5,1.17-2.13,2.74-2.45,3.56-2.45.58,0,.99.15,1.06.18l.93.37-2.26,5.61-1.91,3.56-2.69,6.12-5.28,8.97-2.26-9.34Z"/>
      <path d="M53.1,53.65c.42,0,.69.11.69.11l-1.87,4.63-1.88,3.51-2.7,6.14-4,6.79-1.55-6.39,2.47-2.45,2.59-3.39,2.04-3.54s1.16-2.83,1.51-3.46c.89-1.63,1.99-1.93,2.69-1.93M53.1,51.65c-1.05,0-3.02.39-4.44,2.97-.36.65-1.22,2.74-1.55,3.55l-1.91,3.32-2.43,3.18-2.38,2.36-.8.79.27,1.1,1.55,6.39,1.16,4.8,2.5-4.25,4-6.79.06-.1.05-.11,2.67-6.06,1.85-3.44.05-.1.04-.1,1.87-4.63.75-1.86-1.86-.75c-.19-.08-.71-.25-1.44-.25h0Z"/>
    </g>
    <g>
      <path class="cls-3" d="M39.73,65.33l1.53-3.85.82-4.02.12-3.92c-.1-.68-.44-3.13-.44-3.86.02-3.11,2.43-4.03,3.7-4.08l.9-.04.9,5.96.04,4.02.75,6.76-.44,10.07-7.88-7.04Z"/>
      <path d="M45.52,46.6l.75,5.01.04,4,.74,6.74-.34,7.88-5.79-5.17,1.31-3.28.85-4.19.13-4.1s-.44-3.07-.44-3.8c.02-2.98,2.74-3.09,2.74-3.09M47.23,44.53l-1.79.07c-1.86.08-4.64,1.49-4.66,5.08,0,.76.3,3.01.43,3.92l-.12,3.75-.79,3.84-1.24,3.12-.52,1.3,1.04.93,5.79,5.17,3.15,2.81.18-4.22.34-7.88v-.15s-.01-.15-.01-.15l-.73-6.64-.04-3.9v-.14s-.02-.14-.02-.14l-.75-5.01-.27-1.77h0Z"/>
    </g>
    <g>
      <path class="cls-3" d="M37.08,65.2l.45-4.12-.28-4.09-.93-3.81c-.28-.63-1.26-2.9-1.45-3.6-.81-3,1.26-4.53,2.48-4.92l.85-.28,2.46,5.51,1.11,3.86,2.52,6.32,2.27,9.82-9.48-4.69Z"/>
      <path d="M37.65,45.6l2.06,4.62,1.1,3.84,2.51,6.29,1.77,7.69-6.96-3.44.38-3.51-.29-4.26-.97-3.98s-1.24-2.84-1.44-3.54c-.78-2.87,1.82-3.71,1.82-3.71M38.75,43.15l-1.71.55c-1.78.57-4.08,2.68-3.14,6.14.2.73,1.1,2.82,1.46,3.66l.89,3.65.27,3.92-.36,3.34-.15,1.39,1.25.62,6.96,3.44,3.78,1.87-.95-4.11-1.77-7.69-.03-.15-.06-.14-2.48-6.2-1.08-3.75-.04-.13-.06-.13-2.06-4.62-.73-1.64h0Z"/>
    </g>
    <g>
      <path class="cls-3" d="M36.98,92.45l3.51-2.82-1.91-2.42-3.16-1.21-4.3-1.27-6-6.04-2.12-5.03,1.26-2.98.04-2.72-.41-.3.42-.55v-.15s.1,0,.1,0l4.8-6.34,7.99-1,9.96,8.43.19,11.14,1.22,1.47-.19,2,1.44,2.03-11.61,9.32-1.25-1.56ZM34.92,74.59l1.53-3.32.31-2.51-1.08-2.5-2.88-1.17-2.28,1.21c-.2.41-.61,1.06-1.42,1.9-.09.09-.18.17-.27.25.46.44.81,1,.93,1.69.21,1.3.15,2.38.06,3.05l1.81,1.26,3.3.14Z"/>
      <path d="M36.91,60.67l9.28,7.85.19,11.04,1.18,1.42-.19,1.96,1.11,1.57-6.59,5.29-2.69-3.42-3.42-1.31-4.13-1.22-5.68-5.73-1.88-4.46,1.17-2.77.04-2.84s3.13.3,3.45,2.26c.32,1.96-.06,3.34-.06,3.34l2.58,1.79,4.26.18,1.87-4.07.36-2.93-1.35-3.12-3.69-1.5-3,1.6s-.19.7-1.36,1.92c-.4.42-.87.56-1.31.56-.92,0-1.76-.62-1.76-.62l4.46-5.89,7.14-.89M41.89,89.79h0s-4.28,3.44-4.28,3.44l4.28-3.44M37.53,58.58l-.87.11-7.14.89-.84.1-.51.67-4.21,5.56-.62-.06v.9s-.84,1.09-.84,1.09l.8.6-.03,2.02-1.02,2.41-.33.78.33.78,1.88,4.46.15.36.27.28,5.68,5.73.36.36.49.15,4.05,1.2,2.83,1.08,1.12,1.43-2.74,2.2,2.5,3.12,2.71-2.17h0l1.57-1.26,6.59-5.29,1.47-1.18-1.09-1.54-.68-.96.12-1.22.08-.83-.53-.64-.73-.88-.17-10.33-.02-.91-.69-.59-9.28-7.85-.67-.57h0ZM31.25,67.04l1.6-.85,2.07.84.81,1.87-.25,2.08-1.18,2.57-2.34-.1-1.09-.75c.05-.72.05-1.65-.13-2.72-.09-.57-.29-1.06-.56-1.48.51-.58.85-1.07,1.08-1.46h0Z"/>
    </g>
  </g>
  <polygon class="cls-4" points="64 104.86 102.55 104.86 102.55 73.78 104.43 71.91 104.43 50.6 101.45 47.62 64 47.62 64 104.86"/>
  <g>
    <rect class="cls-2" x="74.11" y="56.15" width="24.53" height="34.3"/>
    <rect class="cls-2" x="71.29" y="58.96" width="24.53" height="34.3"/>
    <g>
      <polygon class="cls-1" points="92.76 96.33 68.23 96.33 68.23 62.03 89.07 62.03 89.07 65.67 92.76 65.67 92.76 96.33"/>
      <line class="cls-2" x1="89.07" y1="62.03" x2="92.76" y2="65.67"/>
    </g>
  </g>
  <path d="M64,15.17h18.67c.85,0,1.55.69,1.55,1.55v23.09c0,.85-.69,1.55-1.55,1.55h-18.67V15.17h0Z"/>
  <rect class="cls-2" x="86.77" y="24.94" width="16.89" height="11.54" rx=".72" ry=".72"/>
  <circle class="cls-2" cx="74.11" cy="24.75" r="4.22"/>
  <line class="cls-6" x1="68.54" y1="33.1" x2="79.67" y2="33.1"/>
  <line class="cls-6" x1="68.54" y1="36.01" x2="79.67" y2="36.01"/>
  <line class="cls-5" x1="94.04" y1="30.71" x2="102.48" y2="30.71"/>
  <line class="cls-5" x1="94.04" y1="32.91" x2="102.48" y2="32.91"/>
  <path d="M88.45,33.65v-1.36l1.09-.75v-1.08l-.2-.62c-.21-.66-.04-1.39.45-1.88h0c.11-.12.27-.18.43-.18h.43c.52,0,1,.26,1.28.69l.17.26c.15.22.22.49.22.75v.75l-.46.7v.84l.88.6v1.27h-4.29Z"/>
</svg>