<?xml version="1.0" encoding="UTF-8"?>
<svg id="pictos" xmlns="http://www.w3.org/2000/svg" viewBox="0 0 128 128">
  <defs>
    <style>
      .cls-1 {
        stroke-linecap: round;
      }

      .cls-1, .cls-2, .cls-3, .cls-4 {
        stroke-miterlimit: 10;
      }

      .cls-1, .cls-2, .cls-3, .cls-4, .cls-5 {
        fill: #fff;
        stroke: #000;
      }

      .cls-1, .cls-3, .cls-5 {
        stroke-width: 2px;
      }

      .cls-2 {
        stroke-width: 2.18px;
      }

      .cls-4 {
        stroke-width: 1.63px;
      }

      .cls-5 {
        stroke-linejoin: round;
      }
    </style>
  </defs>
  <polygon class="cls-3" points="46.67 116 46.67 53.6 116 53.6 116 116 109.45 116 109.44 102.18 53.59 102.36 53.5 116 46.67 116"/>
  <rect class="cls-3" x="50.21" y="58.52" width="61.19" height="32.2"/>
  <rect class="cls-2" x="76" y="83.59" width="31.09" height="7.13" rx="2.79" ry="2.79"/>
  <rect class="cls-2" x="76" y="76.46" width="31.09" height="7.13" rx="2.79" ry="2.79"/>
  <rect class="cls-2" x="76" y="69.33" width="31.09" height="7.13" rx="2.79" ry="2.79"/>
  <rect class="cls-4" x="58.92" y="47.19" width="20.95" height="5.94" rx="2.97" ry="2.97"/>
  <rect class="cls-4" x="58.92" y="41.25" width="20.95" height="5.94" rx="2.97" ry="2.97"/>
  <rect class="cls-4" x="58.92" y="35.3" width="20.95" height="5.94" rx="2.97" ry="2.97"/>
  <g>
    <path class="cls-5" d="M32.01,48.55l10.64,4.4,9.78-1.81c1.66-.31,3.21.91,3.31,2.6h0c.08,1.31-.77,2.51-2.03,2.87l-12.33,3.53-9.4-3.03"/>
    <g>
      <ellipse class="cls-5" cx="26.56" cy="23.47" rx="7.13" ry="7.15"/>
      <path class="cls-1" d="M9.97,115.38l4.36-21.88,2.21-23.98-.24-26.37c-.14-2.25,1.08-4.36,3.09-5.37h0c1.04-.52,2.21-.7,3.36-.53l6.22.96,15.16,3c1.55.31,3.15.15,4.61-.46l12.49-5.18c1.79-.74,3.83.23,4.38,2.09h0c.46,1.54-.26,3.19-1.71,3.89l-16.52,8.01h-15.35l6.41,65.19-6.34.18-6.13-38.45-4.21,20.34-5.51,18.54h-6.27Z"/>
    </g>
  </g>
</svg>