<?xml version="1.0" encoding="UTF-8"?>
<svg id="pictos" xmlns="http://www.w3.org/2000/svg" viewBox="0 0 128 128">
  <defs>
    <style>
      .cls-1 {
        stroke-width: 1.93px;
      }

      .cls-1, .cls-2 {
        stroke-linecap: round;
      }

      .cls-1, .cls-2, .cls-3, .cls-4, .cls-5 {
        stroke: #000;
      }

      .cls-1, .cls-2, .cls-3, .cls-5 {
        fill: #fff;
      }

      .cls-1, .cls-5 {
        stroke-linejoin: round;
      }

      .cls-2, .cls-3, .cls-4 {
        stroke-miterlimit: 10;
      }

      .cls-2, .cls-5 {
        stroke-width: 2.01px;
      }

      .cls-3 {
        stroke-width: 1.88px;
      }

      .cls-4 {
        fill: none;
        stroke-width: .91px;
      }
    </style>
  </defs>
  <path d="M95.42,20.23h2.62s.02.13.02.21c0,.55,0,1.11.02,1.66,0,.1.06.22.14.28.48.41.83.89.82,1.55,0,1.67-.01,3.35,0,5.02,0,.23-.06.3-.3.3-1.36,0-2.72.02-4.08.03-.05,0-.09,0-.16,0,0-.06-.02-.12-.02-.18,0-1.7.02-3.4.02-5.09,0-.68.24-1.22.81-1.61.07-.05.12-.18.12-.27.01-.62,0-1.24,0-1.9ZM98.18,26.14h.02c0-.74,0-1.48,0-2.21,0-.52-.43-.95-.94-.98-.28-.02-.57,0-.85-.02-.41-.04-.71.13-.9.48-.1.18-.16.4-.19.6-.03.2,0,.41,0,.62,0,1.23,0,2.46,0,3.69,0,.21.05.3.28.29.77-.01,1.54-.01,2.31,0,.2,0,.27-.05.27-.26,0-.74,0-1.48,0-2.21ZM96.26,22.1c.3,0,.58,0,.86,0,.05,0,.14-.1.14-.15,0-.25,0-.5-.01-.76,0-.05-.06-.13-.09-.13-.3,0-.6.02-.89.03v1.02Z"/>
  <path d="M89.82,20.23h2.62s.02.13.02.21c0,.55,0,1.11.02,1.66,0,.1.06.22.14.28.48.41.83.89.82,1.55,0,1.67-.01,3.35,0,5.02,0,.23-.06.3-.3.3-1.36,0-2.72.02-4.08.03-.05,0-.09,0-.16,0,0-.06-.02-.12-.02-.18,0-1.7.02-3.4.02-5.09,0-.68.24-1.22.81-1.61.07-.05.12-.18.12-.27.01-.62,0-1.24,0-1.9ZM92.58,26.14h.02c0-.74,0-1.48,0-2.21,0-.52-.43-.95-.94-.98-.28-.02-.57,0-.85-.02-.41-.04-.71.13-.9.48-.1.18-.16.4-.19.6-.03.2,0,.41,0,.62,0,1.23,0,2.46,0,3.69,0,.21.05.3.28.29.77-.01,1.54-.01,2.31,0,.2,0,.27-.05.27-.26,0-.74,0-1.48,0-2.21ZM90.66,22.1c.3,0,.58,0,.86,0,.05,0,.14-.1.14-.15,0-.25,0-.5-.01-.76,0-.05-.06-.13-.09-.13-.3,0-.6.02-.89.03v1.02Z"/>
  <g>
    <path d="M104.38,24.07c0-1.13,0-2.26,0-3.39,0-.84.33-1.54.89-2.13.1-.1.28-.17.42-.18.99,0,1.98.02,2.97.01.32,0,.57.1.79.33,1.01,1.03,1.54,2.25,1.53,3.71-.01,1.74,0,3.49-.01,5.23,0,.84-.78,1.61-1.61,1.61-1.15,0-2.29,0-3.44,0-.78,0-1.55-.77-1.55-1.56,0-1.21,0-2.43,0-3.64,0,0,0,0,0,0ZM109.71,24.91c0-1.22-.96-2.13-2.2-2.12-1.18.01-2.17,1.03-2.14,2.24.02.94.84,2.18,2.22,2.2,1.15.02,2.12-1.07,2.11-2.32ZM109.99,22.97c-.08-1.06-.42-2.01-1.04-2.86-.08-.11-.18-.21-.29-.29-.14-.11-.29-.09-.35.08-.06.18-.11.37-.09.56.09,1.07.61,1.94,1.36,2.67.07.07.2.12.3.11.05,0,.08-.17.11-.26Z"/>
    <path d="M108.74,15.76v1.85c-.06.03-.07.04-.09.04-.49-.02-.49-.02-.5-.53,0-.2-.02-.4-.04-.6-.02-.16-.13-.19-.26-.19-.17,0-.14.13-.14.23,0,.3,0,.6,0,.9,0,.18-.05.26-.24.25-.17-.01-.38.03-.38-.24,0-.29,0-.58,0-.88,0-.14,0-.24-.19-.23-.16,0-.29.02-.28.23,0,.28-.01.55,0,.83,0,.15-.03.23-.21.22-.49-.02-.44.11-.47-.45-.02-.42-.03-.84-.05-1.27,0-.12.03-.18.16-.18.87,0,1.74,0,2.6,0,.04,0,.09.02.1.02Z"/>
    <path d="M108.91,24.98c0,.76-.61,1.42-1.32,1.42-.74,0-1.36-.64-1.36-1.43,0-.74.61-1.36,1.34-1.37.75,0,1.34.6,1.34,1.37Z"/>
  </g>
  <g>
    <path d="M112.21,41.72c0,1.4,0,2.8,0,4.2,0,.36-.12.64-.37.88-.18.17-.38.26-.64.26-1.2,0-2.4-.03-3.6,0-.55.02-1.14-.6-1.13-1.09.02-.69.02-1.38.02-2.08,0-1.97.01-3.94,0-5.9,0-.88.23-1.64,1-2.15.06-.04.1-.16.1-.24,0-.51,0-1.03,0-1.54,0-.12,0-.25,0-.37-.01-.17.06-.23.23-.23.3,0,.6,0,.9,0,.68,0,1.37-.01,2.05-.03.21,0,.3.06.3.29,0,.66.02,1.32.05,1.98,0,.08.06.16.12.22.06.06.14.09.21.14.53.36.83.85.83,1.51,0,1.38,0,2.77,0,4.15-.02,0-.04,0-.06,0ZM111.2,41.52h.01c0-.55,0-1.11,0-1.66,0-.52.04-1.04.05-1.57,0-.25-.05-.29-.29-.26-1.03.12-2.07.16-3.11.07-.22-.02-.26.06-.26.26.02.56.04,1.12.04,1.68,0,1.48-.02,2.97-.03,4.45,0,.43.09.52.51.53.91,0,1.83,0,2.74-.02.3,0,.33-.04.33-.34,0-1.05,0-2.09,0-3.14ZM108.45,34.25c0,.29,0,.55,0,.8,0,.05.08.15.13.15.48.02.97.03,1.45.03.06,0,.15-.1.16-.17.03-.21.04-.43.04-.64,0-.05-.07-.15-.12-.15-.55-.01-1.1,0-1.67,0Z"/>
    <path d="M110.33,38.9c0,.37,0,.72,0,1.07,0,1.33-.01,2.66,0,3.98,0,.22-.06.27-.28.26-.45-.02-.91-.02-1.36-.02-.19,0-.25-.07-.25-.25,0-1.34,0-2.67.01-4.01,0-.28,0-.55,0-.83,0-.14.05-.21.2-.21.56,0,1.12,0,1.68,0Z"/>
  </g>
  <g>
    <path d="M101.73,34.85c0,.26,0,.47,0,.69,0,.14.06.19.19.19.26,0,.52.03.78.05.2.01.28.12.28.32,0,.43.01.86,0,1.29,0,.14.04.22.16.3,1,.69,1.54,1.67,1.58,2.88.05,1.44.01,2.89.06,4.34.02.71-.35,1.18-.81,1.63-.01.01-.03.02-.04.03-.45.42-.98.53-1.59.5-.74-.04-1.48-.02-2.21.02-.62.03-1.11-.22-1.53-.63-.2-.19-.38-.43-.52-.67-.1-.17-.17-.39-.17-.58-.01-1.5,0-3,0-4.5,0-1.18.57-2.06,1.45-2.78.22-.18.33-.34.31-.62-.03-.4,0-.8,0-1.2,0-.2.08-.28.27-.29.24-.02.47-.05.71-.06.14,0,.18-.06.19-.2.05-.7.05-.7-.64-.7-.25,0-.51,0-.76,0-.31,0-.6.05-.88.22-.26.16-.56.05-.69-.23-.09-.18-.05-.4.16-.49.35-.15.73-.33,1.1-.36,1.02-.06,2.04-.05,3.07-.06.03,0,.07,0,.09,0,.32.16.13.45.17.68.02.16-.06.24-.23.24-.17,0-.33,0-.5,0ZM100.9,38.08c-.18.05-.34.06-.46.13-.96.55-1.71,1.25-1.71,2.48,0,1.43-.02,2.86-.01,4.29,0,.67.71,1.34,1.37,1.34.35,0,.71,0,1.06,0,.53,0,1.06,0,1.59-.03.65-.04,1.23-.69,1.22-1.34,0-1.31-.02-2.61-.03-3.92,0-.15,0-.29-.03-.44-.11-.87-.49-1.61-1.14-2.2-.24-.22-.52-.31-.84-.3-.15,0-.2.06-.19.2.02.45.02.89.03,1.34,0,.43,0,.43-.42.42-.46,0-.43.1-.43-.45,0-.49,0-.98,0-1.52ZM100.46,37.3c.42,0,.79,0,1.17,0,.69-.02.6.15.59-.66,0,0,0-.02,0-.02-.05-.05-.09-.13-.14-.13-.48-.02-.97-.03-1.45-.03-.06,0-.15.08-.16.13-.02.23,0,.47,0,.71Z"/>
    <path d="M103.17,42.8c0,.35,0,.69,0,1.04-.02.7-.33,1.12-1.03,1.22-.81.12-1.64.15-2.39-.34-.2-.13-.33-.27-.34-.51-.02-.74-.03-1.47-.04-2.21,0-.31.15-.56.37-.77.72-.7,1.93-.82,2.77-.28.12.08.24.17.38.22.22.07.29.21.28.43-.01.4,0,.8,0,1.2,0,0,0,0,0,0ZM102.46,42.93h.03c0-.22,0-.45,0-.67,0-.38-.19-.66-.55-.76-.27-.08-.56-.1-.84-.09-.42.01-.93.44-.96.86-.04.48-.03.97.05,1.44.07.46.35.65.82.66.23,0,.46.01.69.01.46,0,.73-.25.76-.71.02-.24,0-.49,0-.74Z"/>
  </g>
  <g>
    <path d="M80.56,34.85c0,.26,0,.47,0,.69,0,.14.06.19.19.19.26,0,.52.03.78.05.2.01.28.12.28.32,0,.43.01.86,0,1.29,0,.14.04.22.16.3,1,.69,1.54,1.67,1.58,2.88.05,1.44.01,2.89.06,4.34.02.71-.35,1.18-.81,1.63-.01.01-.03.02-.04.03-.45.42-.98.53-1.59.5-.74-.04-1.48-.02-2.21.02-.62.03-1.11-.22-1.53-.63-.2-.19-.38-.43-.52-.67-.1-.17-.17-.39-.17-.58-.01-1.5,0-3,0-4.5,0-1.18.57-2.06,1.45-2.78.22-.18.33-.34.31-.62-.03-.4,0-.8,0-1.2,0-.2.08-.28.27-.29.24-.02.47-.05.71-.06.14,0,.18-.06.19-.2.05-.7.05-.7-.64-.7-.25,0-.51,0-.76,0-.31,0-.6.05-.88.22-.26.16-.56.05-.69-.23-.09-.18-.05-.4.16-.49.35-.15.73-.33,1.1-.36,1.02-.06,2.04-.05,3.07-.06.03,0,.07,0,.09,0,.32.16.13.45.17.68.02.16-.06.24-.23.24-.17,0-.33,0-.5,0ZM79.73,38.08c-.18.05-.34.06-.46.13-.96.55-1.71,1.25-1.71,2.48,0,1.43-.02,2.86-.01,4.29,0,.67.71,1.34,1.37,1.34.35,0,.71,0,1.06,0,.53,0,1.06,0,1.59-.03.65-.04,1.23-.69,1.22-1.34,0-1.31-.02-2.61-.03-3.92,0-.15,0-.29-.03-.44-.11-.87-.49-1.61-1.14-2.2-.24-.22-.52-.31-.84-.3-.15,0-.2.06-.19.2.02.45.02.89.03,1.34,0,.43,0,.43-.42.42-.46,0-.43.1-.43-.45,0-.49,0-.98,0-1.52ZM79.29,37.3c.42,0,.79,0,1.17,0,.69-.02.6.15.59-.66,0,0,0-.02,0-.02-.05-.05-.09-.13-.14-.13-.48-.02-.97-.03-1.45-.03-.06,0-.15.08-.16.13-.02.23,0,.47,0,.71Z"/>
    <path d="M82.01,42.8c0,.35,0,.69,0,1.04-.02.7-.33,1.12-1.03,1.22-.81.12-1.64.15-2.39-.34-.2-.13-.33-.27-.34-.51-.02-.74-.03-1.47-.04-2.21,0-.31.15-.56.37-.77.72-.7,1.93-.82,2.77-.28.12.08.24.17.38.22.22.07.29.21.28.43-.01.4,0,.8,0,1.2,0,0,0,0,0,0ZM81.29,42.93h.03c0-.22,0-.45,0-.67,0-.38-.19-.66-.55-.76-.27-.08-.56-.1-.84-.09-.42.01-.93.44-.96.86-.04.48-.03.97.05,1.44.07.46.35.65.82.66.23,0,.46.01.69.01.46,0,.73-.25.76-.71.02-.24,0-.49,0-.74Z"/>
  </g>
  <g>
    <path d="M71.83,29.27c-.56,0-1.12,0-1.68,0-.15,0-.23-.04-.32-.16-.4-.51-.81-1-1.09-1.6-.78-1.66-.19-3.75,1.37-4.73.17-.11.23-.22.23-.43-.02-.6,0-1.2-.02-1.8,0-.24.08-.29.3-.29.77,0,1.54,0,2.3-.02.17,0,.21.05.21.21,0,.65.02,1.29.03,1.94,0,.12.01.2.14.28,1.35.78,2.42,2.78,1.61,4.66-.23.53-.52,1.03-.9,1.47-.04.04-.09.08-.1.12-.11.32-.35.31-.62.3-.49-.02-.98,0-1.48,0v.04ZM73.88,26.01c.02-1.15-.91-2.13-2.03-2.15-1.21-.02-2.09.88-2.11,2.14-.01,1.08.96,2.09,2.04,2.1,1.1.01,2.08-.97,2.1-2.09ZM72.46,21.12c-.45,0-.84,0-1.24,0-.06,0-.15.08-.16.13-.02.26-.01.52,0,.78,0,.05.09.13.14.14.33.02.67.04,1.01.03.07,0,.18-.09.19-.14.03-.3.04-.6.06-.94Z"/>
    <path d="M71.68,27.26c-.56-.02-1.19-.5-1.19-1.28,0-.63.63-1.31,1.22-1.32.69,0,1.31.58,1.34,1.23.03.82-.79,1.36-1.37,1.37Z"/>
  </g>
  <g>
    <path d="M60.72,24.09c1.08,0,2.15,0,3.23,0,.21,0,.26.06.26.26,0,1.32,0,2.64,0,3.97,0,.47-.56.96-1.03.96-1.47-.02-2.94-.06-4.4,0-.66.03-1.03-.28-1.38-.72-.06-.07-.08-.18-.08-.28-.02-1.32-.03-2.64-.05-3.97,0-.19.05-.24.25-.24,1.07.01,2.14,0,3.2,0v.02ZM60.86,25.22h0c-.53,0-1.06,0-1.59,0-.17,0-.26.07-.33.23-.22.49-.2,1-.21,1.52,0,.75.11.89.88.89.86,0,1.72-.03,2.58-.05.11,0,.23-.02.34-.05.19-.05.3-.18.3-.38,0-.6,0-1.2-.02-1.8,0-.27-.09-.33-.36-.34-.53,0-1.06,0-1.59,0Z"/>
    <path d="M64.2,23.29c-.09,0-.13.02-.18.02-2.15,0-4.3-.02-6.45-.02-.22,0-.29-.05-.29-.28.01-.38,0-.75-.02-1.13-.01-.2.06-.25.24-.25,1.81.01,3.63.02,5.44.03.35,0,.69,0,1.04,0,.16,0,.23.03.23.22-.01.47,0,.93,0,1.41Z"/>
    <path d="M60.75,26.02c.44,0,.89,0,1.33,0,.19,0,.28.06.25.27-.03.22-.04.44-.05.66,0,.14-.06.21-.21.21-.87-.04-1.75-.08-2.62-.13-.06,0-.12-.03-.16-.07-.12-.11-.21-.74-.11-.86.04-.05.14-.08.22-.09.45,0,.9,0,1.36,0,0,0,0,0,0,0Z"/>
  </g>
  <g>
    <path d="M88.49,41.88c1.08,0,2.15,0,3.23,0,.21,0,.26.06.26.26,0,1.32,0,2.64,0,3.97,0,.47-.56.96-1.03.96-1.47-.02-2.94-.06-4.4,0-.66.03-1.03-.28-1.38-.72-.06-.07-.08-.18-.08-.28-.02-1.32-.03-2.64-.05-3.97,0-.19.05-.24.25-.24,1.07.01,2.14,0,3.2,0v.02ZM88.63,43.01h0c-.53,0-1.06,0-1.59,0-.17,0-.26.07-.33.23-.22.49-.2,1-.21,1.52,0,.75.11.89.88.89.86,0,1.72-.03,2.58-.05.11,0,.23-.02.34-.05.19-.05.3-.18.3-.38,0-.6,0-1.2-.02-1.8,0-.27-.09-.33-.36-.34-.53,0-1.06,0-1.59,0Z"/>
    <path d="M91.97,41.07c-.09,0-.13.02-.18.02-2.15,0-4.3-.02-6.45-.02-.22,0-.29-.05-.29-.28.01-.38,0-.75-.02-1.13-.01-.2.06-.25.24-.25,1.81.01,3.63.02,5.44.03.35,0,.69,0,1.04,0,.16,0,.23.03.23.22-.01.47,0,.93,0,1.41Z"/>
    <path d="M88.52,43.81c.44,0,.89,0,1.33,0,.19,0,.28.06.25.27-.03.22-.04.44-.05.66,0,.14-.06.21-.21.21-.87-.04-1.75-.08-2.62-.13-.06,0-.12-.03-.16-.07-.12-.11-.21-.74-.11-.86.04-.05.14-.08.22-.09.45,0,.9,0,1.36,0,0,0,0,0,0,0Z"/>
  </g>
  <path d="M112.63,14.25c1.59,0,2.89,1.3,2.89,2.89v27.55c0,1.59-1.3,2.89-2.89,2.89h-61.05c-1.59,0-2.89-1.3-2.89-2.89v-27.55c0-1.59,1.3-2.89,2.89-2.89h61.05M112.63,12.25h-61.05c-2.7,0-4.89,2.19-4.89,4.89v27.55c0,2.7,2.19,4.89,4.89,4.89h61.05c2.7,0,4.89-2.19,4.89-4.89v-27.55c0-2.7-2.19-4.89-4.89-4.89h0Z"/>
  <g>
    <line class="cls-4" x1="46.7" y1="30.15" x2="117.52" y2="30.15"/>
    <line class="cls-4" x1="46.7" y1="32.48" x2="117.52" y2="32.48"/>
  </g>
  <g>
    <ellipse class="cls-5" cx="28.85" cy="28.06" rx="6.86" ry="6.87"/>
    <path class="cls-5" d="M34.1,52.18l10.23,4.23,9.41-1.75c1.6-.3,3.09.88,3.18,2.5h0c.07,1.26-.74,2.41-1.95,2.76l-11.86,3.4-9.04-2.92"/>
    <path class="cls-2" d="M12.89,116.46l4.19-21.05,2.12-23.06-.23-25.36c-.13-2.16,1.04-4.19,2.97-5.16h0c1-.5,2.13-.68,3.23-.51l5.98.92,14.58,2.89c1.49.29,3.03.14,4.43-.44l12.02-4.98c1.72-.71,3.68.22,4.22,2.01h0c.44,1.48-.25,3.07-1.64,3.75l-15.89,7.7h-14.76l6.17,62.7-6.1.18-5.9-36.99-4.05,19.57-5.3,17.83h-6.03Z"/>
  </g>
  <g>
    <polygon class="cls-1" points="92.58 115.87 71.79 115.87 73.87 79.03 90.5 79.03 92.58 115.87"/>
    <path class="cls-1" d="M82.32,84.68c15.05,0,27.25-7.68,27.25-17.14h-54.5c0,9.47,12.2,17.14,27.25,17.14Z"/>
    <path class="cls-3" d="M79.38,63.2l-.59,3.87h-4.53c.01-.07.01-.14.03-.21l1.19-4.81c.42-1.8,2.17-3.91,4.26-3.8l1.14.03,4.55.13.57.02c2.27-.18,4,1.94,4.34,4.03.06.34.06.98.04,1.43h-3.21c0-.35-.04-.61-.12-.84-.11-.31-.57-.88-1.57-.84,0,.01-3.14-.03-4.33.02s-1.55.08-1.75.98Z"/>
  </g>
</svg>