<?xml version="1.0" encoding="UTF-8"?>
<svg id="pictos" xmlns="http://www.w3.org/2000/svg" viewBox="0 0 128 128">
  <defs>
    <style>
      .cls-1, .cls-2, .cls-3, .cls-4, .cls-5, .cls-6, .cls-7 {
        stroke: #000;
        stroke-miterlimit: 10;
      }

      .cls-1, .cls-3, .cls-4, .cls-7 {
        stroke-width: 2px;
      }

      .cls-1, .cls-4, .cls-5, .cls-6, .cls-7 {
        fill: none;
      }

      .cls-1, .cls-5, .cls-6, .cls-7 {
        stroke-linecap: round;
      }

      .cls-2, .cls-8, .cls-3 {
        fill: #fff;
      }

      .cls-2, .cls-5 {
        stroke-width: 3px;
      }

      .cls-3, .cls-7 {
        fill-rule: evenodd;
      }

      .cls-6 {
        stroke-width: 2.69px;
      }
    </style>
  </defs>
  <g>
    <rect class="cls-8" x="13.19" y="19.02" width="80.26" height="67.07" rx="5.8" ry="5.8"/>
    <path d="M87.64,20.02c2.65,0,4.8,2.15,4.8,4.8v55.46c0,2.65-2.15,4.8-4.8,4.8H18.99c-2.65,0-4.8-2.15-4.8-4.8V24.82c0-2.65,2.15-4.8,4.8-4.8h68.65M87.64,18.02H18.99c-3.76,0-6.8,3.05-6.8,6.8v55.46c0,3.76,3.05,6.8,6.8,6.8h68.65c3.76,0,6.8-3.05,6.8-6.8V24.82c0-3.76-3.05-6.8-6.8-6.8h0Z"/>
  </g>
  <line class="cls-4" x1="12.19" y1="31.22" x2="94.45" y2="31.22"/>
  <g>
    <line class="cls-5" x1="24.96" y1="14.33" x2="24.96" y2="24.55"/>
    <line class="cls-5" x1="36.31" y1="14.33" x2="36.31" y2="24.55"/>
    <line class="cls-5" x1="47.65" y1="14.33" x2="47.65" y2="24.55"/>
    <line class="cls-5" x1="58.99" y1="14.33" x2="58.99" y2="24.55"/>
    <line class="cls-5" x1="70.33" y1="14.33" x2="70.33" y2="24.55"/>
    <line class="cls-5" x1="81.68" y1="14.33" x2="81.68" y2="24.55"/>
  </g>
  <polyline class="cls-6" points="21.96 46.85 26.69 51.68 37.2 42.48"/>
  <polyline class="cls-6" points="21.96 67.51 26.69 72.33 37.2 63.13"/>
  <g>
    <line class="cls-4" x1="55.41" y1="44.59" x2="79.25" y2="44.59"/>
    <circle cx="48.18" cy="44.59" r="2.72"/>
  </g>
  <g>
    <line class="cls-4" x1="55.41" y1="56.16" x2="79.25" y2="56.16"/>
    <circle cx="48.18" cy="56.16" r="2.72"/>
  </g>
  <g>
    <line class="cls-4" x1="55.41" y1="67.73" x2="79.25" y2="67.73"/>
    <circle cx="48.18" cy="67.73" r="2.72"/>
  </g>
  <circle class="cls-2" cx="74.54" cy="82.05" r="28.61"/>
  <path class="cls-3" d="M42.19,60.77v54.29h-4.84l1.31-24.31h-2.22s-.2-7.65-.1-13.29.4-14.87,5.85-16.68Z"/>
  <g>
    <path class="cls-7" d="M107.31,61.11c-1.61,11.52-3.43,21.41,1.82,21.41"/>
    <path class="cls-7" d="M113.84,61.11c1.61,11.52,3.43,21.41-1.82,21.41"/>
    <line class="cls-1" x1="109.53" y1="61.11" x2="109.13" y2="77.58"/>
    <line class="cls-1" x1="111.82" y1="61.11" x2="112.22" y2="77.58"/>
    <polygon class="cls-3" points="112.74 114.71 108.41 114.71 109.13 82.52 112.02 82.52 112.74 114.71"/>
  </g>
  <g>
    <path d="M71.46,58.89c1.25-.12,2.31.78,3.26,1.45,14.7.02,25.74,15.37,20.26,29.27-.57,1.44-.84,1.99-1.29,3.51-.7,2.35-2.52,4.45-4.75,5.46-1.54.7-2.13,1.25-3.53,2.08-1.84,1.1-5.67,2.62-7.91,2.68-5.16.79-10.57-.58-14.94-3.35-9.96-6.32-12.87-19.66-6.54-29.58,2.85-4.46,8.04-8.37,13.27-9.52.39-1.02,1.05-1.74,2.16-1.98ZM70.21,74.45c-1.21.12-2.18,1-3.22,1.54-1.61.82-3.29,1.33-5.1,1.49-1.12.1-2.44.08-3.22,1.03-.75.93-.28,1.84-.55,2.25-.7,1.08-3.6,2.08-3.32,4.46.21,1.79,2.12,2.48,2.9,3.62.13,3.04,1.34,3.88,4.27,3.88h1.81s5.87,0,5.87,0c.99,0,2.01-.05,2.99,0,.81.05,1.51.63,2.3.57,1.69-.13,3.17-1.56,3.16-3.29-.01-2.85-4.2-2.14-3.38-6.12.55-2.69-2.4-2.95-2.43-5.47,0-.4.14-.77.21-1.16.22-1.24-.85-3.09-2.3-2.8ZM77.24,79.18c-1.12.1-2.4.17-3.44.63.94.93,2.07,1.72,2.08,3.18.02,3.05-1.16,2.06,1.74,4.24,2.06,1.55,1.83,3.85.36,5.72,1.28,3.87,6.23,6.37,9.98,4.98,4.12-1.75,6.16-5.96,4.34-10.15-2.53-5.81-8.98-8.75-15.07-8.59ZM75.7,61.4c.85,1.28,1.55,2.27,2.34,3.62l2.78,4.67c.44.74.8,1.46,1.39,2.1l.06.03c1.48.79,5.3,1.51,6,2.01.89.63,1.54,2.53,1.01,3.54-.17.33-.49.53-.68.84-.19.32-.75,2.34-.87,2.8,3.27,2.32,4.89,4.28,6.15,8.13l.03.13.05.03c.23-.29.36-.8.48-1.15,3.96-11.56-4.46-24.42-16.43-26.49-.77-.13-1.54-.16-2.31-.26ZM54.28,86.8c1.48,5.3,4.73,10.02,9.58,12.77,6.09,3.44,13.9,3.95,20.16.65.55-.31,1.11-.62,1.64-.95-3.49-.17-7.5-2.11-8.57-5.68-2.45,1.4-2.51.45-4.5.19-1.01-.13-2.23-.03-3.26-.03h-6.11c-3.4,0-6.39-.08-6.52-4.59-1.16-.79-1.81-1.92-2.42-2.36ZM69,62.06c-9.64,2.54-15.59,11.22-15.3,20.98.02.6.07,1.16,0,1.75.2-.63.39-1.26.73-1.84.62-.95,1.81-2.08,2.79-2.69-.03-3.07,2.18-3.71,4.83-3.79.33-1.26,1.3-5.17,2.23-5.72,1.22-.71,3.69.34,5.1.12.51-.08.99-.44,1.46-.64-1.25-2.16-1.88-4.68-1.84-7.18,0-.2.15-.91,0-1ZM71.46,59.96c-2.52.98-1.24,6.4-.53,8.19.53,1.34,1.04,2.19,2,3.23,1.97,2.14,4.16,4.48,6.22,6.55.52.53,1.17.37,1.85.47-1.21-2.04-2.65-3.92-3.76-6.03-1.31-2.5-2.16-4.24-5.39-4.65,0-.27-.04-.67.1-.92.75-.31,2.7.75,3.37,1.2,1.47,1.18,1.89,2.11,2.73,3.75.86,1.7,1.95,3.32,3.01,4.9.47.69,1.02,1.39,1.37,2.15,1.09.11,2.22.57,3.23,1.01l-8.16-13.74c-1.06-1.8-3.55-6.42-6.06-6.11ZM71.16,71.13c-2.23,1.57-4.39.06-6.38.46-.65.75-1.18,3.57-1.69,4.66,2.91-.28,4.35-2.17,6.47-2.81,2.11-.09,3.88.85,3.98,3.16.03.74-.24,1.46-.17,2.2l.61-.15c.34-1.53.42-2.11,1.08-3.51-.3-.45-3.59-3.94-3.89-4.01ZM82.83,73.13c.86,1.64,1.87,3.26,2.84,4.84.46.75,1.01,1.49,1.38,2.29.06-.55.17-.96.4-1.46-.04-1.1.56-1.21,1.02-1.99.02-.85-.21-1.5-.74-2.18-1.57-.53-3.25-.96-4.89-1.5ZM75.87,75.91c-.54.74-.56,1.66-.82,2.5.61-.09,1.21-.18,1.82-.25h1.11c-.63-.69-1.4-1.65-2.11-2.25Z"/>
    <path d="M82.21,84.79c.8,0,.83.87.23,1.19-.87,0-1.04-.94-.23-1.19Z"/>
    <path d="M87.05,92.71c.69-.1,1.13.7.4,1.03-.82.29-1.11-.69-.4-1.03Z"/>
    <path d="M87.73,87.15c.85,0,1.11.77.4,1.2-.76.03-1.11-.81-.4-1.2Z"/>
    <path d="M80.86,89.98c.84-.04,1.06.72.44,1.2-.82.05-1.13-.78-.44-1.2Z"/>
    <path d="M76.88,80.77c.81-.06.95.78.36,1.19-.97.23-1.18-.83-.36-1.19Z"/>
    <path d="M70.48,87.42c.87-.05,1.02.73.35,1.14-.83.12-1.04-.76-.35-1.14Z"/>
    <path d="M64.93,87.42c.92-.14,1.13.55.56,1.14-.82.16-1.18-.64-.56-1.14Z"/>
    <path d="M74.72,89.54c.85.04,1.1.88.33,1.24-.85-.04-.96-.81-.33-1.24Z"/>
    <path d="M65.65,81.16c.87-.05,1.13.73.44,1.18l-.13.02c-.83.1-.9-.82-.31-1.2Z"/>
    <path d="M60.04,82.65c.88-.13,1.06.85.32,1.22-.85.05-1.01-.81-.32-1.22Z"/>
    <path d="M68.9,77.52c.91.12.96,1.09.09,1.28-.82-.22-.92-1.05-.09-1.28Z"/>
  </g>
</svg>