<?xml version="1.0" encoding="UTF-8"?>
<svg id="Left" xmlns="http://www.w3.org/2000/svg" viewBox="0 0 128 128">
  <defs>
    <style>
      .cls-1 {
        fill: none;
        stroke-width: 2px;
      }

      .cls-1, .cls-2 {
        stroke: #000;
        stroke-linecap: round;
        stroke-miterlimit: 10;
      }

      .cls-2, .cls-3 {
        fill: #fff;
      }
    </style>
  </defs>
  <g>
    <path d="M65.8,36.19c-.7-.06-1.41-.08-2.1-.2-3.86-.7-7.03-2.58-9.51-5.62-.14-.17-.26-.38-.35-.58-.21-.47-.09-.82.44-.92,1.01-.19,2.02-.38,3.03-.51,4.77-.59,9.56-.71,14.36-.72.82,0,1.64-.08,2.46-.11.51-.02.79-.22.98-.74.97-2.63,2.83-4.08,5.66-4.36,1.95-.19,3.88-.53,5.82-.85.25-.04.5-.32.69-.53,1.04-1.18,2.27-2.11,3.71-2.73,4.13-1.77,8.46-2.84,12.86-3.69,3.22-.62,6.42-1.32,9.62-1.98.58-.12,1.16-.13,1.61.31.16.16.32.45.28.65-.03.16-.35.33-.56.37-1.59.3-3.19.57-4.94.87,1.53,3.5,1.98,7.18,2.47,10.94.59-.13,1.13-.25,1.76-.39-.08-.74-.1-1.44-.23-2.12-.37-1.97-.78-3.94-1.17-5.91-.05-.25-.12-.49-.16-.74-.06-.4-.23-.82.36-1.01.57-.17,1.03-.06,1.26.49.33.8.69,1.61.84,2.45.35,1.95.58,3.92.88,5.88.04.26.13.51.26.74.43.78.12,1.49-.74,1.64-1.68.28-3.37.54-5.05.83-.17.03-.37.16-.48.3-.76.97-1.48,1.97-2.26,2.92-.99,1.21-1.45,2.6-1.67,4.22,1.4,0,2.72.01,4.04,0,1.1-.01,2.05.34,2.9,1.03,1.14.92,1.66,2.41,1.27,3.73-.4,1.34-1.76,2.45-3.2,2.5-.63.02-1.02.1-1.04.87,0,.34-.29.72-.53,1-1.62,1.9-3.93,2.28-6.21,1.05-1.31.72-2.69.98-4.16.66-.2-.04-.45-.07-.58-.2-.65-.63-1.26-.37-1.97-.09-1.46.57-2.9.5-4.3-.38-.07.09-.17.19-.23.3-.73,1.3-1.84,1.98-3.32,1.86-1.39-.11-2.25-1.05-2.84-2.21-.28-.54-.41-1.16-.56-1.76-.29-1.14-.28-1.12-1.41-1.05-.93.06-1.87.09-2.81.07-1.93-.03-3.39-.95-4.51-2.47-.19-.25-.34-.53-.54-.84-.12.09-.23.16-.32.25-1.22,1.27-2.73,2.07-4.31,2.83-3.64,1.76-7.22,1.31-10.84.08-1.25-.42-2.2-1.29-3.02-2.3-.49-.6-.31-1.08.46-1.23.4-.08.82-.1,1.23-.09,1.88.05,3.6-.56,5.28-1.29.54-.23.99-.69,1.48-1.05l-.09-.18ZM103.51,18.6c-.74.26-1.36.48-1.99.7-1.93.68-3.99,1.13-5.77,2.08-3.28,1.75-4.81,5.05-6.32,8.21-.95,1.98-1.48,4.16-2.21,6.24-.15.43-.07.77.31,1.01.85.54,1.74.8,2.72.4.96-.39,1.79-.96,2.26-1.9.52-1.04,1-2.1,1.4-3.18.44-1.19,1.25-2.06,2.25-2.77.25-.18.58-.28.89-.32.98-.13,1.99-.13,2.94-.35,2.14-.49,4.08-1.41,5.3-3.35.49-.78.84-1.67,1.11-2.55.2-.66.68-.62,1.12-.61.59.01.43.54.35.84-.22.85-.38,1.77-.81,2.51-2.12,3.68-5.7,4.81-9.59,5.31-.8.1-1.41.4-1.76,1.33-.34.89-.62,1.79-.95,2.73.97,0,1.93-.04,2.88.01.66.03,1.06-.19,1.33-.79.09-.2.38-.38.61-.42.66-.1.76.08.79,1.21h3.73c.08-.32.19-.71.26-1.11.3-1.68.78-3.27,2.06-4.53.47-.46.9-1.01,1.15-1.61.39-.95,1.09-1.35,2.01-1.55.31-.07.62-.13.96-.2-.41-3.68-.59-7.36-2.25-10.7-6.53,1.02-12.77,2.82-18.75,5.52.65-.03,1.26-.18,1.89-.28,1.76-.27,3.49-.58,5.14-1.33,1.3-.59,2.7-.99,4.09-1.33.94-.23,1.95-.22,2.88.74ZM70.72,29.23c-4.89-.19-9.75.35-14.67.86,2.76,2.93,7.8,4.84,11.55,4.42.15-.02.29-.15.43-.25.78-.57,1.06-1.39,1.33-2.29.28-.93.87-1.77,1.36-2.73ZM60.06,40.11c4.06,2.47,10.74,2.28,14.57-2.2-2.43.02-3.84-1.42-4.91-3.55-2.3,3.46-5.25,5.67-9.65,5.74ZM92.26,22c-.83.14-1.55.27-2.26.39-2.96.52-5.91,1.16-8.9,1.53-2.06.25-3.49,1.18-4.47,2.95-.18.33-.17.51.21.68.6.26,1.2.56,1.75.92.48.31.93.38,1.56.13-.23-.34-.41-.64-.63-.92-.23-.29-.47-.56-.73-.81-.48-.47-.31-.9.16-1.18.4-.24.87-.41,1.33-.49,3.34-.61,6.69-1.19,10.03-1.76.87-.15,1.4-.66,1.94-1.44ZM92.98,37.55c.61.04,1.16.1,1.7.11,4.91.06,9.82.1,14.73.17.43,0,.87.06,1.28.17.86.25,1.16.81.95,1.68-.06.23-.11.46-.18.77.86-.48,1.08-1.12.77-2.02-.38-1.1-1.22-1.69-2.53-1.69-2.49,0-4.98.06-7.47.06-2.74,0-5.48-.04-8.22-.08-.57,0-.91.19-1.03.84ZM75.21,36.53c.24-.03.56-.05.88-.09,1.33-.19,2.36-1.21,2.61-2.52.22-1.16-.16-2.2-.73-3.12-.79-1.29-2.02-1.99-3.57-1.86-1.95.17-3.51,2.02-3.37,3.89.15,2.04,2.13,3.83,4.18,3.71ZM86.53,29.18c-2.45.11-4.53,1.44-6.95,1.15.98,1.46,1.05,2.91.31,4.49h1.91c-.04-.45-.08-.89-.12-1.33.87-.04,1.64-.09,2.41-.12.34-.01.58.17.46.49-.14.35-.42.64-.62.92h1.92c.22-1.83.45-3.67.68-5.59ZM94.64,44.23c1.02-.06,2.14-.39,3.13-1.1,1.17-.84,1.02-2.28-.33-2.85-.32-.14-.71-.18-1.06-.15-1.51.09-2.41,1.28-3.55,2.04-.06.04-.07.17-.08.25-.08.94.77,1.84,1.89,1.82ZM99.29,44.13c1.6.49,4.22-.47,4.99-1.74.67-1.11.06-2.37-1.24-2.54-1.01-.13-1.88.24-2.74.69-.11.06-.23.26-.2.36.27,1.18.12,2.26-.81,3.23ZM86.59,42.23c.3.86.54,1.67.85,2.44.26.64.83.91,1.49.91.72,0,1.44-.26,1.67-.97.24-.75.24-1.58.34-2.38h-4.35ZM80.25,40.22c-.31-.17-.56-.23-.69-.39-.23-.28-.54-.62-.54-.95-.01-.64,1.13-1.58,1.79-1.62,1.52-.08,3.04-.18,4.58-.27.02-.3.04-.54.05-.73-1.37,0-2.7.09-4.01-.02-1.67-.14-2.68.82-3.63,1.92-.16.18-.22.71-.08.84.65.65,1.37,1.26,2.54,1.21ZM104.79,44.1c.04.1.09.19.13.29.83-.17,1.69-.24,2.48-.52.89-.32,1.3-1.42.99-2.29-.26-.74-1.11-1.09-2.11-.83.13,1.36-.18,2.57-1.48,3.35Z"/>
    <path class="cls-3" d="M103.51,18.6c-.93-.96-1.93-.97-2.88-.74-1.39.34-2.79.75-4.09,1.33-1.65.75-3.38,1.06-5.14,1.33-.62.09-1.24.25-1.89.28,5.97-2.71,12.22-4.5,18.75-5.52,1.66,3.34,1.83,7.02,2.25,10.7-.34.07-.65.13-.96.2-.91.2-1.62.6-2.01,1.55-.24.59-.68,1.15-1.15,1.61-1.28,1.25-1.76,2.84-2.06,4.53-.07.4-.19.79-.26,1.11h-3.73c-.02-1.13-.13-1.31-.79-1.21-.22.03-.51.22-.61.42-.28.59-.68.82-1.33.79-.95-.05-1.91-.01-2.88-.01.33-.94.61-1.85.95-2.73.35-.93.96-1.22,1.76-1.33,3.89-.5,7.48-1.63,9.59-5.31.43-.75.59-1.66.81-2.51.08-.3.23-.83-.35-.84-.44-.01-.91-.05-1.12.61-.27.88-.62,1.77-1.11,2.55-1.22,1.94-3.15,2.86-5.3,3.35-.96.22-1.96.22-2.94.35-.31.04-.64.15-.89.32-1.01.71-1.81,1.58-2.25,2.77-.4,1.09-.88,2.15-1.4,3.18-.47.94-1.31,1.51-2.26,1.9-.98.4-1.88.13-2.72-.4-.38-.24-.46-.57-.31-1.01.73-2.08,1.27-4.26,2.21-6.24,1.52-3.16,3.05-6.46,6.32-8.21,1.79-.95,3.84-1.4,5.77-2.08.63-.22,1.25-.44,1.99-.7ZM91.16,31.32s.02-.06.03-.08c.09,0,.2.03.27,0,.26-.15.5-.33.75-.49-.19-.2-.34-.5-.57-.59-.4-.16-.84-.22-1.27-.25-.21-.01-.43.15-.65.23.1.26.13.63.32.76.32.22.74.29,1.12.43ZM91.57,33.74c-.03-.07-.07-.14-.1-.22-.33.05-.91.01-.96.15-.31.94-.5,1.91-.74,2.88.11.04.21.07.32.11.49-.97.99-1.94,1.48-2.92Z"/>
    <path class="cls-3" d="M70.72,29.23c-.49.96-1.08,1.8-1.36,2.73-.27.9-.55,1.72-1.33,2.29-.13.1-.28.23-.43.25-3.75.43-8.79-1.49-11.55-4.42,4.92-.51,9.78-1.04,14.67-.86Z"/>
    <path class="cls-3" d="M60.06,40.11c4.41-.08,7.36-2.28,9.65-5.74,1.07,2.13,2.49,3.57,4.91,3.55-3.83,4.48-10.51,4.66-14.57,2.2Z"/>
    <path class="cls-3" d="M92.26,22c-.54.77-1.07,1.29-1.94,1.44-3.35.56-6.69,1.15-10.03,1.76-.46.08-.93.25-1.33.49-.47.28-.64.71-.16,1.18.26.26.51.53.73.81.22.28.4.58.63.92-.63.24-1.08.18-1.56-.13-.55-.36-1.15-.66-1.75-.92-.39-.17-.4-.34-.21-.68.97-1.77,2.4-2.69,4.47-2.95,2.98-.37,5.93-1.01,8.9-1.53.72-.13,1.43-.25,2.26-.39Z"/>
    <path class="cls-3" d="M92.98,37.55c.12-.64.46-.84,1.03-.84,2.74.04,5.48.08,8.22.08,2.49,0,4.98-.06,7.47-.06,1.31,0,2.15.6,2.53,1.69.31.89.09,1.54-.77,2.02.07-.31.12-.54.18-.77.21-.87-.09-1.43-.95-1.68-.41-.12-.85-.17-1.28-.17-4.91-.06-9.82-.11-14.73-.17-.55,0-1.09-.07-1.7-.11Z"/>
    <path class="cls-3" d="M75.21,36.53c-2.06.12-4.03-1.67-4.18-3.71-.14-1.87,1.42-3.72,3.37-3.89,1.55-.13,2.78.57,3.57,1.86.57.93.95,1.97.73,3.12-.25,1.32-1.28,2.33-2.61,2.52-.32.05-.63.07-.88.09ZM71.97,32.96c0,1.37,1.44,2.89,2.72,2.87,1.75-.02,3.01-1.2,3.01-2.92,0-1.87-1.11-2.95-3.01-2.95-1.59,0-2.65,1.3-2.72,3Z"/>
    <path class="cls-3" d="M86.53,29.18c-.23,1.93-.46,3.77-.68,5.59h-1.92c.2-.28.48-.57.62-.92.13-.32-.12-.51-.46-.49-.77.03-1.54.08-2.41.12.04.45.08.89.12,1.33h-1.91c.73-1.57.67-3.02-.31-4.49,2.42.3,4.5-1.04,6.95-1.15ZM81.91,33.17c.87-.09,1.52-.15,2.17-.23.31-.04.6-.12.51-.54-.08-.36-.14-.75-.65-.7-.66.06-1.31.14-1.96.22-.59.07-.38.54-.36.85.01.18.24.34.29.41ZM81.13,31.1c.37.32.57.64.75.63.65-.04,1.3-.16,1.93-.31.2-.05.48-.25.5-.42.03-.22-.08-.59-.25-.69-.24-.15-.59-.17-.89-.14-.42.05-.85.17-1.24.32-.23.09-.42.31-.81.61Z"/>
    <path class="cls-3" d="M94.64,44.23c-1.12.02-1.97-.88-1.89-1.82,0-.09.02-.22.08-.25,1.14-.75,2.04-1.94,3.55-2.04.35-.02.74.02,1.06.15,1.35.58,1.5,2.01.33,2.85-.99.71-2.11,1.04-3.13,1.1Z"/>
    <path class="cls-3" d="M99.29,44.13c.92-.97,1.08-2.05.81-3.23-.02-.1.1-.3.2-.36.85-.45,1.73-.83,2.74-.69,1.3.17,1.92,1.43,1.24,2.54-.77,1.27-3.39,2.23-4.99,1.74Z"/>
    <path class="cls-3" d="M86.59,42.23h4.35c-.1.8-.1,1.63-.34,2.38-.23.71-.95.96-1.67.97-.66,0-1.23-.27-1.49-.91-.31-.77-.55-1.57-.85-2.44Z"/>
    <path class="cls-3" d="M80.25,40.22c-1.17.05-1.88-.56-2.54-1.21-.13-.13-.07-.65.08-.84.95-1.1,1.96-2.07,3.63-1.92,1.31.11,2.64.02,4.01.02-.01.19-.03.42-.05.73-1.54.09-3.06.18-4.58.27-.66.04-1.8.97-1.79,1.62,0,.32.31.66.54.95.13.16.38.22.69.39Z"/>
    <path class="cls-3" d="M104.79,44.1c1.31-.78,1.62-1.99,1.48-3.35,1-.26,1.85.08,2.11.83.31.87-.1,1.97-.99,2.29-.79.28-1.65.36-2.48.52-.04-.1-.09-.19-.13-.29Z"/>
    <path d="M91.16,31.32c-.38-.13-.8-.21-1.12-.43-.19-.13-.22-.5-.32-.76.22-.08.44-.24.65-.23.43.03.87.09,1.27.25.23.09.38.38.57.59-.25.17-.49.34-.75.49-.07.04-.18,0-.27,0,0,.03-.02.06-.03.08Z"/>
    <path d="M91.57,33.74c-.49.97-.99,1.94-1.48,2.92-.11-.04-.21-.07-.32-.11.23-.96.43-1.94.74-2.88.05-.14.63-.11.96-.15.03.07.07.14.1.22Z"/>
    <path d="M71.97,32.96c.07-1.7,1.13-3.01,2.72-3,1.9,0,3.01,1.08,3.01,2.95,0,1.72-1.26,2.9-3.01,2.92-1.28.02-2.72-1.51-2.72-2.87ZM74.82,31.64c-.65,0-1.07.46-1.07,1.22,0,.75.51,1.34,1.17,1.33.62,0,1.18-.51,1.19-1.08.01-.82-.55-1.46-1.29-1.47Z"/>
    <path d="M81.91,33.17c-.05-.07-.28-.23-.29-.41-.02-.31-.23-.78.36-.85.65-.08,1.31-.15,1.96-.22.51-.05.57.34.65.7.09.42-.2.51-.51.54-.65.08-1.31.14-2.17.23Z"/>
    <path d="M81.13,31.1c.39-.3.57-.52.81-.61.4-.15.82-.27,1.24-.32.29-.03.65,0,.89.14.17.11.28.47.25.69-.02.16-.3.37-.5.42-.64.15-1.28.27-1.93.31-.18.01-.38-.31-.75-.63Z"/>
    <path class="cls-3" d="M74.82,31.64c.74,0,1.3.65,1.29,1.47,0,.56-.58,1.07-1.19,1.08-.65,0-1.17-.58-1.17-1.33,0-.75.42-1.22,1.07-1.22Z"/>
  </g>
  <polygon class="cls-1" points="44.72 116 23.46 116 18.9 87.15 49.28 87.15 44.72 116"/>
  <rect class="cls-1" x="17.27" y="79.81" width="33.64" height="7.34"/>
  <g>
    <path class="cls-3" d="M27.58,45.28c-.66.4-1.26.76-1.86,1.1-.09.05-.26.04-.36,0-.59-.33-1.16-.67-1.75-1.02,1.31-1.37,1.94-1.39,3.97-.07Z"/>
    <path class="cls-2" d="M20.03,59.75c3.01,2,6.66,2.26,9.78,1.01-.05-3.36-1.7-6.63-4.71-8.64s-6.66-2.26-9.78-1.01c.05,3.36,1.7,6.63,4.71,8.64Z"/>
    <path class="cls-2" d="M42.14,52.49c2.72-2.38,6.31-3.11,9.57-2.28.39,3.34-.82,6.8-3.54,9.18-2.72,2.38-6.31,3.11-9.57,2.28-.39-3.34.82-6.8,3.54-9.18Z"/>
    <g>
      <path class="cls-2" d="M22.83,44.63c2.47,1.65,5.48,1.85,8.04.83-.04-2.76-1.4-5.45-3.87-7.1s-5.48-1.85-8.04-.83c.04,2.76,1.4,5.45,3.87,7.1Z"/>
      <path class="cls-2" d="M42.68,38.65c2.24-1.95,5.19-2.55,7.87-1.87.32,2.74-.67,5.59-2.91,7.55s-5.19,2.55-7.87,1.87c-.32-2.74.67-5.59,2.91-7.55Z"/>
    </g>
    <path class="cls-2" d="M31.15,28.33c0-2.86,1.44-5.39,3.63-6.89,2.19,1.51,3.63,4.03,3.63,6.89s-1.44,5.39-3.63,6.89c-2.19-1.51-3.63-4.03-3.63-6.89Z"/>
    <line class="cls-2" x1="34.78" y1="27.32" x2="34.78" y2="79.47"/>
    <line class="cls-2" x1="22.57" y1="55.94" x2="34.78" y2="64.4"/>
    <line class="cls-2" x1="24.78" y1="41.02" x2="34.78" y2="47.95"/>
    <line class="cls-2" x1="34.78" y1="64.87" x2="47.01" y2="54.34"/>
    <line class="cls-2" x1="34.78" y1="50.34" x2="47.01" y2="39.92"/>
  </g>
</svg>