<?xml version="1.0" encoding="UTF-8"?>
<svg xmlns="http://www.w3.org/2000/svg" viewBox="0 0 128 128">
  <defs>
    <style>
      .cls-1 {
        stroke-linecap: round;
        stroke-width: 2.18px;
      }

      .cls-1, .cls-2 {
        fill: none;
        stroke: #000;
        stroke-miterlimit: 10;
      }

      .cls-3 {
        fill: #fff;
      }

      .cls-2 {
        stroke-width: 2px;
      }
    </style>
  </defs>
  <g id="pictos">
    <g>
      <g>
        <path class="cls-1" d="M40.16,32.12c12.66-27.61,54.58-16.48,53.61,11.87"/>
        <polygon points="90.64 42.76 93.27 48.5 96.93 43.36 90.64 42.76"/>
      </g>
      <g>
        <path class="cls-1" d="M92.97,59.71c-12.66,27.61-54.58,16.48-53.61-11.87"/>
        <polygon points="42.49 49.07 39.86 43.33 36.2 48.47 42.49 49.07"/>
      </g>
    </g>
    <g>
      <path class="cls-2" d="M23.13,93.23c14.64-7.88,25.61-10.01,30.27-9.39,8.35,1.13,11.35,5.05,16.94,5.77q6.66.87,11.36,1.67c4.44.76,5.92,9.07-.19,8.14-11.73-1.78-18.91,1.31-18.91,1.31"/>
      <path class="cls-2" d="M29.37,115.8c7.74-5.91,10.28-5.49,15.91-5.49s21.81,1.08,27.44.7c5.63-.38,9.31-5.07,17.61-8.45,3.79-1.54,5.85-6.29,8.02-9.4,1.75-2.5,3.65-4.97,7.67-8.45,3.64-3.15,1.03-7.13-3.47-4.88s-5.56,2.88-9.21,6.63c-4.59,4.7-8.61,7-8.61,7"/>
      <path class="cls-2" d="M80.87,90.98c5.17-5.99,7.33-4.04,10.51-7.84,3.63-4.34,7.27-4.51,11.42-7.78s10.97.39,3.72,4.17"/>
      <path class="cls-2" d="M73.82,90.07c6.02-6.26,8.32-3.76,11.44-7.07,2.53-2.69,5.59-3.09,8-5.89,3.32-3.87,8.19-3.08,8.12-1.08"/>
      <path class="cls-2" d="M68.56,89.26c4.64-4.83,9.7-5.66,12.88-8.87,3.59-3.62,8.54-3.38,8.97-.76"/>
    </g>
  </g>
  <g id="Left">
    <g>
      <path class="cls-3" d="M81.68,37.69c-2.77-2.46-5.83-4.26-9.19-6,.23-.14.39-.21.52-.32,1.27-1.06,3.46-1.25,4.91-.49,1.08.57,2.01,1.32,2.76,2.25.59.74,1.05,1.58.92,2.62-.05.4.14.83.18,1.25.02.2-.06.41-.11.69Z"/>
      <path class="cls-3" d="M52.41,37.73c-.5-1.23-.39-2.33.12-3.37.94-1.88,2.48-3.19,4.43-3.86,1.49-.51,2.92.05,4.18.96.09.07.15.19.27.35-3.23,1.6-6.22,3.51-9,5.92ZM54.77,34.06c-.04-.36-.28-.6-.67-.67-.31-.05-.92.53-.92.85,0,.34.46.78.84.78.37,0,.75-.46.76-.96Z"/>
      <path class="cls-3" d="M74.33,63.13c.54.57,1.13,1.2,1.71,1.82-.02.05-.05.1-.07.15h-18.45c.78-.68,1.46-1.28,2.15-1.89,4.77,2.36,9.65,2.14,14.66-.07Z"/>
      <path class="cls-3" d="M55.87,64.69c-.12-.15-.29-.35-.47-.57.65-.81,1.29-1.61,1.95-2.44.29.22.6.45,1.02.76-.84.76-1.66,1.49-2.5,2.24Z"/>
      <path class="cls-3" d="M78.29,64.12c-.15.17-.3.35-.5.59-.74-.78-1.43-1.51-2.13-2.25.29-.27.53-.5.78-.73.61.79,1.22,1.58,1.85,2.4Z"/>
      <path class="cls-3" d="M57.24,36.86c-.59-.75-.58-.77.42-1.44.16.22.32.45.49.7-.17.14-.32.27-.47.39-.14.11-.28.22-.44.35Z"/>
      <path class="cls-3" d="M76.36,35.47c.25.19.51.38.78.58-.19.26-.37.5-.55.74-.9-.42-.91-.5-.23-1.32Z"/>
      <path class="cls-3" d="M80.68,30.37c-.2.11-.42.32-.61.29-.19-.03-.4-.28-.47-.47-.04-.1.23-.44.34-.43.21.02.4.21.6.33.05.1.09.19.14.29Z"/>
      <path class="cls-3" d="M53.92,29.59c.21.33.39.51.43.72.02.1-.24.24-.38.37-.14-.17-.34-.31-.41-.51-.03-.1.16-.28.36-.58Z"/>
      <path d="M80.13,49.22c.17,6.33-5.56,13.17-13.41,13.1-7.28-.07-13.31-6.35-13.11-13.46.18-6.37,5.53-12.99,13.72-12.86,6.95.11,12.83,6.12,12.8,13.22ZM66.73,37.33c-6.74.13-11.75,5.63-11.72,11.9.03,6.54,5.44,11.84,11.98,11.75,6.97-.09,11.66-5.41,11.71-11.83.05-6.75-5.22-11.88-11.97-11.82Z"/>
      <path d="M54.77,34.06c0,.51-.39.97-.76.96-.38,0-.84-.44-.84-.78,0-.32.61-.91.92-.85.39.07.63.31.67.67Z"/>
      <path d="M71.2,48.22c.78,0,1.56,0,2.34,0,.68,0,1.12.3,1.11.71-.02.47-.51.87-1.12.87-1.54,0-3.08,0-4.62-.01-.32,0-.55.07-.77.36-.47.64-1.53.73-2.09.23-.66-.58-.72-1.71-.05-2.33.3-.27.35-.53.34-.9-.04-1.41-.06-2.82-.07-4.24,0-.53.34-.91.79-.91.49,0,.81.36.82.94,0,1.41,0,2.83,0,4.24,0,.73.26.99,1.01,1,.78.01,1.56,0,2.34,0,0,0,0,.01,0,.02Z"/>
      <path d="M67.64,58.48c0,.79-.19,1.13-.62,1.14-.52,0-.86-.42-.85-1.1,0-.69.26-1,.79-.98.51.01.68.26.68.95Z"/>
      <path d="M67.7,39.44c-.03.71-.32,1.14-.75,1.12-.47-.03-.82-.54-.8-1.16.02-.55.32-.88.81-.87.5.02.77.35.75.91Z"/>
      <path d="M76.83,48.33c.39,0,.73.34.74.72,0,.44-.41.85-.88.85-.39,0-.84-.46-.83-.86,0-.32.56-.72.98-.72Z"/>
      <path d="M58.02,49.18c0,.39-.33.73-.76.74-.47.02-.89-.32-.91-.73-.02-.48.3-.81.79-.82.53,0,.87.31.89.8Z"/>
      <path d="M71.27,40.93c.02-.42.56-1.08.85-.96.29.12.62.4.73.68.12.32-.55,1.04-.86,1.04-.32,0-.73-.43-.71-.76Z"/>
      <path d="M60.94,40.62c.05-.32.25-.58.68-.6.36-.01,1.02.64.89.99-.11.29-.46.57-.77.7-.29.12-.81-.58-.8-1.09Z"/>
      <path d="M58.25,43.52c.45-.01,1.01.44.98.84-.02.37-.14.74-.58.79-.34.04-1.05-.59-1.06-.89-.01-.33.35-.73.67-.74Z"/>
      <path d="M72,56.55c.5,0,.94.47.93.89-.01.36-.44.78-.79.76-.34-.02-.8-.63-.76-1.06.03-.41.32-.57.62-.59Z"/>
      <path d="M76.39,44.27c-.12.42-.75.9-1.1.88-.32-.02-.66-.43-.64-.75.03-.39.57-.95.91-.83.32.12.56.46.83.71Z"/>
      <path d="M61.9,56.35c.21.25.52.48.61.77.1.33-.48.97-.77.97-.38,0-.77-.38-.77-.76,0-.39.44-.87.93-.98Z"/>
      <path d="M57.64,54.08c.01-.43.41-.81.86-.81.36,0,.69.34.69.7,0,.36-.52.85-.87.83-.36-.02-.68-.37-.67-.72Z"/>
      <path d="M75.37,53.24c.42,0,.87.43.8.79-.06.35-.21.71-.67.7-.42,0-.88-.46-.83-.84.05-.41.29-.64.7-.66Z"/>
      <path class="cls-3" d="M66.77,63.52c8.64.25,14.59-7.22,14.62-14.24.03-7.96-6.95-14.56-14.26-14.52-7.66.04-14.64,6.15-14.7,14.42-.05,7.28,6.08,14.43,14.34,14.35ZM53.62,48.85c.18-6.37,5.53-12.99,13.72-12.86,6.95.11,12.83,6.12,12.8,13.22.17,6.33-5.56,13.17-13.41,13.1-7.28-.07-13.31-6.35-13.11-13.46Z"/>
      <path d="M52.29,32.22s-.07.08-.11.12c-1.55,1.91-2.05,3.98-1.02,6.32.43.97.72,1.09,1.65.54.14-.08.27-.18.42-.25.68-.34,1.35-.69,2.04-1.01.22-.1.48-.1.73-.15.02.05.04.09.05.14-3.41,3.04-4.91,6.9-4.95,11.39-.04,4.55,1.89,8.23,5.11,11.42-.6.81-1.2,1.65-1.84,2.45-.43.53-.5.86-.19,1.48.05.09.83.79,1.38,1.25.25.21.62.22.88.02l1.09-.84c.78-.68,1.46-1.28,2.15-1.89,4.77,2.36,9.65,2.14,14.66-.07.54.57,1.13,1.2,1.71,1.82-.01.02.36.32.75.62.55.43,1.32.45,1.87.04.24-.18.48-.38.63-.57.87-1.04.32-1.7-.36-2.42-.53-.55-.92-1.23-1.34-1.82,2.58-2.73,4.58-5.68,5.04-9.43.45-3.67-.13-7.16-2.2-10.29-.68-1.03-1.54-1.96-2.34-2.9-.22-.26-.3-.43-.01-.66.11-.09.21-.19.27-.25,1.01.7,1.98,1.4,2.98,2.05.66.44,1.1.29,1.41-.46.95-2.32.83-4.55-.83-6.51-.52-.62-.66-1.06-.19-1.74.18-.26.25-.77.12-1.05-.34-.76-1.04-1.15-1.86-1.23-.68-.06-1.08.41-1.4.95-.06.09-.12.18-.19.28-.28-.12-.53-.32-.8-.35-1.13-.1-1.56-.81-1.95-1.79-.77-1.93-2.42-2.36-5.08-2.17s-4.53.16-6.74.02c-3.67-.23-5.59.85-5.83,3.2-.02.19-.17.39-.35.44-.69.2-1.4.33-2.17.51-.29-.47-.59-1.05-1.27-1.09-.81-.04-1.39.43-1.86,1.05-.39.52-.19,1.03.12,1.46.39.54.33.97-.15,1.38ZM55.87,64.69c-.12-.15-.29-.35-.47-.57.65-.81,1.29-1.61,1.95-2.44.29.22.6.45,1.02.76-.84.76-1.66,1.49-2.5,2.24ZM78.29,64.12c-.15.17-.3.35-.5.59-.74-.78-1.43-1.51-2.13-2.25.29-.27.53-.5.78-.73.61.79,1.22,1.58,1.85,2.4ZM81.39,49.28c-.02,7.02-5.98,14.49-14.62,14.24-8.27.08-14.4-7.07-14.34-14.35.06-8.26,7.04-14.38,14.7-14.42,7.31-.04,14.29,6.57,14.26,14.52ZM57.66,35.42c.16.22.32.45.49.7-.17.14-.32.27-.47.39-.14.11-.28.22-.44.35-.59-.75-.58-.77.42-1.44ZM76.36,35.47c.25.19.51.38.78.58-.19.26-.37.5-.55.74-.9-.42-.91-.5-.23-1.32ZM79.94,29.75c.21.02.4.21.6.33.05.1.09.19.14.29-.2.11-.42.32-.61.29-.19-.03-.4-.28-.47-.47-.04-.1.23-.44.34-.43ZM77.92,30.89c1.08.57,2.01,1.32,2.76,2.25.59.74,1.05,1.58.92,2.62-.05.4.14.83.18,1.25.02.2-.06.41-.11.69-2.77-2.46-5.83-4.26-9.19-6,.23-.14.39-.21.52-.32,1.27-1.06,3.46-1.25,4.91-.49ZM62.07,26.47c3.15-.02,6.3.03,9.46-.05,1.77-.04,2.56.69,3.02,2.14.04.14.09.27.15.46-.32.12-.64.23-.95.35-.96.36-1.74.96-2.35,1.77-.56.73-.51,1.23.27,1.71,1.07.67,2.19,1.26,3.36,1.92-.14.19-.29.4-.38.54-1.18-.47-2.27-1.02-3.42-1.34-1.14-.32-2.34-.41-3.58-.61v-1.12c.13,0,.25-.03.37-.03.75-.02,1.12-.36,1.11-1.02,0-.73-.36-1.07-1.12-1.06-.82.01-1.63.02-2.44.05-.67.03-1,.36-.99.96,0,.71.32,1.1.97,1.12.41,0,.55.16.52.55-.02.21,0,.42,0,.66-2.31.2-4.54.53-6.52,1.83-.16-.17-.33-.37-.52-.57,1.01-.55,2-1.09,3-1.63,1.36-.74,1.44-1.28.34-2.39-.84-.84-1.88-1.32-3-1.65.24-1.7.91-2.58,2.73-2.59ZM53.92,29.59c.21.33.39.51.43.72.02.1-.24.24-.38.37-.14-.17-.34-.31-.41-.51-.03-.1.16-.28.36-.58ZM56.96,30.5c1.49-.51,2.92.05,4.18.96.09.07.15.19.27.35-3.23,1.6-6.22,3.51-9,5.92-.5-1.23-.39-2.33.12-3.37.94-1.88,2.48-3.19,4.43-3.86Z"/>
    </g>
  </g>
</svg>