<?xml version="1.0" encoding="UTF-8"?>
<svg id="pictos" xmlns="http://www.w3.org/2000/svg" viewBox="0 0 128 128">
  <defs>
    <style>
      .cls-1, .cls-2, .cls-3 {
        stroke-linecap: round;
      }

      .cls-1, .cls-2, .cls-3, .cls-4, .cls-5, .cls-6 {
        stroke: #000;
      }

      .cls-1, .cls-2, .cls-4, .cls-6 {
        fill: #fff;
      }

      .cls-1, .cls-4, .cls-6 {
        stroke-width: 1.92px;
      }

      .cls-1, .cls-6 {
        stroke-linejoin: round;
      }

      .cls-2, .cls-3, .cls-4, .cls-5 {
        stroke-miterlimit: 10;
      }

      .cls-2, .cls-5 {
        stroke-width: 2px;
      }

      .cls-3, .cls-5 {
        fill: none;
      }
    </style>
  </defs>
  <path d="M93.86,62.72c.78-1.53,1.7-1.33,2.51,0,.53-.03,1.05-.02,1.58,0,.81-1.55,1.66-1.39,2.51,0,.56,0,1.12,0,1.68,0,.98-1.61,1.31-1.07,2.54-.26,1.43.94.52,1.58-.81,2.57-.89.28-1.24-.21-1.73-.91h-1.42c-1.18,1.14-1.74,1.44-2.77,0-1.25-.03-1.38.08-2.28.91-1,.16-1.3-.03-1.81-.91-2.4-.18-1.66.91-2.74,1-.7.06-1.31-.77-1.81-1.17-.18-1.12.44-2.04,1.57-2.3.71-.04,1.09.59,1.47,1.08h1.51Z"/>
  <g>
    <path class="cls-4" d="M56.14,54.12l-13.15,1.48-4.65-12.87c-2.42-5.85-10.84-2.01-8.04,3.65l7.32,13.23c.43.9,1.18,1.63,2.23,1.81l15.18-2.33c1.3.23,2.58-.57,2.92-1.86.36-1.36-.46-2.75-1.82-3.11Z"/>
    <circle class="cls-6" cx="31.19" cy="26.81" r="6.94"/>
    <path class="cls-1" d="M13.86,114.81l5.43-20.99,2.15-23.29-.24-25.61c-.14-2.18,1.05-4.24,3-5.21h0c1.01-.5,2.15-.68,3.27-.51l5.97.21c2.67.09,4.83,2.2,4.99,4.86l4.32,70.21-6.17.18-5.97-37.35-4.09,19.76-5.36,18.01-7.29-.26Z"/>
    <path class="cls-2" d="M21.48,47.02l8.11,12.49c.43.92,1.2,1.66,2.28,1.85l17.7,3.22c1.32.24,2.63-.58,2.98-1.9.36-1.39-.47-2.81-1.86-3.17l-15.63-4.09-3.27-7.22"/>
  </g>
  <rect x="84.44" y="78.17" width="24.12" height="20.36" rx="2.07" ry="2.07"/>
  <path d="M110.3,56.73c0-1.39.67-4.76-1.41-4.94-1.13-.1-2.32-.03-3.45-.03h-14.57c-5.86,0-5.06-.69-5.18,4.97-.41.01-.83.03-1.25.03v2.33h27.32v9.16c-1.56.07-3.15,0-4.71,0h-9.66s-36.46,0-36.46,0v.05h-20.18s.16,2.19.16,2.29c6.64.09,17.52,0,24.16,0h8.85c1.49,0,3,.05,4.49,0-.03,2.27,0,4.55,0,6.83-1.19.04-2.39,0-3.59,0h-33.67c.04.09.09,1.65.14,2.36,1.15-.03,7.65,0,8.8,0h28.31v30.97h-21.59c-.67-.02-13.13-.13-13.79,0-.68.8-.87,1.63,0,2.37.91.06,13.5,0,14.41,0h51.85c1.55,0,3.86.48,4.85-.82v-55.45c-1.28,0-2.57.04-3.84-.11ZM107.84,56.73h-17.38c-.81,0-1.62.04-2.43,0-.05-.88-.01-1.77,0-2.64h19.81c.03.88,0,1.77,0,2.64ZM111.75,110.74c-3.43-.09-6.89,0-10.32,0h-20.67s-.03-24.55-.03-24.55c0-5.2.09-10.4.03-15.6h28.28c.9,0,1.81.03,2.71,0v35.97c0,1.39.03,2.79,0,4.18Z"/>
  <path class="cls-5" d="M59.03,55.41h24.92v6.84c0,3.34-2.71,6.05-6.05,6.05h-12.82c-3.34,0-6.05-2.71-6.05-6.05v-6.84h0Z"/>
  <path class="cls-3" d="M68.6,52.02c-1.92-1.7-1.75-3.87-.91-5.3s2.16-3.73-.47-6.55"/>
  <path class="cls-3" d="M71.72,52.02c-1.92-1.7-1.75-3.87-.91-5.3s2.16-3.73-.47-6.55"/>
  <path class="cls-3" d="M74.84,52.02c-1.92-1.7-1.75-3.87-.91-5.3s2.16-3.73-.47-6.55"/>
</svg>