<?xml version="1.0" encoding="UTF-8"?>
<svg id="pictos" xmlns="http://www.w3.org/2000/svg" xmlns:xlink="http://www.w3.org/1999/xlink" viewBox="0 0 128 128">
  <defs>
    <style>
      .cls-1, .cls-2, .cls-3, .cls-4 {
        fill: none;
      }

      .cls-5, .cls-2, .cls-3, .cls-4, .cls-6 {
        stroke: #000;
      }

      .cls-5, .cls-2, .cls-4, .cls-6 {
        stroke-width: 2px;
      }

      .cls-5, .cls-2, .cls-6 {
        stroke-linejoin: round;
      }

      .cls-5, .cls-3 {
        stroke-linecap: round;
      }

      .cls-5, .cls-6 {
        fill: #fff;
      }

      .cls-3 {
        stroke-width: 1.5px;
      }

      .cls-3, .cls-4 {
        stroke-miterlimit: 10;
      }

      .cls-7 {
        clip-path: url(#clippath);
      }
    </style>
    <clipPath id="clippath">
      <rect class="cls-1" x="68.02" y="13.63" width="46.18" height="52.87" rx="3.32" ry="3.32"/>
    </clipPath>
  </defs>
  <circle class="cls-6" cx="41.92" cy="22.82" r="7.57"/>
  <path class="cls-5" d="M52.75,49.93l.81,33.03.12,34.3h-8.95s-1.57-39.25-1.57-39.25c-.06-1.58-2.4-1.58-2.46,0l-1.57,39.25h-8.95l.12-34.3.81-33.03"/>
  <path class="cls-5" d="M49.5,52.92c.11,3.13.68,3.3-1.91,5.36l-5.9,4.71c-1.41,1.13-1.74,3.14-.76,4.65h0c1.05,1.63,3.22,2.1,4.85,1.05l8.25-5.29c3.29-2.11,7.53-6.11,8.68-10.62.37-1.46.16-8.29-3.24-13-2.08-2.88-6.13-4.61-9.99-5.71-4.95-1.41-12.44-.63-16.02.31s-6.84,3.32-8.92,5.98c-2.94,3.77-3,9.28-1.59,13.96h0c1.13,3.75,3.56,6.97,6.86,9.08l8.25,5.29c1.63,1.05,3.8.58,4.85-1.05h0c.98-1.52-.81-4.69-2.22-5.82l-4.44-3.54c-2.59-2.06-1.94-1.06-1.83-4.19"/>
  <ellipse class="cls-6" cx="41.92" cy="65.5" rx="15.3" ry="6.69"/>
  <path class="cls-6" d="M50.38,55.66c0,5.39-3.79,9.76-8.45,9.76s-8.45-4.37-8.45-9.76c0-3.64,3.79-5.77,8.45-5.77s8.45,2.13,8.45,5.77Z"/>
  <ellipse cx="41.92" cy="55.01" rx="6.22" ry="3.36"/>
  <path class="cls-2" d="M50.6,55.29c3.83-1.47,3.28.84,3.08,1.55-.4,1.42-1.06,3.49-3.3,2.92"/>
  <g>
    <path d="M43.1,40.33c-.31.9-1.13,1.85-.67,2.67.48.7,1.21,2.21.7,3.26-.17.38-.39.71-.66.95-.37.36-1.01-.05-.84-.53.7-1.68-1.2-2.47-1.09-4.17.09-1.21.97-2.08,1.76-2.77.21-.19.54-.16.72.05.13.15.16.37.08.54h0Z"/>
    <path d="M45.4,40.66c-.26.78-.9,1.58-.51,2.32.37.6.87,1.75.52,2.59-.12.3-.28.57-.48.78-.25.28-.74,0-.62-.36.58-1.37-.84-2.11-.8-3.47.06-.94.71-1.68,1.3-2.27.15-.14.38-.14.52,0,.1.11.13.26.08.4h0Z"/>
    <path d="M40.09,40.66c-.26.78-.9,1.58-.51,2.32.21.4.54.93.62,1.6.12.56-.36,2.27-1.11,1.79-.1-.1-.14-.24-.1-.37.58-1.37-.84-2.11-.8-3.47.06-.94.71-1.68,1.3-2.27.15-.14.38-.14.52,0,.1.11.13.26.08.4h0Z"/>
  </g>
  <rect class="cls-4" x="68.77" y="12.63" width="46.18" height="52.87" rx="3.32" ry="3.32"/>
  <g class="cls-7">
    <g>
      <circle class="cls-4" cx="100.78" cy="16.16" r="7.05"/>
      <g>
        <line class="cls-3" x1="98.6" y1="32.36" x2="99.35" y2="26.78"/>
        <line class="cls-3" x1="93.45" y1="30.77" x2="95.98" y2="25.74"/>
        <line class="cls-3" x1="89.11" y1="27.6" x2="93.13" y2="23.66"/>
        <line class="cls-3" x1="86.02" y1="23.19" x2="91.1" y2="20.77"/>
        <line class="cls-3" x1="84.54" y1="18.02" x2="90.13" y2="17.38"/>
        <line class="cls-3" x1="84.81" y1="12.64" x2="90.31" y2="13.85"/>
        <line class="cls-3" x1="86.82" y1="7.65" x2="91.63" y2="10.58"/>
        <line class="cls-3" x1="90.34" y1="3.58" x2="93.93" y2="7.91"/>
        <line class="cls-3" x1="94.99" y1=".87" x2="96.98" y2="6.13"/>
        <line class="cls-3" x1="100.27" y1="-.19" x2="100.44" y2="5.44"/>
        <line class="cls-3" x1="105.6" y1=".53" x2="103.94" y2="5.91"/>
        <line class="cls-3" x1="110.41" y1="2.94" x2="107.1" y2="7.5"/>
        <line class="cls-3" x1="114.18" y1="6.79" x2="109.57" y2="10.01"/>
        <line class="cls-3" x1="116.5" y1="11.65" x2="111.08" y2="13.2"/>
        <line class="cls-3" x1="117.11" y1="16.99" x2="111.49" y2="16.71"/>
        <line class="cls-3" x1="115.95" y1="22.25" x2="110.73" y2="20.15"/>
        <line class="cls-3" x1="113.15" y1="26.85" x2="108.89" y2="23.16"/>
        <line class="cls-3" x1="109.01" y1="30.28" x2="106.18" y2="25.42"/>
        <line class="cls-3" x1="103.98" y1="32.19" x2="102.88" y2="26.67"/>
      </g>
    </g>
  </g>
</svg>