<?xml version="1.0" encoding="UTF-8"?>
<svg xmlns="http://www.w3.org/2000/svg" viewBox="0 0 128 128">
  <defs>
    <style>
      .cls-1 {
        stroke-linecap: round;
      }

      .cls-1, .cls-2, .cls-3, .cls-4 {
        fill: #fff;
      }

      .cls-1, .cls-2, .cls-4, .cls-5 {
        stroke: #000;
        stroke-miterlimit: 10;
      }

      .cls-1, .cls-4 {
        stroke-width: 2px;
      }

      .cls-2 {
        stroke-width: 1.39px;
      }

      .cls-2, .cls-5 {
        stroke-linecap: square;
      }

      .cls-5 {
        fill: none;
        stroke-width: 2.59px;
      }
    </style>
  </defs>
  <g id="pictos">
    <g>
      <g>
        <path class="cls-3" d="M90.98,39.53l2.83-2.8,2.51-3.28,1.98-3.43c.2-.49,1.18-2.87,1.53-3.5,1.17-2.13,2.74-2.45,3.56-2.45.58,0,.99.15,1.06.18l.93.37-2.26,5.61-1.91,3.56-2.69,6.12-5.28,8.97-2.26-9.34Z"/>
        <path d="M103.38,25.06c.42,0,.69.11.69.11l-1.87,4.63-1.88,3.51-2.7,6.14-4,6.79-1.55-6.39,2.47-2.45,2.59-3.39,2.04-3.54s1.16-2.83,1.51-3.46c.89-1.63,1.99-1.93,2.69-1.93M103.38,23.06c-1.05,0-3.02.39-4.44,2.97-.36.65-1.22,2.74-1.55,3.55l-1.91,3.32-2.43,3.18-2.38,2.36-.8.79.27,1.1,1.55,6.39,1.16,4.8,2.5-4.25,4-6.79.06-.1.05-.11,2.67-6.06,1.85-3.44.05-.1.04-.1,1.87-4.63.75-1.86-1.86-.75c-.19-.08-.71-.25-1.44-.25h0Z"/>
      </g>
      <g>
        <path class="cls-3" d="M90.02,36.74l1.53-3.85.82-4.02.12-3.92c-.1-.68-.44-3.13-.44-3.86.02-3.11,2.43-4.03,3.7-4.08l.9-.04.9,5.96.04,4.02.75,6.76-.44,10.07-7.88-7.04Z"/>
        <path d="M95.8,18.01l.75,5.01.04,4,.74,6.74-.34,7.88-5.79-5.17,1.31-3.28.85-4.19.13-4.1s-.44-3.07-.44-3.8c.02-2.98,2.74-3.09,2.74-3.09M97.51,15.94l-1.79.07c-1.86.08-4.64,1.49-4.66,5.08,0,.76.3,3.01.43,3.92l-.12,3.75-.79,3.84-1.24,3.12-.52,1.3,1.04.93,5.79,5.17,3.15,2.81.18-4.22.34-7.88v-.15s-.01-.15-.01-.15l-.73-6.64-.04-3.9v-.14s-.02-.14-.02-.14l-.75-5.01-.27-1.77h0Z"/>
      </g>
      <g>
        <path class="cls-3" d="M87.36,36.6l.45-4.12-.28-4.09-.93-3.81c-.28-.63-1.26-2.9-1.45-3.6-.82-3,1.26-4.53,2.48-4.92l.85-.27,2.46,5.51,1.11,3.86,2.52,6.32,2.26,9.82-9.48-4.69Z"/>
        <path d="M87.94,17.01l2.06,4.62,1.1,3.84,2.51,6.29,1.77,7.69-6.96-3.44.38-3.51-.29-4.26-.97-3.98s-1.24-2.84-1.44-3.54c-.78-2.87,1.82-3.71,1.82-3.71M89.03,14.55l-1.71.55c-1.78.57-4.08,2.68-3.14,6.14.2.73,1.1,2.82,1.46,3.66l.89,3.65.27,3.92-.36,3.34-.15,1.39,1.25.62,6.96,3.44,3.78,1.87-.95-4.11-1.77-7.69-.03-.15-.06-.14-2.48-6.2-1.08-3.75-.04-.13-.06-.13-2.06-4.62-.73-1.64h0Z"/>
      </g>
      <g>
        <path class="cls-3" d="M87.26,63.85l3.51-2.82-1.91-2.42-3.16-1.21-4.3-1.27-6-6.05-2.12-5.03,1.26-2.98.04-2.72-.41-.3.42-.55v-.15s.1,0,.1,0l4.8-6.34,7.99-1,9.96,8.43.19,11.14,1.22,1.47-.19,2,1.44,2.03-11.61,9.32-1.25-1.56ZM85.2,46l1.53-3.32.31-2.51-1.08-2.5-2.88-1.17-2.28,1.21c-.2.41-.61,1.06-1.42,1.9-.09.09-.18.17-.27.25.46.44.81,1,.93,1.69.21,1.3.15,2.38.06,3.05l1.81,1.26,3.3.14Z"/>
        <path d="M87.19,32.08l9.28,7.85.19,11.04,1.18,1.42-.19,1.96,1.11,1.57-6.59,5.29-2.69-3.42-3.42-1.31-4.13-1.22-5.68-5.73-1.88-4.46,1.17-2.77.04-2.84s3.13.3,3.45,2.26c.32,1.96-.06,3.34-.06,3.34l2.58,1.79,4.26.18,1.87-4.07.36-2.93-1.35-3.12-3.69-1.5-3,1.6s-.19.7-1.36,1.92c-.4.42-.87.56-1.31.56-.92,0-1.76-.62-1.76-.62l4.46-5.89,7.14-.89M92.17,61.2h0l-4.28,3.44,4.28-3.44M87.81,29.98l-.87.11-7.14.89-.84.1-.51.67-4.21,5.56-.62-.06v.9s-.84,1.09-.84,1.09l.8.6-.03,2.02-1.02,2.41-.33.78.33.78,1.88,4.46.15.36.27.28,5.68,5.73.36.36.49.15,4.05,1.2,2.83,1.08,1.12,1.43-2.74,2.2,2.5,3.12,4.28-3.44,6.59-5.29,1.47-1.18-1.09-1.54-.68-.96.12-1.22.08-.83-.53-.64-.73-.88-.17-10.33-.02-.91-.69-.59-9.28-7.85-.67-.57h0ZM81.54,38.45l1.6-.85,2.07.84.81,1.87-.25,2.08-1.18,2.57-2.34-.1-1.09-.75c.05-.72.05-1.65-.13-2.72-.09-.57-.29-1.06-.56-1.48.51-.58.85-1.07,1.08-1.46h0Z"/>
      </g>
    </g>
  </g>
  <g id="Left">
    <g>
      <g>
        <path class="cls-5" d="M86.25,74.61c-2,16.5-33.27,23.57-33.27,38.26"/>
        <path class="cls-5" d="M52.99,74.61c2,16.5,33.27,23.57,33.27,38.26"/>
      </g>
      <rect x="40.5" y="72.28" width="58.23" height="4.65" rx="2.32" ry="2.32"/>
    </g>
    <g>
      <g>
        <polyline class="cls-5" points="27.61 62.06 32.1 90.61 56.14 90.61"/>
        <path class="cls-5" d="M32.1,90.61c1.54,9.71,25.58,13.87,25.58,22.51"/>
        <path class="cls-5" d="M57.68,90.61c-1.54,9.71-25.58,13.87-25.58,22.51"/>
        <path class="cls-2" d="M57.37,90.25h-24.26s-1-5.47-1-5.47h25.27c1.5,0,2.72,1.22,2.72,2.72v.04c0,1.5-1.22,2.72-2.72,2.72Z"/>
      </g>
      <g>
        <polyline class="cls-5" points="111.63 62.13 107.14 90.68 83.1 90.68"/>
        <path class="cls-5" d="M107.14,90.68c-1.54,9.71-25.58,13.87-25.58,22.51"/>
        <path class="cls-5" d="M81.56,90.68c1.54,9.71,25.58,13.87,25.58,22.51"/>
        <path class="cls-2" d="M81.88,90.33h24.26s1-5.47,1-5.47h-25.27c-1.5,0-2.72,1.22-2.72,2.72v.04c0,1.5,1.22,2.72,2.72,2.72Z"/>
      </g>
    </g>
    <g>
      <circle class="cls-4" cx="29.41" cy="23.6" r="7.35"/>
      <path class="cls-1" d="M18.89,50.48c-.11,3.04,2.5,6.11,5.01,8.12l5.74,4.58c1.37,1.09,1.69,3.05.74,4.52h0c-1.02,1.58-3.13,2.04-4.72,1.02l-8.02-5.15c-3.2-2.05-5.56-5.18-6.66-8.83h0c-1.37-4.54-.81-9.45,1.54-13.57h0c2.74-2.91,6.52-3.7,9.74-3.73h14.3c3.22.03,7.24,1.36,9.74,3.73l9.92,8.88,9.58,7.64c1.37,1.09,1.69,3.05.74,4.52h0c-1.02,1.58-3.13,2.04-4.72,1.02l-12.98-8.33-7.77-5.67-.36,33.34.11,33.34h-8.7s-1.53-38.15-1.53-38.15c-.06-1.53-2.33-1.53-2.39,0l-1.53,38.15h-8.7l.11-33.34-.17-17.94"/>
    </g>
  </g>
</svg>