<?xml version="1.0" encoding="UTF-8"?>
<svg id="pictos" xmlns="http://www.w3.org/2000/svg" viewBox="0 0 128 128">
  <defs>
    <style>
      .cls-1, .cls-2, .cls-3, .cls-4 {
        stroke: #1d1d1b;
        stroke-linecap: round;
        stroke-miterlimit: 10;
      }

      .cls-1, .cls-3 {
        stroke-width: 2px;
      }

      .cls-1, .cls-5, .cls-4 {
        fill: #fff;
      }

      .cls-2 {
        stroke-width: 1.37px;
      }

      .cls-2, .cls-3 {
        fill: none;
      }

      .cls-6 {
        fill: #1d1d1b;
      }
    </style>
  </defs>
  <g>
    <circle class="cls-3" cx="77.14" cy="53.6" r="38.1"/>
    <circle class="cls-2" cx="77.14" cy="53.6" r="26.11"/>
  </g>
  <g>
    <circle class="cls-4" cx="52.53" cy="45.44" r="2.76"/>
    <circle class="cls-4" cx="49.91" cy="56" r="2.61"/>
    <circle class="cls-4" cx="79.41" cy="47.51" r="1.92"/>
    <circle class="cls-4" cx="64.6" cy="41.96" r="4.63"/>
    <circle class="cls-4" cx="60.82" cy="55.05" r="2.9"/>
    <circle class="cls-4" cx="59.51" cy="60.74" r="4.37"/>
    <circle class="cls-4" cx="53.19" cy="64.16" r="3.42"/>
    <circle class="cls-4" cx="72.54" cy="61.11" r="4.74"/>
    <circle class="cls-4" cx="70.6" cy="52.24" r="2.81"/>
    <circle class="cls-4" cx="67.77" cy="61.22" r="3.89"/>
    <circle class="cls-4" cx="66.94" cy="56" r="3.66"/>
    <circle class="cls-4" cx="72.54" cy="57.33" r="3.66"/>
  </g>
  <g>
    <polyline class="cls-1" points="35.65 79.45 63.39 60.62 73.76 60.62 81.11 79.97 42.73 110.07"/>
    <path class="cls-1" d="M42.22,113.49c6.81-.71,9.16-1.89,13.68-3.72,2.88-1.17,11.04-5.64,17.02-8.36,4.09-1.86,2.06-6.29-1.66-4.81-.38.15-11.74,5.19-11.74,5.19l.21-.09,16.53-7.28c3.81-1.59,1.43-6.97-1.44-5.68l-17.18,7.3h0l20.05-8.59c3.66-1.68.79-7.22-2.75-5.58l-18.8,8.29-.84.35,16.94-7.48c3.52-1.42,1.01-7.07-3.07-5.43,0,0-15.03,6.32-16.62,6.98,0,0-8.96,4.48-12.32.94-3.36-3.53,7.27-11.5-.13-15.13l-6.9,10.46c-1.49,2.26-2.58,4.75-3.24,7.37l-1.56,6.22c-.09,1.84-1.18,3.54-2.8,4.58l-6.35,4.07-4.66-2.56,19.62,15.48c2.29-1.08,5.31-2.74,7.8-2.54l.22.03Z"/>
    <line class="cls-3" x1="39.55" y1="83.92" x2="73.76" y2="60.62"/>
  </g>
  <g>
    <g>
      <path class="cls-6" d="M28.72,31.03c-.53,0-.99-.33-1.17-.85l-.84-2.41c-.31-.9-.98-1.6-1.82-1.93l-2.28-.89c-.49-.19-.8-.66-.8-1.19s.31-1,.8-1.19l2.28-.89c.84-.33,1.51-1.03,1.82-1.93l.84-2.41c.18-.51.64-.85,1.17-.85s.99.33,1.17.85l.84,2.41c.31.9.98,1.6,1.82,1.93l2.28.89c.49.19.8.66.8,1.19s-.31,1-.8,1.19l-2.28.89c-.84.33-1.51,1.04-1.82,1.93l-.84,2.41c-.18.51-.64.85-1.17.85Z"/>
      <path class="cls-5" d="M28.72,17.16c.22,0,.44.13.53.39l.84,2.41c.38,1.08,1.19,1.94,2.22,2.34l2.28.89c.49.19.49.93,0,1.12l-2.28.89c-1.03.4-1.84,1.26-2.22,2.34l-.84,2.41c-.09.26-.31.39-.53.39s-.44-.13-.53-.39l-.84-2.41c-.38-1.08-1.19-1.94-2.22-2.34l-2.28-.89c-.49-.19-.49-.93,0-1.12l2.28-.89c1.03-.4,1.84-1.26,2.22-2.34l.84-2.41c.09-.26.31-.39.53-.39M28.72,15.8c-.83,0-1.54.51-1.81,1.3l-.84,2.41c-.25.71-.77,1.27-1.43,1.52l-2.28.89c-.75.29-1.23,1.01-1.23,1.83,0,.82.48,1.53,1.23,1.83l2.28.89c.66.26,1.18.81,1.43,1.52l.84,2.41c.28.79.99,1.3,1.81,1.3s1.54-.51,1.81-1.3l.84-2.41c.25-.71.77-1.27,1.43-1.52l2.28-.89c.75-.29,1.23-1.01,1.23-1.83,0-.82-.48-1.53-1.23-1.83l-2.28-.89c-.66-.26-1.18-.81-1.43-1.52l-.84-2.41c-.28-.79-.99-1.3-1.81-1.3h0Z"/>
    </g>
    <g>
      <path class="cls-6" d="M22.74,38.51c-.44,0-.81-.27-.96-.69l-.5-1.42c-.16-.46-.49-.81-.92-.97l-1.35-.53c-.4-.15-.65-.53-.65-.97,0-.43.26-.81.65-.96l1.35-.53c.42-.17.76-.52.92-.98l.5-1.42c.15-.42.52-.69.96-.69s.81.27.96.69l.5,1.42c.16.45.49.81.92.98l1.35.53c.39.15.65.53.65.96,0,.43-.25.81-.65.97l-1.35.53c-.42.17-.76.52-.92.98l-.5,1.42c-.15.42-.52.69-.96.69Z"/>
      <path class="cls-5" d="M22.74,30.04c.13,0,.26.08.31.23l.5,1.42c.22.64.7,1.15,1.31,1.38l1.35.53c.29.11.29.55,0,.66l-1.35.53c-.61.24-1.09.74-1.31,1.38l-.5,1.42c-.05.15-.18.23-.31.23s-.26-.08-.31-.23l-.5-1.42c-.22-.64-.7-1.15-1.31-1.38l-1.35-.53c-.29-.11-.29-.55,0-.66l1.35-.53c.61-.24,1.09-.74,1.31-1.38l.5-1.42c.05-.15.18-.23.31-.23M22.74,28.68c-.72,0-1.36.46-1.6,1.14l-.5,1.42c-.09.27-.28.47-.52.57l-1.35.53c-.66.26-1.08.88-1.08,1.6s.43,1.34,1.08,1.6l1.35.53c.24.09.43.3.52.57l.5,1.42c.24.68.88,1.14,1.6,1.14s1.36-.46,1.6-1.14l.5-1.42c.09-.27.28-.47.52-.57l1.35-.53c.66-.26,1.08-.88,1.08-1.6s-.43-1.34-1.08-1.6l-1.35-.53c-.24-.09-.43-.3-.52-.57l-.5-1.42c-.24-.68-.88-1.14-1.6-1.14h0Z"/>
    </g>
    <g>
      <path class="cls-6" d="M36.71,34.45c-.4,0-.75-.25-.88-.63l-.38-1.1c-.11-.31-.33-.54-.61-.66l-1.04-.41c-.37-.14-.6-.49-.6-.89,0-.4.24-.75.6-.89l1.04-.4c.28-.11.51-.35.61-.66l.38-1.09c.13-.38.48-.63.88-.63s.75.25.88.63l.38,1.09c.11.31.33.55.61.66l1.04.41c.36.14.6.49.6.88,0,.4-.23.75-.6.89l-1.04.41c-.28.11-.51.35-.61.66l-.38,1.1c-.13.38-.48.63-.88.63Z"/>
      <path class="cls-5" d="M36.71,27.77c.1,0,.2.06.24.18l.38,1.1c.17.49.54.88,1.01,1.06l1.04.41c.22.09.22.42,0,.51l-1.04.41c-.47.18-.83.57-1.01,1.06l-.38,1.1c-.04.12-.14.18-.24.18s-.2-.06-.24-.18l-.38-1.1c-.17-.49-.54-.88-1.01-1.06l-1.04-.41c-.22-.09-.22-.42,0-.51l1.04-.41c.47-.18.84-.57,1.01-1.06l.38-1.1c.04-.12.14-.18.24-.18M36.71,26.42c-.68,0-1.3.44-1.52,1.09l-.38,1.1c-.04.12-.12.21-.22.25l-1.04.41c-.63.25-1.03.84-1.03,1.52,0,.68.41,1.28,1.03,1.52l1.04.41c.1.04.18.13.22.25l.38,1.1c.23.65.84,1.09,1.52,1.09s1.3-.44,1.52-1.09l.38-1.1c.04-.12.12-.21.22-.25l1.04-.41c.63-.24,1.03-.84,1.03-1.52,0-.68-.41-1.28-1.03-1.52l-1.04-.41c-.1-.04-.18-.13-.22-.25l-.38-1.1c-.23-.65-.84-1.09-1.52-1.09h0Z"/>
    </g>
  </g>
</svg>