<?xml version="1.0" encoding="UTF-8"?>
<svg id="pictos" xmlns="http://www.w3.org/2000/svg" viewBox="0 0 128 128">
  <defs>
    <style>
      .cls-1 {
        stroke-linecap: round;
      }

      .cls-1, .cls-2, .cls-3, .cls-4 {
        fill: #fff;
      }

      .cls-1, .cls-3, .cls-4 {
        stroke: #000;
        stroke-linejoin: round;
      }

      .cls-1, .cls-4 {
        stroke-width: 1.91px;
      }

      .cls-3 {
        stroke-width: 2px;
      }
    </style>
  </defs>
  <path d="M99.84,94.78c.03.35.05.76.1,1.17.07.53-.22.61-.65.55-.29-.05-.59-.08-.9-.12-.08,1.26-.15,2.47-.24,3.68-.04.58-.09,1.15-.14,1.73-.04.51-.3.74-.82.74-2.7,0-5.4.01-8.1.01-.69,0-.86-.18-.92-.89-.16-1.71-.33-3.41-.5-5.18-.23.02-.41.04-.6.06-.85.09-.95-.04-.72-.89.03-.1.05-.19.06-.24,2.25.5,4.51.71,6.81.67,2.28-.04,4.54-.06,6.62-1.28Z"/>
  <path d="M87.55,72.2c-.63-.63-.58-1.07.25-1.61,0,.36.03.67,0,.96-.05.41.07.71.39,1,2.37,2.12,4.72,4.26,7.08,6.37.32.29.69.55,1.08.74.19.09.47,0,.78-.03-.14.31-.27.62-.42.94-.12-.01-.21,0-.27-.03-1.16-.67-1.13-.3-1.81.43-.9.97-1.84,1.89-2.79,2.81-.55.52-.74.51-1.25-.01-1.95-1.96-3.89-3.91-5.81-5.89-.73-.75-.69-.9.03-1.68,1.09-1.19,2.17-2.41,2.75-4Z"/>
  <path d="M72.41,105.37c-.13-.55-.23-.99-.34-1.5,1.15.56,2.18.04,3.17-.21,2.56-.65,5-1.67,7.34-2.89.65-.34,1.18-.92,1.77-1.39.72.73.63.96-.66,1.56.17,1.51.58,2.96,1.18,4.36.43,1.02.32,1.24-.72,1.65-2.36.93-4.71,1.87-7.06,2.82-.65.26-.87.21-1.18-.44-.64-1.35-1.28-2.7-1.87-4.08-.2-.47-.39-.52-.79-.28-.22.14-.46.22-.83.4Z"/>
  <path d="M59.42,101.6c.28-1.15.54-2.33.88-3.5.08-.3.34-.61.6-.78.97-.64,1.95-1.25,2.96-1.82.76-.43,1.22-.28,1.59.52.27.58.45,1.2.73,1.77.79,1.61,1.62,3.2,2.42,4.81.26.53.47,1.09.72,1.63.08.17.18.35.31.48.48.48,1.02.91,1.47,1.41.58.65.55,1.02-.13,1.54-.74.58-1.53,1.09-2.29,1.63-.34.25-.63.19-.89-.11-.57-.65-1.13-1.3-1.69-1.95-.09-.11-.15-.27-.26-.32-1.53-.67-2.42-2.12-3.7-3.1-.91-.71-1.79-1.46-2.73-2.22ZM67.5,104.09c-1.61-2.05-2.56-4.45-3.53-6.8-1.31.88-2.52,1.69-3.79,2.54,2.36,1.42,4.08,3.39,5.88,5.24.51-.35.94-.64,1.44-.97ZM68.78,105.19c-.55.43-1.09.85-1.66,1.3.29.26.49.46.7.63.31.27.56.28.99.07,1.39-.7,1.16-1.08-.02-2Z"/>
  <path d="M99.1,74.72c-.19-.19-.48-.38-.65-.65-.58-.93-1.13-1.88-1.65-2.85-.94-1.72-1.86-3.44-2.76-5.17-.44-.85-.34-1.08.51-1.49,1.67-.8,3.34-1.61,5.02-2.41.99-.47,1.32-.42,1.87.53,1.45,2.5,2.86,5.03,4.23,7.57.51.95.46,1.19-.49,1.68-1.84.94-3.74,1.78-5.61,2.66-.11.05-.23.06-.46.13ZM103.63,69.62c-1.16-1.99-2.3-3.95-3.42-5.87-1.49.74-2.89,1.44-4.36,2.18,1.23,2.21,2.46,4.41,3.73,6.69.42-.7.9-1.18,1.72-1.18,0,.14-.05.31.01.41.15.23.35.61.52.61.25,0,.57-.25.73-.48.13-.18.14-.52.07-.75-.25-.77.05-1.2.77-1.43.05-.02.09-.07.23-.17Z"/>
  <path d="M75.74,95.27c-.89.75-1.69,1.4-2.47,2.08-.81.7-.9.71-1.64-.04-.36-.37-.71-.76-1.11-1.09-.22-.19-.51-.35-.78-.4-.65-.1-1.13-.43-1.58-.89-.63-.64-1.32-1.22-1.98-1.83-.93-.87-1.86-1.75-2.77-2.65-.11-.1-.13-.36-.1-.52.27-1.09.72-2.07,1.68-2.75.36-.25.73-.5,1.04-.81.68-.67,1.36-.61,2.07-.06,1.4,1.09,2.81,2.17,4.21,3.27.5.39.77.94.74,1.57-.06,1.12.44,1.94,1.23,2.65.53.48,1.01,1.01,1.46,1.46ZM67.22,87.52c-.64.5-1.18.98-1.77,1.38-.41.28-.35.48-.14.87.69,1.3,1.96,1.97,3,2.88.52.46.99,1.09,1.61,1.31.87.3,1.54.76,2.15,1.41.61.65.82.61,1.51-.12-.13-.14-.25-.3-.4-.42-1.11-.84-1.73-1.94-1.9-3.33-.05-.4-.29-.87-.59-1.13-1.14-1-2.33-1.93-3.47-2.85Z"/>
  <path d="M105.57,85.79c-.18-.17-.44-.31-.56-.53-1.29-2.34-2.57-4.69-3.83-7.05-.34-.64-.26-.94.39-1.27,1.69-.87,3.38-1.7,5.1-2.52.7-.33.92-.25,1.33.42.81,1.35,1.6,2.72,2.38,4.09.47.83.88,1.7,1.33,2.55.44.82.43.94-.41,1.39-1.26.69-2.54,1.33-3.82,2-.42.22-.84.46-1.26.68-.17.09-.37.14-.65.24ZM106.09,83.61c.28-.17.49-.31.72-.43.84-.42,1.68-.84,2.53-1.23.42-.2.57-.43.3-.88-.35-.58-.64-1.2-.98-1.79-.59-1.03-1.2-2.06-1.79-3.08-1.29.67-2.53,1.31-3.81,1.98,1.01,1.8,2.01,3.6,3.03,5.42Z"/>
  <path d="M106.01,87.75c2.45,0,4.34,1.74,4.33,4.02,0,2.26-2.14,4.41-4.39,4.41-2.36,0-4.26-1.88-4.26-4.21,0-2.37,1.89-4.21,4.31-4.21ZM106.03,94.23c1.38,0,2.37-.91,2.38-2.22,0-1.23-1.13-2.36-2.39-2.37-1.31-.01-2.38,1.04-2.37,2.35,0,1.25,1.05,2.23,2.39,2.24Z"/>
  <path d="M79.15,84.96c-.54-.26-1.19-.41-1.63-.8-1.24-1.09-2.41-2.26-3.57-3.44-.14-.14-.09-.68.06-.84,1.04-1.04,2.12-2.04,3.22-3.02.35-.31.77-.2,1.09.11.9.88,1.86,1.71,2.64,2.68.57.72.89,1.63,1.3,2.47.04.08-.07.29-.16.38-.79.73-1.6,1.45-2.41,2.16-.13.11-.3.17-.54.29ZM78.2,81.77c.49,0,1.12-.6.93-.91-.39-.6-.83-1.17-1.31-1.7-.07-.08-.54.09-.73.26-.32.3-.74.67-.79,1.05-.05.37,1.47,1.3,1.9,1.3Z"/>
  <path d="M85.62,57.94c1.3.17,2.26.59,2.77,1.69.4.85.76,1.72,1.15,2.57.54,1.18,1.1,2.35,1.66,3.52.16.32.17.56-.2.73-.13.06-.23.15-.35.22-1.16.67-1.1.6-2.13-.23-.9-.71-1.94-1.25-2.93-1.83-1.18-.69-1.99-1.65-2.29-3-.28-1.31.17-2.54,1.21-3.21.37-.24.83-.35,1.11-.47ZM88.53,64.41l.15-.1c-.69-1.46-1.39-2.92-2.09-4.38-.04-.09-.18-.18-.28-.19-.73-.08-1.48.94-1.26,1.63.56,1.73,2.22,2.14,3.48,3.03Z"/>
  <path d="M84.25,90.15c.14-.28.24-.59.43-.82.3-.37.68-.68,1-1.04.11-.13.24-.43.18-.51-.36-.47-.76-.91-1.17-1.34-.06-.06-.29-.04-.37.03-1.39,1.28-2.77,2.57-4.18,3.88.67.59,1.23,1.07,1.76,1.57.63.59.69.91.3,1.29-.71.71-1.33.8-1.84.18-.77-.94-1.46-1.95-2.18-2.93-.25-.33-.11-.64.15-.85,1.81-1.51,3.6-3.03,5.46-4.47.77-.6,1.09-.46,1.84.21.49.44,1.01.85,1.5,1.29.65.59.68,1.07.05,1.68-.57.56-1.18,1.08-1.81,1.57-.26.21-.62.29-.94.42-.06-.06-.12-.11-.18-.17Z"/>
  <path d="M108.47,107.07c1.4-.25,2.87.41,4.05-.65-.01-.07-.03-.15-.04-.22-.42.11-.83.26-1.26.32-.24.03-.61.02-.72-.13-.57-.76-1.08-1.57-1.6-2.35.91-.53,1.81-1.05,2.79-1.62.18.34.35.83.65,1.19.83.99,1.08,1.94.31,3.12-.56.86-.9,1.85-1.36,2.77-.18.37-.51.52-.94.5-.57-.03-1.15,0-1.74,0-.12.54-.22,1.02-.32,1.5-.05.01-.11.02-.16.03-.6-1.04-1.19-2.08-1.77-3.09.47-.75.94-1.51,1.44-2.24.09-.13.32-.16.49-.24.06.15.16.3.18.45.03.19,0,.39,0,.68Z"/>
  <path d="M105.33,109.97c-.94,0-1.93.03-2.92-.02-.25-.01-.59-.18-.72-.38-.67-1.04-1.28-2.12-1.93-3.17-.25-.4-.28-.77,0-1.16.13-.18.2-.39.32-.57.31-.44.36-.82-.17-1.14-.14-.08-.22-.26-.34-.4,1.1,0,2.14-.02,3.19.02.15,0,.34.25.43.43.37.67.71,1.36,1.07,2.06-.04.02-.09.06-.14.06-.4-.02-1.04-.22-1.17-.04-.55.74-.96,1.6-1.42,2.41.07.04.14.08.21.12.13-.24.27-.47.37-.72.15-.35.36-.52.77-.5.78.04,1.55.01,2.43.01v3Z"/>
  <path d="M99.08,85.2c.55.03,1.02,0,1.46.11.3.07.56.31.84.47-.24.33-.41.74-.73.96-.27.19-.68.19-1.04.23-.36.04-.49.17-.53.56-.05.55-.14,1.12-.35,1.62-.23.54-.69.56-.98.04-.21-.39-.3-.86-.35-1.31-.12-.94-.1-.95-1.04-.96-.5,0-.96-.1-1.26-.55-.33-.5-.2-.89.39-1.04.33-.08.67-.09,1.01-.13.99-.12.88.05.93-.96.01-.3.04-.6.1-.89.04-.19.12-.39.23-.55.43-.61.83-.58,1.1.11.14.36.18.77.21,1.17.03.35,0,.71,0,1.13Z"/>
  <path d="M105.67,98.44c.91-.24,1.96-.23,3-.11.15.02.31.23.42.38.19.28.35.58.5.88.21.42.45.49.84.2.2-.15.48-.22.72-.32l.13.14c-.17.32-.35.63-.51.95-.29.59-.57,1.18-.88,1.76-.08.14-.27.32-.41.32-.93,0-1.87-.06-2.8-.1-.07,0-.14-.03-.22-.05-.05-.06-.1-.12-.15-.19.19-.12.36-.28.57-.36.49-.17.46-.48.26-.84-.48-.88-.96-1.76-1.46-2.67Z"/>
  <path d="M92.05,94.04c.25-1.49,1.07-2.27,2.31-2.67.68-.22,1.36-.46,2.03-.71.46-.17.8.01.87.44.14.88.2,1.78.27,2.67,0,.09-.15.27-.23.27-1.74.01-3.49,0-5.24,0Z"/>
  <path d="M88.01,92.79c.02-.24.04-.48.05-.72.02-.58.29-.95.84-1.18.77-.32,1.51-.72,2.28-1.06.29-.13.61-.2.92-.26.5-.09.73.11.6.58-.23.88-.43,1.78-1.28,2.35-.72.48-1.25,1.23-2.2,1.37-1.23.18-1.32.12-1.21-1.09Z"/>
  <path d="M99.39,51.41c1.11,0,2.05.94,2.03,2.01-.02,1.1-1.05,2.07-2.17,2.04-1.03-.02-1.89-1-1.86-2.11.02-1.1.9-1.96,2.01-1.95Z"/>
  <path d="M74.46,100.83c-.02-.68.26-1.13.75-1.37,1.12-.56,2.26-1.08,3.42-1.56.63-.25,1.83.84,1.62,1.49-.09.26-.54.44-.87.56-1.02.38-2.05.71-3.07,1.09-.15.05-.24.23-.37.33-.28.21-.55.47-.87.57-.09.03-.36-.39-.49-.63-.09-.17-.09-.38-.1-.49Z"/>
  <path d="M68.61,76.39c.01-1.14.81-1.97,1.89-1.97,1.02,0,1.87.86,1.85,1.88-.02,1.12-.97,2.06-2.07,2.07-.9,0-1.68-.91-1.67-1.98Z"/>
  <path d="M104.75,103.26c-.74-.5-1.58-1.06-2.55-1.71.61-.89,1.21-1.77,1.82-2.64.07-.1.22-.19.35-.21.82-.14,1.28.41,1.74.94.38.44.35.88.04,1.36-.49.74-.94,1.5-1.4,2.26Z"/>
  <path d="M109.06,63.55c0,1.11-.84,1.94-1.98,1.95-.97,0-1.82-.85-1.83-1.84,0-1,.93-1.9,1.99-1.92,1.04-.01,1.81.76,1.82,1.81Z"/>
  <path d="M97.65,59.48c-.02,1.07-.83,1.91-1.83,1.89-.98-.02-1.78-.91-1.76-1.96.02-1.06.74-1.76,1.78-1.75,1.03,0,1.83.81,1.81,1.82Z"/>
  <path d="M90.09,105.91c.93,0,1.78.92,1.78,1.9,0,.93-.91,1.78-1.9,1.78-.94,0-1.75-.81-1.76-1.76,0-1.05.86-1.94,1.88-1.93Z"/>
  <path d="M92.25,52.93c1.05,0,1.89.83,1.88,1.85-.01.99-.94,1.87-1.97,1.86-.8,0-1.59-.93-1.6-1.87-.01-1.08.69-1.84,1.69-1.84Z"/>
  <path d="M92.9,71.67c.17.1.4.18.57.33.87.82,1.74,1.64,2.59,2.48.51.51.28,1.58-.4,1.82-.17.06-.47-.06-.63-.19-.53-.45-1.03-.94-1.53-1.42-.48-.45-.96-.9-1.41-1.38-.22-.23-.57-.64-.5-.78.16-.31.55-.51.86-.73.11-.07.26-.08.46-.13Z"/>
  <path d="M95.47,109.73c-.92-.01-1.67-.85-1.65-1.84.02-.94.86-1.79,1.76-1.77.97.02,1.82.9,1.8,1.88-.01.99-.85,1.75-1.91,1.74Z"/>
  <path d="M108.31,70.26c0-.97.81-1.77,1.8-1.76.93,0,1.69.71,1.7,1.57,0,.97-.83,1.79-1.85,1.81-.86.01-1.66-.76-1.66-1.62Z"/>
  <path d="M75.15,85.98c.94,0,1.73.67,1.72,1.48-.01.89-.9,1.81-1.75,1.83-.87.01-1.68-.76-1.7-1.61-.02-.92.76-1.69,1.73-1.7Z"/>
  <path d="M103.36,57.23c1.07,0,1.86.69,1.85,1.62-.01.94-.73,1.65-1.68,1.67-.9.01-1.67-.75-1.68-1.68-.01-1,.56-1.61,1.52-1.62Z"/>
  <path d="M62.41,108.27c0,.94-.83,1.82-1.71,1.82-.87,0-1.6-.78-1.59-1.69,0-.86.8-1.63,1.67-1.64.85-.01,1.62.71,1.63,1.52Z"/>
  <path d="M70.65,82.5c.01.89-.71,1.56-1.68,1.58-.83.01-1.55-.63-1.56-1.41-.02-.95.79-1.83,1.68-1.82.84,0,1.54.75,1.56,1.65Z"/>
  <path d="M110.73,85.24c.85,0,1.58.75,1.59,1.63,0,.81-.71,1.47-1.59,1.45-.74-.02-1.46-.78-1.48-1.55-.01-.76.73-1.54,1.47-1.53Z"/>
  <path class="cls-2" d="M67.5,104.09c-.5.34-.93.63-1.44.97-1.8-1.84-3.52-3.82-5.88-5.24,1.27-.85,2.48-1.66,3.79-2.54.97,2.35,1.92,4.75,3.53,6.8Z"/>
  <path class="cls-2" d="M68.78,105.19c1.19.93,1.41,1.3.02,2-.42.21-.68.2-.99-.07-.21-.18-.41-.37-.7-.63.58-.45,1.12-.87,1.66-1.3Z"/>
  <path class="cls-2" d="M103.63,69.62c-.14.1-.18.15-.23.17-.72.23-1.02.66-.77,1.43.07.23.06.57-.07.75-.16.23-.48.47-.73.48-.17,0-.38-.37-.52-.61-.06-.1-.01-.26-.01-.41-.82,0-1.3.48-1.72,1.18-1.27-2.27-2.5-4.48-3.73-6.69,1.47-.73,2.87-1.43,4.36-2.18,1.12,1.92,2.26,3.88,3.42,5.87ZM100.49,65.42c-.92.42-1.81.83-2.69,1.23-.36.16-.46.42-.26.77.2.34.4.67.89.44.49-.23.98-.44,1.47-.68.83-.4.94-.67.6-1.77ZM99.75,70.93c.57-.32,1.14-.64,1.71-.97.22-.13.48-.24.64-.43.14-.18.16-.45.24-.68-.21-.04-.45-.15-.63-.09-.64.21-1.27.46-1.88.75-.84.4-.85.83-.07,1.42Z"/>
  <path class="cls-2" d="M67.22,87.52c1.14.93,2.34,1.85,3.47,2.85.3.27.54.73.59,1.13.17,1.4.79,2.49,1.9,3.33.15.12.27.28.4.42-.69.72-.9.77-1.51.12-.61-.65-1.28-1.11-2.15-1.41-.61-.21-1.08-.85-1.61-1.31-1.04-.91-2.32-1.58-3-2.88-.2-.39-.27-.59.14-.87.59-.4,1.13-.88,1.77-1.38Z"/>
  <path class="cls-2" d="M106.09,83.61c-1.02-1.83-2.02-3.62-3.03-5.42,1.28-.67,2.52-1.31,3.81-1.98.59,1.02,1.2,2.04,1.79,3.08.34.59.63,1.21.98,1.79.27.45.13.68-.3.88-.85.4-1.69.82-2.53,1.23-.23.11-.44.26-.72.43Z"/>
  <path class="cls-2" d="M106.03,94.23c-1.34,0-2.39-.99-2.39-2.24,0-1.3,1.07-2.36,2.37-2.35,1.26.01,2.4,1.14,2.39,2.37,0,1.31-.99,2.23-2.38,2.22Z"/>
  <path class="cls-2" d="M78.2,81.77c-.43,0-1.96-.92-1.9-1.3.06-.38.47-.75.79-1.05.18-.17.65-.34.73-.26.48.53.92,1.1,1.31,1.7.2.31-.44.91-.93.91Z"/>
  <path class="cls-2" d="M88.53,64.41c-1.26-.9-2.92-1.3-3.48-3.03-.22-.69.53-1.71,1.26-1.63.1.01.24.1.28.19.7,1.46,1.4,2.92,2.09,4.38l-.15.1Z"/>
  <path d="M100.49,65.42c.33,1.09.23,1.36-.6,1.77-.48.23-.98.45-1.47.68-.49.24-.69-.1-.89-.44-.2-.35-.1-.61.26-.77.88-.41,1.77-.81,2.69-1.23Z"/>
  <path d="M99.75,70.93c-.78-.59-.77-1.02.07-1.42.61-.29,1.24-.53,1.88-.75.18-.06.42.06.63.09-.07.23-.1.5-.24.68-.15.19-.41.3-.64.43-.57.33-1.14.65-1.71.97Z"/>
  <g>
    <circle class="cls-4" cx="81.65" cy="22.24" r="7.73"/>
    <path class="cls-3" d="M57.93,35.36l-2.28,12.87,4.39,10.41c.75,1.77-.23,3.78-2.07,4.3h0c-1.44.41-2.96-.24-3.67-1.55l-6.92-12.82,1.07-11.16"/>
    <path class="cls-1" d="M55.97,16.67c6.38-.08,10.1,2.35,11.05,7.49l.7,3.79.35,16.73c.04,1.71.58,3.37,1.55,4.77l8.37,12.02c1.2,1.72.65,4.1-1.19,5.12h0c-1.52.85-3.43.46-4.51-.9l-12.3-15.62-3.57-16.23-4.22,1.37c-4.57,1.49-8.73,4.01-12.15,7.37l-.23.22,7.23,51.85h-5.72l-10.98-43.02-3.48,18.9-7.04,24.26h-6.68l5.56-28.54,1.09-18.44c.23-2.48.64-4.94,1.22-7.36h0c.82-3.02,1.43-4.94,5.14-8.21,7.53-6.65,19.01-15.57,29.81-15.57Z"/>
  </g>
</svg>