<?xml version="1.0" encoding="UTF-8"?>
<svg id="pictos" xmlns="http://www.w3.org/2000/svg" viewBox="0 0 128 128">
  <defs>
    <style>
      .cls-1 {
        stroke-linecap: round;
      }

      .cls-1, .cls-2, .cls-3 {
        fill: #fff;
        stroke: #000;
        stroke-linejoin: round;
      }

      .cls-1, .cls-3 {
        stroke-width: 1.91px;
      }

      .cls-2 {
        stroke-width: 2px;
      }
    </style>
  </defs>
  <g>
    <circle class="cls-3" cx="82.45" cy="22.24" r="7.73"/>
    <path class="cls-2" d="M58.73,35.36l-2.28,12.87,4.39,10.41c.75,1.77-.23,3.78-2.07,4.3h0c-1.44.41-2.96-.24-3.67-1.55l-6.92-12.82,1.07-11.16"/>
    <path class="cls-1" d="M56.77,16.67c6.38-.08,10.1,2.35,11.05,7.49l.7,3.79.35,16.73c.04,1.71.58,3.37,1.55,4.77l8.37,12.02c1.2,1.72.65,4.1-1.19,5.12h0c-1.52.85-3.43.46-4.51-.9l-12.3-15.62-3.57-16.23-4.22,1.37c-4.57,1.49-8.73,4.01-12.15,7.37l-.23.22,7.23,51.85h-5.72l-10.98-43.02-3.48,18.9-7.04,24.26h-6.68l5.56-28.54,1.09-18.44c.23-2.48.64-4.94,1.22-7.36h0c.82-3.02,1.43-4.94,5.14-8.21,7.53-6.65,19.01-15.57,29.81-15.57Z"/>
  </g>
  <g>
    <path d="M91.55,97.51c.35.03,1.83.28,1.48.69-.41.23-1.34-.45-1.48-.69Z"/>
    <path d="M87.25,91.04h.03c.12.16.07.87.07,1.08-.16.05-.48.17-.63.12-.08-.33-.22-.64-.3-.96.27-.09.54-.17.82-.24Z"/>
    <path d="M84.46,100.63c.52.32,1.32,1.07,1.75,1.49-.59-.13-1.19-.31-1.75-.49-.02-.33,0-.67,0-1Z"/>
    <path d="M83.49,99.9h.03c.11.16.08,1.31.06,1.52-.27-.19-.55-.31-.88-.43l-.74-.28c.54-.23,1.06-.5,1.53-.81Z"/>
    <path d="M82.59,88.95h.05c.21.12.28.41.36.6-.37.3-.84.56-1.29.78-.18-.21-.39-.35-.63-.51.49-.3,1-.59,1.51-.87Z"/>
    <path d="M84.36,92.12c.08.19.08.78.1,1.03-.34.25-.75.45-1.11.68-.05-.05-.28-.89-.36-1.05.39-.27.88-.5,1.36-.66Z"/>
    <path d="M87.73,94.09h.15c.16.07.6,1.01.7,1.2-.22.07-.44.14-.66.22-.28.05-.57.1-.85.16.02-.47,0-.94,0-1.4.22-.07.43-.14.66-.17Z"/>
    <path d="M90.64,97.24c.29.23.52.54.83.78.29.23,1.73.89.23.77-.64-.23-1.3-.34-1.99-.44.34-.36.63-.74.93-1.12Z"/>
    <path d="M80.43,92.12c.49.2.6,1.32.64,1.71l-.33.26c-.13-.1-.26-.18-.42-.26-.34-.14-.68-.25-1.05-.35.31-.49.71-.94,1.15-1.37Z"/>
    <path d="M84.61,95.05h.02c.08.16-.02.98-.02,1.21-.4.06-.74.16-1.12.28l-.32-.28c-.21-.19-.42-.38-.59-.59.61-.26,1.33-.51,2.02-.61Z"/>
    <path d="M77.08,95.29h.04c2.24-.3,1.9.28.84,1.37-.2.18-.36.38-.53.58-.17-.35-1.05-1.81-.36-1.95Z"/>
    <path d="M80.05,96.4c.22.03.81.68,1.03.84-.84.23-1.64.45-2.46.73-.14.05-.29.11-.43.16-.15-.2-.28-.4-.4-.62.56-.56,1.37-.95,2.26-1.11Z"/>
    <path d="M81.43,97.62c.17.08,1.04,1.01,1.16,1.18l-.1.24c-.11.27-.51,1.48-.78,1.59-.4-.27-.88-.45-1.27-.73.38-.75.63-1.53,1-2.28Z"/>
    <path d="M89.56,90.82c1.4-.01,3.58.49,4.32,1.41.05.06.06.06.04.13l-.4.16c-.34.08-.65.18-.95.32-.79-.58-1.93-.86-3.01-.9v-1.12Z"/>
    <path d="M78.91,101.42c.16.02,1.21.58,1.52.7-.52.46-1.79,1.18-2.46,1.56-.33-.04-.69,0-1.02,0-.45-.14-1.05-.13-1.53-.16,1.07-.72,2.32-1.29,3.49-2.09Z"/>
    <path d="M83.35,79.16c1.26.91.36,4.89-.45,6.06-.06.08-.11.16-.23.19l-.08-.04c-.16-.2-.32-.4-.46-.61.62-1.51,1.48-3.19.46-4.81.2-.29.48-.55.76-.79Z"/>
    <path d="M68.43,97.97c.62.08,1.19.31,1.8.42,1.41.27,2.87.29,4.31.26-.19.24-.36.46-.5.72l-.18.31c-1.87.04-3.65-.24-5.43-.66,0-.34-.07-.72,0-1.05Z"/>
    <path d="M80.33,89.62c.21.08.46.38.61.52,1.41,1.33,2.13,3.17,1.88,4.88-.02.12-.06.69-.34.49-.28-.23-.57-.45-.87-.66.05-2.35-.34-2.42-1.87-4.02.17-.41.43-.79.59-1.2Z"/>
    <path d="M70.95,88.17c.19-.01.4,0,.59,0-.61,2.21-4.43,5.13-7.07,5.84l-.39.08c-.08-.2-.15-.39-.19-.6,2.85-1.2,4.93-2.39,6.45-4.73.19-.29.15-.55.61-.59Z"/>
    <path d="M71.4,86.44c2.34-.12,5.57.6,7.22,1.84-.14.21-.47.88-.65,1.01-2.05-1.11-4.62-2.05-7.19-1.63.08-.4.11-.81.17-1.22h.45Z"/>
    <path d="M80.55,86.44c.31.16.72.77.88,1.03-1.62,1.81-2.44,3.66-3.01,5.79-.21-.02-.42,0-.63,0-.28-.01-.55-.03-.83,0,.05-1.85,2.2-5.29,3.59-6.82Z"/>
    <path d="M74.54,74.67c2.84-.17,5.92,1.32,7.59,2.97-.17.19-.34.37-.52.56-1.39-1.3-3.79-2.54-5.98-2.75-4.34-.4-1.93,3.99-.39,5.42.65.8,3.22,2.51,4.32,2.98.1.48.24.9.49,1.35-2.99-1.64-6.86-4.42-7.68-7.14-.43-1.44.05-3.06,2.17-3.39Z"/>
    <path d="M70.06,86.44c.54,0,.17.8.15,1.18v.04c-3.29.49-6.56,2.41-6.86,5.12-.23,2.06,1.19,2.78,2.62,4.09.04.43-.03.85,0,1.27-.26-.11-.51-.24-.76-.38-5.58-3.05-3.81-8.6,2.17-10.67.86-.3,1.76-.49,2.68-.65Z"/>
    <path d="M77.3,89.62h.49c-.9,1.6-.14.83-2.37,1.36-7.41,1.78-11.04,9-2.78,12.25-.02.43-.14.85-.18,1.28-.17-.09-.34-.18-.52-.25-6.24-2.65-7.11-7.31-2.63-11.41,1.99-1.82,4.92-3.02,8.01-3.23Z"/>
    <path d="M86.97,75.84c2.16.03,3.42,1.41,3.77,2.92.75,3.26-1.86,6.47-4.73,8.74-.3.23-.63.46-.87.73l-.03.04c-.29-.19-.47-.36-.64-.62,3.22-2.04,6.98-6.59,4.95-9.81-2.4-3.81-10.73,2.5-7.7,7.15.39.65,1.02,1.24,1.56,1.83,3.71,4.03,3.71,7.65,2.73,12.19-.43-.33-.91-.73-1.19-1.15.48-3.88.6-6.14-2.25-9.77-.81-1.03-1.78-1.96-2.21-3.13-1.41-3.82,1.57-8.03,6.62-9.12Z"/>
    <path d="M72.35,104.93h.05c.06.37-.06.93-.05,1.33-1.78.71-4.15,1.15-6.14,1.52.27.71-.41.66-1.13.92.71,1.41-1.36,2.02-2.64,2.7-2.13,1.13-1.96,1.64-3.09-.1-.48.16-3.72,1.55-4.01,1.41-.3-.15-.62-.8-.68-1.07-.4-.39-1.22-1.31-1.12-1.75.27-.29,3.25-1.27,3.87-1.53-1.19-1.65-.82-1.26,1.26-1.83,1.74-.48,3.87-1.67,4.94-.16.81-.31,1.29-.27,1.8.32,2.94-.59,4.19-.85,6.94-1.76ZM57.83,109.03c-1.04.42-2.14.76-3.17,1.19.14.2.97,1.56,1.15,1.63,1.04-.41,2.1-.86,3.17-1.22-.4-.48-.74-1.18-1.14-1.6Z"/>
    <path d="M56.03,74.41c.72-.06,1.45.13,2.16.22,1.11.13,2.55.12,2.75,1.23.11.65-.32,2.09-.37,2.84.39.24,1.18-.11,1.19.49,0,.38-.2,1.13-.26,1.58.58-.16,1.12-.37,1.72-.5,4.15-.93,7.39,1.08,8.33,4.14.15.48.19.99.38,1.47l.02.05c-.38,0-.77,0-1.15,0-.71-4.23-4.23-6.48-9.43-4.36-.14,1.66-1.46,1.96-2.9,2.69-.21,1.25-.61,1.32-2.16.95-.43.67-1.09,1.26-1.41,1.96-1.22.68-1.86,2.5-1.58,3.6.85,3.29,4.51,3.83,8.19,3.24.02.24.07.47.15.71-4,.57-7.81-.02-9.07-3.34-1.04-2.76,1.23-4.09,2.82-6.29-.17-.07-.34-.15-.51-.23-.08-.35-.04-.66,0-1.01-2.37-1.32-2.3-2.11-1.93-4.19.1-.55.15-1.11.32-1.66.32.04.64.06.96.09.02-.46.42-2.74.65-3.09.23-.35.7-.49,1.16-.6ZM56.28,75.12c-1.29.22-1.04,2.51-1.25,3.5,1.31.16,2.65.3,3.94.54.22.02.43,0,.64,0l.24-1.6c.09-.57.24-1.15.19-1.72-.55-.61-2.82-.66-3.76-.72Z"/>
    <path d="M56.75,76.05c.64.11.01,1.88,0,1.9l-.24-.02c-.34-.19.06-1.61.24-1.88Z"/>
    <path d="M58.44,76.25c.78.04.21,1.24.15,1.85-.85.01-.29-1.37-.15-1.85Z"/>
    <path d="M102.12,75.84c.33.06,2.82,2.22,2.83,2.41-.31.41-2.4,1.86-2.96,2.26.26.17.51.34.76.53-1.18.92-2.51,1.93-3.72,2.82-1.65.08-2.5-.21-4.07.48-.16-.02-.31-.04-.46-.08-.17-.12-.31-.26-.45-.4-3.89,2.55-6.54,7.21-3.68,10.86.22-.12.42-.3.62-.44,2-1.47,5.67-2.53,8.46-2.85-.19-1.45.43-.89,1.43-1.45.73-.41,1.91-2.56,2.56-2.76.54-.17,5.02-1.43,5.13-1.39.3.12.42.64.51.87.74-.26,1.5-.46,2.25-.69,1.14-.34,2.94-1.11,3.71.1.26.41,1.57,2.94,1.63,3.31.2,1.22-2.15,1.5-3.19,1.85-.62.16-1.22.32-1.81.53.36.51.65.78-.13,1.06-1.3.47-3.34,1.05-4.7,1.4-1.55-.28-3.08-.72-4.64-.96-.86-.14-1.84.49-2.33-.78-4.15.85-7.25,1.21-9.58,4.35-.84,1.12-1.85,2.38-3.03,3.3-.3-.26-.58-.51-.82-.8.22-.43.58-.79.93-1.17h-.63c.02-.39.07-.71.24-1.08.45.02.9.08,1.35.12l1.15-1.58c-.5-.4-.77-.95-1.02-1.45-1.69-3.45-.14-7.29,2.91-10,.49-.44,1.03-.87,1.67-1.18-.29-.36-.3-.41.06-.73,1.24-1.09,1.26-1.14,1.14-2.46.52-.42,3.54-2.4,4.06-2.58.26.05.7.52.89.69.8-.55,2.15-1.7,2.94-2.1ZM107.93,86.7l-1.9.53c-.49.13-.99.25-1.46.43.31.68,2.54,5.65,2.79,5.76l.05-.02c1.13-.34,2.25-.71,3.4-1.02-.29-.67-2.53-5.52-2.77-5.66-.03-.02-.08-.03-.12-.02ZM113.48,86.12c-.99.24-3.13.84-4.01,1.18.06.78,1.24,2.92,1.72,3.85l.48-.11c.97-.3,3.3-.72,3.97-1.22.07-.09.13-.17.18-.27-.21-.64-.59-1.26-.9-1.88-.25-.5-.51-1.6-1.44-1.55ZM98.12,78.2c-.71.48-2.38,1.43-2.87,1.92-.03,1.4,1.07,3.01,3.13,3.03h.15c.86-.36,1.98-1.48,2.82-1.99-.82-.79-2.29-2.26-3.23-2.96ZM104.43,89.46c-.7.13-1.8.43-2.44.69.12.85.48,1.7.76,2.53.14,0,.29.01.43,0,.79-.24,1.65-.35,2.47-.55-.07-.31-1.04-2.62-1.21-2.66ZM102.12,76.79c-.78.63-1.63,1.23-2.44,1.83.76.37,1.07,1.1,1.67,1.44.74-.63,1.72-1.24,2.39-1.86-.33-.27-1.37-1.27-1.62-1.41ZM101.03,90.65c-.32.06-.58.16-.86.3.12.35.46,1.57.71,1.79l.15.05c.28-.02.56-.06.84-.11-.07-.27-.63-1.89-.78-2.02h-.05Z"/>
    <path d="M113.02,87.17c.14.03.21.19.29.29l-.04.02c-.59.29-1.58.53-2.26.68-.32.04-.35-.07-.49-.27.74-.33,1.69-.53,2.51-.72Z"/>
    <path d="M114.2,88.51c.19.02.26.32.31.43-1.18.28-2.34.57-3.51.87l-.1-.02c-.07-.1-.07-.23-.08-.34.78-.34,2.49-.72,3.38-.95Z"/>
    <path d="M77.3,93.68c3.43-.26,5.82,3.24,7.66,5.02,1.42,1.37,3.46,3.08,5.11,4.35-2.57-.57-2.17-.06-3.99-1.58-1.31-1.09-2.47-2.22-3.63-3.4-1.42-1.44-3.33-4.07-6.18-3.01-.06,5.25,9.93,7.91,15.34,8.63,2.75.36,4.95.13,7.26-1.12-1.57-1.03-2.75-2.08-4.82-2.66-1.53.69-2.72,1.51-4.49,2.22-.39-.21-.72-.52-.98-.82,3.38-1.97,7.14-2.49,5.14-6.75.38-.21.82-.37,1.23-.53,1.49,1.92.75,3.19.02,4.96l-.02.05c1.45.39,3.96,1.82,4.92,2.75,2.78-1.45,4.78-4.96,8.47-5.08,4.23-.14,4.57,3.55,4.68,5.87,1.28.11.77.48.47,1.44.36.07.72.11,1.03.27-.23.96-.67,2.44-1.04,3.38-.32.82-1.5.9-2.07,1.54-.26.29-.39.71-.56,1.04-1.54,3.01-5.05,5.23-9.35,3.9-1.19-.37-2.88-1.35-3.38-2.27-2.95.9-4.91.77-7.75,0-.43,1.77-1.17,3.43-2.8,4.77-2.22,1.74-5.2,1.85-7.95.66-8.07-3.49-8.25-13.69-4.19-19.16.14.44.45.74.84,1.07-1.12,1.88-1.95,3.89-2.06,5.97-.2,4.05,1.58,9.26,6.55,11.25,4.24,1.7,6.96-.89,7.97-3.89.13-.39.1-.87.39-1.22-3.73-2.04-4.18-4.19-4.76-7.31l-.77.31c-2.32.9-6.33,1.25-8.84.63.02-.37.09-.75.21-1.11,1.89.45,4.71.37,6.6-.07.56-.13,1.05-.4,1.62-.52.88.2,1.74.41,2.55.77-.02,2.12,1.36,4.54,3.39,5.96.09-1.91-.6-3.63-1.19-5.45.59.14,1.21.24,1.78.42.57,1.88,1.04,3.76.93,5.7,2,.96,4.3.84,6.44.25-.95-1.43-3.39-3.71-4.84-4.77-.61-.44-1.75-1.03-2.17-1.5-.61-.16-1.26-.26-1.88-.41-4.63-1.13-12.21-3.35-13.05-7.65-.23-1.18.39-2.7,2.16-2.88ZM108.32,97.87c-2.44.34-4.31,2.38-5.89,3.7-.44.37-1,.69-1.4,1.08l.03.04c.27.39.65.73.97,1.1,2.23,2.59,2.2,5.11-1.18,7.04-.45.26-.95.46-1.39.72.74.59,1.47,1.05,2.41,1.44,4.05,1.45,7.06-1.27,7.99-4.11-.36-.57-.8-1.11-1.18-1.68.27-.96.42-2.69.8-3.5.27-.02.53-.02.79,0v-.05c.37-1.14-.22-1.35,1.18-1.27,0-1.48-.23-4.75-3.13-4.49ZM99.87,103.51c-2.83,1.14-3.66,1.68-7.3,1.33,1.43.85,3.65,2.71,4.51,4.01.54.44,1,1.1,1.33,1.65,4.74-1.54,4.41-4.19,1.54-6.97l-.07-.02Z"/>
  </g>
</svg>