<?xml version="1.0" encoding="UTF-8"?>
<svg id="pictos" xmlns="http://www.w3.org/2000/svg" viewBox="0 0 128 128">
  <defs>
    <style>
      .cls-1 {
        stroke-linecap: round;
      }

      .cls-1, .cls-2, .cls-3 {
        fill: #fff;
        stroke: #000;
        stroke-width: 2.17px;
      }

      .cls-1, .cls-3 {
        stroke-linejoin: round;
      }

      .cls-4 {
        stroke-width: .5px;
      }

      .cls-4, .cls-2, .cls-5 {
        stroke-miterlimit: 10;
      }

      .cls-4, .cls-5 {
        stroke: #fff;
      }
    </style>
  </defs>
  <path class="cls-5" d="M95.5,39.42c1.04-.07,1.64.31,2.27,1.15,2.57-3.69,6.08,2.18,1.99,2.87-.9-.07-1.56-.53-1.99-1.32-2.42,3.8-6.05-1.59-2.27-2.7Z"/>
  <path class="cls-5" d="M89.11,50.74h10.89c1.4,0,5.28-.37,6.43.3,1.09.64.77,2.32-.4,2.62-.98.04-1.98,0-2.96,0h-10.73c-1.8,0-4.37.65-4.19-1.99.26-.47.52-.67.97-.93Z"/>
  <path class="cls-5" d="M97.26,45.98c1.57-.07,3.16,0,4.73,0,1.17,0,4.97-.6,5.09,1.25.14,2.24-2.53,1.71-3.98,1.71h-5.35s-5.74,0-5.74,0c-1.2,0-3.96.47-3.96-1.44,0-1.96,2.91-1.53,4.15-1.52h5.05Z"/>
  <path class="cls-5" d="M84.12,33.77c1.89-.09,3.8,0,5.69,0h17.7c6.1,0,4.99-.08,5.08,6.33.07,4.52.02,9.04.02,13.56-.76.16-2.13,0-2.97,0v-15.75c0-.39,0-.78,0-1.17-.9-.05-1.8,0-2.7,0h-21.41c-.21,1.5,0,3.41,0,4.96v12.24c-1.01,0-2.02.01-3.02,0,.09-4.43,0-8.88,0-13.31,0-2.28-1.01-6.43,1.61-6.85Z"/>
  <path class="cls-4" d="M114.17,103.9v-47.39s-26.74,0-26.74,0c-1.09,0-2.23.07-3.31,0-3.53-3.54-11.63-10.16-16.99-10.16-2.36,0-3.56,1.44-4.95,2.24.47.09.94.2,1.4.36.52.18,1.02.43,1.47.73.48-.38,1.01-.64,1.65-.75,3.54-.58,11.5,5.78,14.21,8.09-.87,1.11-3.05,2.94-4.22,4.16-2.39-1.19-6.47-4.67-8.55-5.14-2.87,1.15.1,2.96,1.4,3.82,1.91,1.26,3.87,2.44,5.87,3.57-.84,1.76-1.72,2.92-2.54,4.96-.67-.46-1.34-.92-1.99-1.4-1.62-1.12-3.16-2.51-4.35-4.08-.54-.71-.98-2.12-2.04-2.14-.72-.02-1.13.72-1.09,1.37.12,2.15,4.38,5.72,5.99,7.1-.84.74-1.34,1.48-1.71,2.53-3.94-3.44-6.86-7.9-6.93-13.15-.88-.09-1.78-.26-2.65-.19.1,6.49,4.19,11.77,8.6,16.24,2.34,2.37,2.68-.68,3.23-1.9.33-.73.85-1.41,1.38-2,.56.29,1.02.7,1.56,1,2.5-.05,2.22-3.12,3.82-4.97h34.54v41.92h-14.99c-1.16,0-2.35.08-3.5,0v-2.25c2.29-.68,2.72-5.08,0-6.62,0-.69.09-1.43,0-2.11,1.9-1.22,1.75-2.55,1.62-4.64,1.96-.83,2.43-3.1,1.65-4.91-.69-1.61-2.53-1.51-3.98-1.43-.2-.81-1.08-4.74-1.63-5.04-.7-.38-8.8,2.47-9.88,2.81l-5.43,1.67c-3.54,1.07-3.91.7-2.29,4.74l.06.16c-.93-.05-1.94-.13-2.87,0-.02-1.31.11-4.1.45-5.31.97-.71,1.96-1.3,2.13-2.61.5-3.72-4.56-2.96-6.75-2.96h-15.35c-1.41,0-3.65-.4-4.81.61-1.9,1.66-.75,3.67,1.26,4.55.14.85.17,1.71.23,2.57l1.08,17.28c.12,1.89.1,3.95.43,5.81.16.23.31.46.5.67h11.87c2.01,0,4.58.14,6.52-.07,1.5-.16,1.19-2.31,1.26-3.41.07-1.31.17-2.61.34-3.91.09.94.2,1.32.85,2,0,1.41-.68,5.23,1.52,5.38,1.8.12,3.67,0,5.47,0h27.11c1.32,0,9.03.38,9.72-.39.71-.79.36-6.2.36-7.42ZM49.15,85.79c.9-.09,1.87,0,2.78,0,0,.57,0,1.15,0,1.72-.93,0-1.85.01-2.78,0-.06-.59-.08-1.13,0-1.72ZM49.33,89.29c.87-.02,1.73,0,2.6,0,0,.88-.07,1.78,0,2.65-.86,0-1.73.04-2.6,0,.01-.89,0-1.77,0-2.65ZM51.92,93.69v2.72c-.69-.04-1.39-.07-2.08,0-.19-.9-.25-1.8-.3-2.72.8-.01,1.59-.02,2.38,0ZM50.23,102.57c.56,0,1.13,0,1.69,0v2.59h-1.69c-.05-.87-.09-1.72,0-2.59ZM51.92,109.56c-.5,0-.99,0-1.49,0,.06-.85,0-1.73,0-2.59h1.49c.03.86.05,1.72,0,2.59ZM51.92,100.76c-.57.04-1.12.09-1.69,0l-.07-.2c-.28-.79-.31-1.57-.32-2.4h2.08c.03.86.06,1.73,0,2.59ZM55.61,109.56h-1.82v-2.59h1.82v2.59ZM55.61,105.16c-.59-.05-1.22,0-1.82,0v-2.59c.61-.02,1.21,0,1.82,0v2.59ZM55.61,100.76c-.6.02-1.21,0-1.82,0,0-.86,0-1.73,0-2.59.61.04,1.2.03,1.82,0,.02.86,0,1.73,0,2.59ZM53.8,93.69c.61-.02,1.21-.02,1.82,0v2.72h-1.82c-.02-.91-.03-1.81,0-2.72ZM55.61,91.94h-1.82c-.03-.89-.02-1.77,0-2.65.61-.04,1.21-.02,1.82,0,0,.88.04,1.77,0,2.65ZM53.8,85.79h1.82v1.72c-.6.02-1.21,0-1.82,0,.03-.57-.01-1.15,0-1.72ZM59.5,109.56c-.65-.02-1.3,0-1.95,0v-2.59h1.95c-.02.86,0,1.73,0,2.59ZM59.5,105.16c-.55.12-1.37,0-1.95,0-.01-.86,0-1.73,0-2.59h1.95c0,.86-.03,1.73,0,2.59ZM59.5,100.76h-1.95c-.07-.88-.07-1.72,0-2.59.65.01,1.3,0,1.95,0v2.59ZM59.5,96.41c-.65-.02-1.3-.03-1.95,0,0-.89-.09-1.83,0-2.72.65-.06,1.3-.04,1.95,0v2.72ZM59.5,91.94h-1.95c-.01-.88,0-1.77,0-2.65h1.95v2.65ZM59.5,87.51c-.65,0-1.3,0-1.95,0,0-.57-.02-1.15,0-1.72.65.02,1.3,0,1.95,0v1.72ZM63.38,109.56c-.7-.04-1.37-.03-2.07,0,0-.86-.01-1.72,0-2.59h2.07c.03.86-.02,1.72,0,2.59ZM63.38,105.16c-.7.04-1.37.04-2.07,0,.02-.86,0-1.73,0-2.59h2.07c.01.86.02,1.73,0,2.59ZM63.38,100.76c-.69.02-1.38.04-2.07,0v-2.59h2.07c-.02.8.19,1.83,0,2.59ZM63.38,96.41c-.68.04-1.38,0-2.07,0v-2.72h2.31c.02.92,0,1.83-.25,2.72ZM63.76,91.94c-.82,0-1.64.03-2.45,0-.01-.89-.03-1.77,0-2.65.82-.01,1.64,0,2.45,0-.04.89-.05,1.76,0,2.65ZM63.91,87.51c-.86.04-1.74,0-2.6,0v-1.72h2.6c-.02.57,0,1.15,0,1.72ZM66.68,109.56h-1.43c-.11-.91-.12-1.68,0-2.59.48-.03.95-.03,1.43,0,.08.86-.03,1.72,0,2.59ZM67.06,105.16c-.56.09-1.24,0-1.81,0,.04-.86,0-1.73,0-2.59.61-.06,1.2-.05,1.81,0-.1.88-.12,1.71,0,2.59ZM67.29,100.76c-.6.08-1.34,0-1.96,0v-2.59c.67-.07,1.29-.06,1.96,0,.05.85.03,1.74,0,2.59ZM67.29,96.41c-.67-.05-1.29-.05-1.96,0,0-.75-.35-2.64.55-2.72.59-.02,1.18-.01,1.78,0,0,.56.23,2.52-.37,2.72ZM68.11,89.35c-.24.86-.31,1.72-.45,2.59-.27.09-1.67,0-2.07,0v-2.65c.84-.04,1.69-.01,2.54,0l-.02.06ZM68.13,87.51c-.76.15-1.76.02-2.54,0,.09-.6.07-1.12,0-1.72h2.54c-.04.58.03,1.14,0,1.72ZM50.49,83.49c-.72,0-2.84.21-3.42-.26-.75-.6.36-.96.94-.98h19.45c.37,0,3.69-.3,2.96.78-.27.4-.62.4-1.05.45h-18.88ZM88.81,84.81h.18c.35.35.51,1.46.63,1.95h-7.12c2.09-.7,4.22-1.22,6.3-1.95ZM71.98,93.34h20.04c0,.51.14,1.63-.18,2.05-.84.34-9.34.18-10.95.18-2.96,0-5.95.07-8.91,0,.11-.79.1-1.43,0-2.23ZM90.31,99.69c-.99.45-4.37.15-5.6.15h-10.18v-2.11c1.46-.04,14.56-.23,15.53.04.52.15.3,1.55.25,1.92ZM90.26,108.33c-.51.65-3.42.34-4.29.39h-12.93v-2.25c1.49.04,2.99,0,4.48,0h7.88c1.03,0,3.94-.27,4.79.14.29.38.35,1.37.07,1.73ZM91.85,104.18c-.27.27-1.18.14-1.55.14h-18.33c0-.78,0-1.55,0-2.33.57.03,1.14.03,1.71,0h15.88c.74,0,1.53-.07,2.26.08.35.36.32,1.82.02,2.11ZM90.62,91.1h-12.56c-.88,0-2.2.12-3.01-.06-.26-.31-.6-1.65-.53-1.98l.54-.04h18.78c.1.7.45,1.86-.48,2.08-.89.09-1.85,0-2.74,0ZM111.22,63.89c-1.46-.05-2.94,0-4.41,0h-19.94c-2.48,0-6.37.26-8.71,0,.82-1.17,3.28-3.94,4.53-4.53h24.62c1.3.01,2.61.06,3.91,0-.02,1.51,0,3.02,0,4.53Z"/>
  <g>
    <path class="cls-2" d="M65.06,48.97l-14.8,1.67-5.24-14.49c-2.73-6.58-12.21-2.26-9.05,4.11l8.24,14.9c.48,1.01,1.32,1.83,2.51,2.04l17.09-2.63c1.46.26,2.91-.64,3.29-2.1.4-1.53-.52-3.1-2.05-3.5Z"/>
    <circle class="cls-3" cx="36.97" cy="18.22" r="7.82"/>
    <path class="cls-1" d="M17.45,117.3l6.11-23.63,2.42-26.22-.27-28.83c-.15-2.46,1.18-4.77,3.38-5.87h0c1.14-.57,2.42-.77,3.68-.58l6.72.23c3,.1,5.44,2.47,5.62,5.47l4.86,79.04-6.95.2-6.72-42.05-4.61,22.24-6.04,20.27-8.21-.3Z"/>
    <path class="cls-2" d="M58.91,55.11l-17.25-4.51-5.24-14.49c-2.73-6.58-12.21-2.26-9.05,4.11l8.24,14.9c.48,1.01,1.32,1.83,2.51,2.04l19.54,3.56c1.46.26,2.91-.64,3.29-2.1.4-1.53-.52-3.1-2.05-3.5Z"/>
  </g>
</svg>