<?xml version="1.0" encoding="UTF-8"?>
<svg id="pictos" xmlns="http://www.w3.org/2000/svg" viewBox="0 0 128 128">
  <defs>
    <style>
      .cls-1 {
        stroke-linecap: round;
      }

      .cls-1, .cls-2, .cls-3 {
        fill: #fff;
        stroke: #000;
        stroke-linejoin: round;
      }

      .cls-1, .cls-3 {
        stroke-width: 1.91px;
      }

      .cls-2 {
        stroke-width: 2px;
      }
    </style>
  </defs>
  <g>
    <path d="M82.08,83.04c-2.78-3.07-3.19-4.77-1.78-6.89,1.12-1.68,3.85-2.66,5.55-2,1.3.51,2.27,1.42,2.46,2.79.16,1.22-.04,2.49-.08,3.77,1.32.09,2.81.13,4.29.31.89.11,1.78.38,2.62.72.82.33,1.22,1.1,1.36,1.95.17,1.03-.51,1.86-1.54,1.95-1.14.1-2.14-.26-3.07-.9-.55-.38-1.13-.69-1.84-1.12,1.07,3.06,2.69,5.47,5.19,7.25,1.08.77,2.09,1.64,3.12,2.48.74.6,1.25,1.32,1.26,2.33.01,1.14-.36,1.81-1.23,2.12-1.09.39-1.99.14-2.7-.71-.89-1.07-1.78-2.12-2.7-3.16-.27-.31-.59-.59-.94-.79-.74-.43-1.51-.66-2.33-.15-.81.5-.91,1.24-.8,2.08.19,1.46.93,2.64,1.85,3.75.41.49.79,1.05,1,1.64.43,1.22.07,2.07-.92,2.54-1.25.59-2.6.4-3.12-.7-.99-2.06-1.87-4.19-2.66-6.34-1-2.7-1.88-5.45-2.8-8.19-.21-.63-.61-.48-.96-.22-.67.48-1.27,1.06-1.95,1.52-.68.46-1.38.92-2.14,1.2-.97.36-2.08-.16-2.49-1-.45-.91-.2-2.09.65-2.7.47-.34,1.05-.53,1.57-.8,1.71-.9,3.41-1.81,5.17-2.74Z"/>
    <path d="M71.93,103.28h-2.76v-9.67c4-.16,8.08-.32,12.3-.49.72,3.31.34,6.73.36,10.25-.85-.05-1.6-.1-2.24-.14-.46.78-.82,1.6-1.36,2.25-.87,1.05-2.09,1.41-3.36.96-1.32-.47-2.25-1.47-2.36-2.94-.03-.39.33-.88.64-1.2.27-.27.73-.37,1.09-.53,1.48,1.26,1.58,1.26,3.38.37.39-.19.84-.26,1.27-.39.16-1.37-1.15-2.85-2.69-3.01-1.3-.13-2.35.41-3.32,1.2-1.06.87-1.18,2.04-.95,3.33Z"/>
    <path d="M106.77,87.38c2.65,0,4.52,1.83,4.51,4.39,0,2.84-2.12,5.1-4.78,5.14-2.39.03-4.48-2.25-4.48-4.89,0-2.82,1.87-4.64,4.74-4.64Z"/>
    <path d="M92.55,76.04c-1.08.08-1.98-.39-2.63-1.27-1.19-1.6-1.47-3.38-.84-5.28,0-.03.02-.06.03-.08,1.12-2.84,4.82-3.64,6.95-1.49,1.33,1.34,1.83,3.48,1.18,5.07-.81,1.97-2.45,3.05-4.69,3.06Z"/>
  </g>
  <g>
    <circle class="cls-3" cx="83.23" cy="22.24" r="7.73"/>
    <path class="cls-2" d="M59.51,35.36l-2.28,12.87,4.39,10.41c.75,1.77-.23,3.78-2.07,4.3h0c-1.44.41-2.96-.24-3.67-1.55l-6.92-12.82,1.07-11.16"/>
    <path class="cls-1" d="M57.55,16.67c6.38-.08,10.1,2.35,11.05,7.49l.7,3.79.35,16.73c.04,1.71.58,3.37,1.55,4.77l8.37,12.02c1.2,1.72.65,4.1-1.19,5.12h0c-1.52.85-3.43.46-4.51-.9l-12.3-15.62-3.57-16.23-4.22,1.37c-4.57,1.49-8.73,4.01-12.15,7.37l-.23.22,7.23,51.85h-5.72l-10.98-43.02-3.48,18.9-7.04,24.26h-6.68l5.56-28.54,1.09-18.44c.23-2.48.64-4.94,1.22-7.36h0c.82-3.02,1.43-4.94,5.14-8.21,7.53-6.65,19.01-15.57,29.81-15.57Z"/>
  </g>
</svg>