<?xml version="1.0" encoding="UTF-8"?>
<svg xmlns="http://www.w3.org/2000/svg" viewBox="0 0 128 128">
  <defs>
    <style>
      .cls-1 {
        fill: none;
      }

      .cls-1, .cls-2 {
        stroke-width: 2px;
      }

      .cls-1, .cls-2, .cls-3 {
        stroke: #000;
        stroke-linecap: round;
        stroke-miterlimit: 10;
      }

      .cls-2, .cls-3, .cls-4 {
        fill: #fff;
      }

      .cls-5 {
        fill: #e9e9e9;
      }
    </style>
  </defs>
  <g id="pictos">
    <path class="cls-5" d="M13.82,40.4c.51-.54,1.19-.32,1.8-.4.19-.03.23.22.19.4-.66,0-1.33,0-1.99,0Z"/>
    <g>
      <path d="M53.18,40.17c.58-.15,1.09.36.84.92-.32.72-1.75,1.06-2.45,1.33-.6.1-1.26-.41-.87-1.05.35-.57,1.82-1.06,2.48-1.2Z"/>
      <path d="M48.59,42.97c1.85.24-.36,2.92-1.37,3.24-2.04-.2.57-2.96,1.37-3.24Z"/>
      <path d="M45.5,47.73c.5.03.81.37,1.07.75-.39.86-.33,2.54-1.29,2.93-1.77-.22-.6-3.42.22-3.69Z"/>
      <path d="M47.63,37.99c.27-.02.44.08.67.21.7,1.4-1.13,1.83-2.31,2.29-.32.03-2.62-1.03,1.64-2.49Z"/>
      <path d="M50.97,36.98c.67,0,3.76-.43,3.12,1.12-.1.24-.33.37-.56.47-.51.04-2.24.08-2.66-.08-.86-.33-.7-1.26.09-1.51Z"/>
      <path d="M42.97,40.95c2.5-.07-.73,2.94-1.3,3.31-2.14.39-.09-2.59,1.3-3.31Z"/>
      <path d="M103.85,11.58c3.28-.34,6.41,1.5,7.71,4.51.42.97.61,2.05.88,3.07l1.45,5.73c1.78,7.15,2.85,7.93-2.66,14.08.97,1.68,3.47,4.53,4.02,6.06.92,2.57-1.41,5.16-4.02,4.74-5.14,3.16-10.38,6.17-15.55,9.28-.48.29-.78,1.24-1.77,1.8-1.57.88-3.73.48-4.89-.9-1.26-1.51-2.85-6.64-3.98-8.75-6.88-1.59-10.92-5.61-17.34-7.61-1.73-.49-3.44-.82-5.25-.82-.99,1.56-2.81,3.41-4.55,4.13h-.05c-1.69-.42-.45-4.92-.1-6.16-.67-.01-2.19.29-2.68-.15-.29-.27-.31-.82-.03-1.1.49-.48,2.06-.28,2.71-.28.31-1.76.76-6.68,1.22-7.69.86-1.89,3.08,2.24,3.36,2.79.66,1.31.69.94,2.02.84,4.12-.31,11.1.48,14.84,2.59-2.41-2.88-1.69-7.88-.31-11.03-1.89-2.71-2.64-2.85-.28-4.4-3.19-6.85,5.15-11.15,9.11-5.58,2.53-1.02,1.73-1.46,3.64,1.85,2.65-1.61,5.22-3.35,7.87-4.96,1.67-1.01,2.57-1.85,4.64-2.03ZM100.08,25.86c-3.88,2.18-7.66,4.54-11.48,6.83l-5.11,3.06c-.92.55-1.87,1.08-2.77,1.67.46.66.74,1.51,1.06,2.25l7.53,17.45c.54,1.25.85,2.4,2.38,2.65.9.15,1.71-.29,2.22-1.01l.03-.06c.75-1.5.1-.77,1.28-1.19.93-.33,3.75-2.18,4.68-2.74l8.89-5.35c.71-.44,1.42-.9,2.16-1.28.98.53,2.24-.05,2.73-.99.84-1.6-.49-2.8-1.36-4.02l-8.65-12.31c-.48-.7-3.12-4.88-3.58-4.98ZM91.35,20.4c-1.13.79-2.38,1.44-3.56,2.15l-7.56,4.53c-.66,3.12-1.94,5.84-.28,9.02,1.51-.89,2.98-1.83,4.5-2.68l13.25-7.96c.56-.34,1.16-.67,1.7-1.04-2.19-3.13-4.93-2.95-8.04-4.02ZM65.99,36.56c-.88.05-1.76.09-2.64.18v.1c-.13,1.68.1,2.62-.36,4.4,8.26.35,12.2,4.96,19.03,7.49.8.29,1.59.56,2.42.74-.54-.98-.96-2.02-1.4-3.04l-1.8-4.2c-.33-.79-.63-1.62-1.02-2.38-4.01-2.25-9.72-3.38-14.23-3.3ZM104.1,13.05c-2.47.26-4.65,2.17-6.66,3.47-1.46.94-3.04,1.81-4.39,2.89,1.17.07,2.22.41,3.28.88,1.46-.99,5.76-3.92,7.23-4.45,1.38-.5,3.13.13,3.93,1.36.66,1.03,2.48,9.13,2.97,10.88,1.11,3.96.93,4.59-1.76,7.43.59.68,1.07,1.48,1.58,2.22,3.37-3.52,4.1-4.74,3-9.27l-2.1-8.26c-.51-1.97-.87-4.12-2.42-5.58-1.07-1.01-3.16-1.94-4.65-1.58ZM104.42,17.2c-1.23.19-5.07,3.04-6.44,3.82,2.02,1.37,2.35,2.29,3.69,4.26l4.23,6.17c.61.93,1.31,1.81,1.97,2.72,2.14-2.22,1.97-2.44,1.25-5.26l-2.06-8.02c-.36-1.37-.64-3.99-2.64-3.7ZM82.65,15.71c-2.14.28-3.58,2.3-3.27,4.41.34,2.35,1.3.84,2.64.16,1.44-.94,3.06-1.68,4.44-2.7-.78-1.15-2.35-2.21-3.81-1.87ZM89.07,17.75c-1.88,1.1-3.71,2.28-5.58,3.4l-2.87,1.75c-.58.35-1.19.66-1.75,1.05.18.26.81,1.4,1.01,1.5h.05c3.45-1.94,6.76-4.12,10.22-6.05-.25-.4-.76-1.38-1.08-1.66ZM60.13,33.63c-.72,3.49-.9,7.38-1.48,10.95.36-.24.7-.51,1.01-.81,2.6-2.56,2.76-6.08,1.09-9.18-.17-.32-.34-.72-.62-.96Z"/>
      <path d="M106.85,45.51c.37,0,.72.16.86.54.3.84-3.21,2.54-3.85,2.93l-8.54,5.14c-.59.35-1.2.76-1.84,1.01-.55.08-1.03-.42-.83-.98.15-.44,2.95-1.93,3.44-2.22l8.07-4.87c.88-.53,1.77-1.1,2.7-1.55Z"/>
    </g>
  </g>
  <g id="Left">
    <g>
      <path class="cls-4" d="M27.58,51.01c-.66.4-1.26.76-1.86,1.1-.09.05-.26.04-.36,0-.59-.33-1.16-.67-1.75-1.02,1.31-1.37,1.94-1.39,3.97-.07Z"/>
      <path class="cls-3" d="M20.03,65.48c3.01,2,6.66,2.26,9.78,1.01-.05-3.36-1.7-6.63-4.71-8.64s-6.66-2.26-9.78-1.01c.05,3.36,1.7,6.63,4.71,8.64Z"/>
      <path class="cls-3" d="M42.14,58.21c2.72-2.38,6.31-3.11,9.57-2.28.39,3.34-.82,6.8-3.54,9.18-2.72,2.38-6.31,3.11-9.57,2.28-.39-3.34.82-6.8,3.54-9.18Z"/>
      <g>
        <path class="cls-3" d="M22.83,50.35c2.47,1.65,5.48,1.85,8.04.83-.04-2.76-1.4-5.45-3.87-7.1s-5.48-1.85-8.04-.83c.04,2.76,1.4,5.45,3.87,7.1Z"/>
        <path class="cls-3" d="M42.68,44.38c2.24-1.95,5.19-2.55,7.87-1.87.32,2.74-.67,5.59-2.91,7.55s-5.19,2.55-7.87,1.87c-.32-2.74.67-5.59,2.91-7.55Z"/>
      </g>
      <path class="cls-3" d="M31.15,34.06c0-2.86,1.44-5.39,3.63-6.89,2.19,1.51,3.63,4.03,3.63,6.89s-1.44,5.39-3.63,6.89c-2.19-1.51-3.63-4.03-3.63-6.89Z"/>
      <line class="cls-3" x1="34.78" y1="33.05" x2="34.78" y2="85.19"/>
      <line class="cls-3" x1="22.57" y1="61.66" x2="34.78" y2="70.12"/>
      <line class="cls-3" x1="24.78" y1="46.75" x2="34.78" y2="53.67"/>
      <line class="cls-3" x1="34.78" y1="70.6" x2="47.01" y2="60.07"/>
      <line class="cls-3" x1="34.78" y1="56.06" x2="47.01" y2="45.65"/>
    </g>
    <polygon class="cls-1" points="44.72 116.05 23.46 116.05 18.9 87.2 49.28 87.2 44.72 116.05"/>
    <rect class="cls-2" x="17.27" y="79.86" width="33.64" height="7.34"/>
  </g>
</svg>