<?xml version="1.0" encoding="UTF-8"?>
<svg id="pictos" xmlns="http://www.w3.org/2000/svg" viewBox="0 0 128 128">
  <defs>
    <style>
      .cls-1 {
        stroke-width: .25px;
      }

      .cls-1, .cls-2 {
        stroke: #000;
        stroke-miterlimit: 10;
      }

      .cls-2 {
        fill: none;
        stroke-width: 2px;
      }
    </style>
  </defs>
  <path class="cls-1" d="M74.78,9.95c.42-.02.73.2,1.07.42,4.61,2.96,3.27,8.02-.89,10.67-.04.86.09,1.71,0,2.57.47,0,2.91-.18,3.16.26.32.54-.02,3.64-.05,4.34l-.39,9.42c-.02.7-.01,1.43-.14,2.11.53-.99.93-2.08,1.41-3.1l3.87-8.32c1.07-2.34,1.21-3.2,3.06-5.22,1.04-1.15,5.19-6.11,5.91-6.58,1.59-1.05.75,3.4.71,3.84l-.35,4.98c-.17,2.55.05,2.08-1.04,4.35l-5.87,12.39c-1.2,2.52-2.45,5.01-3.57,7.57,2.01.79,1.53,2.64,1.38,4.34l-1.74,20.06c-.33,3.74-.95,5.19-5.02,5.15h-22.56c-1.9,0-3.46.09-4.8-1.53-.95-1.44-.81-3.25-.98-4.91-.33-3.21-.58-6.44-.87-9.66l-.85-9.52c-.17-1.84-.38-3.62,1.91-4.02-.46-1.47-1.43-3.87-2.1-5.27-1.24.52-2.69.18-3.26-1.11-.71-1.61-1.35-3.26-2.04-4.87l-1.13-2.64c-.8-1.91-1.26-3.47,1.05-4.47-.32-.5-.91-1.97-1.05-2.54-.46-1.88,1.74-2.29,3.04-2.86.9-.39,2.95-1.57,3.9-1.38,1.5.3,1.62,2.03,2.33,3.1l.04.07c3.15-1.39,4.12,3.72,5.04,5.71.21-.98.29-2.02.42-3.02.08-.61.01-1.74.84-1.76,1.51-.03,3.83.39,5.45.51,0-.44-.09-.9-.16-1.34l-.74-4.91c-.06-.42-.21-.86-.23-1.28-.03-.65.4-2.48.52-3.22l.81-5c.09-.58.15-3.33,1.22-2.74.46.25,3.37,6.15,3.86,7.06,1.55,2.86,1.38,2.26,1.77,5.48.26,2.11.6,4.22.9,6.32l.24,1.7c.05.36.07.76.18,1.11.39-.85-.14-7.94.52-8.45.26-.2,3.51-.14,4.05-.12.05-.76-.02-1.54,0-2.3-2.43-.89-3.35-4.78-1.1-6.35,2.06-1.44,2.5-1.55,1.77-4.4.09-.3.22-.45.5-.6ZM47.98,57.03c0,.97.14,1.94.22,2.91l1.18,13.19c.46,4.86.45,4.72,4.91,4.71h22.21c1.56-.02,2.67-.2,3.22-1.79.17-.94.2-1.93.28-2.89l1.07-12.49c.1-1.2.25-2.43.28-3.63-1.92.04-3.84,0-5.76,0h-22.84c-1.58,0-3.19.06-4.78,0ZM48.43,50.93c-1.27.2-.92,1.43-.84,2.36.07.78.13,1.56.23,2.34h33.68l.2-2.34c.05-.57.13-1.16.11-1.73-.62-1.04-2.46-.63-3.61-.63h-29.77ZM65.96,21.31c-1.67.1-3.37.37-5.03.59l3.78,24.88c.14.91.31,1.81.41,2.73.1.07.21.04.32.04h5c-.27-2.02-.66-4.03-.97-6.04l-2.43-15.99c-.1-.68-.77-6.01-.93-6.24-.05,0-.09,0-.13.03ZM85.33,26.06l-8.65,18.78c-.74,1.57-1.51,3.1-2.17,4.71h5.03c.21-.02.41,0,.61,0l9.05-19.09c.36-.74.78-1.5,1.05-2.27-1.68-.57-3.28-1.45-4.93-2.12ZM70.44,29.33c.06.8-.02,1.63-.07,2.43l-.2,3.95c-.16,2.72-.07,3.31.36,6.01l.84,5.26c.14.86.32,1.71.44,2.56.39,0,.79-.02,1.18,0,.4-.71.66-1.49,1.12-2.17.41-2.4,1.95-3.1,2.05-6.2l.36-8.69c.04-1.05.13-2.11.1-3.16-2.06.04-4.13-.07-6.19,0ZM47.98,29.33c-.71.37-1.49.62-2.16,1.07.95,1.75,1.95,4.56,2.75,6.47.29.7,1.07,2.29,1.19,2.95-.96,1.81-1.79-.9-2.1-1.63l-1.28-3.07c-.59-1.43-1.26-2.84-1.79-4.29-.78.34-1.57.66-2.33,1.04.76,1.68,1.45,3.4,2.15,5.1l3.87,9.26c.29.69.6,1.38.86,2.09.18.43.38.83.61,1.23.88-.07,1.79,0,2.67,0-.64-1.77-1.45-3.48-2.17-5.22-.24-.58-1.23-2.13-.1-2.4.86-.2,1.77,2.88,2.06,3.56.58,1.34,1.23,2.68,1.73,4.06.84,0,1.69-.02,2.53,0-.73-1.88-1.55-3.74-2.33-5.6l-3.62-8.57c-.86-1.99-1.62-4.03-2.49-6.02l-.07-.03ZM56.22,39.21c-.14,1.09-.66,1.69-1.64,2.08.14.35.29.69.4,1.05,2.07.08,4.32.51,6.3.53.54.06,1.08.16,1.62.22-.26-1.09-.4-2.24-.55-3.35-2-.17-4.16-.43-6.13-.53ZM75.91,12.07c.02,3.92-3.37,3.19-3.37,5.38,0,1.12.63,2.07,1.56,2.64.26-.09.51-.32.72-.49,1.68-1.37,3.14-3.33,2.37-5.61-.21-.62-.71-1.57-1.28-1.92ZM70.58,24.95c.03,1.03-.05,2.05,0,3.08h4.01c.72,0,1.45-.03,2.17,0-.06-1.02.13-2.05.12-3.08-2.1.02-4.2-.06-6.3,0ZM55.75,29.89c-.13,1.13-.28,2.26-.4,3.39.57-.05,1.14.02,1.71.07l2.64.24c.45.04.92.12,1.37.13.1.01.23.04.32,0l-.03-.04h.04c-.06-1.08-.25-2.23-.45-3.28-1.39-.15-3.93-.22-5.19-.51ZM46.24,25.66c-1.35.75-4,1.85-5.46,2.36.14.47.78,2.68,1.3,2.47,1.82-.8,3.71-1.55,5.46-2.47-.22-.44-.79-2.37-1.3-2.36ZM58.55,43.94c-.23,1.05-.34,2.21-.41,3.28,1.59.31,3.38.27,5.01.48.1,0,.28.04.36,0-.11-1.09-.4-2.18-.36-3.27-1.27-.18-3.5-.19-4.59-.48ZM89.22,21.46l-1.9,2.08c-.42.46-.88.9-1.24,1.41.66.18,2,.75,2.56,1.12.69.22,1.37.54,2.01.87.05-1.56.25-3.11.3-4.67-.57-.2-1.19-.52-1.73-.8ZM49.88,28.73c-.96.12-.46.48-.11,1.3l3.68,8.59c.11.26.43,1.59.82,1.43,1.27-.75,0-2.59-.45-3.63l-1.51-3.61c-.37-.88-1.37-4.24-2.43-4.08ZM63.6,16.01c-.61.08-1.23.15-1.85.22-.34,1.44-.42,2.9-.68,4.34.62-.08,1.2-.21,1.84-.17.91-.26,1.83-.32,2.76-.45-.18-.41-1.94-3.86-2.06-3.94h-.01ZM41.01,32.41c-.35.22-.7.51-.79.94-.11.51,2.49,6.16,2.86,7.02.46,1.09.54,2.43,1.68,2.8.24-.02.47-.05.71-.1-.16-.52-.39-1.02-.59-1.52l-1.35-3.24c-.34-.82-2.17-5.54-2.52-5.91ZM58.86,34.84c-.08,1.03-.31,2.25-.3,3.25,1.13.15,2.29.12,3.42.27h.16c.01-.07-.45-2.88-.51-3.26-.91-.09-1.86-.13-2.76-.26ZM55.11,34.51c-.26,1.47.24,2.1.89,3.41.31,0,1.13.27,1.21-.13.1-.98.14-2.01.44-2.94-.78-.2-1.72-.32-2.53-.34ZM57.64,48.56c.15.34.32.66.5.99h5.68c-.01-.14,0-.31-.08-.42-.69-.23-5.21-.52-6.09-.56ZM55.56,43.66c.12.32,1.18,2.89,1.33,2.97.01-.04.03-.07.04-.11.08-.87.19-1.72.28-2.58-.57-.17-1.12-.14-1.65-.29ZM91.22,19.18c-.33.39-.69.78-.96,1.22l.24.17c.24.11.48.21.72.3-.07-.55.08-1.27,0-1.69ZM62.21,13.39c-.13.47-.17.98-.24,1.46.2,0,.4,0,.6,0,.66-.14-.08-1.14-.36-1.46Z"/>
  <g>
    <path class="cls-2" d="M24.48,93.51c14.64-7.88,25.61-10.01,30.27-9.39,8.35,1.13,11.35,5.05,16.94,5.77q6.66.87,11.36,1.67c4.44.76,5.92,9.07-.19,8.14-11.73-1.78-18.91,1.31-18.91,1.31"/>
    <path class="cls-2" d="M30.73,116.08c7.74-5.91,10.28-5.49,15.91-5.49s21.81,1.08,27.44.7c5.63-.38,9.31-5.07,17.61-8.45,3.79-1.54,5.85-6.29,8.02-9.4,1.75-2.5,3.65-4.97,7.67-8.45,3.64-3.15,1.03-7.13-3.47-4.88s-5.56,2.88-9.21,6.63c-4.59,4.7-8.61,7-8.61,7"/>
    <path class="cls-2" d="M82.23,91.26c5.17-5.99,7.33-4.04,10.51-7.84,3.63-4.34,7.27-4.51,11.42-7.78s10.97.39,3.72,4.17"/>
    <path class="cls-2" d="M75.17,90.35c6.02-6.26,8.32-3.76,11.44-7.07,2.53-2.69,5.59-3.09,8-5.89,3.32-3.87,8.19-3.08,8.12-1.08"/>
    <path class="cls-2" d="M69.91,89.54c4.64-4.83,9.7-5.66,12.88-8.87,3.59-3.62,8.54-3.38,8.97-.76"/>
  </g>
</svg>