<?xml version="1.0" encoding="UTF-8"?>
<svg id="pictos" xmlns="http://www.w3.org/2000/svg" viewBox="0 0 128 128">
  <defs>
    <style>
      .cls-1 {
        stroke-linecap: round;
        stroke-width: 2.18px;
      }

      .cls-1, .cls-2, .cls-3 {
        stroke: #000;
        stroke-miterlimit: 10;
      }

      .cls-1, .cls-3 {
        fill: none;
      }

      .cls-2 {
        stroke-width: .5px;
      }

      .cls-3 {
        stroke-width: 2px;
      }
    </style>
  </defs>
  <g>
    <g>
      <path class="cls-1" d="M40.72,33.36c12.66-27.61,54.58-16.48,53.61,11.87"/>
      <polygon points="91.2 44 93.82 49.75 97.49 44.6 91.2 44"/>
    </g>
    <g>
      <path class="cls-1" d="M93.52,60.96c-12.66,27.61-54.58,16.48-53.61-11.87"/>
      <polygon points="43.04 50.32 40.42 44.57 36.76 49.72 43.04 50.32"/>
    </g>
  </g>
  <g>
    <path class="cls-3" d="M24.62,93.51c14.64-7.88,25.61-10.01,30.27-9.39,8.35,1.13,11.35,5.05,16.94,5.77q6.66.87,11.36,1.67c4.44.76,5.92,9.07-.19,8.14-11.73-1.78-18.91,1.31-18.91,1.31"/>
    <path class="cls-3" d="M30.86,116.08c7.74-5.91,10.28-5.49,15.91-5.49s21.81,1.08,27.44.7c5.63-.38,9.31-5.07,17.61-8.45,3.79-1.54,5.85-6.29,8.02-9.4,1.75-2.5,3.65-4.97,7.67-8.45,3.64-3.15,1.03-7.13-3.47-4.88s-5.56,2.88-9.21,6.63c-4.59,4.7-8.61,7-8.61,7"/>
    <path class="cls-3" d="M82.37,91.26c5.17-5.99,7.33-4.04,10.51-7.84,3.63-4.34,7.27-4.51,11.42-7.78s10.97.39,3.72,4.17"/>
    <path class="cls-3" d="M75.31,90.35c6.02-6.26,8.32-3.76,11.44-7.07,2.53-2.69,5.59-3.09,8-5.89,3.32-3.87,8.19-3.08,8.12-1.08"/>
    <path class="cls-3" d="M70.05,89.54c4.64-4.83,9.7-5.66,12.88-8.87,3.59-3.62,8.54-3.38,8.97-.76"/>
  </g>
  <g>
    <path class="cls-2" d="M74.04,32.02c2.88-.21,5.55,2.37,5.47,5.22,1.06.39,1.55,1.53.7,2.38-.36.36-.76.38-1.24.37v1.18c0,.82.13,1.6-.75,2.02.27.26,1.04,1.21,1.26,1.52.94,1.29,1.07,2.91,1.35,4.44l2.04,11.34c.13.76.33,1.56.21,2.33-.24,1.48-1.45,2.75-2.97,2.87-.6.05-1.23.01-1.84.01h-24.09c-.45,0-.92.03-1.36-.04-1.69-.28-2.87-1.86-2.88-3.53,0-.51.11-1.03.2-1.54l1.84-9.86c.18-.97.38-1.94.55-2.91.11-.52.17-1.06.31-1.57.28-.96,1.27-2.42,2.08-3.06-.9-.4-.8-1.07-.8-1.91v-1.3c-1.76.21-2.17-2.05-.77-2.65.49-.21.35,0,.36-.6.1-4.19,5.48-6.29,8.47-3.3,1.08,1.08,1.52,2.27,1.51,3.79,1.56.41,1.55,2.81-.43,2.76-.07.98.36,2.9-.8,3.2,1.75,2.1,1.88,1.96,2.39,4.66l1.53,8.24c.03.16.09.76.18.84.06-.13.12-.74.16-.93l1.39-7.65c.36-2,.44-2.89,1.89-4.54.19-.22.35-.46.6-.61-.88-.45-.77-1.01-.77-1.86v-1.34c-1.91.17-2.17-2.34-.47-2.76.01-2.8,1.84-4.97,4.68-5.22ZM74.91,43.25h-2.42c-.4,0-.82.03-1.22,0-.97,1.18-1.92,1.94-2.25,3.49-.24,1.09-.41,2.21-.61,3.31l-1.15,6.52c-.23,1.36-.49,1.64-.23,2.98l.25,1.33c.19,1.04.28,1.97-.28,2.95,1.02,1.48,2.1,1.31,3.67,1.31h3.38s3.93,0,3.93,0c.64,0,1.8.06,2.38-.07,1.28-.3,2.18-1.51,2.17-2.82,0-.66-.2-1.41-.31-2.07l-2.3-12.74c-.33-1.8-.7-2.1-1.88-3.51-.18-.22-.34-.46-.53-.67-.28-.03-.57,0-.85,0h-1.74ZM58.32,54.56c-1.34.04-2.19.33-3.42.68-.42.12-.86.2-1.27.34-.1.44-.17.89-.26,1.33l-.78,4.4c-.05.28-.12.59-.12.88-.02,1.43,1.91,1.12,2.8,1.12h3.82s3.21,0,3.21,0c.48,0,1.27.05,1.72-.04.9-.19.91-.99.79-1.68l-1.05-6c-1.89-.13-3.06-1.12-5.44-1.01ZM55.68,43.25c-.23.14-.41.39-.59.58-1.41,1.53-1.61,2.02-1.94,3.94-.15.86-.32,1.97-.55,2.81,2.34-.39,3.73-.58,6.19,0,.87.21,1.74.52,2.63.65.9.05,1.73.06,2.61-.17.26-.07.5-.19.75-.25-.05-.54-.19-1.08-.28-1.61-.59-3.42-.49-3.41-2.76-5.95h-3.92c-.71,0-1.43-.03-2.14,0ZM55.1,50.82c-.88.07-1.72.18-2.57.42-.15.42-.19.9-.27,1.34l-.31,1.59c-.05.26-.11.51-.14.77,1.88.19,2.61-.24,4.24-.66,2.43-.63,3.84-.28,6.1.28,1.06.44,2.27.57,3.41.38-.15-1.2-.48-2.36-.64-3.55-1.44.57-2.98.63-4.48.26-2-.49-3.12-.93-5.33-.83ZM51.69,55.5c-.11.48-.18.97-.27,1.46l-.72,3.83c-.08.45-.2.93-.18,1.38.04,1.41.98,2.6,2.37,2.92.42.1,1.17.04,1.63.04h7.31c1.24,0,2.57.19,3.67-.51,1.49-.96,1.46-2.34,1.17-3.82l-.63-3.39c-.05-.26-.09-.53-.15-.78-.07-.38-.16-.75-.22-1.12-.45.07-.87.11-1.33.11.14.92.32,1.84.49,2.76l.55,3.08c.05.26.12.55.11.81-.03.75-.68,1.49-1.42,1.59-.58.08-1.32.04-1.92.04h-7.02c-1.26,0-3,.27-3.22-1.51-.07-.53.15-1.36.25-1.9l.75-4.33c.03-.19.08-.39.1-.58-.44,0-.87-.03-1.31-.07ZM74.04,32.61c-2.41.23-4.15,2.22-4.08,4.63h7.6c.45,0,.9-.03,1.34,0-.05-2.48-2.31-4.96-4.86-4.63ZM58.32,32.64c-2.48.37-4.06,2.06-4,4.6h8.79c0-2.65-2.09-4.86-4.79-4.6ZM70.6,40c-.06,0-.12,0-.17.04-.04.35-.09,2.19.11,2.45.23.29,1.27.18,1.6.18h4.38c.39,0,1.23.1,1.58-.08.41-.28.28-2.06.26-2.58-.44.01-.89,0-1.33,0h-5.14c-.43,0-.87.01-1.3,0ZM54.86,40c-.29.03-.14.86-.14,1.17,0,.67-.24,1.44.69,1.49.44.03.89,0,1.33,0h4.39c.43,0,.94.08,1.34-.08.39-.36.22-2.04.22-2.58-.33.01-.66,0-1,0h-6.83ZM69.67,37.81c-1.1.1-1.15,1.51-.13,1.6.37.03.76.01,1.13.01h8.52c1.06-.01,1.1-1.46.12-1.58-.41-.05-.84-.03-1.25-.03h-8.39ZM54.12,37.81c-1.34.08-1.27,1.5-.37,1.6.32.04.67,0,.99,0h8.45c1,.01,1.39-.82.79-1.4-.34-.33-1.05-.21-1.48-.21h-8.38ZM66.61,64.4c-.25.29-.5.52-.82.74.25,0,.49.01.74,0,.28,0,.56-.02.85,0-.16-.13-.66-.69-.76-.74Z"/>
    <path class="cls-2" d="M57.49,34.97c.34.03.51.35.2.58-.41.04-.57-.38-.2-.58Z"/>
    <path class="cls-2" d="M57.49,33.8c.38-.04.48.33.2.53-.11.02-.2.02-.32,0-.1-.24-.14-.4.12-.53Z"/>
    <path class="cls-2" d="M58.64,33.8c.39.02.42.45.05.53-.4.05-.42-.45-.05-.53Z"/>
    <path class="cls-2" d="M58.64,34.97c.39,0,.45.42.05.58-.42-.02-.37-.4-.05-.58Z"/>
    <path class="cls-2" d="M59.76,34.97c.37.02.48.43.13.58-.42.05-.47-.42-.13-.58Z"/>
    <path class="cls-2" d="M59.76,33.8c.39-.06.44.39.13.53-.44.02-.53-.41-.13-.53Z"/>
    <path class="cls-2" d="M75.48,33.8c.36,0,.52.4.13.53-.4.02-.47-.34-.13-.53Z"/>
    <path class="cls-2" d="M74.28,33.8c.4-.02.62.3.26.53-.39.11-.55-.29-.26-.53Z"/>
    <path class="cls-2" d="M73.25,33.8c.38-.06.53.37.19.53-.4.1-.55-.32-.19-.53Z"/>
    <path class="cls-2" d="M75.56,34.97c.37.06.33.49,0,.58-.46-.09-.41-.5,0-.58Z"/>
    <path class="cls-2" d="M73.25,34.97c.39-.04.52.4.19.58-.41,0-.6-.43-.19-.58Z"/>
    <path class="cls-2" d="M74.35,34.94c.35.03.53.38.2.61-.45.03-.54-.39-.2-.61Z"/>
    <path class="cls-2" d="M54.32,60.42c.5-.04.61.48.19.69-.43.01-.56-.47-.19-.69Z"/>
    <path class="cls-2" d="M54.63,57.77c.39,0,.58.43.23.67-.54.07-.65-.44-.23-.67Z"/>
    <path class="cls-2" d="M57.62,56.18c.44-.1.54.46.19.67-.48.1-.6-.47-.19-.67Z"/>
    <path class="cls-2" d="M55.78,59.05c.43,0,.4.6,0,.68-.52-.08-.48-.61,0-.68Z"/>
    <path class="cls-2" d="M55.49,61.82c.47-.01.54.46.18.68-.5.07-.62-.5-.18-.68Z"/>
    <path class="cls-2" d="M59.51,59.05c.48-.08.6.36.26.68-.47.07-.67-.42-.26-.68Z"/>
    <path class="cls-2" d="M61.58,59.05c.42-.02.44.5,0,.68-.5-.07-.49-.6,0-.68Z"/>
    <path class="cls-2" d="M58.64,57.61c.5.05.4.56,0,.7-.51-.1-.46-.6,0-.7Z"/>
    <path class="cls-2" d="M58.59,60.42c.45,0,.5.61.06.69-.5,0-.48-.53-.06-.69Z"/>
    <path class="cls-2" d="M60.42,60.42c.44-.03.67.48.24.69-.49.12-.6-.45-.24-.69Z"/>
    <path class="cls-2" d="M57.62,59.05c.2-.04.3.06.4.22.01.25-.02.36-.27.46-.48.02-.56-.56-.13-.68Z"/>
    <path class="cls-2" d="M55.68,56.18c.52-.06.63.4.25.67-.45.1-.64-.46-.25-.67Z"/>
    <path class="cls-2" d="M60.49,57.61c.47-.02.52.6.09.7-.5,0-.51-.55-.09-.7Z"/>
    <path class="cls-2" d="M56.68,60.42c.37-.06.53.47.12.69-.52.06-.6-.47-.12-.69Z"/>
    <path class="cls-2" d="M59.51,56.18c.48-.04.59.5.17.67-.49.1-.57-.48-.17-.67Z"/>
    <path class="cls-2" d="M61.74,61.74c.49-.02.56.47.16.66-.52.11-.58-.44-.16-.66Z"/>
    <path class="cls-2" d="M62.97,60.42c.46.11.52.58.05.69-.49.08-.48-.52-.05-.69Z"/>
    <path class="cls-2" d="M61.41,56.18c.49-.03.55.45.17.67h-.24c-.29-.25-.28-.52.08-.67Z"/>
    <path class="cls-2" d="M56.68,57.61c.5,0,.51.5.12.7-.46.06-.59-.54-.12-.7Z"/>
    <path class="cls-2" d="M62.47,57.61c.3-.03.41.1.51.37-.07.15-.15.24-.29.33-.47.06-.65-.52-.22-.7Z"/>
    <path class="cls-2" d="M69.83,51h1.98c.47,0,.98-.04,1.44.06,1.24.25,2.21,1.4,2.3,2.65.06.93-.04,1.51.66,2.27.66.71,1.27.76,2.18.76h1.24c.89,0,.67.38.82,1.27l.34,2.13c.09.56.21,1.12.28,1.68.17,1.34-.69,2.15-2,2.07h-8.7c-.64,0-1.29.09-1.86-.28-1.17-.78-.59-2.48-.39-3.63l1.12-7.1c.08-.46.08-1.82.57-1.87ZM70.33,51.59c-.09,0-.18,0-.27,0-.15.75-.24,1.52-.36,2.27l-1.1,6.84c-.11.68-.43,1.52,0,2.15.38.56,1.05.45,1.63.45h8.4c.55,0,1.14.09,1.57-.33.62-.61.22-1.71.09-2.44l-.26-1.62c-.09-.53-.19-1.06-.26-1.59h-1.32c-1.03,0-1.82-.07-2.58-.85-1.07-1.09-.73-1.61-.9-2.85-.12-.83-.73-1.62-1.53-1.9-.71-.25-2.33-.13-3.1-.13Z"/>
  </g>
</svg>