<?xml version="1.0" encoding="UTF-8"?>
<svg id="pictos" xmlns="http://www.w3.org/2000/svg" viewBox="0 0 128 128">
  <defs>
    <style>
      .cls-1 {
        stroke-linecap: round;
        stroke-width: 2.18px;
      }

      .cls-1, .cls-2 {
        fill: none;
        stroke: #000;
      }

      .cls-1, .cls-2, .cls-3 {
        stroke-miterlimit: 10;
      }

      .cls-2, .cls-3 {
        stroke-width: 2px;
      }

      .cls-3 {
        fill: #fff;
        stroke: #1d1d1b;
      }
    </style>
  </defs>
  <g>
    <path class="cls-3" d="M75.37,32.45h-20.57v22.89h20.57c3.29,0,5.96-5.12,5.96-11.45s-2.67-11.45-5.96-11.45Z"/>
    <ellipse class="cls-3" cx="54.59" cy="43.89" rx="5.96" ry="11.45"/>
    <ellipse cx="54.59" cy="43.89" rx="2.22" ry="4.27"/>
    <polyline class="cls-3" points="81.33 43.62 81.33 67.05 60.55 67.05 60.55 43.62"/>
  </g>
  <g>
    <g>
      <path class="cls-1" d="M40.16,33.36c12.66-27.61,54.58-16.48,53.61,11.87"/>
      <polygon points="90.64 44 93.27 49.75 96.93 44.6 90.64 44"/>
    </g>
    <g>
      <path class="cls-1" d="M92.97,60.96c-12.66,27.61-54.58,16.48-53.61-11.87"/>
      <polygon points="42.49 50.32 39.86 44.57 36.2 49.72 42.49 50.32"/>
    </g>
  </g>
  <g>
    <path class="cls-2" d="M25.25,93.57c14.64-7.88,25.61-10.01,30.27-9.39,8.35,1.13,11.35,5.05,16.94,5.77q6.66.87,11.36,1.67c4.44.76,5.92,9.07-.19,8.14-11.73-1.78-18.91,1.31-18.91,1.31"/>
    <path class="cls-2" d="M31.49,116.15c7.74-5.91,10.28-5.49,15.91-5.49s21.81,1.08,27.44.7,9.31-5.07,17.61-8.45c3.79-1.54,5.85-6.29,8.02-9.4,1.75-2.5,3.65-4.97,7.67-8.45,3.64-3.15,1.03-7.13-3.47-4.88s-5.56,2.88-9.21,6.63c-4.59,4.7-8.61,7-8.61,7"/>
    <path class="cls-2" d="M82.99,91.33c5.17-5.99,7.33-4.04,10.51-7.84,3.63-4.34,7.27-4.51,11.42-7.78s10.97.39,3.72,4.17"/>
    <path class="cls-2" d="M75.94,90.42c6.02-6.26,8.32-3.76,11.44-7.07,2.53-2.69,5.59-3.09,8-5.89,3.32-3.87,8.19-3.08,8.12-1.08"/>
    <path class="cls-2" d="M70.67,89.6c4.64-4.83,9.7-5.66,12.88-8.87,3.59-3.62,8.54-3.38,8.97-.76"/>
  </g>
</svg>