<?xml version="1.0" encoding="UTF-8"?>
<svg id="pictos" xmlns="http://www.w3.org/2000/svg" viewBox="0 0 128 128">
  <defs>
    <style>
      .cls-1 {
        stroke-linecap: round;
      }

      .cls-1, .cls-2, .cls-3, .cls-4 {
        stroke-miterlimit: 10;
      }

      .cls-1, .cls-2, .cls-3, .cls-4, .cls-5 {
        stroke: #000;
      }

      .cls-1, .cls-3, .cls-4, .cls-5 {
        fill: #fff;
      }

      .cls-1, .cls-5 {
        stroke-width: 2px;
      }

      .cls-2 {
        fill: none;
        stroke-width: 1.97px;
      }

      .cls-3 {
        stroke-width: 1.39px;
      }

      .cls-4 {
        stroke-width: 1.4px;
      }

      .cls-5 {
        stroke-linejoin: round;
      }
    </style>
  </defs>
  <g>
    <path class="cls-3" d="M75.84,96.36h-11.91c-2.1,0-3.84-1.22-3.97-2.78l-.86-10.8h21.56l-.86,10.8c-.12,1.56-1.86,2.78-3.97,2.78Z"/>
    <path class="cls-3" d="M59.12,79.84h21.53c1.22,0,2.21.99,2.21,2.21v.72h-25.96v-.72c0-1.22.99-2.21,2.21-2.21Z"/>
    <rect class="cls-3" x="65.78" y="84.92" width="8.2" height="2.48" rx="1.04" ry="1.04"/>
  </g>
  <path d="M90.47,19.7c.92.13,1.01.24.93,1.11-.01.16-.03.33-.06.49-.04.25.04.38.27.53,1.1.73,1.87,1.76,2.39,2.95,1.33,3.08,1.57,6.23.33,9.41-.42,1.08-.65,1.2-1.79,1.2-2.37.01-4.73.03-7.1.09-.79.02-1.29-.29-1.63-.97-.51-1.03-.69-2.15-.8-3.28-.29-3,.18-5.86,1.64-8.52.2-.36.6-.65.71-1.03.11-.37-.07-.81-.06-1.22,0-.36.05-.74.56-.78.06,0,.14-.24.14-.37,0-.63,0-1.27-.02-1.9-.01-.41.18-.63.58-.63,1.11-.01,2.23-.03,3.34-.01.37,0,.61.24.6.64-.01.56-.03,1.11-.05,1.67,0,.21,0,.41,0,.61ZM93.61,28.97c-.42-.02-.78-.02-1.14-.07-1.45-.19-2.73-.71-3.48-2.05-.44-.78-.76-1.63-1.13-2.45-.15-.34-.26-.67-.72-.71-.43-.05-.75.14-.96.47-.35.56-.7,1.13-.99,1.72-.64,1.28-.77,2.69-.83,4.09-.04,1.03.04,2.04.41,3.03.13.34.3.46.66.45.47-.02.93.02,1.4.02,1.79.01,3.59.03,5.38.03.73,0,.85-.09,1.08-.78.4-1.2.37-2.43.31-3.73ZM89.63,24.21c.11.41.15.72.26.99.47,1.15,1.23,2,2.52,2.22.42.07.6-.07.52-.44-.28-1.36-.93-2.51-2.09-3.31-.2-.14-.58-.2-.77-.1-.22.11-.32.45-.44.64ZM87.37,19.72c.62,0,1.19.01,1.75-.01.08,0,.23-.15.23-.24.02-.49.01-.98.01-1.51h-2v1.76Z"/>
  <g>
    <path class="cls-2" d="M46.67,116V15.5c0-1.3,1.05-2.35,2.34-2.35h63.53c1.29,0,2.34,1.05,2.34,2.35v100.5"/>
    <line class="cls-2" x1="46.67" y1="36.69" x2="114.87" y2="36.69"/>
    <line class="cls-2" x1="46.67" y1="57.26" x2="114.87" y2="57.26"/>
    <line class="cls-2" x1="46.67" y1="77.83" x2="114.87" y2="77.83"/>
    <line class="cls-2" x1="46.67" y1="98.4" x2="114.87" y2="98.4"/>
  </g>
  <g>
    <path class="cls-3" d="M98.83,91.96c-1.32,0-2.49-.48-3.27-1.21-.19.43-.39.8-.56.98-.66.66-2.47.38-3.6.47-1.13.09-3,1.5-3,3.38v.78h6.92l1.92-.78v.78h4.29v-5.16c-.74.47-1.67.77-2.7.77Z"/>
    <path class="cls-3" d="M105.4,91.96c-1.32,0-2.49-.48-3.27-1.21-.19.43-.39.8-.56.98-.66.66-2.47.38-3.6.47-1.13.09-3,1.5-3,3.38v.78h6.92l1.92-.78v.78h4.29v-5.16c-.74.47-1.67.77-2.7.77Z"/>
  </g>
  <g>
    <path class="cls-3" d="M96.55,66.08s.09,3.19-.56,3.85-3.47.38-4.6.47c-1.13.09-3,1.5-3,3.38v1.78h6.92l1.92-1.78v1.78h4.29v-9.48h-4.97Z"/>
    <path class="cls-3" d="M104.39,66.08s.09,3.19-.56,3.85-3.47.38-4.6.47c-1.13.09-3,1.5-3,3.38v1.78h6.92l1.92-1.78v1.78h4.29v-9.48h-4.97Z"/>
  </g>
  <g>
    <ellipse class="cls-5" cx="29.1" cy="28.52" rx="6.77" ry="6.79"/>
    <path class="cls-5" d="M34.28,52.34l10.1,4.18,9.29-1.72c1.58-.29,3.05.87,3.14,2.47h0c.07,1.25-.73,2.38-1.93,2.72l-11.71,3.35-8.93-2.88"/>
    <path class="cls-1" d="M13.34,115.82l4.14-20.78,2.09-22.77-.23-25.05c-.13-2.13,1.02-4.14,2.93-5.1h0c.99-.49,2.1-.67,3.19-.5l5.9.91,14.39,2.85c1.47.29,2.99.14,4.37-.43l11.87-4.92c1.7-.7,3.64.22,4.16,1.98h0c.44,1.46-.25,3.03-1.62,3.7l-15.69,7.61h-14.57l6.09,61.92-6.02.18-5.82-36.52-3.99,19.32-5.23,17.61h-5.96Z"/>
  </g>
  <rect class="cls-4" x="90.97" y="49.76" width="17.98" height="5.1" rx="2.55" ry="2.55"/>
  <rect class="cls-4" x="90.97" y="44.66" width="17.98" height="5.1" rx="2.55" ry="2.55"/>
  <rect class="cls-4" x="90.97" y="39.56" width="17.98" height="5.1" rx="2.55" ry="2.55"/>
  <path d="M61.34,23.68h3.36c0,.06.02.17.02.27,0,.71,0,1.42.03,2.13,0,.12.08.28.18.36.62.53,1.06,1.14,1.06,1.99,0,2.15-.01,4.3-.01,6.45,0,.29-.08.38-.39.38-1.74,0-3.49.02-5.23.04-.06,0-.12,0-.2,0-.01-.08-.03-.16-.03-.23,0-2.18.02-4.36.02-6.54,0-.87.31-1.57,1.04-2.07.09-.06.16-.22.16-.34.01-.8,0-1.6,0-2.43ZM64.88,31.26h.02c0-.95.01-1.89,0-2.84-.01-.66-.55-1.21-1.21-1.25-.36-.02-.73,0-1.09-.03-.53-.05-.91.17-1.15.61-.13.23-.2.51-.24.77-.04.26,0,.53,0,.8,0,1.58,0,3.16,0,4.74,0,.27.06.38.36.37.99-.02,1.97-.01,2.96,0,.26,0,.35-.07.34-.33-.01-.95,0-1.89,0-2.84ZM62.42,26.08c.38,0,.74.01,1.1,0,.07,0,.18-.13.18-.2.01-.32,0-.65-.02-.97,0-.06-.08-.16-.12-.16-.39,0-.77.02-1.15.04v1.3Z"/>
  <path d="M54.16,23.68h3.36c0,.06.02.17.02.27,0,.71,0,1.42.03,2.13,0,.12.08.28.18.36.62.53,1.06,1.14,1.06,1.99,0,2.15-.01,4.3-.01,6.45,0,.29-.08.38-.39.38-1.74,0-3.49.02-5.23.04-.06,0-.12,0-.2,0-.01-.08-.03-.16-.03-.23,0-2.18.02-4.36.02-6.54,0-.87.31-1.57,1.04-2.07.09-.06.16-.22.16-.34.01-.8,0-1.6,0-2.43ZM57.7,31.26h.02c0-.95.01-1.89,0-2.84-.01-.66-.55-1.21-1.21-1.25-.36-.02-.73,0-1.09-.03-.53-.05-.91.17-1.15.61-.13.23-.2.51-.24.77-.04.26,0,.53,0,.8,0,1.58,0,3.16,0,4.74,0,.27.06.38.36.37.99-.02,1.97-.01,2.96,0,.26,0,.35-.07.34-.33-.01-.95,0-1.89,0-2.84ZM55.24,26.08c.38,0,.74.01,1.1,0,.07,0,.18-.13.18-.2.01-.32,0-.65-.02-.97,0-.06-.08-.16-.12-.16-.39,0-.77.02-1.15.04v1.3Z"/>
  <g>
    <path d="M72.84,28.62c0-1.45,0-2.9,0-4.35,0-1.08.43-1.97,1.14-2.74.12-.13.36-.22.54-.23,1.27,0,2.54.02,3.82.01.42,0,.73.13,1.02.43,1.3,1.33,1.98,2.89,1.97,4.76-.02,2.24,0,4.48-.02,6.72,0,1.07-1,2.06-2.07,2.07-1.47,0-2.94,0-4.41,0-1,0-1.99-.99-1.99-2,0-1.56,0-3.12,0-4.68,0,0,0,0,0,0ZM79.68,29.7c-.01-1.56-1.23-2.73-2.82-2.72-1.51.01-2.78,1.33-2.74,2.87.03,1.21,1.07,2.8,2.85,2.82,1.48.02,2.72-1.37,2.71-2.97ZM80.04,27.2c-.11-1.36-.54-2.58-1.33-3.67-.1-.14-.23-.27-.37-.38-.18-.15-.38-.12-.45.11-.08.23-.14.48-.12.71.12,1.37.78,2.48,1.74,3.43.09.09.26.15.39.14.06,0,.1-.22.15-.34Z"/>
    <path d="M78.43,17.94v2.37c-.08.04-.09.05-.11.05-.63-.03-.63-.03-.65-.68,0-.26-.03-.51-.06-.77-.02-.2-.17-.25-.34-.25-.22,0-.18.17-.18.3,0,.38,0,.77,0,1.15,0,.23-.07.33-.3.32-.22-.02-.49.04-.49-.31,0-.37,0-.75,0-1.12,0-.17,0-.31-.25-.3-.21.01-.37.02-.36.3,0,.35-.01.71-.01,1.06,0,.19-.04.29-.26.28-.63-.03-.57.14-.61-.57-.03-.54-.04-1.08-.06-1.62,0-.16.03-.24.21-.24,1.11,0,2.23,0,3.34,0,.05,0,.11.03.12.03Z"/>
    <path d="M78.66,29.78c0,.98-.78,1.82-1.69,1.82-.95,0-1.75-.83-1.75-1.83,0-.94.79-1.75,1.72-1.75.96,0,1.72.77,1.73,1.76Z"/>
  </g>
</svg>