<?xml version="1.0" encoding="UTF-8"?>
<svg id="pictos" xmlns="http://www.w3.org/2000/svg" viewBox="0 0 128 128">
  <defs>
    <style>
      .cls-1 {
        stroke-linecap: round;
      }

      .cls-1, .cls-2, .cls-3, .cls-4 {
        stroke-miterlimit: 10;
      }

      .cls-1, .cls-2, .cls-3, .cls-4, .cls-5 {
        stroke: #000;
      }

      .cls-1, .cls-3, .cls-5 {
        stroke-width: 2px;
      }

      .cls-1, .cls-5 {
        fill: #fff;
      }

      .cls-2, .cls-3 {
        fill: none;
      }

      .cls-5 {
        stroke-linejoin: round;
      }
    </style>
  </defs>
  <g>
    <ellipse class="cls-5" cx="36.23" cy="29.56" rx="6.77" ry="6.79"/>
    <path class="cls-5" d="M41.41,53.38l10.1,4.18,9.29-1.72c1.58-.29,3.05.87,3.14,2.47h0c.07,1.25-.73,2.38-1.93,2.72l-11.71,3.35-8.93-2.88"/>
    <path class="cls-1" d="M20.47,116.85l4.14-20.78,2.09-22.77-.23-25.05c-.13-2.13,1.02-4.14,2.93-5.1h0c.99-.49,2.1-.67,3.19-.5l5.9.91,14.39,2.85c1.47.29,2.99.14,4.37-.43l11.87-4.92c1.7-.7,3.64.22,4.16,1.98h0c.44,1.46-.25,3.03-1.62,3.7l-15.69,7.61h-14.57l6.09,61.92-6.02.18-5.82-36.52-3.99,19.32-5.23,17.61h-5.96Z"/>
  </g>
  <polyline class="cls-3" points="98.67 116 98.67 12 64 12"/>
  <g>
    <polygon class="cls-2" points="86.02 35.19 76.65 35.19 74.65 21.75 88.02 21.75 86.02 35.19"/>
    <path class="cls-4" d="M89.82,21.75h-16.97c-.71,0-1.21-.69-1-1.37l.32-1c.14-.43.54-.72,1-.72h16.33c.45,0,.86.29,1,.72l.32,1c.22.68-.29,1.37-1,1.37Z"/>
    <path class="cls-4" d="M86.77,38.14h-11.16c-.27,0-.52-.18-.61-.44l-.57-1.67c-.14-.42.17-.85.61-.85h12.29c.44,0,.75.43.61.85l-.57,1.67c-.09.26-.33.44-.61.44Z"/>
    <path class="cls-2" d="M82.05,22.64v-.63h-1.47v.63c0,.87-.2,1.73-.62,2.49-.36.65-.58,1.55-.58,2.55,0,1.97.87,3.57,1.94,3.57s1.94-1.6,1.94-3.57c0-1-.22-1.9-.58-2.54-.42-.76-.62-1.62-.62-2.49Z"/>
    <polyline class="cls-2" points="75.59 18.65 81.33 12.91 87.07 18.65"/>
  </g>
</svg>