<?xml version="1.0" encoding="UTF-8"?>
<svg id="pictos" xmlns="http://www.w3.org/2000/svg" viewBox="0 0 128 128">
  <defs>
    <style>
      .cls-1, .cls-2 {
        stroke-linecap: round;
      }

      .cls-1, .cls-2, .cls-3 {
        stroke-miterlimit: 10;
      }

      .cls-1, .cls-2, .cls-3, .cls-4 {
        stroke: #000;
        stroke-width: 2px;
      }

      .cls-1, .cls-3 {
        fill: none;
      }

      .cls-2, .cls-4 {
        fill: #fff;
      }

      .cls-4 {
        stroke-linejoin: round;
      }
    </style>
  </defs>
  <path d="M67.41,20.8v-4.71h-2.7v4.71c0,.94-.81,1.87-1.25,2.71l-1.19,2.26c-.51.96-.74,2.05-.65,3.14l.71,9.61h7.47l.71-9.61c.08-1.09-.15-2.17-.65-3.14l-1.19-2.26c-.44-.83-1.25-1.76-1.25-2.71Z"/>
  <g>
    <polygon class="cls-3" points="108.87 113.81 82.86 113.81 79.61 69.58 112.12 69.58 108.87 113.81"/>
    <g>
      <line class="cls-1" x1="85.03" y1="75.64" x2="87.2" y2="109.39"/>
      <line class="cls-1" x1="90.45" y1="75.64" x2="91.53" y2="109.39"/>
      <line class="cls-1" x1="95.87" y1="75.64" x2="95.87" y2="109.39"/>
      <line class="cls-1" x1="106.7" y1="75.64" x2="104.54" y2="109.39"/>
      <line class="cls-1" x1="101.28" y1="75.64" x2="100.2" y2="109.39"/>
    </g>
    <rect class="cls-1" x="78.56" y="65.67" width="34.62" height="3.91" rx="1.37" ry="1.37"/>
  </g>
  <g>
    <path d="M96.92,17.27c.26-.46.73-.87,1.26-1.16-.1-.01-.21-.02-.3-.02h-5.18c-.99,0-2.21.7-2.71,1.57l-2.7,4.68,5.03,2.91,4.6-7.97Z"/>
    <path d="M97.59,17.66l-1.86,3.21,2.18,3.78-1.37.79,5.32.24,2.46-4.73-1.37.79-2.36-4.08h0c-.26-.45-.72-.86-1.25-1.15-.67.12-1.44.61-1.75,1.15Z"/>
    <path d="M84.48,33.15c-.53,0-1.12-.2-1.63-.52.04.1.08.19.13.27l2.59,4.49c.5.86,1.72,1.57,2.71,1.57h5.41s0-5.81,0-5.81h-9.21Z"/>
    <path d="M88.19,32.38l2.18-3.77,1.37.79-2.46-4.72-5.32.24,1.37.79-2.36,4.08h0c-.26.45-.39,1.06-.37,1.65.44.52,1.25.94,1.87.94h3.71Z"/>
    <path d="M107.93,30.38l-2.7-4.68-5.03,2.91,4.6,7.98c.26.46.39,1.07.37,1.67.06-.08.12-.17.17-.25l2.59-4.49c.5-.86.5-2.27,0-3.13Z"/>
    <path d="M102.27,33.75h-4.36s0-1.58,0-1.58l-2.86,4.49,2.86,4.49v-1.58h4.71s0,0,0,0c.52,0,1.11-.2,1.62-.51.23-.64.19-1.56-.12-2.09l-1.86-3.21Z"/>
  </g>
  <g>
    <ellipse class="cls-4" cx="30.5" cy="24.2" rx="6.98" ry="6.99"/>
    <path class="cls-4" d="M35.83,48.74l10.4,4.31,9.57-1.78c1.62-.3,3.14.89,3.24,2.54h0c.08,1.29-.75,2.45-1.99,2.81l-12.07,3.45-9.2-2.97"/>
    <path class="cls-2" d="M14.26,114.13l4.26-21.41,2.16-23.46-.24-25.8c-.14-2.2,1.05-4.27,3.02-5.25h0c1.02-.51,2.16-.69,3.28-.52l6.08.94,14.83,2.94c1.51.3,3.08.14,4.51-.45l12.22-5.06c1.75-.73,3.75.22,4.29,2.04h0c.45,1.51-.26,3.12-1.67,3.81l-16.16,7.83h-15.01l6.27,63.78-6.2.18-6-37.62-4.11,19.9-5.39,18.14h-6.14Z"/>
  </g>
</svg>