<?xml version="1.0" encoding="UTF-8"?>
<svg id="pictos" xmlns="http://www.w3.org/2000/svg" viewBox="0 0 128 128">
  <defs>
    <style>
      .cls-1 {
        stroke-linecap: round;
      }

      .cls-1, .cls-2, .cls-3, .cls-4, .cls-5 {
        stroke: #000;
        stroke-miterlimit: 10;
      }

      .cls-1, .cls-3, .cls-4, .cls-5 {
        fill: none;
      }

      .cls-1, .cls-5 {
        stroke-width: 2px;
      }

      .cls-2, .cls-6 {
        fill: #fff;
      }

      .cls-2, .cls-3 {
        stroke-width: 1.91px;
      }
    </style>
  </defs>
  <g>
    <path class="cls-5" d="M20.69,94.67c14.64-7.88,25.61-10.01,30.27-9.39,8.35,1.13,11.35,5.05,16.94,5.77q6.66.87,11.36,1.67c4.44.76,5.92,9.07-.19,8.14-11.73-1.78-18.91,1.31-18.91,1.31"/>
    <path class="cls-5" d="M26.93,117.24c7.74-5.91,10.28-5.49,15.91-5.49s21.81,1.08,27.44.7c5.63-.38,9.31-5.07,17.61-8.45,3.79-1.54,5.85-6.29,8.02-9.4,1.75-2.5,3.65-4.97,7.67-8.45,3.64-3.15,1.03-7.13-3.47-4.88s-5.56,2.88-9.21,6.63c-4.59,4.7-8.61,7-8.61,7"/>
    <path class="cls-5" d="M78.44,92.42c5.17-5.99,7.33-4.04,10.51-7.84,3.63-4.34,7.27-4.51,11.42-7.78s10.97.39,3.72,4.17"/>
    <path class="cls-5" d="M71.38,91.51c6.02-6.26,8.32-3.76,11.44-7.07,2.53-2.69,5.59-3.09,8-5.89,3.32-3.87,8.19-3.08,8.12-1.08"/>
    <path class="cls-5" d="M66.12,90.7c4.64-4.83,9.7-5.66,12.88-8.87,3.59-3.62,8.54-3.38,8.97-.76"/>
  </g>
  <g>
    <rect class="cls-6" x="27.66" y="30.6" width="46.7" height="32.75"/>
    <polyline class="cls-3" points="74.36 63.35 51.01 35.7 27.66 63.35"/>
    <polyline class="cls-2" points="74.36 30.6 51.01 51.54 27.66 30.6"/>
    <rect class="cls-3" x="27.66" y="30.6" width="46.7" height="32.75"/>
  </g>
  <g>
    <rect class="cls-6" x="20.55" y="37.41" width="46.7" height="32.75"/>
    <polyline class="cls-3" points="67.25 70.16 43.9 42.51 20.55 70.16"/>
    <polyline class="cls-2" points="67.25 37.41 43.9 58.34 20.55 37.41"/>
    <rect class="cls-3" x="20.55" y="37.41" width="46.7" height="32.75"/>
  </g>
  <g>
    <rect class="cls-6" x="13.43" y="44.21" width="46.7" height="32.75"/>
    <polyline class="cls-3" points="60.13 76.96 36.78 49.31 13.43 76.96"/>
    <polyline class="cls-2" points="60.13 44.21 36.78 65.15 13.43 44.21"/>
    <rect class="cls-3" x="13.43" y="44.21" width="46.7" height="32.75"/>
  </g>
  <g>
    <polyline class="cls-1" points="84.86 34.54 87.22 36.95 92.47 32.36"/>
    <line class="cls-1" x1="95.11" y1="35.76" x2="111" y2="35.76"/>
    <circle class="cls-4" cx="86.37" cy="35.76" r="4.06"/>
  </g>
  <g>
    <polyline class="cls-1" points="84.86 46.32 87.22 48.74 92.47 44.14"/>
    <line class="cls-1" x1="95.11" y1="47.54" x2="111" y2="47.54"/>
    <circle class="cls-4" cx="86.37" cy="47.54" r="4.06"/>
  </g>
  <g>
    <polyline class="cls-1" points="84.86 58.78 87.22 61.2 92.47 56.6"/>
    <line class="cls-1" x1="95.11" y1="60" x2="111" y2="60"/>
    <circle class="cls-4" cx="86.37" cy="60" r="4.06"/>
  </g>
</svg>