<?xml version="1.0" encoding="UTF-8"?>
<svg id="pictos" xmlns="http://www.w3.org/2000/svg" viewBox="0 0 128 128">
  <defs>
    <style>
      .cls-1, .cls-2, .cls-3, .cls-4 {
        stroke: #000;
        stroke-miterlimit: 10;
      }

      .cls-1, .cls-3 {
        stroke-linecap: round;
      }

      .cls-1, .cls-4 {
        fill: none;
        stroke-width: 2px;
      }

      .cls-2, .cls-3 {
        fill: #fff;
        stroke-width: 1.93px;
      }
    </style>
  </defs>
  <g>
    <circle class="cls-2" cx="31.76" cy="26.77" r="7.11"/>
    <path class="cls-3" d="M21.59,52.75c-.1,2.94,2.41,5.9,4.84,7.84l5.54,4.42c1.32,1.06,1.63,2.95.71,4.37h0c-.99,1.53-3.03,1.97-4.56.99l-7.75-4.97c-3.09-1.99-5.38-5.01-6.44-8.53h0c-1.33-4.39-.79-9.13,1.49-13.11h0c2.65-2.81,6.3-3.58,9.41-3.6h13.82c3.11.03,7,1.31,9.41,3.6l9.59,8.58,9.26,7.39c1.32,1.06,1.63,2.95.71,4.37h0c-.99,1.53-3.03,1.97-4.56.99l-12.54-8.05-7.51-5.48-.35,32.22.11,32.22h-8.41s-1.48-36.87-1.48-36.87c-.06-1.48-2.25-1.48-2.31,0l-1.48,36.87h-8.41l.11-32.22-.16-17.34"/>
  </g>
  <g>
    <polygon class="cls-4" points="107.27 116 81.27 116 78.01 71.77 110.52 71.77 107.27 116"/>
    <g>
      <line class="cls-1" x1="83.43" y1="77.83" x2="85.6" y2="111.58"/>
      <line class="cls-1" x1="88.85" y1="77.83" x2="89.93" y2="111.58"/>
      <line class="cls-1" x1="94.27" y1="77.83" x2="94.27" y2="111.58"/>
      <line class="cls-1" x1="105.11" y1="77.83" x2="102.94" y2="111.58"/>
      <line class="cls-1" x1="99.69" y1="77.83" x2="98.6" y2="111.58"/>
    </g>
    <rect class="cls-1" x="76.96" y="67.86" width="34.62" height="3.91" rx="1.37" ry="1.37"/>
  </g>
  <path d="M81.2,67.86s2.53-4.79,4.36-5.49,7.32-3.38,7.32-3.38l-3.91-3.83,11.65-.7-3.93,4.68s4.93.84,6.05,2.53,5.21,2.96,5.35,6.2"/>
  <g>
    <path d="M95.32,19.46c.26-.46.73-.87,1.26-1.16-.1-.01-.21-.02-.3-.02h-5.18c-.99,0-2.21.7-2.71,1.57l-2.7,4.68,5.03,2.91,4.6-7.97Z"/>
    <path d="M95.99,19.85l-1.86,3.21,2.18,3.78-1.37.79,5.32.24,2.46-4.73-1.37.79-2.36-4.08h0c-.26-.45-.72-.86-1.25-1.15-.67.12-1.44.61-1.75,1.15Z"/>
    <path d="M82.89,35.34c-.53,0-1.12-.2-1.63-.52.04.1.08.19.13.27l2.59,4.49c.5.86,1.72,1.57,2.71,1.57h5.41s0-5.81,0-5.81c0,0-9.21,0-9.21,0Z"/>
    <path d="M86.6,34.56l2.18-3.77,1.37.79-2.46-4.72-5.32.24,1.37.79-2.36,4.08h0c-.26.45-.39,1.06-.37,1.65.44.52,1.25.94,1.87.94h3.71Z"/>
    <path d="M106.33,32.57l-2.7-4.68-5.03,2.91,4.6,7.98c.26.46.39,1.07.37,1.67.06-.08.12-.17.17-.25l2.59-4.49c.5-.86.5-2.27,0-3.13Z"/>
    <path d="M100.67,35.94h-4.36s0-1.58,0-1.58l-2.86,4.49,2.86,4.49v-1.58h4.71s0,0,0,0c.52,0,1.11-.2,1.62-.51.23-.64.19-1.56-.12-2.09l-1.86-3.21Z"/>
  </g>
</svg>