<?xml version="1.0" encoding="UTF-8"?>
<svg id="pictos" xmlns="http://www.w3.org/2000/svg" viewBox="0 0 128 128">
  <defs>
    <style>
      .cls-1 {
        stroke-width: 1.42px;
      }

      .cls-1, .cls-2 {
        fill: none;
        stroke: #000;
        stroke-linecap: round;
        stroke-miterlimit: 10;
      }

      .cls-2 {
        stroke-width: 2.83px;
      }
    </style>
  </defs>
  <path d="M33.05,35.09c.68-.06,1.24.36,1.07,1.1-.22.98-2.23,1.16-2.57,3.24-.59,3.61,5.37,3.27,4.35,8.61-.33,1.73-1.46,2.8-2.86,3.74-.53.05-.99-.13-1.18-.66-.32-.86.76-1.25,1.26-1.71,2.12-1.93.89-4.19-1.13-5.48-3.59-2.29-2.76-7.41,1.05-8.84Z"/>
  <path d="M42.02,35.09c.36.06.59.36.71.69.32.84-1.45,1.42-1.95,1.84-1.49,1.24-1.15,3.59.35,4.68.53.38,1.14.65,1.65,1.07,2.83,2.38,1.62,7.2-1.72,8.41-2.94-.81,1.89-2.49,1.45-5.35-.26-1.71-1.69-2.09-2.89-2.97-3.25-2.4-1.42-7.87,2.41-8.36Z"/>
  <path d="M103.3,94.76c-.14-6.53-3.38-12.94-8.29-17.18.89.06,2.52-.04,3.22-.61,1.09-.9-.81-1.67-1.3-2.09-4.96-4.21-2.63-11.33.02-16.14,1.43-2.6,3.08-5,4.21-7.76,7.25-17.82-6.61-36.6-25.77-35.76-7.24,1.04-12,2.62-17.55,8.03-.88.86-2.11,1.86-2.41,3.11.32.95,2.45,4.08,3.22,4.9-4.07,5.09-2.42,8.19-2.56,13.48-.96,1.59-2.08,3.15-3.12,4.7-2.22,3.33-1.43,3.18,2.45,4.5-.17.73-1.05,3.14-1.05,3.38,0,.84,2.7,9.53,4.81,10.8,2.23,1.35,6.65.84,9.02-.37.42,1.58.89,3.14,1.3,4.72-.58,1.16-1.76,1.37-2.82,1.97-5.2,2.96-9,7.64-11.26,13.16-.35.85-.75,2.5-1.11,3.15-.42.77-1.22,1.35-1.75,2.05-2.01,2.65-3.24,5.57-3.82,8.84-.93-2.54-2.33-4.96-3.45-7.42-1.6-3.52-.95-3.34-.43-7.46,1.74-.31,2.99-1.21,3.38-2.96.25-1.14.95-7.12.76-8.02-.21-.99-.8-1.77-1.66-2.29l.66-7.46c.42,0,.93.03,1.25-.29.45-.45.62-4.2.53-4.89-.2-1.61-2.35-1.18-3.71-1.27l-24.91-1.8c.15,1.86-.26,4.3-.02,5.92.09.6.68.55,1.16.58-.19,2.63.02,9.48.41,12.1-.06,1.2.04,2.41.09,3.61l.54,13.01c.16,3.26-.59,3.32,2.59,3.48,1.59.08,3.23.1,4.81.33.16.86.47,1.71.7,2.56l3.83,14.34c1.05,3.75.33,2.94,4.19,2.96l56.24.04c5.84,0,4.35.74,5.32-5.57l1.51-9.99c.32-2.12.81-4.23.77-6.39ZM57.56,26.37c3.52-5.32,12.47-8.88,18.53-9.32,17.81-.17,30.19,17.07,23.17,33.65-1,2.36-2.45,4.54-3.72,6.76-3.07,5.34-5.54,13.42-.34,18.31-4.72-.05-9.61-2.63-11.8-6.91-2.56-3.79-1.86-10.47.31-14.24,5.76-.65,8.19-10.39,2.89-11.55-1.59-.35-2.9.37-4.19,1.2-8.69-2.03-16.39-6.99-22.06-13.88-1-1.21-2.15-2.58-2.77-4.02ZM56.43,58.26c.75.24,1.84.26,1.13.66-.88.37-1.08.45-1.13-.66ZM71.56,73.17l.04-.06c-.42-1.82-1.1-4.15-1.66-5.9.9-.39,4.19-1.7,4.62-2.48.24-.43.17-1.06-.32-1.28-1.3-.59-8.98,5.33-13.8,3.28-2.09-.89-2.72-3.77-3.49-5.67.79-.3,6.19-1.78,3.58-3.23-.83-.46-2.81-1.01-3.78-1.31.31-1.12.91-2.59.53-3.75-.61-.61-2.64-1.02-3.5-1.26.97-1.88,2.96-4.33,4.2-6.14.12-4.33-1.54-8.6,1.84-12.62.63.36,1.54,1.53,2.07,2.09,5.91,6.19,11.45,8.54,19.21,11.01-.49.61-1.43,1.83-.31,2.38,1.07.53,1.9-1.48,2.51-2.16,2.96-3.35,6.04.25,3.35,4.58-.7,1.13-1.66,1.83-2.95,2.13-.38-.22-.69-.44-1.1-.13-.85.65-2.28,5.63-2.5,7.24-.69,4.89.32,8.3,3.29,12.25-2.22,3.45-8.31,7.83-11.78,9.81-1.01.54-2.11,1.25-3.21,1.57.06-5.66.04-6.04,3.17-10.34ZM22.89,62.43c.13-.9.15-1.81.18-2.72,2.25.3,4.58.33,6.85.49l14.68,1.09c1.08.08,2.19.1,3.23.41.05.86-.01,1.72,0,2.58-2.18-.25-4.37-.34-6.55-.49l-12.62-.92c-1.92-.15-3.86-.24-5.77-.44ZM29.24,94.86c-1.35-.09-2.71-.14-4.06-.28,0-2.98-.23-5.98-.37-8.96l-.49-12.58c-.11-2.56-.48-6.17-.25-8.6,1.33,0,3,.18,4.35.27l14,.98c1.23.09,2.47.12,3.68.34-.45,2.64-.72,5.79-1,8.48,1.3.32,2.2.86,2.16,2.29-.03,1.15-.63,6.21-.94,6.94-.53,1.25-1.77,1.5-2.93.99-.36,1.72-.5,3.57-.69,5.32-.26,1.82-.46,3.66-.69,5.48-1.75.24-4.06-.13-5.87-.23l-6.91-.43ZM50.12,114.87h-12.69c-1.17-4.15-2.21-8.35-3.34-12.51l-.93-3.4c-.76-2.69-1-2.11,1.96-1.93,2.34.15,4.69.35,7.03.48,1.34.07,1.65-.79,1.71-1.98.27.25.36.77.51,1.1l3.95,8.31c1.5,3.22,2.76,6.32,1.8,9.94ZM101.01,98.77l-.66,4.39c-.61,3.9-1.22,7.8-1.74,11.71-2.17.08-4.37,0-6.54,0h-13.56c.22-2.06.63-4.12.99-6.16l2.26-13.28c.17-1,.28-2.03.64-2.99-2.03-2.31-2.22,1.24-2.4,2.36l-.64,3.9c-.56,3.53-1.16,7.08-1.83,10.59-.14,1.86-.67,3.71-.88,5.58h-24.63c.39-2.91.22-5.27-.81-8.03-.28-.75-.78-1.55-.88-2.35-.38-3.24,2.01-8.55,4.01-10.92,1.72-2.03,1.42-1,2.25-3.68,1.84-5.94,5.59-10.48,10.88-13.73-.59,1.91-1.95,9.63.25,9.63.7,0,1.96-.79,2.6-1.11,6.28-3.08,9.79-6.35,14.42-11.2,1.49,1.41,3.31,2.44,5.22,3.16.51.19,1.11.23,1.6.47,1.34.67,4.41,3.92,5.27,5.05,4.05,5.29,5.13,10.22,4.17,16.58Z"/>
  <line class="cls-2" x1="63.81" y1="46.73" x2="63.81" y2="46.73"/>
  <line class="cls-1" x1="61.17" y1="44" x2="67.59" y2="46.73"/>
</svg>