<?xml version="1.0" encoding="UTF-8"?>
<svg id="pictos" xmlns="http://www.w3.org/2000/svg" viewBox="0 0 128 128">
  <defs>
    <style>
      .cls-1 {
        stroke-width: 1.61px;
      }

      .cls-1, .cls-2, .cls-3 {
        fill: none;
        stroke: #000;
        stroke-miterlimit: 10;
      }

      .cls-2 {
        stroke-width: 1.82px;
      }

      .cls-3 {
        stroke-width: 2px;
      }
    </style>
  </defs>
  <g>
    <path class="cls-3" d="M23.36,89.73c14.64-7.88,25.61-10.01,30.27-9.39,8.35,1.13,11.35,5.05,16.94,5.77q6.66.87,11.36,1.67c4.44.76,5.92,9.07-.19,8.14-11.73-1.78-18.91,1.31-18.91,1.31"/>
    <path class="cls-3" d="M29.6,112.3c7.74-5.91,10.28-5.49,15.91-5.49s21.81,1.08,27.44.7c5.63-.38,9.31-5.07,17.61-8.45,3.79-1.54,5.85-6.29,8.02-9.4,1.75-2.5,3.65-4.97,7.67-8.45,3.64-3.15,1.03-7.13-3.47-4.88s-5.56,2.88-9.21,6.63c-4.59,4.7-8.61,7-8.61,7"/>
    <path class="cls-3" d="M81.1,87.49c5.17-5.99,7.33-4.04,10.51-7.84,3.63-4.34,7.27-4.51,11.42-7.78s10.97.39,3.72,4.17"/>
    <path class="cls-3" d="M74.05,86.57c6.02-6.26,8.32-3.76,11.44-7.07,2.53-2.69,5.59-3.09,8-5.89,3.32-3.87,8.19-3.08,8.12-1.08"/>
    <path class="cls-3" d="M68.78,85.76c4.64-4.83,9.7-5.66,12.88-8.87,3.59-3.62,8.54-3.38,8.97-.76"/>
  </g>
  <g>
    <rect class="cls-1" x="61.43" y="34.24" width="20.09" height="7.85" rx="3.92" ry="3.92" transform="translate(150.08 57.79) rotate(165.92)"/>
    <path d="M66.49,43.46l5.94-1.49-1.91-7.61-5.94,1.49c-2.1.53-3.38,2.66-2.85,4.76s2.66,3.38,4.76,2.85Z"/>
  </g>
  <g>
    <rect class="cls-2" x="50.46" y="53.22" width="22.76" height="8.89" rx="4.45" ry="4.45" transform="translate(24.01 -17.95) rotate(20.42)"/>
    <path d="M69.9,55.91l-6.5-2.42-3.1,8.34,6.5,2.42c2.3.86,4.86-.31,5.72-2.62s-.31-4.86-2.62-5.72Z"/>
  </g>
</svg>