<?xml version="1.0" encoding="UTF-8"?>
<svg id="pictos" xmlns="http://www.w3.org/2000/svg" viewBox="0 0 128 128">
  <defs>
    <style>
      .cls-1, .cls-2 {
        stroke-linecap: round;
      }

      .cls-1, .cls-2, .cls-3, .cls-4, .cls-5 {
        stroke: #000;
      }

      .cls-1, .cls-3, .cls-4, .cls-5 {
        fill: #fff;
      }

      .cls-1, .cls-6, .cls-5 {
        stroke-width: 2px;
      }

      .cls-1, .cls-5 {
        stroke-linejoin: round;
      }

      .cls-2 {
        fill: none;
      }

      .cls-2, .cls-7, .cls-6, .cls-4 {
        stroke-miterlimit: 10;
      }

      .cls-3 {
        stroke-linejoin: bevel;
      }

      .cls-7 {
        stroke-width: .74px;
      }

      .cls-7, .cls-6 {
        stroke: #fff;
      }
    </style>
  </defs>
  <rect class="cls-4" x="75.42" y="24.27" width="40.54" height="47.85"/>
  <rect class="cls-7" x="78.7" y="27.39" width="33.97" height="41.6"/>
  <g>
    <polygon class="cls-3" points="81.33 66.95 53.41 74.45 53.41 21.93 81.33 29.44 81.33 66.95"/>
    <polygon class="cls-3" points="53.41 21.93 50.66 23.07 50.66 73.32 53.41 74.45 53.41 21.93"/>
    <polygon class="cls-4" points="78.87 64.52 56.1 69.98 56.1 26.29 78.87 31.75 78.87 64.52"/>
  </g>
  <g>
    <circle class="cls-5" cx="33.85" cy="34.41" r="6.3"/>
    <g>
      <path class="cls-5" d="M38.66,56.51l9.39,3.88,8.63-1.6c1.46-.27,2.84.8,2.92,2.29h0c.07,1.16-.68,2.21-1.79,2.53l-10.89,3.11-8.3-2.67"/>
      <path class="cls-1" d="M18.74,114.5l4.31-19.28,1.95-21.13-.22-23.24c-.12-1.98.95-3.84,2.73-4.73h0c.92-.46,1.95-.62,2.96-.46l5.49.84,13.38,2.65c1.37.27,2.78.13,4.07-.4l11.03-4.56c1.58-.65,3.38.2,3.87,1.84h0c.41,1.36-.23,2.81-1.51,3.43l-14.58,7.06h-13.55l6.07,57.61h-6l-5.41-33.89-3.71,17.93-4.87,16.34h-6Z"/>
    </g>
  </g>
  <g>
    <g>
      <path class="cls-6" d="M87.39,64c-.91,0-1.75.35-2.53.92-1.36.99-2.57,2.64-3.79,4.55-1.83,2.86-3.67,6.34-5.76,9.06-1.04,1.36-2.15,2.53-3.32,3.35-1.18.82-2.41,1.29-3.76,1.29-.28,0-.5.22-.5.5s.22.5.5.5c2.44,0,4.5-1.3,6.27-3.15,2.67-2.78,4.83-6.84,6.9-10.2,1.03-1.67,2.05-3.17,3.06-4.21,1.01-1.05,1.99-1.62,2.94-1.62.28,0,.5-.22.5-.5s-.22-.5-.5-.5h0Z"/>
      <path class="cls-6" d="M94.82,64c-.91,0-1.75.35-2.53.92-1.36.99-2.57,2.64-3.79,4.55-1.83,2.86-3.67,6.34-5.76,9.06-1.04,1.36-2.15,2.53-3.32,3.35-1.18.82-2.41,1.29-3.76,1.29-.28,0-.5.22-.5.5s.22.5.5.5c2.44,0,4.5-1.3,6.27-3.15,2.67-2.78,4.83-6.84,6.9-10.2,1.03-1.67,2.05-3.17,3.06-4.21,1.01-1.05,1.99-1.62,2.94-1.62.28,0,.5-.22.5-.5s-.22-.5-.5-.5h0Z"/>
      <path class="cls-6" d="M102.25,64c-.91,0-1.75.35-2.53.92-1.36.99-2.57,2.64-3.79,4.55-1.83,2.86-3.67,6.34-5.76,9.06-1.04,1.36-2.15,2.53-3.32,3.35-1.18.82-2.41,1.29-3.76,1.29-.28,0-.5.22-.5.5s.22.5.5.5c2.44,0,4.5-1.3,6.27-3.15,2.67-2.78,4.83-6.84,6.9-10.2,1.03-1.67,2.05-3.17,3.06-4.21,1.01-1.05,1.99-1.62,2.94-1.62.28,0,.5-.22.5-.5s-.22-.5-.5-.5h0Z"/>
      <path class="cls-6" d="M109.68,64c-.91,0-1.75.35-2.53.92-1.36.99-2.57,2.64-3.79,4.55-1.83,2.86-3.67,6.34-5.76,9.06-1.04,1.36-2.15,2.53-3.32,3.35-1.18.82-2.41,1.29-3.76,1.29-.28,0-.5.22-.5.5s.22.5.5.5c2.44,0,4.5-1.3,6.27-3.15,2.67-2.78,4.83-6.84,6.9-10.2,1.03-1.67,2.05-3.17,3.06-4.21,1.01-1.05,1.99-1.62,2.94-1.62.28,0,.5-.22.5-.5s-.22-.5-.5-.5h0Z"/>
    </g>
    <g>
      <path class="cls-2" d="M87.33,64.5c-6.19,0-10.19,19.17-19.17,19.17"/>
      <path class="cls-2" d="M94.76,64.5c-6.19,0-10.19,19.17-19.17,19.17"/>
      <path class="cls-2" d="M102.19,64.5c-6.19,0-10.19,19.17-19.17,19.17"/>
      <path class="cls-2" d="M109.62,64.5c-6.19,0-10.19,19.17-19.17,19.17"/>
    </g>
  </g>
</svg>