<?xml version="1.0" encoding="UTF-8"?>
<svg id="pictos" xmlns="http://www.w3.org/2000/svg" viewBox="0 0 128 128">
  <defs>
    <style>
      .cls-1 {
        stroke-width: 1.13px;
      }

      .cls-1, .cls-2, .cls-3, .cls-4, .cls-5, .cls-6 {
        stroke: #000;
      }

      .cls-1, .cls-7, .cls-8, .cls-4 {
        stroke-miterlimit: 10;
      }

      .cls-1, .cls-5 {
        fill: none;
      }

      .cls-1, .cls-6 {
        stroke-linecap: round;
      }

      .cls-2, .cls-3, .cls-4, .cls-6 {
        fill: #fff;
      }

      .cls-2, .cls-6 {
        stroke-linejoin: round;
        stroke-width: 1.25px;
      }

      .cls-3, .cls-4 {
        stroke-width: .92px;
      }

      .cls-3, .cls-5 {
        stroke-linejoin: bevel;
      }

      .cls-7 {
        stroke-width: .68px;
      }

      .cls-7, .cls-8 {
        stroke: #fff;
      }

      .cls-8 {
        stroke-width: 2.25px;
      }
    </style>
  </defs>
  <rect class="cls-4" x="74.1" y="40.33" width="37.17" height="43.86"/>
  <rect class="cls-7" x="77.11" y="43.2" width="31.15" height="38.14"/>
  <g>
    <polygon class="cls-3" points="79.52 79.46 53.92 86.34 53.92 38.19 79.52 45.07 79.52 79.46"/>
    <polygon class="cls-3" points="53.92 38.19 51.4 39.23 51.4 85.3 53.92 86.34 53.92 38.19"/>
    <polygon class="cls-4" points="77.26 77.23 56.38 82.24 56.38 42.19 77.26 47.19 77.26 77.23"/>
  </g>
  <g>
    <g>
      <path class="cls-8" d="M85.25,76.76c-.73,0-1.41.56-2.03,1.45-1.09,1.57-2.07,4.17-3.05,7.19-1.47,4.52-2.95,10.01-4.64,14.31-.84,2.15-1.73,4-2.67,5.3-.95,1.29-1.94,2.03-3.03,2.04-.22,0-.4.35-.4.79s.18.79.4.79c1.96,0,3.62-2.06,5.05-4.97,2.15-4.38,3.88-10.81,5.55-16.1.83-2.64,1.65-5,2.46-6.65.81-1.66,1.6-2.56,2.36-2.55.22,0,.4-.35.4-.79s-.18-.79-.4-.79h0Z"/>
      <path class="cls-8" d="M91.23,76.76c-.73,0-1.41.56-2.03,1.45-1.09,1.57-2.07,4.17-3.05,7.19-1.47,4.52-2.95,10.01-4.64,14.31-.84,2.15-1.73,4-2.67,5.3-.95,1.29-1.94,2.03-3.03,2.04-.22,0-.4.35-.4.79s.18.79.4.79c1.96,0,3.62-2.06,5.05-4.97,2.15-4.38,3.88-10.81,5.55-16.1.83-2.64,1.65-5,2.46-6.65.81-1.66,1.6-2.56,2.36-2.55.22,0,.4-.35.4-.79s-.18-.79-.4-.79h0Z"/>
      <path class="cls-8" d="M97.2,76.76c-.73,0-1.41.56-2.03,1.45-1.09,1.57-2.07,4.17-3.05,7.19-1.47,4.52-2.95,10.01-4.64,14.31-.84,2.15-1.73,4-2.67,5.3-.95,1.29-1.94,2.03-3.03,2.04-.22,0-.4.35-.4.79s.18.79.4.79c1.96,0,3.62-2.06,5.05-4.97,2.15-4.38,3.88-10.81,5.55-16.1.83-2.64,1.65-5,2.46-6.65.81-1.66,1.6-2.56,2.36-2.55.22,0,.4-.35.4-.79s-.18-.79-.4-.79h0Z"/>
      <path class="cls-8" d="M103.18,76.76c-.73,0-1.41.56-2.03,1.45-1.09,1.57-2.07,4.17-3.05,7.19-1.47,4.52-2.95,10.01-4.64,14.31-.84,2.15-1.73,4-2.67,5.3-.95,1.29-1.94,2.03-3.03,2.04-.22,0-.4.35-.4.79s.18.79.4.79c1.96,0,3.62-2.06,5.05-4.97,2.15-4.38,3.88-10.81,5.55-16.1.83-2.64,1.65-5,2.46-6.65.81-1.66,1.6-2.56,2.36-2.55.22,0,.4-.35.4-.79s-.18-.79-.4-.79h0Z"/>
    </g>
    <g>
      <path class="cls-1" d="M85.2,77.55c-4.98,0-8.2,30.28-15.42,30.28"/>
      <path class="cls-1" d="M91.18,77.55c-4.98,0-8.2,30.28-15.42,30.28"/>
      <path class="cls-1" d="M97.16,77.55c-4.98,0-8.2,30.28-15.42,30.28"/>
      <path class="cls-1" d="M103.13,77.55c-4.98,0-8.2,30.28-15.42,30.28"/>
    </g>
  </g>
  <polygon class="cls-5" points="12 12 46.67 32.8 116 32.8 116 12 12 12"/>
  <polygon class="cls-5" points="12 116 116 116 116 95.2 46.61 95.2 12 116"/>
  <line class="cls-5" x1="12" y1="12" x2="12" y2="116"/>
  <line class="cls-5" x1="46.61" y1="95.2" x2="46.67" y2="32.8"/>
  <line class="cls-5" x1="116" y1="12" x2="116" y2="116"/>
  <g>
    <circle class="cls-2" cx="32.84" cy="51.48" r="5.1"/>
    <g>
      <path class="cls-2" d="M36.74,69.36l7.6,3.14,6.99-1.29c1.19-.22,2.29.65,2.37,1.85h0c.06.94-.55,1.79-1.45,2.04l-8.81,2.52-6.71-2.16"/>
      <path class="cls-6" d="M20.61,116.28l3.49-15.6,1.58-17.09-.17-18.8c-.1-1.6.77-3.11,2.2-3.83h0c.74-.37,1.58-.5,2.4-.38l4.44.68,10.83,2.14c1.1.22,2.25.11,3.29-.32l8.93-3.69c1.28-.53,2.73.16,3.13,1.49h0c.33,1.1-.19,2.28-1.22,2.78l-11.8,5.71h-10.96l4.91,46.61h-4.85l-4.38-27.42-3,14.5-3.94,13.22h-4.85Z"/>
    </g>
  </g>
</svg>