<?xml version="1.0" encoding="UTF-8"?>
<svg id="pictos" xmlns="http://www.w3.org/2000/svg" viewBox="0 0 128 128">
  <defs>
    <style>
      .cls-1 {
        fill: none;
        stroke-width: 3px;
      }

      .cls-1, .cls-2, .cls-3 {
        stroke: #000;
        stroke-linejoin: round;
      }

      .cls-2 {
        stroke-width: 2px;
      }

      .cls-2, .cls-3 {
        fill: #fff;
      }

      .cls-3 {
        stroke-width: 1.92px;
      }
    </style>
  </defs>
  <path class="cls-2" d="M30.74,76.79v-19.93c0-1.93,1.57-3.5,3.5-3.5h3.15c1.67,0,3.11,1.19,3.43,2.83l1.73,8.88,2.93,9.74,20.72,1.68c.65.1,1.26.39,1.76.83l16.71,18.2-3.26,4.1-16.96-13.02-29.88-.74-3.83-9.07Z"/>
  <circle class="cls-2" cx="38.02" cy="44.9" r="5.85"/>
  <path class="cls-2" d="M29,68.45v-15.09c0-3.31-2.68-5.98-5.98-5.98h-3.84c-3.31,0-5.98,2.68-5.98,5.98v48.89h50.69v-27.82c0-3.31-2.68-5.98-5.98-5.98h-28.89Z"/>
  <rect class="cls-3" x="95.78" y="73.01" width="19.03" height="20.72"/>
  <path class="cls-2" d="M106.21,70.59v-6.91h-3.07v6.91h0c-1.33,0-2.41,1.08-2.41,2.41h0s7.9,0,7.9,0h0c0-1.33-1.08-2.41-2.41-2.41h0Z"/>
  <path class="cls-2" d="M101.51,25.75h2.97c2.4,0,4.35,1.95,4.35,4.35v33c0,2.4-1.95,4.35-4.35,4.35h-2.97V25.75h0Z"/>
  <line class="cls-1" x1="98.6" y1="93.73" x2="98.6" y2="101.39"/>
  <line class="cls-1" x1="111.99" y1="93.73" x2="111.99" y2="101.39"/>
</svg>