<?xml version="1.0" encoding="UTF-8"?><svg xmlns="http://www.w3.org/2000/svg" viewBox="0 0 500 500"><defs><style>.cls-1{fill:#000;stroke:#fff;stroke-miterlimit:10;stroke-width:4px;}.cls-2{fill:#c6c6c6;mix-blend-mode:screen;opacity:.4;}.cls-2,.cls-3{stroke-width:0px;}.cls-4{fill:none;stroke:#424242;stroke-linecap:round;stroke-linejoin:round;stroke-width:3px;}.cls-5{isolation:isolate;}.cls-3{fill:#fff;}</style></defs><g class="cls-5"><g id="Capa_2"><path class="cls-2" d="M248.43,290l-43.93-25.36c-10.68-6.16-9.79-16.14,1.97-22.28h0c11.77-6.14,29.96-6.13,40.63.04l43.93,25.36c10.68,6.16,9.79,16.14-1.97,22.28h0c-11.77,6.14-29.96,6.13-40.63-.04Z"/><polygon class="cls-4" points="130.87 280.05 250.01 348.83 369.15 280.05 250.01 211.27 130.87 280.05"/><polygon class="cls-4" points="130.87 280.05 250.01 211.27 250.01 73.7 130.85 142.5 130.87 280.05"/><polygon class="cls-4" points="369.15 280.05 250.01 211.27 250.01 73.7 369.15 142.48 369.15 280.05"/><path class="cls-2" d="M317.07,244.45c-3.17,0-6.39-.71-9.42-2.2l-43.99-23.21c-7.32-3.6-11.96-11.05-11.96-19.2v-73.02c0-11.82,9.58-21.4,21.4-21.4s21.4,9.58,21.4,21.4v60.69l32.03,16.33c10.6,5.21,14.98,18.03,9.76,28.64-3.72,7.57-11.32,11.96-19.22,11.96Z"/><path class="cls-1" d="M272.75,272.27c-3.28,0-6.61-.73-9.75-2.28l-45.52-24.02c-7.58-3.72-12.37-11.43-12.37-19.87v-76.59c0-12.23,9.91-22.14,22.14-22.14s22.14,9.91,22.14,22.14v62.8l33.14,17.93c10.97,5.39,15.5,18.66,10.1,29.64-3.85,7.83-11.71,12.38-19.89,12.38Z"/><path class="cls-3" d="M357.74,395.5c-.17-.4-.5-.75-.94-.92-.87-.35-1.86.08-2.21.96l-11.82,29.9c-.92,2.51,2.75,3.9,3.73,1.43l2.69-7.22c.05,0,.11,0,.16,0,2.37-.14,4.74-.15,7.12-.17,2.37.02,4.74.03,7.12.17.07,0,.13-.01.19-.01l2.92,7.27c.42,1.04,1.61,1.53,2.64,1.1,1.02-.43,1.49-1.6,1.06-2.62l-12.66-29.89ZM350.67,415.72l5.56-14.88,5.97,14.87c-3.84.15-7.69.14-11.53,0Z"/><path class="cls-3" d="M420.64,396.06c-.03-1.76-2.51-2.42-3.4-.88l-13.25,21.55-13.46-21.55c-.89-1.48-3.29-.87-3.34.88l-1.64,30c-.06,1.11.8,2.06,1.91,2.11,1.1.05,2.04-.81,2.08-1.91l1.02-24.26,11.98,18.91c.64,1.05,2.28,1.06,2.91,0l11.75-18.75,1.02,24.1c.19,2.65,4.06,2.46,4-.19l-1.58-30Z"/><path class="cls-3" d="M320.54,412.96c.56-.14,1.12-.32,1.67-.55,4.95-1.89,7.25-8.35,4.56-12.94-1.86-3.45-5.78-4.98-9.5-4.98-.31,0-.62.01-.93.03-1.31.01-4.74.04-6.1.05-.02,0-.03,0-.05,0-.96,0-1.75.78-1.75,1.74l-.26,29.31c.04,1.31,1.02,1.96,1.99,1.96s1.99-.67,2.01-2l-.24-27.53,2.28.02c.67,0,2.42.02,3.07.02,8.69.12,8.89,11.24.14,11.61-1.35.01-2.22,1.62-1.48,2.75l9.03,14.58c.43.66,1.03.93,1.61.93,1.36,0,2.65-1.48,1.7-3.03l-7.75-11.99Z"/><path class="cls-3" d="M278.5,398.9c3.38,0,6.42,1.36,8.64,3.58.78.78,2.05.78,2.83,0s.78-2.05,0-2.83h0c-2.93-2.92-6.99-4.74-11.47-4.74-8.98,0-16.25,7.28-16.25,16.25,0,8.98,7.28,16.25,16.25,16.25,4.47,0,8.53-1.82,11.47-4.74.38-.38.59-.88.59-1.42v-6.55c0-1.1-.9-2-2-2s-2,.9-2,2v5.67c-2.16,1.89-4.96,3.04-8.05,3.04-3.39,0-6.44-1.37-8.66-3.59-2.22-2.22-3.59-5.27-3.59-8.66,0-3.39,1.37-6.44,3.59-8.66,2.22-2.22,5.27-3.59,8.66-3.59Z"/><path class="cls-3" d="M94.53,424.24l-12.63-.27-.13-26.94c0-1.1-.91-2-2.01-1.99s-2,.91-1.99,2.01h0l.15,30.83,16.52.35c1.1.02,2.02-.85,2.04-1.96.02-1.1-.85-2.02-1.96-2.04Z"/><path class="cls-3" d="M130.23,399.14c1.1,0,2-.89,2-2,0-1.1-.89-2-2-2h0l-21.33-.02.03,33.03h21.3c1.1,0,2-.9,2-2s-.9-2-2-2h-17.31s0-10.52,0-10.52h12.5c1.1,0,2-.9,2-2s-.9-2-2-2h-12.5v-10.52s17.32.01,17.32.01Z"/><path class="cls-3" d="M206.86,395.12h-10.72s0,0,0,0,0,0,0,0h-10.72c-1.1,0-2,.9-2,2s.9,2,2,2h8.72v27.05c0,1.1.9,2,2,2s2-.9,2-2v-27.05h8.72c1.1,0,2-.9,2-2s-.9-2-2-2Z"/><path class="cls-3" d="M232.21,395.1c-9.14,0-16.54,7.41-16.54,16.54,0,9.14,7.41,16.54,16.54,16.54,9.14,0,16.54-7.41,16.54-16.54,0-9.14-7.41-16.54-16.54-16.54ZM241.07,420.51c-2.28,2.27-5.4,3.67-8.87,3.67-3.47,0-6.59-1.4-8.87-3.67-2.27-2.28-3.67-5.4-3.67-8.87,0-3.47,1.4-6.59,3.67-8.87,2.28-2.27,5.4-3.67,8.87-3.67,3.47,0,6.59,1.4,8.87,3.67,2.27,2.28,3.67,5.4,3.67,8.87,0,3.47-1.4,6.59-3.67,8.87Z"/><path class="cls-3" d="M160.47,399.04c3.48,0,6.6,1.4,8.89,3.68.78.78,2.05.78,2.83,0,.78-.78.78-2.05,0-2.83h0c-3-2.99-7.15-4.85-11.71-4.84-9.17,0-16.6,7.43-16.6,16.6,0,9.17,7.43,16.6,16.6,16.6,4.57,0,8.72-1.86,11.71-4.84.78-.78.78-2.05,0-2.83-.78-.78-2.05-.78-2.83,0-2.29,2.28-5.42,3.68-8.89,3.68-3.49,0-6.63-1.41-8.91-3.69-2.28-2.29-3.69-5.43-3.69-8.91,0-3.49,1.41-6.63,3.69-8.91,2.29-2.28,5.43-3.69,8.91-3.69Z"/></g></g></svg>