<?xml version="1.0" encoding="UTF-8"?><svg id="Capa_2" xmlns="http://www.w3.org/2000/svg" viewBox="0 0 100 100"><defs><style>.cls-1{fill:#fff;stroke-width:0px;}</style></defs><path class="cls-1" d="M57.21,54.01c-.13-.3-.37-.55-.7-.68-.66-.26-1.4.05-1.67.71l-5.46,13.58c-.71,1.87,2.08,2.94,2.8,1.08l1.07-2.92c1.95-.14,3.91-.14,5.86,0l1.18,3c.81,1.8,3.5.63,2.76-1.19l-5.85-13.57ZM56.18,62.92c-.62,0-1.24-.01-1.85-.04l1.76-4.8,1.9,4.8c-.6.02-1.2.03-1.8.04Z"/><path class="cls-1" d="M83.37,53.77l-5.57,9.13-5.67-9.12c-.66-1.11-2.47-.66-2.5.66l-.81,13.69c-.04,1.98,2.89,2.08,3,.11l.35-9.34,4.55,7.14c.1.15.24.3.4.4.6.38,1.4.2,1.78-.41l4.43-7.03.36,9.23c.12,1.99,3.07,1.84,3-.14l-.77-13.66c-.02-1.32-1.88-1.82-2.55-.66Z"/><path class="cls-1" d="M40.54,62.46c2.37-1.14,3.79-4.06,2.32-6.69-.87-1.72-2.86-2.59-4.72-2.59h0s-.09,0-.15,0c-.14,0-.32,0-.5,0-.18,0-.36,0-.52,0-.09,0-.16,0-.22,0h-1.84s-.06.01-.06.01c-.76,0-1.36.62-1.36,1.38l.07,13.33c.02.85.66,1.28,1.3,1.28s1.29-.43,1.31-1.28l.07-11.95c.55,0,1.09,0,1.39,0,.22,0,.63,0,.82.04,1.73.06,2.71,1.77,1.79,3.13-.41.55-1.13.9-2.07.9-.26,0-.53.07-.76.22-.69.43-.89,1.34-.44,2.02l4.14,6.62c.28.46.77.71,1.27.71.28,0,.56-.08.81-.24.7-.45.9-1.37.46-2.07l-3.09-4.83Z"/><path class="cls-1" d="M25.26,61.44c-.83,0-1.5.67-1.5,1.5v2.28c-.85.67-1.91,1.09-3.08,1.09-1.38,0-2.62-.56-3.53-1.46-.9-.91-1.46-2.14-1.46-3.53,0-1.38.56-2.62,1.46-3.53.91-.9,2.14-1.46,3.53-1.46,1.38,0,2.61.55,3.52,1.46.59.58,1.54.58,2.12,0,.58-.59.58-1.54,0-2.12h0c-1.44-1.44-3.44-2.33-5.64-2.33-4.41,0-7.99,3.58-7.99,7.99,0,4.41,3.58,7.99,7.99,7.99,2.2,0,4.2-.89,5.64-2.33.28-.28.44-.66.44-1.06v-2.98c0-.83-.67-1.5-1.5-1.5Z"/><path class="cls-1" d="M21.4,45.85c.83.02,1.51-.64,1.53-1.47.02-.83-.64-1.51-1.47-1.53l-4.78-.1-.05-10.91c0-.83-.68-1.5-1.51-1.49-.83,0-1.5.68-1.49,1.51l.07,13.83,7.7.17Z"/><path class="cls-1" d="M37.82,44.31c0-.83-.67-1.5-1.5-1.5h-5.88s0-3.22,0-3.22h3.82c.83,0,1.5-.67,1.5-1.5s-.67-1.5-1.5-1.5h-3.83v-3.22s5.89,0,5.89,0c.83,0,1.5-.67,1.5-1.5,0-.83-.67-1.5-1.5-1.5h0s-8.9,0-8.9,0v15.44h8.89c.83,0,1.5-.67,1.5-1.5Z"/><path class="cls-1" d="M70.22,31.87c0-.83-.67-1.5-1.5-1.5h-4.59s0,0,0,0,0,0,0,0h-4.59c-.83,0-1.5.67-1.5,1.5s.67,1.5,1.5,1.5h3.09v10.94c0,.83.67,1.5,1.5,1.5s1.5-.67,1.5-1.5v-10.94h3.09c.83,0,1.5-.67,1.5-1.5Z"/><path class="cls-1" d="M79.58,45.82c4.27,0,7.73-3.46,7.73-7.73,0-4.27-3.46-7.73-7.73-7.73-4.27,0-7.73,3.46-7.73,7.73,0,4.27,3.46,7.73,7.73,7.73ZM76.24,34.75c.86-.86,2.03-1.38,3.34-1.39,1.31,0,2.48.53,3.34,1.39.86.86,1.38,2.03,1.39,3.34,0,1.31-.53,2.48-1.39,3.34-.86.86-2.03,1.38-3.34,1.39-1.31,0-2.48-.53-3.34-1.39-.86-.86-1.38-2.03-1.39-3.34,0-1.31.53-2.48,1.39-3.34Z"/><path class="cls-1" d="M54.33,41.47c-.58-.59-1.53-.59-2.12,0-.87.86-2.04,1.39-3.35,1.39-1.32,0-2.5-.53-3.36-1.39-.86-.87-1.39-2.04-1.39-3.36,0-1.32.53-2.5,1.39-3.36.87-.86,2.04-1.39,3.36-1.39,1.31,0,2.49.53,3.35,1.39.59.58,1.54.58,2.12,0,.58-.59.58-1.54,0-2.12h0c-1.4-1.39-3.34-2.26-5.47-2.26-4.28,0-7.75,3.47-7.76,7.76,0,4.28,3.47,7.75,7.76,7.76,2.13,0,4.08-.87,5.47-2.26.59-.58.59-1.53,0-2.12Z"/></svg>