<?xml version="1.0" encoding="UTF-8"?><svg id="Capa_2" xmlns="http://www.w3.org/2000/svg" viewBox="0 0 401.31 100"><defs><style>.cls-1{fill:#000;}.cls-1,.cls-2{stroke-width:0px;}.cls-2{fill:#fff;}</style></defs><rect class="cls-1" x="10.75" y="13.23" width="379.81" height="73.55" rx="11.26" ry="11.26"/><path class="cls-2" d="M304.04,33.46c-.17-.4-.5-.74-.94-.92-.87-.35-1.86.08-2.21.96l-11.47,29.01c-.92,2.51,2.75,3.9,3.73,1.43l2.6-6.96s.08,0,.12,0c4.6-.23,9.21-.22,13.81,0,.05,0,.1,0,.15,0l2.81,7.01c.42,1.04,1.61,1.53,2.64,1.1,1.02-.43,1.49-1.61,1.06-2.62l-12.29-29ZM302.77,53.15c-1.85-.01-3.7-.04-5.55-.12l5.31-14.23,5.71,14.24c-1.83.07-3.65.1-5.48.11Z"/><path class="cls-2" d="M365.09,34.02c-.03-1.76-2.51-2.42-3.4-.88l-12.81,20.85-13.01-20.84c-.89-1.48-3.29-.87-3.34.88l-1.6,29.11c-.06,1.11.8,2.06,1.91,2.11,1.1.05,2.04-.81,2.08-1.91l.98-23.37,11.54,18.2c.13.21.32.4.54.54.81.5,1.87.26,2.37-.55l11.31-18.04.97,23.21c.18,2.65,4.06,2.46,4-.19l-1.54-29.11Z"/><path class="cls-2" d="M267.99,50.46c.52-.13,1.04-.3,1.55-.52,4.83-1.84,7.08-8.15,4.45-12.64-1.82-3.37-5.64-4.85-9.26-4.85-.31,0-.61.01-.91.03-1.27.01-4.6.04-5.92.05-.02,0-.03,0-.05,0-.96,0-1.75.77-1.76,1.74l-.26,28.45c.05,1.31,1.02,1.96,1.99,1.96s1.99-.67,2.01-2l-.24-26.66h2.16c.65.02,2.35.03,2.98.04,8.36.12,8.54,10.8.14,11.16-1.35.01-2.22,1.62-1.48,2.75l8.76,14.15c.43.66,1.03.93,1.61.93,1.36,0,2.65-1.48,1.7-3.03l-7.48-11.57Z"/><path class="cls-2" d="M227.11,36.84c3.26,0,6.2,1.32,8.34,3.45.78.78,2.05.78,2.83,0,.78-.78.78-2.05,0-2.83h0c-2.85-2.85-6.81-4.62-11.17-4.62-8.74,0-15.83,7.09-15.83,15.83,0,8.74,7.09,15.83,15.83,15.83,4.36,0,8.31-1.77,11.17-4.62.38-.38.59-.88.59-1.42v-6.36c0-1.1-.9-2-2-2s-2,.9-2,2v5.48c-2.08,1.81-4.78,2.92-7.76,2.92-3.27,0-6.22-1.32-8.36-3.46-2.14-2.15-3.46-5.09-3.46-8.36,0-3.27,1.32-6.22,3.46-8.36,2.15-2.14,5.09-3.46,8.36-3.46Z"/><path class="cls-2" d="M48.6,61.31l-12.2-.26-.13-26.08c0-1.1-.91-2-2.01-1.99s-2,.91-1.99,2.01l.14,29.98,16.09.34c1.1.02,2.02-.85,2.04-1.96.02-1.1-.85-2.02-1.96-2.04Z"/><path class="cls-2" d="M83.23,37.07c1.1,0,2-.89,2-2,0-1.1-.89-2-2-2h0s-20.76-.01-20.76-.01l.02,32.17h20.73c1.1,0,2-.9,2-2s-.9-2-2-2h-16.74s0-10.09,0-10.09h12.07c1.1,0,2-.9,2-2s-.9-2-2-2h-12.07v-10.08s16.74.01,16.74.01Z"/><path class="cls-2" d="M157.6,33.05h-20.8c-1.1,0-2,.9-2,2s.9,2,2,2h8.4v26.19c0,1.1.9,2,2,2s2-.9,2-2v-26.19h8.4c1.1,0,2-.9,2-2s-.9-2-2-2Z"/><path class="cls-2" d="M182.19,33.03c-8.9,0-16.11,7.21-16.11,16.11,0,8.9,7.21,16.11,16.11,16.11,8.9,0,16.11-7.21,16.11-16.11,0-8.9-7.21-16.11-16.11-16.11ZM190.75,57.7c-2.2,2.19-5.21,3.55-8.56,3.55-3.35,0-6.37-1.35-8.56-3.55-2.19-2.2-3.55-5.21-3.55-8.56,0-3.35,1.35-6.37,3.55-8.56,2.2-2.19,5.21-3.55,8.56-3.55,3.35,0,6.37,1.35,8.56,3.55,2.19,2.2,3.55,5.21,3.55,8.56,0,3.35-1.35,6.37-3.55,8.56Z"/><path class="cls-2" d="M112.58,36.97c3.36,0,6.38,1.35,8.59,3.55.78.78,2.05.78,2.83,0,.78-.78.78-2.05,0-2.83h0c-2.92-2.91-6.96-4.72-11.41-4.72-8.93,0-16.17,7.24-16.17,16.17,0,8.93,7.24,16.17,16.17,16.17,4.45,0,8.49-1.81,11.41-4.72.78-.78.78-2.05,0-2.83-.78-.78-2.05-.78-2.83,0-2.21,2.2-5.23,3.55-8.59,3.55-3.37,0-6.4-1.36-8.61-3.57-2.21-2.21-3.56-5.24-3.56-8.61,0-3.37,1.36-6.4,3.56-8.61,2.21-2.21,5.24-3.56,8.61-3.57Z"/></svg>