<?xml version="1.0" encoding="UTF-8"?><svg xmlns="http://www.w3.org/2000/svg" viewBox="0 0 218.49 218.49"><defs><style>.cls-1{fill:#fff;stroke:#000;stroke-miterlimit:10;stroke-width:4px;}.cls-2{fill:none;stroke:#c6c6c6;stroke-linecap:round;stroke-linejoin:round;stroke-width:3px;}.cls-3{isolation:isolate;}.cls-4{fill:#c6c6c6;mix-blend-mode:multiply;opacity:.4;stroke-width:0px;}</style></defs><g class="cls-3"><g id="Capa_2"><path class="cls-4" d="M106.48,164.74l-31.94-18.44c-7.76-4.48-7.12-11.73,1.43-16.2h0c8.55-4.47,21.78-4.45,29.54.03l31.94,18.44c7.76,4.48,7.12,11.73-1.43,16.2h0c-8.55,4.47-21.78,4.45-29.54-.03Z"/><polygon class="cls-2" points="21.03 157.51 107.63 207.51 194.23 157.51 107.63 107.51 21.03 157.51"/><polygon class="cls-2" points="21.03 157.51 107.63 107.51 107.63 7.51 21.01 57.52 21.03 157.51"/><polygon class="cls-2" points="194.23 157.51 107.63 107.51 107.63 7.51 194.23 57.51 194.23 157.51"/><path class="cls-4" d="M156.31,131.65c-2.28,0-4.6-.51-6.78-1.58l-31.2-18.02c-5.27-2.59-8.61-7.95-8.61-13.82l-.47-51.46c0-8.51,6.9-15.4,15.4-15.4s15.4,6.9,15.4,15.4v43.7l23.06,11.96c7.64,3.75,10.78,12.98,7.03,20.62-2.68,5.45-8.15,8.61-13.84,8.61Z"/><path class="cls-1" d="M124.16,151.85c-2.38,0-4.8-.53-7.09-1.65l-33.09-17.46c-5.51-2.71-9-8.31-9-14.44v-55.68c0-8.89,7.21-16.09,16.09-16.09s16.09,7.21,16.09,16.09v45.65l24.09,13.04c7.98,3.92,11.27,13.57,7.34,21.54-2.8,5.69-8.51,9-14.46,9Z"/></g></g></svg>